<svg width="30" height="30" viewBox="0 0 30 30" fill="none" xmlns="http://www.w3.org/2000/svg">
<path d="M26.25 13.75V11.25H23.75V8.75C23.748 8.08757 23.484 7.45283 23.0156 6.98442C22.5472 6.51601 21.9124 6.25198 21.25 6.25H18.75V3.75H16.25V6.25H13.75V3.75H11.25V6.25H8.75C8.08757 6.25198 7.45283 6.51601 6.98442 6.98442C6.51601 7.45283 6.25198 8.08757 6.25 8.75V11.25H3.75V13.75H6.25V16.25H3.75V18.75H6.25V21.25C6.25198 21.9124 6.51601 22.5472 6.98442 23.0156C7.45283 23.484 8.08757 23.748 8.75 23.75H11.25V26.25H13.75V23.75H16.25V26.25H18.75V23.75H21.25C21.9124 23.748 22.5472 23.484 23.0156 23.0156C23.484 22.5472 23.748 21.9124 23.75 21.25V18.75H26.25V16.25H23.75V13.75H26.25ZM21.25 21.25H8.75V8.75H21.25V21.25Z" fill="black"/>
<path d="M14.2011 10H12.5198L10.0073 20H11.2911L11.8711 17.6562H14.7661L15.3311 20H16.6586L14.2011 10ZM12.0398 16.655L13.3123 11.1875H13.3698L14.5986 16.655H12.0398ZM17.8048 10H19.0548V20H17.8048V10Z" fill="black"/>
</svg>
