<svg width="65" height="65" viewBox="0 0 65 65" fill="none" xmlns="http://www.w3.org/2000/svg">
<path d="M36.2653 34.1009L31.556 38.8102C31.3071 39.0591 31.1916 39.356 31.2093 39.7009C31.2253 40.0458 31.3587 40.3436 31.6093 40.5942C31.8582 40.8431 32.1667 40.9676 32.5347 40.9676C32.9027 40.9676 33.2049 40.8431 33.4413 40.5942L39.7613 34.2742C40.1933 33.844 40.4093 33.3418 40.4093 32.7676C40.4093 32.1934 40.1933 31.6911 39.7613 31.2609L33.3933 24.8902C33.1444 24.6414 32.8467 24.5169 32.5 24.5169C32.1533 24.5169 31.8564 24.6414 31.6093 24.8902C31.3622 25.1391 31.2369 25.4485 31.2333 25.8182C31.2298 26.188 31.3542 26.4902 31.6067 26.7249L36.2653 31.4342H24.5C24.1213 31.4342 23.8049 31.5622 23.5507 31.8182C23.2964 32.0742 23.1684 32.3916 23.1667 32.7702C23.1649 33.1489 23.2929 33.4654 23.5507 33.7196C23.8084 33.9738 24.1249 34.1009 24.5 34.1009H36.2653ZM32.508 56.7676C29.1907 56.7676 26.0707 56.1382 23.148 54.8796C20.2271 53.6191 17.6858 51.9089 15.524 49.7489C13.3622 47.5889 11.6511 45.0502 10.3907 42.1329C9.13022 39.2156 8.5 36.0965 8.5 32.7756C8.5 29.4547 9.13022 26.3347 10.3907 23.4156C11.6493 20.4947 13.3569 17.9534 15.5133 15.7916C17.6698 13.6298 20.2093 11.9187 23.132 10.6582C26.0547 9.3978 29.1747 8.76758 32.492 8.76758C35.8093 8.76758 38.9293 9.3978 41.852 10.6582C44.7729 11.9169 47.3142 13.6254 49.476 15.7836C51.6378 17.9418 53.3489 20.4814 54.6093 23.4022C55.8698 26.3231 56.5 29.4422 56.5 32.7596C56.5 36.0769 55.8707 39.1969 54.612 42.1196C53.3533 45.0422 51.6431 47.5836 49.4813 49.7436C47.3196 51.9036 44.7809 53.6147 41.8653 54.8769C38.9498 56.1391 35.8307 56.7694 32.508 56.7676ZM23.132 45.8247C29.0876 45.8247 43.5 52.0342 47.6333 47.9009C51.7667 43.7676 46.5 44.2231 46.5 38.2676C46.5 32.312 30.1333 18.9009 26 14.7676C21.8667 10.6342 38.4556 11.4342 32.5 11.4342C26.5444 11.4342 53.6093 41.6914 49.476 45.8247C45.3427 49.9581 48.5 42.812 48.5 48.7676C48.5 54.7231 42.3667 45.6156 46.5 49.7489C50.6333 53.8822 17.1764 45.8247 23.132 45.8247Z" fill="#262626"/>
</svg>
