<svg width="30" height="30" viewBox="0 0 30 30" fill="none" xmlns="http://www.w3.org/2000/svg">
<path d="M24.0625 7.8125C24.0625 10.2287 20.005 12.1875 15 12.1875C9.995 12.1875 5.9375 10.2287 5.9375 7.8125M24.0625 7.8125C24.0625 5.39625 20.005 3.4375 15 3.4375C9.995 3.4375 5.9375 5.39625 5.9375 7.8125M24.0625 7.8125V15M5.9375 7.8125V15M24.0625 15V22.1875C24.0625 24.6037 20.005 26.5625 15 26.5625C9.995 26.5625 5.9375 24.6037 5.9375 22.1875V15M24.0625 15C24.0625 17.4162 20.005 19.375 15 19.375C9.995 19.375 5.9375 17.4162 5.9375 15" stroke="white" stroke-opacity="0.4" stroke-width="2" stroke-linecap="round" stroke-linejoin="round"/>
</svg>
