<svg width="30" height="30" viewBox="0 0 30 30" fill="none" xmlns="http://www.w3.org/2000/svg">
<path d="M15 27.5C21.9036 27.5 27.5 21.9036 27.5 15C27.5 8.09644 21.9036 2.5 15 2.5C8.09644 2.5 2.5 8.09644 2.5 15C2.5 21.9036 8.09644 27.5 15 27.5Z" stroke="white" stroke-opacity="0.4" stroke-width="2" stroke-linecap="round" stroke-linejoin="round"/>
<path d="M8.125 25.625L9.8825 19.0338C10.24 17.6963 10.4175 17.0263 10.9238 16.6375C11.43 16.2488 12.1213 16.25 13.5063 16.25H16.4937C17.8787 16.25 18.5712 16.25 19.0762 16.6375C19.5825 17.0263 19.76 17.695 20.1175 19.0338L21.875 25.625" stroke="white" stroke-opacity="0.4" stroke-width="2" stroke-linecap="round" stroke-linejoin="round"/>
<path d="M11.875 16.25L13.8462 11.7013C14.3375 10.5675 14.5837 10 15 10C15.4163 10 15.6625 10.5675 16.1538 11.7013L18.125 16.25" stroke="white" stroke-opacity="0.4" stroke-width="2" stroke-linecap="round" stroke-linejoin="round"/>
</svg>
