<svg width="96" height="96" viewBox="0 0 96 96" fill="none" xmlns="http://www.w3.org/2000/svg">
<path d="M90.5102 69.1023C90.1448 68.4196 89.4834 68.0024 88.7525 68.0024H86.2116V39.481C87.5343 38.1915 88.3696 36.333 88.3696 34.266V31.8386C88.3696 31.649 88.2826 31.4025 88.1782 31.2508L86.2116 28.539V22.2051C86.2116 19.7588 84.3843 17.7676 82.1393 17.7676H14.1276C11.8826 17.7676 10.0553 19.7588 10.0553 22.2051V28.52L8.07132 31.2508C7.98431 31.4025 7.89729 31.649 7.89729 31.8386V34.247C7.89729 36.3141 8.73264 38.1725 10.0553 39.481V68.0024H7.51442C6.78349 68.0024 6.13957 68.4196 5.7741 69.1023C5.40863 69.804 5.40863 70.6194 5.7741 71.3021L6.47023 72.6106C8.55861 76.4981 12.3873 78.8876 16.5119 78.8876H79.7551C83.897 78.8876 87.7083 76.4981 89.7967 72.6106L90.4928 71.3021C90.8583 70.6384 90.8757 69.8229 90.5102 69.1023ZM86.6293 32.7868V34.247C86.6293 37.0916 84.4887 39.4241 81.8783 39.4241C79.2504 39.4241 77.1272 37.0916 77.1272 34.247V32.7868H86.6293ZM11.7956 68.0214V40.7136C12.5265 41.074 13.3271 41.2636 14.1624 41.2826V64.4752C14.1624 65.0061 14.5453 65.4233 15.0326 65.4233H81.2517C81.7216 65.4233 82.1219 65.0061 82.1219 64.4752V41.2826C82.9572 41.2446 83.7404 41.055 84.4713 40.7136V68.0024H11.7956V68.0214ZM60.0895 69.9177L59.2541 72.3641H37.0302L36.1775 69.9177H60.0895ZM32.4706 30.8905L34.559 24.1394H42.4252L41.7291 30.8905H32.4706ZM41.6421 32.7868V34.247C41.6421 37.0916 39.5015 39.4241 36.891 39.4241C34.2631 39.4241 32.1225 37.0916 32.1225 34.247V32.7868H41.6421ZM30.6259 30.8905H21.5066L24.9872 24.1394H32.7316L30.6259 30.8905ZM30.3822 32.7868V34.247C30.3822 37.0916 28.259 39.4241 25.6311 39.4241C23.0207 39.4241 20.8801 37.0916 20.8801 34.247V32.7868H30.3822ZM25.6311 41.3205C28.0502 41.3205 30.1386 39.8413 31.2524 37.7174C32.3836 39.8413 34.472 41.3205 36.891 41.3205C39.2926 41.3205 41.381 39.8413 42.5122 37.7174C43.626 39.8413 45.7144 41.3205 48.1335 41.3205C50.5525 41.3205 52.6409 39.8413 53.7547 37.7174C54.8685 39.8413 56.9569 41.3205 59.3759 41.3205C61.795 41.3205 63.8833 39.8413 64.9972 37.7174C66.1284 39.8413 68.2167 41.3205 70.6184 41.3205C73.0374 41.3205 75.1258 39.8413 76.257 37.7174C77.1272 39.3862 78.6064 40.6378 80.3816 41.1119V63.527H15.9028V41.0929C17.6605 40.6378 19.1397 39.3862 20.0099 37.7174C21.1237 39.8413 23.2121 41.3205 25.6311 41.3205ZM52.8845 32.7868V34.247C52.8845 37.0916 50.7439 39.4241 48.1335 39.4241C45.5056 39.4241 43.3824 37.0916 43.3824 34.247V32.7868H52.8845ZM43.4868 30.8905L44.1829 24.1394H52.084L52.7801 30.8905H43.4868ZM65.6237 30.8905L63.5353 24.1394H71.2623L74.7603 30.8905H65.6237ZM75.3869 32.7868V34.247C75.3869 37.0916 73.2463 39.4241 70.6184 39.4241C68.0079 39.4241 65.8673 37.0916 65.8673 34.247V32.7868H75.3869ZM63.7963 30.8905H54.5378L53.8417 24.1394H61.6906L63.7963 30.8905ZM64.127 32.7868V34.247C64.127 37.0916 62.0038 39.4241 59.3759 39.4241C56.7654 39.4241 54.6249 37.0916 54.6249 34.247V32.7868H64.127ZM85.7069 30.8905H76.7617L73.2637 24.1394H80.8167L85.7069 30.8905ZM11.7956 22.2051C11.7956 20.8018 12.8398 19.6639 14.1276 19.6639H82.1567C83.4271 19.6639 84.4713 20.8018 84.4713 22.2051V26.1306L81.9131 22.6033C81.7564 22.3758 81.5128 22.243 81.2343 22.243H15.0152C14.7541 22.243 14.5105 22.3758 14.3365 22.6033L11.7956 26.1116V22.2051ZM15.4503 24.1394H22.9859L19.5052 30.8905H10.56L15.4503 24.1394ZM9.63761 34.266V32.7868H19.1397V34.247C19.1397 37.0916 16.9992 39.4241 14.3887 39.4241C11.7608 39.4241 9.63761 37.1105 9.63761 34.266ZM88.9962 70.3539L88.3 71.6434C86.5249 74.9431 83.2531 76.9912 79.7551 76.9912H16.5293C13.0138 76.9912 9.74203 74.9431 7.98431 71.6434L7.27077 70.3539C7.20116 70.2212 7.25337 70.1074 7.27077 70.0505C7.30558 69.9936 7.37519 69.8988 7.51442 69.8988H34.3327L35.6032 73.6157C35.7424 73.9949 36.0556 74.2415 36.4211 74.2415H59.8458C60.2113 74.2415 60.5419 73.9949 60.6638 73.6157L61.9516 69.8988H88.7525C88.8917 69.8988 88.9613 69.9936 88.9962 70.0505C89.031 70.1074 89.0658 70.2212 88.9962 70.3539Z" fill="#262626"/>
<path d="M56.9222 52.1679L57.7576 51.5421C58.036 51.3335 58.1752 50.9542 58.1056 50.5939C58.036 50.2336 57.7924 49.9302 57.4443 49.8543L50.6049 48.0907C50.309 48.0148 49.9958 48.1096 49.7695 48.3562C49.5433 48.6027 49.4737 48.944 49.5607 49.2664L51.3706 56.5106C51.4576 56.8709 51.7361 57.1364 52.0667 57.1933C52.3974 57.2501 52.7281 57.0984 52.9369 56.814L53.5112 55.9227L56.1391 58.7862C56.3131 58.9758 56.5394 59.0707 56.7482 59.0707C56.9744 59.0707 57.2007 58.9758 57.3573 58.7862L59.5327 56.4157C59.6893 56.2451 59.7937 55.9985 59.7937 55.752C59.7937 55.5055 59.7067 55.259 59.5327 55.0883L56.9222 52.1679ZM56.7656 56.7192L54.0333 53.7419C53.8767 53.5712 53.6504 53.4574 53.4242 53.4574C53.4068 53.4574 53.372 53.4574 53.3546 53.4574C53.0935 53.4764 52.8673 53.6281 52.7106 53.8556L52.5888 54.0263L51.6491 50.2715L55.1819 51.1818L55.0949 51.2576C54.886 51.4093 54.7468 51.6748 54.7294 51.9593C54.712 52.2437 54.799 52.5092 54.9731 52.7178L57.7054 55.6951L56.7656 56.7192Z" fill="#262626"/>
<path d="M44.5658 44.2597H28.9203L28.6245 43.4063C28.2416 42.3254 27.267 41.6048 26.2054 41.6048H23.125C22.6378 41.6048 22.2549 42.022 22.2549 42.553C22.2549 43.084 22.6378 43.5012 23.125 43.5012H26.2054C26.5535 43.5012 26.8667 43.7477 26.9886 44.089L31.2697 56.2068C31.5482 56.9844 32.2095 57.4964 32.9578 57.5722C32.749 57.9515 32.5924 58.3877 32.5924 58.8618C32.5924 60.2651 33.6366 61.4219 34.9418 61.4219C36.2296 61.4219 37.2912 60.2651 37.2912 58.8618C37.2912 58.3877 37.152 57.9705 36.9432 57.6102H40.0409C39.8321 57.9894 39.6929 58.4066 39.6929 58.8618C39.6929 60.2651 40.7371 61.4219 42.0423 61.4219C43.3301 61.4219 44.3917 60.2651 44.3917 58.8618C44.3917 58.1411 44.1133 57.5153 43.6956 57.0412C43.7478 56.9275 43.7826 56.7947 43.7826 56.643C43.7826 56.112 43.3998 55.6948 42.9125 55.6948H33.1667C33.0623 55.6948 32.9578 55.619 32.9056 55.5052L32.5402 54.4811H42.4426C43.0865 54.4811 43.6782 54.026 43.8696 53.3623L45.9928 46.4216C46.1495 45.9285 46.0624 45.3596 45.784 44.9424C45.5229 44.5062 45.0531 44.2597 44.5658 44.2597ZM34.9592 59.5255C34.6286 59.5255 34.3501 59.2221 34.3501 58.8618C34.3501 58.5014 34.6286 58.198 34.9592 58.198C35.2899 58.198 35.5683 58.5014 35.5683 58.8618C35.5683 59.2221 35.2899 59.5255 34.9592 59.5255ZM42.0597 59.5255C41.7291 59.5255 41.4506 59.2221 41.4506 58.8618C41.4506 58.5014 41.7291 58.198 42.0597 58.198C42.3904 58.198 42.6688 58.5014 42.6688 58.8618C42.6688 59.2221 42.3904 59.5255 42.0597 59.5255ZM42.286 52.6037H31.8788L29.599 46.1561H44.2525L42.286 52.6037Z" fill="#262626"/>
</svg>
