<svg width="96" height="96" viewBox="0 0 96 96" fill="none" xmlns="http://www.w3.org/2000/svg">
<path fill-rule="evenodd" clip-rule="evenodd" d="M76.7428 76.3799H45.6132C45.1947 76.3799 44.8563 76.0495 44.8563 75.6409C44.8563 75.2323 45.1947 74.9019 45.6132 74.9019H75.9862V71.406C75.9862 70.9973 76.3246 70.6669 76.7431 70.6669C77.1616 70.6669 77.5 70.9974 77.5 71.406V75.6409C77.5 76.0495 77.1613 76.3799 76.7428 76.3799ZM35.3029 76.3799H30.5365C24.4501 76.3799 19.5 71.5446 19.5 65.6044C19.5 59.6619 24.4524 54.8289 30.5365 54.8289H76.7401C77.1586 54.8289 77.497 55.1593 77.497 55.5679V59.8028C77.497 60.2114 77.1586 60.5418 76.7401 60.5418C76.3216 60.5418 75.9832 60.2114 75.9832 59.8028V56.3069H30.5362C25.2842 56.3069 21.0142 60.4787 21.0142 65.6037C21.0142 70.7315 25.287 74.9006 30.5362 74.9006H35.3025C35.721 74.9006 36.0594 75.231 36.0594 75.6396C36.0594 76.0482 35.721 76.3786 35.3025 76.3786L35.3029 76.3799Z" fill="#262626"/>
<path fill-rule="evenodd" clip-rule="evenodd" d="M76.7393 72.339H45.4391C45.0183 72.339 44.678 71.9988 44.678 71.578V66.3654H35.8359V71.578C35.8359 71.9988 35.4956 72.339 35.0748 72.339H30.2824C26.5679 72.339 23.5469 69.3184 23.5469 65.6043C23.5469 61.8903 26.5678 58.8696 30.2824 58.8696H76.7393C77.1601 58.8696 77.5004 59.2099 77.5004 59.6306C77.5004 60.0513 77.1601 60.3916 76.7393 60.3916C73.8638 60.3916 71.5261 62.7291 71.5261 65.6042C71.5261 68.4793 73.8638 70.8168 76.7393 70.8168C77.1601 70.8168 77.5004 71.157 77.5004 71.5778C77.5004 71.9985 77.1601 72.339 76.7393 72.339ZM46.1998 70.817H72.4768C70.9677 69.5807 70.0013 67.7029 70.0013 65.6044C70.0013 63.5059 70.9676 61.628 72.4768 60.3918H30.2797C27.4042 60.3918 25.0665 62.7293 25.0665 65.6044C25.0665 68.4795 27.4042 70.817 30.2797 70.817H34.3111V65.6044C34.3111 65.1836 34.6514 64.8434 35.0722 64.8434H45.4391C45.8599 64.8434 46.2001 65.1837 46.2001 65.6044L46.1998 70.817Z" fill="#262626"/>
<path fill-rule="evenodd" clip-rule="evenodd" d="M66.4629 56.1745H20.2569C19.8384 56.1745 19.5 55.8441 19.5 55.4355V51.2006C19.5 50.792 19.8384 50.4616 20.2569 50.4616C20.6755 50.4616 21.0139 50.792 21.0139 51.2006V54.6965H66.4632C71.7155 54.6965 75.9858 50.5246 75.9858 45.3996C75.9858 40.2718 71.7127 36.1028 66.4632 36.1028H21.0139V39.5987C21.0139 40.0073 20.6755 40.3377 20.2569 40.3377C19.8384 40.3377 19.5 40.0073 19.5 39.5987V35.3638C19.5 34.9552 19.8384 34.6248 20.2569 34.6248H66.4629C72.5496 34.6248 77.5 39.46 77.5 45.4003C77.5 51.3427 72.5474 56.1758 66.4629 56.1758V56.1745Z" fill="#262626"/>
<path fill-rule="evenodd" clip-rule="evenodd" d="M66.7179 52.1346H20.2611C19.8403 52.1346 19.5 51.7944 19.5 51.3737C19.5 50.9529 19.8403 50.6127 20.2611 50.6127H20.2974C23.1547 50.5919 25.4744 48.2622 25.4744 45.4001C25.4744 42.525 23.1366 40.1875 20.2611 40.1875C19.8403 40.1875 19.5001 39.8472 19.5001 39.4265C19.5001 39.0057 19.8403 38.6655 20.2611 38.6655H66.718C70.4325 38.6655 73.4535 41.6861 73.4535 45.4002C73.4535 49.1142 70.4325 52.1346 66.7179 52.1346ZM24.5209 50.6126H66.7179C69.5934 50.6126 71.9312 48.2751 71.9312 45.4C71.9312 42.5249 69.5934 40.1874 66.7179 40.1874H24.5209C26.03 41.4237 26.9964 43.3015 26.9964 45.4C26.9964 47.4986 26.0301 49.3764 24.5209 50.6126Z" fill="#262626"/>
<path fill-rule="evenodd" clip-rule="evenodd" d="M36.3604 35.9717C30.7818 35.9717 26.2441 31.4403 26.2441 25.8696C26.2441 20.2989 30.7819 15.7676 36.3604 15.7676C41.9389 15.7676 46.4767 20.2989 46.4767 25.8696C46.4767 31.4404 41.9389 35.9717 36.3604 35.9717ZM36.3604 17.3096C31.633 17.3096 27.7883 21.1488 27.7883 25.8696C27.7883 30.5904 31.633 34.4297 36.3604 34.4297C41.0879 34.4297 44.9325 30.5904 44.9325 25.8696C44.9325 21.1488 41.0879 17.3096 36.3604 17.3096Z" fill="#262626"/>
<path fill-rule="evenodd" clip-rule="evenodd" d="M60.6397 35.9717C55.0611 35.9717 50.5234 31.4403 50.5234 25.8696C50.5234 20.2989 55.0612 15.7676 60.6397 15.7676C66.2182 15.7676 70.756 20.2989 70.756 25.8696C70.756 31.4404 66.2182 35.9717 60.6397 35.9717ZM60.6397 17.3096C55.9123 17.3096 52.0676 21.1488 52.0676 25.8696C52.0676 30.5904 55.9123 34.4297 60.6397 34.4297C65.3672 34.4297 69.2118 30.5904 69.2118 25.8696C69.2118 21.1488 65.3672 17.3096 60.6397 17.3096Z" fill="#262626"/>
<path fill-rule="evenodd" clip-rule="evenodd" d="M44.5506 21.1553C44.3321 21.1553 44.1162 21.0724 43.9635 20.9113C43.687 20.6198 43.7265 20.1815 44.0504 19.9327C45.2905 18.9827 46.8704 18.4614 48.5002 18.4614C50.1301 18.4614 51.7099 18.985 52.9501 19.9327C53.274 20.1815 53.3135 20.6198 53.037 20.9113C52.7605 21.2027 52.2734 21.2382 51.9495 20.9895C50.9885 20.2526 49.7615 19.8475 48.5002 19.8475C47.2364 19.8475 46.012 20.2526 45.0509 20.9895C44.9061 21.1008 44.727 21.1553 44.5506 21.1553Z" fill="#262626"/>
<path fill-rule="evenodd" clip-rule="evenodd" d="M28.1542 26.5431H24.3349C23.8992 26.5431 23.5469 26.242 23.5469 25.8696C23.5469 25.4973 23.8992 25.1962 24.3349 25.1962H28.1542C28.5899 25.1962 28.9422 25.4973 28.9422 25.8696C28.9422 26.242 28.5899 26.5431 28.1542 26.5431Z" fill="#262626"/>
<path fill-rule="evenodd" clip-rule="evenodd" d="M59.9649 31.9308C56.2448 31.9308 53.2207 29.2106 53.2207 25.8696C53.2207 22.5262 56.2475 19.8083 59.9649 19.8083C63.685 19.8083 66.7091 22.5286 66.7091 25.8696C66.7091 29.2129 63.6823 31.9308 59.9649 31.9308ZM59.9649 21.2126C57.1088 21.2126 54.7834 23.3025 54.7834 25.8694C54.7834 28.4362 57.1088 30.5261 59.9649 30.5261C62.821 30.5261 65.1463 28.4362 65.1463 25.8694C65.1463 23.3025 62.821 21.2126 59.9649 21.2126Z" fill="#262626"/>
<path fill-rule="evenodd" clip-rule="evenodd" d="M37.0352 31.9308C33.3151 31.9308 30.291 29.2106 30.291 25.8696C30.291 22.5262 33.3178 19.8083 37.0352 19.8083C40.7553 19.8083 43.7794 22.5286 43.7794 25.8696C43.7794 29.2129 40.7526 31.9308 37.0352 31.9308ZM37.0352 21.2126C34.1791 21.2126 31.8538 23.3025 31.8538 25.8694C31.8538 28.4362 34.1791 30.5261 37.0352 30.5261C39.8913 30.5261 42.2167 28.4362 42.2167 25.8694C42.2167 23.3025 39.8913 21.2126 37.0352 21.2126Z" fill="#262626"/>
<path fill-rule="evenodd" clip-rule="evenodd" d="M65.9417 66.9512H32.4073C31.9829 66.9512 31.6396 66.349 31.6396 65.6043C31.6396 64.8595 31.9829 64.2573 32.4073 64.2573H65.9417C66.3662 64.2573 66.7094 64.8596 66.7094 65.6043C66.7094 66.349 66.3662 66.9512 65.9417 66.9512Z" fill="#262626"/>
<path fill-rule="evenodd" clip-rule="evenodd" d="M65.9417 45.4003H32.4073C31.9829 45.4003 31.6396 45.0992 31.6396 44.7268C31.6396 44.3544 31.9829 44.0533 32.4073 44.0533H65.9417C66.3662 44.0533 66.7094 44.3545 66.7094 44.7268C66.7094 45.0992 66.3662 45.4003 65.9417 45.4003Z" fill="#262626"/>
<path fill-rule="evenodd" clip-rule="evenodd" d="M45.702 81.7672C45.4977 81.7672 45.2988 81.6872 45.1476 81.5352L40.4504 76.759L35.6631 81.5405C35.4403 81.7619 35.1061 81.8286 34.817 81.7086C34.5279 81.5885 34.3369 81.3032 34.3369 80.9858V65.0387C34.3369 64.6067 34.6844 64.2573 35.114 64.2573H45.6994C46.129 64.2573 46.4764 64.6067 46.4764 65.0387V80.9858C46.4764 81.3032 46.2855 81.5885 45.9937 81.7086C45.8983 81.7486 45.7975 81.7672 45.6993 81.7672L45.702 81.7672ZM35.8941 65.8201V79.1061L39.9096 75.0952C40.0555 74.9485 40.2571 74.8632 40.4613 74.8685C40.6682 74.8685 40.8644 74.9539 41.0103 75.1005L44.9251 79.082V65.8199L35.8941 65.8201Z" fill="#262626"/>
</svg>
