<svg width="96" height="96" viewBox="0 0 96 96" fill="none" xmlns="http://www.w3.org/2000/svg">
<path d="M17.0809 17.7676C13.6395 17.8188 11.5803 20.6094 11.5803 23.2794V69.4765L11.5816 69.489C11.6024 70.3123 11.7984 71.1424 12.1678 71.9045C9.92331 72.3111 8.52149 73.8445 7.80879 75.2154C7.80372 75.2244 7.7988 75.2335 7.79402 75.2427C7.42895 76.0019 7.36123 76.9435 7.83603 77.7675C8.31083 78.5915 9.34 79.103 10.5778 79.069L10.5506 79.07H28.8654H44.6793C44.808 79.07 44.9354 79.0446 45.0543 78.9953C45.1732 78.9461 45.2813 78.8739 45.3722 78.7829C45.4632 78.6918 45.5354 78.5838 45.5846 78.4649C45.6338 78.346 45.6591 78.2185 45.6591 78.0898C45.6591 77.9612 45.6338 77.8337 45.5845 77.7149C45.5353 77.596 45.4631 77.488 45.3721 77.397C45.2811 77.306 45.1731 77.2338 45.0542 77.1846C44.9354 77.1354 44.808 77.11 44.6793 77.11H28.8693C28.868 77.11 28.8667 77.11 28.8654 77.11H10.5506C10.5418 77.1102 10.5331 77.1106 10.5243 77.111C9.77004 77.1318 9.6188 76.937 9.53336 76.7887C9.44929 76.6428 9.44538 76.3521 9.5606 76.1027C10.1867 74.9059 11.1711 73.7603 13.3455 73.7603C13.425 73.7604 13.5041 73.7508 13.5812 73.7318C14.4862 74.4886 15.694 74.9783 17.096 74.9761H40.6298C42.401 74.9857 43.8401 74.2029 44.7646 73.1288C45.6891 72.0547 46.1505 70.7212 46.1505 69.464V69.1013L47.9036 68.925V73.1062L46.1196 72.9266C45.9915 72.9137 45.8622 72.9261 45.7389 72.9632C45.6156 73.0003 45.5009 73.0613 45.4012 73.1427C45.3015 73.2242 45.2189 73.3245 45.158 73.4379C45.0971 73.5513 45.0591 73.6756 45.0463 73.8037C45.0334 73.9317 45.0458 74.0611 45.0829 74.1843C45.12 74.3075 45.1811 74.4222 45.2625 74.5219C45.344 74.6215 45.4442 74.7041 45.5576 74.765C45.671 74.8259 45.7953 74.8638 45.9233 74.8767L47.8534 75.071C47.8657 75.4451 47.9104 75.8878 48.0264 76.3669C48.1826 77.0125 48.4761 77.7199 49.0623 78.2897C49.6485 78.8595 50.5278 79.2265 51.5658 79.2265C52.7007 79.2265 53.721 78.6655 54.383 77.8171C54.823 77.2532 55.1221 76.5703 55.2739 75.8178L57.5502 76.0469L57.4994 76.0406C57.4994 76.0406 58.7519 76.2564 60.0636 75.7042C60.9812 75.3179 61.9031 74.4614 62.375 73.0842C62.9523 73.1037 63.604 73.0977 64.3116 72.8534C65.3396 72.4986 66.2847 71.6025 67.041 70.0036L72.6719 58.7007L72.6742 58.6945C72.6772 58.689 73.341 57.491 73.7896 55.8073L75.6819 60.5251C75.5307 60.5307 75.3828 60.5712 75.2499 60.6436C73.5754 61.5538 72.0258 62.8482 70.713 64.544C70.6342 64.6458 70.5762 64.762 70.5424 64.8862C70.5085 65.0103 70.4995 65.14 70.5157 65.2676C70.532 65.3953 70.5732 65.5185 70.6371 65.6302C70.7009 65.7419 70.7862 65.8399 70.8879 65.9187C70.9897 65.9975 71.1059 66.0555 71.2301 66.0893C71.3542 66.1231 71.4838 66.1322 71.6115 66.116C71.7391 66.0997 71.8623 66.0585 71.9741 65.9946C72.0858 65.9307 72.1838 65.8455 72.2626 65.7437C73.4148 64.2554 74.7488 63.1462 76.1851 62.3655C76.2508 62.3298 76.3123 62.2866 76.3682 62.2368L77.1307 64.1383C76.9789 64.0793 76.8148 64.059 76.6531 64.0794C76.4915 64.0997 76.3375 64.16 76.2051 64.2549C73.6379 66.0966 72.0641 69.3993 72.9732 73.0382C74.1889 77.9041 79.1084 80.1315 83.1411 79.132C87.9078 77.9506 90.3022 73.1752 89.2585 68.9976C88.3182 65.2336 84.8399 62.5719 80.8461 62.6793C80.2755 62.6946 79.6937 62.7656 79.108 62.8989C78.9978 62.924 78.8927 62.968 78.7975 63.0289L78.1768 61.4812C78.2507 61.4762 78.3239 61.4627 78.3948 61.4412C80.0512 60.9387 81.7846 60.8089 83.4799 61.0158C84.111 61.0928 84.7369 61.2157 85.3508 61.3841C85.6012 61.4526 85.8685 61.419 86.0941 61.2906C86.3197 61.1623 86.4852 60.9496 86.5541 60.6994C86.5883 60.5752 86.5976 60.4456 86.5816 60.3178C86.5655 60.1901 86.5245 60.0667 86.4608 59.9549C86.3971 59.843 86.312 59.7448 86.2103 59.6658C86.1086 59.5869 85.9923 59.5287 85.8681 59.4947C85.1628 59.3012 84.4439 59.1593 83.7168 59.0706C82.7405 58.9515 81.7505 58.9291 80.763 59.0096C79.7755 59.0901 78.7902 59.2729 77.8253 59.5656C77.6998 59.6037 77.5833 59.6665 77.4826 59.7504L72.7487 47.945L73.976 45.0968C74.7724 44.58 75.3286 43.7173 75.4531 42.7269C75.5054 42.6051 75.5324 42.4739 75.5325 42.3412C75.5325 42.2085 75.5054 42.0772 75.4531 41.9552C75.4531 41.9548 75.4531 41.9544 75.4531 41.9539C75.2505 40.3489 73.9161 39.0772 72.2587 39.0772C70.4641 39.0772 68.9848 40.5475 68.9848 42.3412C68.9848 43.9267 70.1412 45.2585 71.6488 45.5468L70.7875 47.5429C70.7362 47.6615 70.7089 47.7891 70.7072 47.9183C70.7054 48.0476 70.7293 48.1759 70.7773 48.2958L72.0535 51.4781C72.7118 54.0335 70.9312 57.8 70.9312 57.8C70.9287 57.8046 70.9262 57.8092 70.9237 57.8138L65.278 69.1489C65.275 69.1547 65.272 69.1605 65.2691 69.1663C64.6462 70.4832 64.1491 70.8362 63.6712 71.0012C63.4066 71.0925 63.0807 71.1122 62.6957 71.1131C62.6961 71.0811 62.6987 71.0509 62.6987 71.0186C62.6987 68.5307 61.3649 67.0525 60.08 66.4646C59.0626 65.999 58.0995 65.9715 57.7311 65.9801C56.5742 61.7242 54.6189 54.4533 53.5592 50.5085L57.0355 50.6011C57.1642 50.6044 57.2922 50.5823 57.4123 50.5362C57.5324 50.49 57.6422 50.4207 57.7355 50.3321C57.8288 50.2435 57.9038 50.1373 57.9561 50.0198C58.0084 49.9022 58.037 49.7755 58.0403 49.6469C58.047 49.3873 57.9504 49.1357 57.7718 48.9473C57.5931 48.7589 57.347 48.6492 57.0874 48.6421L52.557 48.5217L50.1241 47.0505C49.9718 46.9584 49.7973 46.9094 49.6193 46.909C49.4504 46.9087 49.2844 46.9521 49.1372 47.0349C48.99 47.1177 48.8667 47.2372 48.7793 47.3817C48.6806 47.545 48.6316 47.7336 48.6385 47.9243C48.2232 47.4458 47.7414 47.1093 47.257 46.9077C46.8724 46.7477 46.4944 46.6583 46.1505 46.61V36.5189C46.1502 36.2592 46.0468 36.0102 45.863 35.8266C45.6792 35.6431 45.4301 35.54 45.1703 35.5401C44.9108 35.5404 44.662 35.6436 44.4785 35.8271C44.295 36.0106 44.1918 36.2594 44.1915 36.5189V69.464C44.1915 70.2176 43.8767 71.1573 43.2797 71.851C42.6827 72.5446 41.8551 73.0237 40.641 73.0172H40.6374H17.0947C15.9216 73.0195 15.0992 72.5728 14.5006 71.9019C13.902 71.2309 13.5622 70.3067 13.5402 69.4394V23.2794C13.5402 21.5619 14.6797 19.7627 17.1108 19.7265H40.6213C42.6517 19.7546 44.2221 21.3458 44.1915 23.2646V23.2718V31.1745C44.1914 31.4343 44.2945 31.6834 44.478 31.8672C44.6616 32.051 44.9106 32.1544 45.1703 32.1547C45.2991 32.1547 45.4265 32.1294 45.5455 32.0801C45.6644 32.0309 45.7725 31.9587 45.8635 31.8677C45.9545 31.7767 46.0267 31.6686 46.076 31.5497C46.1252 31.4307 46.1505 31.3033 46.1505 31.1745V23.2955C46.1984 20.2841 43.7076 17.81 40.6485 17.7676H40.6423H17.0885H17.0809ZM51.3225 20.5576C49.6082 20.5576 48.1974 21.9682 48.1974 23.6825V39.1603C48.1974 40.8746 49.6082 42.2854 51.3225 42.2854H53.099C54.8133 42.2854 56.2241 40.8746 56.2241 39.1603V23.6825C56.2241 21.9682 54.8133 20.5576 53.099 20.5576H51.3225ZM51.3225 22.5166H53.099C53.7616 22.5166 54.2652 23.0198 54.2652 23.6825V39.1603C54.2652 39.8229 53.7616 40.3265 53.099 40.3265H51.3225C50.6599 40.3265 50.1563 39.8229 50.1563 39.1603V23.6825C50.1563 23.0198 50.6599 22.5166 51.3225 22.5166ZM19.634 24.788C18.2171 24.788 17.0438 25.9572 17.0438 27.3745V37.7446C17.0438 39.1619 18.2171 40.3314 19.634 40.3314H38.0964C39.5133 40.3314 40.6882 39.1619 40.6882 37.7446V27.3745C40.6882 25.9572 39.5133 24.788 38.0964 24.788H19.634ZM19.634 26.7482H38.0964C38.465 26.7482 38.728 27.0123 38.728 27.3745V37.7446C38.728 38.1068 38.465 38.3712 38.0964 38.3712H19.634C19.2654 38.3712 19.0027 38.1068 19.0027 37.7446V27.3745C19.0027 27.0123 19.2654 26.7482 19.634 26.7482ZM51.3422 27.7172C51.2136 27.7172 51.0862 27.7425 50.9673 27.7918C50.8484 27.841 50.7404 27.9132 50.6494 28.0041C50.5584 28.0951 50.4862 28.2031 50.437 28.322C50.3878 28.4409 50.3624 28.5683 50.3624 28.697C50.3624 28.8257 50.3877 28.9531 50.4369 29.072C50.4861 29.1909 50.5583 29.299 50.6493 29.39C50.7403 29.481 50.8483 29.5532 50.9672 29.6025C51.0861 29.6518 51.2135 29.6771 51.3422 29.6771H53.0793C53.208 29.6771 53.3355 29.6518 53.4544 29.6026C53.5733 29.5533 53.6814 29.4812 53.7724 29.3901C53.8635 29.2991 53.9356 29.191 53.9849 29.0721C54.0341 28.9532 54.0594 28.8257 54.0594 28.697C54.0594 28.5683 54.034 28.4408 53.9848 28.3219C53.9355 28.203 53.8633 28.095 53.7723 28.004C53.6813 27.913 53.5732 27.8409 53.4543 27.7917C53.3354 27.7424 53.208 27.7171 53.0793 27.7172H51.3422ZM51.3422 30.2144C51.2135 30.2144 51.0861 30.2398 50.9672 30.289C50.8483 30.3383 50.7403 30.4105 50.6493 30.5015C50.5583 30.5925 50.4861 30.7006 50.4369 30.8195C50.3877 30.9384 50.3624 31.0659 50.3624 31.1946C50.3624 31.3232 50.3878 31.4506 50.437 31.5695C50.4863 31.6884 50.5584 31.7964 50.6494 31.8874C50.7404 31.9784 50.8484 32.0505 50.9673 32.0998C51.0862 32.149 51.2136 32.1744 51.3422 32.1743H53.0793C53.208 32.1744 53.3354 32.1491 53.4543 32.0999C53.5732 32.0506 53.6813 31.9785 53.7723 31.8875C53.8633 31.7965 53.9355 31.6885 53.9848 31.5696C54.034 31.4507 54.0594 31.3232 54.0594 31.1946C54.0594 31.0658 54.0341 30.9384 53.9849 30.8194C53.9356 30.7005 53.8635 30.5924 53.7724 30.5014C53.6814 30.4104 53.5733 30.3382 53.4544 30.2889C53.3355 30.2397 53.208 30.2144 53.0793 30.2144H51.3422ZM51.3422 32.713C51.2135 32.713 51.0861 32.7383 50.9672 32.7876C50.8483 32.8369 50.7403 32.9091 50.6493 33.0001C50.5583 33.0911 50.4861 33.1991 50.4369 33.3181C50.3877 33.437 50.3624 33.5644 50.3624 33.6931C50.3627 33.9528 50.466 34.2018 50.6497 34.3853C50.8335 34.5688 51.0825 34.6719 51.3422 34.6719H53.0793C53.339 34.672 53.5882 34.569 53.772 34.3854C53.9558 34.2019 54.0591 33.9529 54.0594 33.6931C54.0594 33.5644 54.0341 33.4369 53.9849 33.318C53.9356 33.199 53.8635 33.091 53.7724 33C53.6814 32.9089 53.5733 32.8367 53.4544 32.7875C53.3355 32.7383 53.208 32.7129 53.0793 32.713H51.3422ZM51.3422 35.2102C51.2135 35.2102 51.0861 35.2356 50.9672 35.2848C50.8483 35.3341 50.7403 35.4063 50.6493 35.4973C50.5583 35.5883 50.4861 35.6964 50.4369 35.8153C50.3877 35.9342 50.3624 36.0617 50.3624 36.1904C50.3624 36.3191 50.3877 36.4465 50.4369 36.5654C50.4861 36.6843 50.5583 36.7924 50.6493 36.8834C50.7403 36.9744 50.8483 37.0466 50.9672 37.0959C51.0861 37.1451 51.2135 37.1705 51.3422 37.1705H53.0793C53.208 37.1705 53.3355 37.1452 53.4544 37.096C53.5733 37.0467 53.6814 36.9745 53.7724 36.8835C53.8635 36.7925 53.9356 36.6844 53.9849 36.5655C54.0341 36.4466 54.0594 36.3191 54.0594 36.1904C54.0594 36.0616 54.0341 35.9342 53.9849 35.8152C53.9356 35.6963 53.8635 35.5882 53.7724 35.4972C53.6814 35.4062 53.5733 35.334 53.4544 35.2847C53.3355 35.2355 53.208 35.2102 53.0793 35.2102H51.3422ZM51.3422 37.7088C51.0825 37.7088 50.8335 37.8119 50.6497 37.9954C50.466 38.1789 50.3627 38.4279 50.3624 38.6876C50.3624 38.8163 50.3877 38.9438 50.4369 39.0627C50.4861 39.1816 50.5583 39.2896 50.6493 39.3806C50.7403 39.4717 50.8483 39.5439 50.9672 39.5931C51.0861 39.6424 51.2135 39.6677 51.3422 39.6677H53.0793C53.208 39.6678 53.3355 39.6425 53.4544 39.5932C53.5733 39.544 53.6814 39.4718 53.7724 39.3808C53.8635 39.2897 53.9356 39.1817 53.9849 39.0627C54.0341 38.9438 54.0594 38.8163 54.0594 38.6876C54.0591 38.4279 53.9558 38.1788 53.772 37.9953C53.5882 37.8118 53.339 37.7087 53.0793 37.7088H51.3422ZM72.2587 41.0362C72.9984 41.0362 73.5739 41.6108 73.5739 42.3412C73.5739 43.0717 72.9984 43.6473 72.2587 43.6473C71.5189 43.6473 70.945 43.0717 70.945 42.3412C70.945 41.6108 71.5189 41.0362 72.2587 41.0362ZM29.7752 47.8754C29.6009 47.8775 29.4303 47.9261 29.281 48.0162C29.1318 48.1062 29.0092 48.2345 28.9261 48.3877L24.7181 56.1562C24.6372 56.3055 24.5965 56.4733 24.6 56.643C24.6035 56.8128 24.651 56.9787 24.738 57.1246C24.8249 57.2705 24.9483 57.3912 25.0959 57.475C25.2436 57.5589 25.4105 57.6029 25.5803 57.6027H30.5066L27.0827 63.9237C27.0213 64.0368 26.9828 64.1609 26.9694 64.2889C26.956 64.417 26.968 64.5464 27.0047 64.6698C27.0413 64.7932 27.1019 64.9081 27.183 65.0081C27.2641 65.1081 27.3641 65.1911 27.4772 65.2524C27.5904 65.3137 27.7145 65.3521 27.8424 65.3655C27.9704 65.3789 28.0998 65.3669 28.2232 65.3303C28.3465 65.2936 28.4614 65.233 28.5614 65.152C28.6613 65.0709 28.7443 64.971 28.8056 64.8578L33.014 57.0894C33.0949 56.9401 33.1355 56.7723 33.1321 56.6025C33.1286 56.4328 33.081 56.2668 32.9941 56.121C32.9071 55.9751 32.7838 55.8544 32.6361 55.7705C32.4884 55.6867 32.3215 55.6427 32.1517 55.6428H27.2252L30.6493 49.3219C30.7107 49.2088 30.7492 49.0847 30.7626 48.9566C30.776 48.8286 30.764 48.6992 30.7274 48.5758C30.6907 48.4524 30.6302 48.3375 30.5491 48.2375C30.468 48.1375 30.368 48.0545 30.2548 47.9932C30.1178 47.9191 29.9651 47.8787 29.8094 47.8754C29.798 47.8752 29.7866 47.8752 29.7752 47.8754ZM46.1505 48.6057C46.2678 48.6337 46.3863 48.6677 46.504 48.7166C47.1947 49.0041 47.9036 49.5221 47.9036 51.6741V66.9563L46.1505 67.1325V48.6057ZM49.2303 48.8003L51.4282 50.1287C51.7702 51.4019 52.3523 53.5658 52.9086 55.634L49.8635 55.3635V51.6741C49.8635 50.4996 49.617 49.5469 49.2303 48.8003ZM51.1791 57.4478L53.4505 57.649C54.3041 60.8197 55.1104 63.805 55.7521 66.1675L53.9422 66.3497L51.1791 57.4478ZM49.8635 59.8213L51.9518 66.5496L49.8635 66.7593V59.8213ZM81.2403 64.632C84.212 64.6856 86.6622 66.6929 87.3567 69.4729C88.1461 72.6326 86.3919 76.3076 82.6698 77.2302C79.6579 77.9766 75.8211 76.3552 74.8737 72.5633C74.1569 69.6939 75.3537 67.2783 77.3477 65.8478C77.4838 65.7499 77.5925 65.6187 77.6634 65.4667L78.9948 68.7859C78.3988 69.3492 78.0225 70.1423 78.0225 71.0186C78.0225 72.7124 79.421 74.1027 81.1152 74.1027C82.6746 74.1027 83.9316 72.9075 84.1301 71.3993C84.1813 71.2789 84.2079 71.1494 84.2082 71.0186C84.2083 70.8855 84.1813 70.7538 84.1288 70.6316C83.9276 69.1263 82.6725 67.9344 81.1152 67.9344C80.9994 67.9344 80.8855 67.9421 80.7729 67.9548L79.5144 64.8168C79.5242 64.8149 79.5339 64.8128 79.5436 64.8106C80.1218 64.679 80.69 64.6221 81.2403 64.632ZM57.8378 67.9393C58.0993 67.9435 58.6936 67.9846 59.2646 68.2459C60.0259 68.5943 60.7388 69.1433 60.7388 71.0186C60.7388 71.3182 60.7218 71.5817 60.6938 71.8201C60.6707 71.903 60.6587 71.9885 60.658 72.0745C60.4529 73.2713 59.8825 73.6541 59.3034 73.8979C58.5798 74.2025 57.7971 74.104 57.7971 74.104L57.7724 74.1001L55.3917 73.8605C55.3922 73.4669 55.3929 73.1773 55.3937 72.8462C55.7041 72.6232 55.9439 72.2936 56.1076 71.9242C56.1999 71.833 56.2732 71.7245 56.3233 71.6048C56.3733 71.4851 56.3991 71.3567 56.3991 71.227C56.3991 71.0973 56.3733 70.9689 56.3233 70.8492C56.2732 70.7295 56.1999 70.6209 56.1076 70.5298C55.8089 69.8567 55.26 69.314 54.4848 69.314C53.4393 69.314 52.5718 70.1815 52.5718 71.227C52.5718 71.8866 52.9175 72.4755 53.4351 72.8206C53.4343 73.1761 53.434 73.2777 53.4334 73.6632L49.8635 73.3038V68.7281L57.7002 67.9407C57.7002 67.9407 57.7506 67.938 57.8378 67.9393ZM81.1152 69.8934C81.7546 69.8934 82.248 70.388 82.248 71.0186C82.248 71.6491 81.7546 72.1425 81.1152 72.1425C80.4758 72.1425 79.9828 71.6491 79.9828 71.0186C79.9828 70.388 80.4758 69.8934 81.1152 69.8934ZM49.8336 75.2702L53.3058 75.6198C53.2003 76.0195 53.0364 76.3573 52.8383 76.6111C52.4929 77.0538 52.0916 77.2676 51.5658 77.2676C50.9429 77.2676 50.6562 77.1059 50.4281 76.8842C50.2 76.6625 50.0296 76.3151 49.9305 75.9054C49.8793 75.694 49.8499 75.4769 49.8336 75.2702Z" fill="#262626"/>
</svg>
