<svg width="96" height="96" viewBox="0 0 96 96" fill="none" xmlns="http://www.w3.org/2000/svg">
<path d="M63.171 43.9653C64.8857 42.2519 65.7908 39.8969 65.6664 37.4784C65.5421 35.06 64.3999 32.809 62.5203 31.2805C59.1748 28.5442 54.0075 28.9342 50.7718 32.1675L50.0316 32.9073C49.1727 33.7279 47.8224 33.7279 46.9636 32.9073L46.2263 32.1675C42.9934 28.9342 37.8289 28.5384 34.4778 31.2805C32.5982 32.809 31.4532 35.06 31.3288 37.4784C31.2045 39.8969 32.1124 42.2519 33.8243 43.9653L45.327 55.4597C47.0793 57.2049 49.916 57.2049 51.6683 55.4597L63.171 43.9653ZM46.9661 53.8242L35.4604 42.3298C34.2141 41.0816 33.552 39.3652 33.6416 37.6026C33.7226 35.8314 34.5612 34.1815 35.9434 33.0719C37.0133 32.2108 38.3492 31.7485 39.7227 31.763C41.5502 31.7746 43.3025 32.5085 44.5922 33.803L45.3324 34.5427C47.1049 36.2359 49.8983 36.2359 51.6708 34.5427L52.411 33.803C54.8226 31.396 58.6164 31.0753 61.0601 33.069C62.4337 34.1844 63.2693 35.8285 63.3619 37.594C63.4544 39.3594 62.7922 41.0816 61.5402 42.3298L50.0315 53.8242C49.1843 54.6679 47.8134 54.6679 46.9661 53.8242ZM52.9836 43.1102C52.9836 43.4165 52.8621 43.7112 52.6481 43.928C52.4313 44.1476 52.1363 44.2689 51.8298 44.2689H49.6553V46.4389C49.638 47.066 49.1261 47.5658 48.4987 47.5658C47.8712 47.5658 47.3565 47.0659 47.342 46.4389V44.2689H45.1675C44.5401 44.2545 44.0398 43.7401 44.0398 43.1131C44.0398 42.4861 44.5401 41.9746 45.1675 41.9573H47.342V39.7844C47.3565 39.1574 47.8712 38.6576 48.4987 38.6576C49.1261 38.6576 49.638 39.1574 49.6553 39.7844V41.9544H51.8298C52.4688 41.9573 52.9836 42.4716 52.9836 43.1102ZM38.277 55.3065C38.2018 55.2487 30.2993 49.6114 26.3575 50.2759C25.5739 50.3799 24.8712 50.8163 24.4317 51.4751C23.8996 52.2263 23.7001 53.1625 23.8765 54.064C21.861 52.6251 21.0803 51.7871 20.9704 51.4924C20.7015 49.4611 20.635 47.4095 20.7738 45.3696C20.8981 40.6684 21.0167 36.2275 18.2725 35.2304C17.3212 34.901 16.2687 35.1466 15.5602 35.8574C12.5182 38.4897 10.6127 48.1173 11.9168 54.2458C13.3105 60.8136 19.3481 64.9945 24.1975 68.358C26.4501 69.9184 28.3961 71.2677 29.3879 72.5102L29.385 72.5073C31.5971 75.391 33.0082 78.8064 33.4795 82.4098C33.6819 83.8719 34.6968 85.097 36.0964 85.568C37.47 86.0303 38.988 85.6749 40.0117 84.652C43.8893 80.8234 48.2092 74.8361 46.7722 68.0574C45.4624 61.8941 42.7796 58.8231 38.277 55.3065ZM38.3869 83.0079C37.985 83.424 37.3777 83.5685 36.8312 83.3778C36.2558 83.187 35.8423 82.6814 35.77 82.0804C35.2379 78.0698 33.6591 74.2728 31.1925 71.0683C29.9925 69.56 27.9192 68.121 25.5163 66.4596C20.9996 63.3302 15.3815 59.4381 14.1816 53.7691C12.8746 47.6289 15.0606 39.3507 17.0732 37.6028C17.1194 37.5652 17.3218 37.3947 17.4433 37.3947C17.4549 37.3947 17.4664 37.3947 17.478 37.3976C18.6548 37.8253 18.5305 42.5062 18.4582 45.3059C18.3021 47.5308 18.3859 49.7643 18.704 51.969C18.8341 52.5758 19.1782 54.1939 27.4397 59.1002L32.1386 62.9635C32.6186 63.3594 33.3271 63.3016 33.7318 62.8306L34.5241 63.2987L33.8735 62.6052H33.8706C34.1395 62.1285 34.0296 61.5275 33.6075 61.1778L28.897 57.3088C26.2599 54.4944 25.7828 53.6304 26.364 52.7347C26.3871 52.6971 26.4507 52.6047 26.7341 52.5555C29.0301 52.1626 35.2063 55.8438 36.8518 57.1296C41.1025 60.4496 43.3348 63.0039 44.509 68.5374C45.7321 74.2932 41.8539 79.5845 38.3869 83.0079ZM81.4398 35.8544C80.7314 35.1436 79.6789 34.898 78.7304 35.2245C75.992 36.2214 76.1048 40.6625 76.2291 45.3637C76.3651 47.3979 76.2985 49.4407 76.0354 51.4605C75.9226 51.7697 75.139 52.6163 73.1236 54.0553V54.0582C73.2999 53.1566 73.1004 52.2233 72.5684 51.4721C72.1288 50.8133 71.4291 50.3769 70.6425 50.2729C66.6406 49.6026 58.7926 55.2486 58.723 55.3035C54.2208 58.82 51.5345 61.8915 50.225 68.0546C48.7878 74.8334 53.1079 80.8235 56.9855 84.6522H56.9884C58.0149 85.6751 59.5301 86.0277 60.9037 85.5653C62.3061 85.0944 63.3181 83.8692 63.5206 82.4072C63.9919 78.8039 65.4059 75.3914 67.6151 72.5047C68.6068 71.2622 70.553 69.9157 72.8055 68.3524C77.6547 64.9891 83.6923 60.8082 85.0862 54.2432C86.3846 48.1176 84.4789 38.4892 81.4398 35.8544ZM82.8163 53.7694C81.6162 59.4328 75.9979 63.3279 71.4815 66.4599C69.0786 68.1213 67.0053 69.5603 65.8053 71.0686C63.3359 74.273 61.757 78.0698 61.2279 82.0777C61.1527 82.6816 60.7392 83.1844 60.1638 83.378C59.6173 83.5658 59.01 83.4213 58.6081 83.0081C55.1439 79.5841 51.2663 74.2936 52.4895 68.532C53.6605 62.9986 55.8958 60.444 60.1466 57.1242C61.711 55.902 67.4045 52.5241 69.9061 52.5241H69.9032C70.0246 52.5241 70.1432 52.5328 70.2617 52.553C70.548 52.5992 70.6087 52.6946 70.6319 52.7322C71.2131 53.6279 70.736 54.4919 68.0988 57.3062L63.3884 61.1753C62.9691 61.5249 62.8563 62.126 63.1252 62.6027L62.4746 63.2962L63.2669 62.8281H63.264C63.6717 63.2991 64.3802 63.3569 64.8573 62.9581L69.5619 59.0919C77.8202 54.1885 78.1644 52.5704 78.2976 51.9636C78.6157 49.7589 78.6995 47.5224 78.5434 45.3004C78.4682 42.5034 78.3468 37.8227 79.5236 37.3922C79.6538 37.3431 79.8793 37.554 79.9285 37.5945C81.9381 39.3484 84.1242 47.6264 82.8172 53.7667L82.8163 53.7694ZM47.3509 20.9012V12.9523C47.3422 12.6402 47.4608 12.3397 47.6805 12.1172C47.8974 11.8918 48.1952 11.7676 48.5075 11.7676C48.8198 11.7676 49.1177 11.8918 49.3374 12.1172C49.5543 12.3397 49.6729 12.6402 49.6642 12.9523V20.9012C49.6728 21.2133 49.5543 21.5138 49.3374 21.7362C49.1177 21.9616 48.8198 22.0859 48.5075 22.0859C48.1952 22.0859 47.8974 21.9616 47.6805 21.7362C47.4608 21.5138 47.3422 21.2132 47.3509 20.9012ZM55.8179 21.5773L58.3914 16.8559C58.6979 16.2953 59.4035 16.0902 59.9644 16.3965C60.5254 16.7028 60.7307 17.4049 60.4242 17.9655L57.8507 22.6869H57.8535C57.547 23.2475 56.8415 23.4555 56.2805 23.1492C55.7195 22.8429 55.5113 22.1379 55.8179 21.5773ZM63.1336 26.4288C62.9485 26.1832 62.8705 25.874 62.9138 25.5706C62.9543 25.2672 63.1191 24.9927 63.3649 24.8107L70.857 19.1877H70.8541C71.3659 18.8063 72.0917 18.9103 72.4734 19.4188C72.858 19.9303 72.7539 20.6556 72.2421 21.037L64.75 26.6599C64.5071 26.842 64.1977 26.9229 63.8941 26.8795C63.5905 26.8362 63.3186 26.6744 63.1336 26.4288ZM68.4397 29.9193L74.7087 27.9458C75.3189 27.7551 75.9695 28.0931 76.1603 28.6999C76.354 29.3096 76.0157 29.9597 75.4056 30.1504L69.1366 32.1239C68.5322 32.3002 67.8961 31.9621 67.7052 31.3612C67.5173 30.763 67.844 30.1216 68.4397 29.9193ZM20.7572 28.8849C20.844 28.5902 21.0464 28.3446 21.3182 28.2001C21.59 28.0556 21.9081 28.0267 22.2001 28.1192L28.4923 30.0494C29.0388 30.217 29.38 30.7602 29.2932 31.3237C29.2094 31.89 28.7236 32.309 28.1539 32.309C28.0382 32.309 27.9255 32.2916 27.8156 32.257L21.5235 30.3268V30.3297C21.2285 30.2372 20.9827 30.0349 20.841 29.7633C20.6965 29.4946 20.6676 29.1767 20.7572 28.8849ZM24.7708 21.0425C24.259 20.6611 24.1578 19.9358 24.5395 19.4244C24.9241 18.913 25.647 18.8118 26.1588 19.1932L33.6508 24.8162C34.1598 25.1976 34.2639 25.9229 33.8822 26.4314C33.4976 26.9429 32.7747 27.0469 32.2629 26.6655L24.7708 21.0425ZM36.3661 18.0432C36.207 17.7745 36.1637 17.4538 36.2446 17.1562C36.3285 16.8556 36.528 16.5985 36.7998 16.4482C37.0716 16.298 37.3926 16.2604 37.6904 16.35C37.9883 16.4367 38.2398 16.6418 38.3844 16.9163L41.0129 21.6204C41.3223 22.1781 41.1228 22.8831 40.5676 23.1923C40.0095 23.5044 39.304 23.305 38.9917 22.7473L36.3661 18.0432Z" fill="#262626"/>
</svg>
