<svg width="30" height="30" viewBox="0 0 30 30" fill="none" xmlns="http://www.w3.org/2000/svg">
<mask id="path-1-inside-1_282_2778" fill="white">
<path d="M22.2656 0.9375H7.73438C7.23727 0.938058 6.76068 1.13578 6.40917 1.48729C6.05766 1.8388 5.85993 2.31539 5.85938 2.8125V27.1875C5.85993 27.6846 6.05766 28.1612 6.40917 28.5127C6.76068 28.8642 7.23727 29.0619 7.73438 29.0625H22.2656C22.7627 29.0619 23.2393 28.8642 23.5908 28.5127C23.9423 28.1612 24.1401 27.6846 24.1406 27.1875V2.8125C24.1401 2.31539 23.9423 1.8388 23.5908 1.48729C23.2393 1.13578 22.7627 0.938058 22.2656 0.9375ZM22.2656 2.8125V4.6875H7.73438V2.8125H22.2656ZM22.2656 6.5625L22.2663 19.6875H7.73438V6.5625H22.2656ZM22.2656 27.1875H7.73438V21.5625H22.2666V27.1875H22.2656Z"/>
</mask>
<path d="M22.2656 0.9375H7.73438C7.23727 0.938058 6.76068 1.13578 6.40917 1.48729C6.05766 1.8388 5.85993 2.31539 5.85938 2.8125V27.1875C5.85993 27.6846 6.05766 28.1612 6.40917 28.5127C6.76068 28.8642 7.23727 29.0619 7.73438 29.0625H22.2656C22.7627 29.0619 23.2393 28.8642 23.5908 28.5127C23.9423 28.1612 24.1401 27.6846 24.1406 27.1875V2.8125C24.1401 2.31539 23.9423 1.8388 23.5908 1.48729C23.2393 1.13578 22.7627 0.938058 22.2656 0.9375ZM22.2656 2.8125V4.6875H7.73438V2.8125H22.2656ZM22.2656 6.5625L22.2663 19.6875H7.73438V6.5625H22.2656ZM22.2656 27.1875H7.73438V21.5625H22.2666V27.1875H22.2656Z" fill="#262626"/>
<path d="M22.2656 0.9375L22.2679 -1.0625H22.2656V0.9375ZM7.73438 0.9375L7.73437 -1.0625L7.73213 -1.0625L7.73438 0.9375ZM5.85938 2.8125L3.85938 2.81025V2.8125H5.85938ZM5.85938 27.1875L3.85937 27.1875L3.85938 27.1897L5.85938 27.1875ZM7.73438 29.0625L7.73213 31.0625H7.73438V29.0625ZM22.2656 29.0625L22.2656 31.0625L22.2679 31.0625L22.2656 29.0625ZM24.1406 27.1875L26.1406 27.1897V27.1875H24.1406ZM24.1406 2.8125L26.1406 2.8125L26.1406 2.81025L24.1406 2.8125ZM22.2656 2.8125H24.2656V0.8125H22.2656V2.8125ZM22.2656 4.6875V6.6875H24.2656V4.6875H22.2656ZM7.73438 4.6875H5.73438V6.6875H7.73438V4.6875ZM7.73438 2.8125V0.8125H5.73438V2.8125H7.73438ZM22.2656 6.5625L24.2656 6.5624L24.2655 4.5625H22.2656V6.5625ZM22.2663 19.6875V21.6875H24.2664L24.2663 19.6874L22.2663 19.6875ZM7.73438 19.6875H5.73438V21.6875H7.73438V19.6875ZM7.73438 6.5625V4.5625H5.73438V6.5625H7.73438ZM7.73438 27.1875H5.73438V29.1875H7.73438V27.1875ZM7.73438 21.5625V19.5625H5.73438V21.5625H7.73438ZM22.2666 21.5625H24.2666V19.5625H22.2666V21.5625ZM22.2666 27.1875V29.1875H24.2666V27.1875H22.2666ZM22.2656 -1.0625H7.73438V2.9375H22.2656V-1.0625ZM7.73213 -1.0625C6.70536 -1.06135 5.72099 -0.652954 4.99495 0.0730778L7.82338 2.9015C7.80037 2.92452 7.76917 2.93746 7.73662 2.9375L7.73213 -1.0625ZM4.99495 0.0730778C4.26892 0.79911 3.86053 1.78349 3.85938 2.81025L7.85937 2.81475C7.85934 2.84729 7.84639 2.87849 7.82338 2.9015L4.99495 0.0730778ZM3.85938 2.8125V27.1875H7.85938V2.8125H3.85938ZM3.85938 27.1897C3.86053 28.2165 4.26892 29.2009 4.99495 29.9269L7.82338 27.0985C7.84639 27.1215 7.85934 27.1527 7.85937 27.1853L3.85938 27.1897ZM4.99495 29.9269C5.72098 30.653 6.70536 31.0613 7.73213 31.0625L7.73662 27.0625C7.76917 27.0625 7.80037 27.0755 7.82338 27.0985L4.99495 29.9269ZM7.73438 31.0625H22.2656V27.0625H7.73438V31.0625ZM22.2679 31.0625C23.2946 31.0613 24.279 30.653 25.005 29.9269L22.1766 27.0985C22.1996 27.0755 22.2308 27.0625 22.2634 27.0625L22.2679 31.0625ZM25.005 29.9269C25.7311 29.2009 26.1395 28.2165 26.1406 27.1897L22.1406 27.1853C22.1407 27.1527 22.1536 27.1215 22.1766 27.0985L25.005 29.9269ZM26.1406 27.1875V2.8125H22.1406V27.1875H26.1406ZM26.1406 2.81025C26.1395 1.78349 25.7311 0.799109 25.005 0.0730778L22.1766 2.9015C22.1536 2.87849 22.1407 2.84729 22.1406 2.81475L26.1406 2.81025ZM25.005 0.0730778C24.279 -0.652954 23.2946 -1.06135 22.2679 -1.0625L22.2634 2.9375C22.2308 2.93746 22.1996 2.92452 22.1766 2.9015L25.005 0.0730778ZM20.2656 2.8125V4.6875H24.2656V2.8125H20.2656ZM22.2656 2.6875H7.73438V6.6875H22.2656V2.6875ZM9.73438 4.6875V2.8125H5.73438V4.6875H9.73438ZM7.73438 4.8125H22.2656V0.8125H7.73438V4.8125ZM20.2656 6.5626L20.2663 19.6876L24.2663 19.6874L24.2656 6.5624L20.2656 6.5626ZM22.2663 17.6875H7.73438V21.6875H22.2663V17.6875ZM9.73438 19.6875V6.5625H5.73438V19.6875H9.73438ZM7.73438 8.5625H22.2656V4.5625H7.73438V8.5625ZM22.2656 25.1875H7.73438V29.1875H22.2656V25.1875ZM9.73438 27.1875V21.5625H5.73438V27.1875H9.73438ZM7.73438 23.5625H22.2666V19.5625H7.73438V23.5625ZM20.2666 21.5625V27.1875H24.2666V21.5625H20.2666ZM22.2666 25.1875H22.2656V29.1875H22.2666V25.1875Z" fill="white" fill-opacity="0.4" mask="url(#path-1-inside-1_282_2778)"/>
<mask id="path-3-inside-2_282_2778" fill="white">
<path d="M14.0625 23.4375H15.9375V25.3125H14.0625V23.4375Z"/>
</mask>
<path d="M14.0625 23.4375H15.9375V25.3125H14.0625V23.4375Z" fill="#262626"/>
<path d="M14.0625 23.4375V21.4375H12.0625V23.4375H14.0625ZM15.9375 23.4375H17.9375V21.4375H15.9375V23.4375ZM15.9375 25.3125V27.3125H17.9375V25.3125H15.9375ZM14.0625 25.3125H12.0625V27.3125H14.0625V25.3125ZM14.0625 25.4375H15.9375V21.4375H14.0625V25.4375ZM13.9375 23.4375V25.3125H17.9375V23.4375H13.9375ZM15.9375 23.3125H14.0625V27.3125H15.9375V23.3125ZM16.0625 25.3125V23.4375H12.0625V25.3125H16.0625Z" fill="white" fill-opacity="0.4" mask="url(#path-3-inside-2_282_2778)"/>
</svg>
