<svg width="96" height="96" viewBox="0 0 96 96" fill="none" xmlns="http://www.w3.org/2000/svg">
<path d="M73.5851 44.2747C74.1672 44.8015 74.9293 45.0965 75.7125 45.0965C76.6122 45.0965 77.4695 44.7172 78.0728 44.0535C78.6443 43.4318 78.9301 42.6206 78.8878 41.7777C78.8454 40.9349 78.475 40.1553 77.8505 39.5968L71.4895 33.8654V22.9818C71.4895 21.8229 70.5369 20.8747 69.3727 20.8747H65.139C63.9747 20.8747 63.0222 21.8229 63.0222 22.9818V26.2479L55.6238 19.5894C54.4066 18.4937 52.5755 18.4937 51.3583 19.5894L29.1319 39.5859C28.5075 40.1548 28.137 40.924 28.0947 41.7668C28.0525 42.6097 28.3382 43.4209 28.9097 44.0425C30.0845 45.3384 32.0955 45.4332 33.3974 44.2638L34.4452 43.3261V59.9728C33.0481 60.1309 31.6616 60.4469 30.3491 60.9632C28.7192 61.6164 27.0045 61.943 25.2476 61.943H18.5584C17.9763 61.943 17.5 62.4171 17.5 62.9966C17.5 63.5761 17.9763 64.0502 18.5584 64.0502H25.237C27.2692 64.0502 29.2484 63.6709 31.1218 62.9228C34.7099 61.49 38.9009 61.6585 42.3725 63.3864L42.4784 63.4391C43.812 64.1028 45.2515 64.5558 46.7226 64.8193C46.8496 64.8719 46.9872 64.9035 47.1354 64.9035H47.1671C47.961 65.03 48.7654 65.1143 49.5698 65.1143H54.5443C56.8834 65.1143 58.778 67.0002 58.778 69.3285H45.0189C44.4368 69.3285 43.9605 69.8026 43.9605 70.3821C43.9605 70.9616 44.4368 71.4357 45.0189 71.4357H59.8368C60.4189 71.4357 60.8952 70.9616 60.8952 70.3821H70.4206C72.421 70.3821 74.1039 71.7728 74.5484 73.6376L52.5652 75.5446C49.8768 75.7763 47.1144 75.6288 44.4576 75.1021L34.3605 73.0897C32.3812 72.6999 30.3491 72.4997 28.3169 72.4997H18.5585C17.9764 72.4997 17.5001 72.9738 17.5001 73.5533C17.5001 74.1328 17.9764 74.6069 18.5585 74.6069H28.3169C30.2009 74.6069 32.0954 74.7965 33.9371 75.1653L44.0342 77.1776C46.0135 77.5674 48.0456 77.7676 50.0778 77.7676C50.9669 77.7676 51.8665 77.7254 52.745 77.6517L75.808 75.6605C76.3583 75.6183 76.7711 75.1547 76.7711 74.6069C76.7711 71.8571 75.0036 69.5287 72.5375 68.6542V43.3477L73.5853 44.2854L73.5851 44.2747ZM65.1286 22.9714H69.3623V31.9582L65.1286 28.1443V22.9714ZM31.9686 42.7151C31.5346 43.1049 30.8678 43.0733 30.4762 42.6413C30.2857 42.4306 30.1904 42.1672 30.201 41.8827C30.2116 41.5983 30.3386 41.3454 30.5503 41.1558L52.7767 21.1276C53.1789 20.7588 53.7928 20.7588 54.195 21.1276L63.3079 29.3349C63.3079 29.3349 63.3396 29.3665 63.3608 29.3771L76.4323 41.1453C76.644 41.335 76.7604 41.5878 76.7816 41.8723C76.8027 42.1567 76.6969 42.4201 76.5064 42.6309C76.1254 43.0523 75.4374 43.0839 75.014 42.7046L72.2516 40.2182C72.2516 40.2182 72.2198 40.1971 72.2093 40.1761L54.2057 23.9616C54.0046 23.7824 53.7506 23.6876 53.4965 23.6876C53.2425 23.6876 52.9885 23.7824 52.7874 23.9616L34.7838 40.1761C34.7838 40.1761 34.7521 40.1971 34.7415 40.2182L31.979 42.7046L31.9686 42.7151ZM54.5445 63.007H49.5699C49.1148 63.007 48.649 62.9754 48.194 62.9227V51.418C48.194 50.8386 48.6703 50.3645 49.2524 50.3645H57.7197C58.3019 50.3645 58.7781 50.8386 58.7781 51.418V64.63C57.6562 63.6291 56.1744 63.007 54.5445 63.007ZM70.4211 68.2748H60.8956V51.4177C60.8956 49.6793 59.4668 48.257 57.7204 48.257H49.2531C47.5067 48.257 46.0778 49.6793 46.0778 51.4177V62.5434C45.1676 62.3011 44.2679 61.985 43.4318 61.5636L43.326 61.5109C41.2303 60.4679 38.8912 59.9305 36.5521 59.8779V41.4301L53.4868 26.1745L70.4214 41.4193L70.4211 68.2748Z" fill="#262626"/>
</svg>
