<svg width="96" height="96" viewBox="0 0 96 96" fill="none" xmlns="http://www.w3.org/2000/svg">
<path fill-rule="evenodd" clip-rule="evenodd" d="M43.5311 59.1093H51.1761C52.4201 59.1093 53.4301 60.1147 53.4301 61.3571C53.4301 62.5996 52.4201 63.6083 51.1761 63.6083H43.5311C42.2871 63.6083 41.2805 62.5996 41.2805 61.3571C41.2805 60.1147 42.2871 59.1093 43.5311 59.1093ZM55.4202 87.5093C55.4937 87.88 55.6977 88.2107 55.9954 88.4378C56.0221 88.4578 56.0489 88.4812 56.079 88.5013C56.4201 88.7317 56.8448 88.8185 57.2495 88.7384L72.3559 85.7925C72.7605 85.7124 73.115 85.4786 73.3457 85.1346C73.5765 84.7939 73.6634 84.3764 73.5832 83.9722L72.6635 79.2762H72.6668C72.5933 78.9055 72.3893 78.5748 72.0883 78.3444C72.0615 78.3243 72.0348 78.3043 72.008 78.2843C71.7204 78.0906 71.376 78.0004 71.0315 78.0237C70.9446 77.6396 70.8777 77.2555 70.8275 76.8681C70.7473 76.2535 70.7272 75.6323 70.764 75.011C70.881 73.2007 71.8108 71.8714 72.7806 70.482C74.5597 67.9336 76.4626 65.2182 74.9511 59.3435L70.4865 41.7554V41.7587C70.4765 41.722 70.4664 41.6852 70.4531 41.6518C70.0284 40.6799 69.3896 39.8182 68.5836 39.1302C67.9382 38.5423 67.2125 38.0514 66.4266 37.6673V29.1504C68.3396 28.9934 69.811 27.4002 69.8143 25.4864V11.4416C69.811 9.4142 68.1656 7.77091 66.1356 7.76758H46.0937C44.4182 7.77092 42.9567 8.89982 42.532 10.5163H31.6095C29.7736 10.5197 28.2887 12.006 28.282 13.8396V31.7021C25.2019 32.9379 22.7439 35.3594 21.4631 38.4222C20.179 41.4816 20.179 44.9285 21.4631 47.9909C22.744 51.0503 25.202 53.4719 28.282 54.711V64.8679C28.2854 66.7015 29.7736 68.1879 31.6095 68.1912H51.2705C50.0432 72.1825 51.7588 75.0949 53.4877 78.0309V78.0276C54.1231 79.0496 54.6849 80.1184 55.1733 81.2173C55.0027 81.3309 54.8556 81.4778 54.7385 81.6482C54.5077 81.9922 54.4208 82.413 54.5011 82.8172L55.4202 87.5093ZM57.0254 80.7358L69.1653 78.3678C69.0683 77.9369 68.9947 77.5094 68.9412 77.0919H68.9379C68.8476 76.3638 68.8242 75.6257 68.8677 74.8875C69.0181 72.5529 70.0983 71.0065 71.2253 69.3966C72.7671 67.1922 74.4091 64.8409 73.1115 59.8005V59.7972L68.6636 42.2758C68.3426 41.6045 67.8811 41.0099 67.3126 40.5323C67.0317 40.2818 66.7374 40.048 66.423 39.8409V60.7594V60.756C66.423 60.913 66.3862 61.0633 66.316 61.2002L65.3963 63.231C65.1187 63.8522 64.4398 64.1862 63.7777 64.0359C63.1156 63.8856 62.6541 63.2844 62.6741 62.6064C62.6841 62.269 62.6942 61.9751 62.7042 61.6812V61.6846C62.8246 59.9344 62.7543 58.1775 62.4968 56.4441C62.3831 55.7361 62.0454 55.0814 61.5337 54.5737C61.2461 54.2898 60.9016 54.0761 60.5204 53.9425C60.1625 53.8189 59.778 53.7888 59.4067 53.8523C59.0188 53.9258 58.6543 54.0928 58.3466 54.3366C58.5539 55.9465 58.4269 57.5798 57.9687 59.1362C57.4436 61.1001 56.5574 62.9471 55.3568 64.587C51.0929 70.2416 53.0961 73.635 55.1194 77.0688C55.8518 78.2378 56.4872 79.4636 57.0223 80.7362L57.0254 80.7358ZM56.4301 82.7832L70.8636 79.9676L71.6528 83.9955L57.216 86.8145L56.4267 82.7865L56.4301 82.7832ZM30.1847 55.3015V64.8676C30.188 65.6525 30.8234 66.2872 31.6094 66.2905H52.0426C52.5576 65.2918 53.1596 64.3366 53.8451 63.4449C54.8986 61.9987 55.6778 60.3755 56.1393 58.6486C56.5841 57.2158 56.671 55.6961 56.3935 54.2231C56.3132 53.9058 56.4068 53.5685 56.6343 53.3347C57.2864 52.6366 58.1458 52.1623 59.0856 51.9853C59.7678 51.8651 60.4701 51.9219 61.1256 52.1457C61.7744 52.3694 62.3696 52.7368 62.8612 53.2178C63.6572 54.0027 64.1856 55.0181 64.3728 56.1202C64.4363 56.4843 64.4865 56.8416 64.5266 57.189V29.1635H54.3635L48.3105 34.2536C47.8088 34.6778 47.0965 34.7413 46.528 34.4173C45.9561 34.0933 45.6485 33.4487 45.7555 32.8041L46.3541 29.1635H46.0933C44.06 29.1602 42.4146 27.5169 42.4112 25.4862V12.417H31.6095C30.8236 12.4203 30.1881 13.0549 30.1848 13.8398V31.1107C33.2214 30.426 36.4084 30.9103 39.1073 32.46C41.8061 34.0131 43.8227 36.5214 44.7558 39.4874C45.6922 42.4567 45.4748 45.6664 44.1538 48.4824L45.9063 55.0153C45.9497 55.179 45.9497 55.3493 45.9063 55.513C45.8394 55.7568 45.6822 55.9639 45.4648 56.0908C45.2474 56.2144 44.9866 56.2511 44.7424 56.1843L38.1911 54.4308C35.9338 55.4896 33.4089 55.8436 30.9475 55.4495C30.69 55.4094 30.4358 55.3593 30.1817 55.3025L30.1847 55.3015ZM56.9421 10.5156C57.1795 10.4288 57.427 10.3687 57.6812 10.3386C58.2664 10.2685 58.8584 10.382 59.3767 10.6593C59.9018 10.9398 60.3165 11.3941 60.5439 11.9418C60.6409 12.1723 60.7044 12.4161 60.7312 12.6632C60.7379 12.71 60.7379 12.7601 60.7345 12.8069C60.778 13.5918 60.7011 14.3733 60.5105 15.1349C60.4469 15.3586 60.37 15.5791 60.283 15.7928H63.8614C64.4065 15.7928 64.9316 16.0099 65.3195 16.3974C65.3429 16.4208 65.3629 16.4475 65.383 16.4709C66.1321 17.2825 66.102 18.5383 65.3161 19.3098C65.189 19.4401 65.0419 19.5503 64.8847 19.6405C64.9182 19.7841 64.9315 19.9311 64.9315 20.078C64.9315 20.6224 64.7142 21.1468 64.3296 21.5309L64.3229 21.5376C64.2928 21.5676 64.2593 21.601 64.2259 21.6278C64.3028 21.8449 64.3396 22.072 64.3396 22.3024C64.3396 22.8502 64.1189 23.3712 63.7309 23.7586C63.6473 23.8455 63.5504 23.9223 63.45 23.9924C63.6407 24.7039 63.4333 25.4621 62.9083 25.9831C62.5237 26.3705 61.9986 26.5876 61.4502 26.5876H57.1161C57.0793 26.5876 57.0458 26.5842 57.009 26.5809C56.076 26.5475 55.153 26.3972 54.2601 26.13C53.7919 25.9964 53.317 25.8929 52.8354 25.8261C52.6582 26.0632 52.3773 26.2002 52.0796 26.2002H49.8858C49.3507 26.2002 48.8758 25.8595 48.7086 25.3518H47.5348C46.8526 25.3518 46.2974 24.7974 46.2974 24.1127V18.261V18.2643C46.3041 17.583 46.8559 17.0352 47.5381 17.0352H48.7086C48.7688 16.8515 48.8725 16.6845 49.0096 16.5476C49.043 16.5175 49.0765 16.4841 49.1133 16.4574C49.334 16.2837 49.6049 16.1869 49.8858 16.1869H52.0896C52.3438 16.1869 52.5846 16.2871 52.7652 16.4674C53.5845 16.0633 54.3035 15.4788 54.8687 14.764C55.6813 13.8522 56.1595 12.6932 56.2264 11.4774C56.2164 11.0833 56.4471 10.7259 56.8083 10.5756C56.8518 10.5589 56.8986 10.5389 56.9421 10.5222L56.9421 10.5156ZM58.6075 12.4161C58.6878 12.4829 58.7513 12.5698 58.7915 12.67C58.8182 12.7267 58.8349 12.7902 58.8416 12.8537C58.8784 13.4515 58.8249 14.0527 58.6811 14.6338C58.4905 15.2183 58.2397 15.7828 57.9353 16.3172C57.7848 16.6111 57.7949 16.9619 57.9688 17.2424C58.1393 17.5263 58.447 17.6966 58.7781 17.6966H63.8613C63.9048 17.6966 63.9449 17.7133 63.975 17.7467L63.9951 17.7668C64.0152 17.7935 64.0252 17.8269 64.0252 17.8603C64.0252 17.9037 64.0085 17.9438 63.9784 17.9738C63.9483 18.0072 63.9081 18.0239 63.8647 18.0239H60.2796C59.7546 18.0239 59.3299 18.4481 59.3299 18.9725C59.3299 19.4969 59.7546 19.9211 60.2796 19.9211H62.9082C62.9383 19.9278 62.9651 19.9445 62.9885 19.9678C63.0186 19.9979 63.0386 20.0413 63.0353 20.0847C63.0386 20.1282 63.0219 20.1683 62.9918 20.2017C62.9617 20.2284 62.9182 20.2451 62.8781 20.2451H59.6877C59.4302 20.2384 59.1793 20.3353 58.9954 20.5123C58.8115 20.6926 58.7078 20.9364 58.7078 21.1936C58.7078 21.4508 58.8115 21.698 58.9954 21.875C59.1793 22.0553 59.4302 22.1522 59.6877 22.1455H62.3162C62.3463 22.1522 62.3764 22.1689 62.3998 22.1923L62.4166 22.209C62.4366 22.239 62.4467 22.2724 62.4467 22.3092C62.45 22.3493 62.4333 22.3927 62.4032 22.4227C62.3731 22.4528 62.3296 22.4695 62.2895 22.4695H59.0857C58.8282 22.4628 58.5774 22.5597 58.3934 22.7367C58.2095 22.9171 58.1025 23.1642 58.1025 23.4214C58.1025 23.6752 58.2095 23.9224 58.3934 24.1028C58.5774 24.2798 58.8282 24.3766 59.0857 24.37H61.4634C61.5035 24.37 61.5437 24.3867 61.5738 24.4167C61.6072 24.4501 61.6239 24.4902 61.6239 24.5336C61.6239 24.5737 61.6072 24.6171 61.5771 24.6472C61.547 24.6772 61.5069 24.6973 61.4634 24.6939H57.0724C56.2865 24.6639 55.5107 24.5336 54.7582 24.3098C54.1964 24.1462 53.6245 24.0259 53.046 23.9491V18.3847C54.3435 17.8871 55.4806 17.0454 56.3434 15.9566C57.1996 14.9379 57.7848 13.7221 58.049 12.4196L58.6075 12.4161ZM47.8588 40.7759C47.3338 40.7759 46.9091 40.3517 46.9091 39.8273C46.9091 39.303 47.3338 38.8754 47.8588 38.8754C48.3839 38.8754 48.8086 39.3029 48.8086 39.8273C48.8086 40.3517 48.3839 40.7759 47.8588 40.7759ZM47.8588 47.6095C47.3438 47.5928 46.9358 47.172 46.9358 46.661C46.9358 46.1466 47.3438 45.7257 47.8588 45.7124C48.1163 45.7024 48.3638 45.7992 48.5511 45.9796C48.735 46.1566 48.8387 46.4038 48.8387 46.6609C48.8387 46.9181 48.735 47.1619 48.5511 47.3423C48.3638 47.5193 48.1163 47.6162 47.8588 47.6095ZM60.259 45.7124C60.774 45.7257 61.182 46.1466 61.182 46.661C61.182 47.172 60.774 47.5928 60.259 47.6095H50.0086C49.4936 47.5928 49.0856 47.172 49.0856 46.661C49.0856 46.1466 49.4936 45.7257 50.0086 45.7124H60.259ZM50.0086 44.1927C49.4936 44.176 49.0856 43.7552 49.0856 43.2441C49.0856 42.7298 49.4936 42.3089 50.0086 42.2956H56.8509C57.1084 42.2856 57.3559 42.3824 57.5432 42.5628C57.7271 42.7398 57.8308 42.9869 57.8308 43.2441C57.8308 43.5013 57.7271 43.7451 57.5432 43.9255C57.3559 44.1025 57.1084 44.1994 56.8509 44.1927L50.0086 44.1927ZM61.3223 36.0866H61.319C61.7838 35.8461 62.3556 36.0264 62.5965 36.4874C62.8406 36.9516 62.66 37.5227 62.1952 37.7632L56.6504 40.6623C56.5166 40.7358 56.3661 40.7726 56.2123 40.7726H50.0087C49.4836 40.7726 49.0556 40.3484 49.0556 39.824C49.0556 39.2996 49.4836 38.8721 50.0087 38.8721H55.9916L61.3223 36.0832L61.3223 36.0866ZM47.858 44.1927C47.343 44.176 46.935 43.7552 46.935 43.2441C46.935 42.7298 47.343 42.3089 47.858 42.2956C48.1155 42.2856 48.363 42.3824 48.5502 42.5628C48.7342 42.7398 48.8378 42.9869 48.8378 43.2441C48.8378 43.5013 48.7342 43.7451 48.5502 43.9255C48.363 44.1025 48.1155 44.1994 47.858 44.1927ZM66.1346 9.66385C67.1144 9.66719 67.9137 10.4621 67.9137 11.4407V25.4821C67.9137 26.464 67.1178 27.2589 66.1346 27.2589H54.0221C53.7679 27.2589 53.5205 27.3625 53.3432 27.5462L47.7684 32.2355L48.4071 28.3645H48.4038C48.4439 28.1174 48.3837 27.8635 48.2366 27.6598C48.0894 27.456 47.8687 27.3191 47.6212 27.279C47.5711 27.269 47.5209 27.2657 47.4674 27.2657H46.0929C45.1097 27.2623 44.3171 26.4674 44.3138 25.4888V11.4406C44.3171 10.462 45.1097 9.66708 46.0929 9.66375L66.1346 9.66385ZM48.6439 23.4615H48.1991V18.9325H48.6439V23.4615ZM50.5468 24.3132V18.0808H51.1388V24.3132H50.5468ZM32.9157 48.8485C31.461 48.097 30.1567 47.0883 29.0665 45.8692C28.2572 45.0175 27.6051 44.0322 27.1402 42.9568C26.7723 42.1785 26.7188 41.2868 26.9897 40.4719C27.1502 40.0978 27.3877 39.7638 27.6954 39.4966C28.3876 38.8654 29.3675 38.6583 30.2571 38.9555C31.1433 39.2495 31.7988 39.9942 31.9793 40.9095C32.0596 41.357 32.4475 41.6877 32.9057 41.691C33.3638 41.6943 33.7584 41.3704 33.8454 40.9228C34.0227 40.0043 34.6848 39.2528 35.5744 38.9555C36.464 38.6616 37.4438 38.8687 38.1361 39.5C38.4404 39.7672 38.6812 40.1012 38.8384 40.4752C39.1126 41.2935 39.0591 42.182 38.6879 42.9601C38.223 44.0389 37.5709 45.0243 36.7616 45.8725C35.6714 47.0917 34.3671 48.1037 32.9157 48.8552L32.9157 48.8485ZM38.1662 47.1384C36.8017 48.6715 35.1363 49.9039 33.2702 50.7623C33.0428 50.8558 32.7852 50.8558 32.5578 50.7623C30.6951 49.9039 29.0263 48.6715 27.6618 47.1384C26.6987 46.1197 25.9229 44.9374 25.3743 43.6515C24.8158 42.419 24.7657 41.0196 25.2305 39.7537C25.4981 39.1191 25.9027 38.5547 26.4177 38.0971C27.3073 37.2855 28.4878 36.868 29.6917 36.9348C30.8956 37.0049 32.0227 37.5527 32.8152 38.4577C32.852 38.4978 32.8821 38.5379 32.9156 38.578C32.949 38.5379 32.9824 38.4978 33.0159 38.4577H33.0192C33.8152 37.5493 34.9388 37.0015 36.1427 36.9348C37.3466 36.868 38.5272 37.2855 39.4167 38.0971C39.9351 38.5547 40.3397 39.1258 40.6039 39.7604C41.0721 41.0296 41.0186 42.429 40.4601 43.6581C39.9117 44.9474 39.1358 46.1264 38.1726 47.1484L38.1662 47.1384ZM42.3131 47.9166C42.1894 48.1304 42.1559 48.3842 42.2228 48.6247L43.6442 53.9219L38.3402 52.5024C38.1128 52.4422 37.8753 52.469 37.668 52.5725C33.0563 54.8972 27.4381 53.5344 24.4117 49.3561C21.3818 45.1811 21.84 39.4232 25.4885 35.7756C29.1371 32.125 34.8991 31.6641 39.0864 34.6835C43.2737 37.7028 44.6446 43.3142 42.3203 47.9194L42.3131 47.9166ZM51.1723 61.0029H43.5307C43.3434 61.013 43.1963 61.1666 43.1963 61.3536C43.1963 61.5407 43.3434 61.6976 43.5307 61.7077H51.1756C51.3629 61.6976 51.5101 61.5407 51.5101 61.3536C51.5101 61.1666 51.3629 61.013 51.1756 61.0029H51.1723Z" fill="#262626"/>
</svg>
