<svg width="96" height="96" viewBox="0 0 96 96" fill="none" xmlns="http://www.w3.org/2000/svg">
<path d="M43.3515 74.053C44.1328 74.053 44.7617 74.682 44.7617 75.4632C44.7617 76.2445 44.1328 76.8734 43.3515 76.8734H37.7031C36.9219 76.8734 36.2929 76.2445 36.2929 75.4632C36.2929 74.682 36.9218 74.053 37.7031 74.053H43.3515ZM29.1915 74.053C29.9727 74.053 30.6017 74.682 30.6017 75.4632C30.6017 76.2445 29.9728 76.8734 29.1915 76.8734H9.9685C9.18725 76.8734 8.5583 76.2445 8.5583 75.4632C8.5583 74.682 9.18721 74.053 9.9685 74.053H29.1915ZM26.1212 55.541C26.9025 55.541 27.5314 56.17 27.5314 56.9512C27.5314 57.7325 26.9025 58.3614 26.1212 58.3614H23.0431C22.2619 58.3614 21.6329 57.7325 21.6329 56.9512C21.6329 56.17 22.2618 55.541 23.0431 55.541H26.1212ZM16.879 55.541C17.6602 55.541 18.2892 56.17 18.2892 56.9512C18.2892 57.7325 17.6603 58.3614 16.879 58.3614H9.9688C9.18755 58.3614 8.5586 57.7325 8.5586 56.9512C8.5586 56.17 9.18751 55.541 9.9688 55.541H16.879ZM14.1485 46.291C14.9298 46.291 15.5587 46.92 15.5587 47.7012C15.5587 48.4825 14.9298 49.1114 14.1485 49.1114H9.9688C9.18755 49.1114 8.5586 48.4825 8.5586 47.7012C8.5586 46.92 9.18751 46.291 9.9688 46.291H14.1485ZM32.9415 21.963C35.0821 20.3224 36.961 19.5216 38.7227 19.8341C40.5235 20.1427 42.0313 21.5646 43.3633 24.3458L43.4024 24.4474C44.4141 27.256 45.8321 29.1388 47.5508 30.299C49.2696 31.4474 51.332 31.9084 53.6524 31.8888C54.3242 31.8888 55.0821 31.7794 55.8516 31.6779C58.2227 31.3576 60.6328 31.0372 62.5821 32.9279C63.8204 34.1271 63.9532 35.6779 64.1407 37.9474L64.1914 38.5255V38.6466C64.3907 42.9864 65.3125 48.6466 67.4726 53.0876C69.0117 56.2595 71.1718 58.779 74.121 59.6384C75.4999 60.0368 77.1405 59.9782 78.7694 59.9196C81.6913 59.8181 84.5311 59.7087 86.5897 61.9196C87.0897 62.4587 87.4804 63.111 87.7694 63.8688C88.0507 64.568 88.4804 66.8571 88.4999 67.15C88.5702 67.2789 88.3515 70.5016 87.8905 71.5914C87.2694 73.0328 86.1913 74.2203 84.5116 74.8805C83.1522 75.4196 80.4804 75.8219 77.5819 76.0993C73.5936 76.4782 69.1014 76.6384 67.0699 76.5798C60.0894 76.3884 54.9609 75.1892 50.6789 72.8181C46.3898 70.4587 42.9992 66.9587 39.4679 62.2091C35.2882 56.5685 34.3077 55.838 30.8781 53.2677C30.0891 52.6779 29.1867 51.9982 28.1789 51.2169C25.2687 48.9669 22.3195 46.2286 20.1672 43.3263C18.5891 41.2052 17.4367 38.9865 17.0383 36.7951C16.6086 34.4943 17.0071 32.256 18.5774 30.2248C19.136 29.4943 19.8586 28.8029 20.7376 28.1467C21.3665 27.6779 22.1165 27.2483 22.9485 26.8459C23.7688 26.4553 24.6399 26.0959 25.5266 25.7756C26.3548 25.467 26.9875 25.2561 27.5071 25.0764C28.8782 24.6076 29.6087 24.3459 30.5774 23.7366C30.8665 23.5569 31.1868 23.3264 31.5774 23.0374C31.9993 22.7288 32.4368 22.3889 32.9172 21.9866L32.968 21.9475L32.9415 21.963ZM34.8712 64.822C35.6525 64.822 36.2814 65.451 36.2814 66.2322C36.2814 67.0135 35.6525 67.6424 34.8712 67.6424H9.9102C9.12895 67.6424 8.5 67.0135 8.5 66.2322C8.5 65.451 9.12891 64.822 9.9102 64.822H34.8712ZM34.2814 23.681L35.6095 26.8919L30.5704 29.6302L28.8595 26.9193L28.1681 27.1576C27.6095 27.349 26.9571 27.5795 26.2267 27.849C25.3556 28.1693 24.5469 28.4975 23.8361 28.8373C23.4142 29.0365 23.0275 29.2475 22.6564 29.4662C23.4064 31.185 24.258 32.8178 25.215 34.3373C26.2736 36.0365 27.4532 37.599 28.7344 39.0365C29.8361 40.2553 30.8556 41.2162 31.8361 42.0053C32.797 42.7866 33.7266 43.4272 34.6055 43.9936C40.2539 47.6225 42.0469 50.5639 44.0547 53.8647C45.3047 55.9155 46.6446 58.1147 49.1329 60.7045C51.3829 63.0561 53.7422 64.8256 56.2422 66.0443C58.7227 67.2552 61.3517 67.9427 64.1642 68.1224C68.375 68.392 73.8633 67.8412 79.1441 67.3021C81.5934 67.0521 83.9957 66.8138 86.2027 66.6537V66.6224C86.0738 65.8841 85.9137 65.224 85.691 64.6615C85.4918 64.1498 85.2496 63.7318 84.941 63.4115C83.5621 61.931 81.2105 62.0131 78.8004 62.1029C77.0113 62.1615 75.1793 62.2318 73.4723 61.7318C70.2106 60.7826 67.7926 58.3099 66.0426 55.1537C64.8512 56.0522 63.6832 56.6654 62.5035 56.9232C61.0816 57.2318 59.7144 57.0521 58.3629 56.2943C57.5543 55.8334 57.2731 54.8138 57.734 54.0052C58.1949 53.1966 59.2145 52.9154 60.0231 53.3763C60.6012 53.7044 61.1833 53.7865 61.7848 53.6576C62.5231 53.4974 63.3434 53.0169 64.2536 52.2982C64.363 52.2083 64.4841 52.138 64.613 52.0794C64.4216 51.5794 64.2419 51.0794 64.0739 50.5677C63.0622 51.2591 62.0739 51.7279 61.0739 51.9466C59.652 52.2552 58.2848 52.0755 56.9333 51.306C56.1248 50.8451 55.8435 49.8255 56.3044 49.0169C56.7654 48.2083 57.7849 47.9271 58.5935 48.388C59.1716 48.7161 59.7537 48.7981 60.3552 48.6692C61.0935 48.5091 61.9138 48.0403 62.824 47.3098C62.9139 47.2395 63.0154 47.1692 63.1131 47.1184C62.9334 46.3294 62.7732 45.5481 62.6443 44.7668C61.6326 45.4582 60.6443 45.927 59.6443 46.1457C58.2224 46.4543 56.8552 46.2746 55.5037 45.5051C54.6951 45.0442 54.4139 44.0246 54.8748 43.216C55.3358 42.4074 56.3553 42.1262 57.1639 42.5871C57.7421 42.9152 58.3241 42.9973 58.9256 42.8683C59.6639 42.7082 60.4842 42.2277 61.3944 41.5089C61.6132 41.3293 61.8827 41.2082 62.164 41.1691C62.0858 40.3293 62.0233 39.5207 61.9921 38.7472L61.9413 38.1261C61.7929 36.337 61.6913 35.1144 61.0429 34.4855C59.8632 33.3371 57.9726 33.5871 56.121 33.8371C55.3007 33.9465 54.4804 34.0558 53.6601 34.0675C50.9218 34.0988 48.4492 33.5285 46.332 32.1066C44.2422 30.7082 42.5429 28.4855 41.3632 25.2355C40.3749 23.1847 39.3944 22.1652 38.332 21.9855C37.2539 21.7941 35.9101 22.427 34.2734 23.6769L34.2814 23.681ZM86.3204 68.833C84.1407 68.9815 81.7813 69.2237 79.379 69.4737C74.0079 70.0244 68.418 70.5831 64.051 70.3018C60.9612 70.1026 58.051 69.3408 55.3127 68.001C52.5822 66.6612 50.0236 64.751 47.5939 62.2198C44.9337 59.4503 43.5236 57.1417 42.2228 55.001C40.3517 51.9307 38.6837 49.1924 33.4533 45.8291C32.5236 45.2275 31.5431 44.5596 30.4845 43.7002C29.4337 42.8486 28.3243 41.8096 27.1329 40.4893C25.7423 38.9385 24.4845 37.2588 23.3712 35.4893C22.461 34.0401 21.6407 32.501 20.9024 30.8487C20.6719 31.0792 20.4609 31.3174 20.2617 31.5674C19.1133 33.0479 18.8203 34.708 19.1406 36.4072C19.4805 38.2353 20.4922 40.1455 21.8789 42.0283C23.8984 44.7392 26.6992 47.3486 29.4687 49.4892C30.5703 50.3408 31.4101 50.9697 32.1484 51.5204C35.7773 54.2392 36.8203 55.0204 41.1875 60.8993C44.5391 65.411 47.7266 68.7079 51.6995 70.8993C55.68 73.0907 60.4886 74.2196 67.0905 74.3876C69.0514 74.4384 73.4303 74.2861 77.3405 73.9072C80.0593 73.6454 82.5202 73.2861 83.6921 72.8291C84.7624 72.4072 85.4538 71.6377 85.8523 70.708C86.1023 70.1298 86.243 69.4775 86.3016 68.8174L86.3204 68.833Z" fill="#262626"/>
</svg>
