<svg width="96" height="96" viewBox="0 0 96 96" fill="none" xmlns="http://www.w3.org/2000/svg">
<path d="M74.1543 76.9936H22.8451C21.2504 76.9936 19.9716 76.5001 19.0391 75.527C17.4507 73.8638 17.5002 71.3937 17.5002 71.1463V45.7841C17.5002 42.8814 18.3286 40.646 19.9639 39.1426C22.3047 36.9858 25.4523 37.133 25.81 37.1571H34.0399C34.2082 37.1571 34.3695 37.2239 34.4885 37.3429C34.6075 37.4618 34.6743 37.6232 34.6743 37.7914C34.6743 37.9597 34.6075 38.121 34.4885 38.24C34.3695 38.3589 34.2082 38.4258 34.0399 38.4258H25.7935H25.7415C25.7136 38.4258 22.8362 38.2215 20.8203 40.0865C19.459 41.3437 18.7688 43.2556 18.7688 45.7841V71.1869C18.7688 71.2059 18.6965 73.3436 19.9627 74.6567C20.644 75.3659 21.612 75.7249 22.8438 75.7249H74.1543C75.3887 75.7249 76.3606 75.3634 77.0418 74.6504C78.3105 73.3221 78.2306 71.2072 78.2293 71.1869V45.7841C78.2293 43.2556 77.5417 41.3437 76.1842 40.0839C74.1683 38.219 71.2922 38.4258 71.2617 38.4258H71.211H62.8237C62.6555 38.4258 62.4942 38.3589 62.3752 38.24C62.2562 38.121 62.1894 37.9597 62.1894 37.7914C62.1894 37.6232 62.2562 37.4618 62.3752 37.3429C62.4942 37.2239 62.6555 37.1571 62.8237 37.1571H71.1881C71.5472 37.133 74.6935 36.9871 77.0355 39.1426C78.6696 40.646 79.498 42.8814 79.498 45.7841V71.145C79.5069 71.3987 79.5487 73.8625 77.9591 75.527C77.0291 76.5001 75.7491 76.9936 74.1543 76.9936Z" fill="#262626"/>
<path d="M59.5252 38.4258H37.355C37.1868 38.4258 37.0255 38.359 36.9065 38.24C36.7875 38.121 36.7207 37.9597 36.7207 37.7914C36.7207 37.6232 36.7875 37.4619 36.9065 37.3429C37.0255 37.2239 37.1868 37.1571 37.355 37.1571H59.5252C59.6935 37.1571 59.8548 37.2239 59.9738 37.3429C60.0927 37.4619 60.1596 37.6232 60.1596 37.7914C60.1596 37.9597 60.0927 38.121 59.9738 38.24C59.8548 38.359 59.6935 38.4258 59.5252 38.4258Z" fill="#262626"/>
<path d="M59.5252 35.9189H37.355C37.1868 35.9189 37.0255 35.8521 36.9065 35.7331C36.7875 35.6141 36.7207 35.4528 36.7207 35.2845C36.7207 35.1163 36.7875 34.955 36.9065 34.836C37.0255 34.717 37.1868 34.6502 37.355 34.6502H59.5252C59.6935 34.6502 59.8548 34.717 59.9738 34.836C60.0927 34.955 60.1596 35.1163 60.1596 35.2845C60.1596 35.4528 60.0927 35.6141 59.9738 35.7331C59.8548 35.8521 59.6935 35.9189 59.5252 35.9189Z" fill="#262626"/>
<path d="M40.8437 69.2547H40.0749C39.5702 69.2547 39.0861 69.0542 38.7293 68.6973C38.3724 68.3404 38.1719 67.8564 38.1719 67.3517V63.387C38.1719 62.8823 38.3724 62.3983 38.7293 62.0414C39.0861 61.6845 39.5702 61.484 40.0749 61.484H40.8437C41.3484 61.484 41.8325 61.6845 42.1894 62.0414C42.5462 62.3983 42.7467 62.8823 42.7467 63.387V67.3517C42.7467 67.8564 42.5462 68.3404 42.1894 68.6973C41.8325 69.0542 41.3484 69.2547 40.8437 69.2547ZM40.0749 62.7527C39.9067 62.7527 39.7453 62.8195 39.6263 62.9385C39.5074 63.0574 39.4406 63.2188 39.4406 63.387V67.3517C39.4406 67.5199 39.5074 67.6812 39.6263 67.8002C39.7453 67.9192 39.9067 67.986 40.0749 67.986H40.8437C41.012 67.986 41.1733 67.9192 41.2923 67.8002C41.4112 67.6812 41.4781 67.5199 41.4781 67.3517V63.387C41.4781 63.2188 41.4112 63.0574 41.2923 62.9385C41.1733 62.8195 41.012 62.7527 40.8437 62.7527H40.0749Z" fill="#262626"/>
<path d="M40.4625 67.3757C40.2942 67.3757 40.1329 67.3089 40.0139 67.1899C39.895 67.071 39.8281 66.9096 39.8281 66.7414V66.645C39.8281 66.4767 39.895 66.3154 40.0139 66.1964C40.1329 66.0775 40.2942 66.0106 40.4625 66.0106C40.6307 66.0106 40.792 66.0775 40.911 66.1964C41.03 66.3154 41.0968 66.4767 41.0968 66.645V66.7414C41.0968 66.9096 41.03 67.071 40.911 67.1899C40.792 67.3089 40.6307 67.3757 40.4625 67.3757Z" fill="#262626"/>
<path d="M39.3209 48.4484H32.0894C31.9212 48.4484 31.7598 48.3816 31.6409 48.2626C31.5219 48.1436 31.4551 47.9823 31.4551 47.8141V41.8513C31.4551 41.683 31.5219 41.5217 31.6409 41.4027C31.7598 41.2838 31.9212 41.2169 32.0894 41.2169H34.1193C34.2875 41.2169 34.4489 41.2838 34.5679 41.4027C34.6868 41.5217 34.7536 41.683 34.7536 41.8513C34.7536 42.0195 34.6868 42.1808 34.5679 42.2998C34.4489 42.4188 34.2875 42.4856 34.1193 42.4856H32.7238V47.1797H38.6866V42.4856H37.3037C37.1355 42.4856 36.9741 42.4188 36.8551 42.2998C36.7362 42.1808 36.6694 42.0195 36.6694 41.8513C36.6694 41.683 36.7362 41.5217 36.8551 41.4027C36.9741 41.2838 37.1355 41.2169 37.3037 41.2169H39.3209C39.4891 41.2169 39.6505 41.2838 39.7694 41.4027C39.8884 41.5217 39.9552 41.683 39.9552 41.8513V47.8141C39.9552 47.9823 39.8884 48.1436 39.7694 48.2626C39.6505 48.3816 39.4891 48.4484 39.3209 48.4484Z" fill="#262626"/>
<path d="M59.5759 43.8811C59.4077 43.8811 59.2463 43.8142 59.1274 43.6953C59.0084 43.5763 58.9416 43.415 58.9416 43.2467V31.1423C58.9416 31.1143 58.8972 28.1291 56.6986 25.9204C54.9085 24.1226 52.1313 23.2117 48.4395 23.2117C44.7476 23.2117 41.9692 24.1226 40.1816 25.9204C37.9792 28.1329 37.9386 31.122 37.9386 31.1524V43.1199C37.9386 43.2881 37.8718 43.4494 37.7528 43.5684C37.6338 43.6874 37.4725 43.7542 37.3043 43.7542C37.136 43.7542 36.9747 43.6874 36.8557 43.5684C36.7368 43.4494 36.6699 43.2881 36.6699 43.1199V31.1511C36.6699 31.0078 36.6991 27.6191 39.2834 25.0247C41.3196 22.9796 44.3962 21.9431 48.4395 21.9431C52.4827 21.9431 55.5606 22.9796 57.5968 25.0247C60.1811 27.6204 60.2103 31.0002 60.2103 31.1423V43.2467C60.2103 43.415 60.1434 43.5763 60.0245 43.6953C59.9055 43.8142 59.7442 43.8811 59.5759 43.8811Z" fill="#262626"/>
<path d="M64.8219 48.4484H57.5904C57.4222 48.4484 57.2608 48.3816 57.1418 48.2626C57.0229 48.1436 56.9561 47.9823 56.9561 47.8141V41.8513C56.9561 41.683 57.0229 41.5217 57.1418 41.4027C57.2608 41.2838 57.4222 41.2169 57.5904 41.2169H59.5759C59.7441 41.2169 59.9055 41.2838 60.0244 41.4027C60.1434 41.5217 60.2102 41.683 60.2102 41.8513C60.2102 42.0195 60.1434 42.1808 60.0244 42.2998C59.9055 42.4188 59.7441 42.4856 59.5759 42.4856H58.2247V47.1797H64.1875V42.4856H62.7577C62.5895 42.4856 62.4281 42.4188 62.3092 42.2998C62.1902 42.1808 62.1234 42.0195 62.1234 41.8513C62.1234 41.683 62.1902 41.5217 62.3092 41.4027C62.4281 41.2838 62.5895 41.2169 62.7577 41.2169H64.8219C64.9901 41.2169 65.1515 41.2838 65.2704 41.4027C65.3894 41.5217 65.4562 41.683 65.4562 41.8513V47.8141C65.4562 47.9823 65.3894 48.1436 65.2704 48.2626C65.1515 48.3816 64.9901 48.4484 64.8219 48.4484Z" fill="#262626"/>
<path d="M62.7576 43.8811C62.5894 43.8811 62.428 43.8143 62.309 43.6953C62.1901 43.5763 62.1233 43.415 62.1233 43.2467V31.174C62.1233 30.7363 62.0509 26.8224 58.9934 23.718C56.5829 21.2707 53.0306 20.0299 48.4393 20.0299C43.8479 20.0299 40.2956 21.2707 37.8851 23.718C34.7629 26.8897 34.754 30.9964 34.754 31.1689V43.1199C34.754 43.2881 34.6872 43.4495 34.5682 43.5684C34.4493 43.6874 34.2879 43.7542 34.1197 43.7542C33.9515 43.7542 33.7901 43.6874 33.6711 43.5684C33.5522 43.4495 33.4854 43.2881 33.4854 43.1199V31.174C33.4854 30.6906 33.5513 26.3099 36.9793 22.8274C39.6359 20.1289 43.4914 18.7676 48.4367 18.7676C53.3821 18.7676 57.2388 20.1352 59.8942 22.8337C63.3082 26.301 63.3907 30.6995 63.3894 31.1829V43.2467C63.3894 43.4145 63.3229 43.5755 63.2045 43.6944C63.0861 43.8133 62.9254 43.8804 62.7576 43.8811Z" fill="#262626"/>
<path d="M43.127 72.8069H23.3356C22.8309 72.8069 22.3469 72.6065 21.99 72.2496C21.6331 71.8927 21.4326 71.4086 21.4326 70.9039V58.0903C21.4326 55.6493 22.5655 54.4783 23.5158 53.9265C24.5003 53.3543 25.5736 53.2693 26.1267 53.2693H40.4628C41.3535 53.257 42.2318 53.4783 43.0103 53.9112C43.9314 54.4492 45.0301 55.5884 45.0301 57.9634V70.9039C45.0301 71.4086 44.8296 71.8927 44.4727 72.2496C44.1158 72.6065 43.6317 72.8069 43.127 72.8069ZM26.1267 54.538C24.8479 54.538 22.7013 54.9998 22.7013 58.0903V70.9039C22.7013 71.0722 22.7681 71.2335 22.8871 71.3525C23.0061 71.4714 23.1674 71.5383 23.3356 71.5383H43.127C43.2953 71.5383 43.4566 71.4714 43.5756 71.3525C43.6945 71.2335 43.7614 71.0722 43.7614 70.9039V57.9634C43.7614 54.9833 41.6947 54.538 40.4628 54.538H26.1267Z" fill="#262626"/>
<path d="M44.3957 60.6276H22.067C21.8987 60.6276 21.7374 60.5608 21.6184 60.4418C21.4994 60.3229 21.4326 60.1615 21.4326 59.9933C21.4326 59.8251 21.4994 59.6637 21.6184 59.5447C21.7374 59.4258 21.8987 59.3589 22.067 59.3589H44.3957C44.564 59.3589 44.7253 59.4258 44.8443 59.5447C44.9632 59.6637 45.0301 59.8251 45.0301 59.9933C45.0301 60.1615 44.9632 60.3229 44.8443 60.4418C44.7253 60.5608 44.564 60.6276 44.3957 60.6276Z" fill="#262626"/>
<path d="M40.3365 62.6576C40.1683 62.6576 40.0069 62.5908 39.8879 62.4718C39.769 62.3528 39.7021 62.1915 39.7021 62.0233V60.1202C39.7021 59.952 39.769 59.7907 39.8879 59.6717C40.0069 59.5527 40.1683 59.4859 40.3365 59.4859C40.5047 59.4859 40.6661 59.5527 40.785 59.6717C40.904 59.7907 40.9708 59.952 40.9708 60.1202V62.0233C40.9708 62.1915 40.904 62.3528 40.785 62.4718C40.6661 62.5908 40.5047 62.6576 40.3365 62.6576Z" fill="#262626"/>
<path d="M71.4189 69.2547H70.6501C70.1454 69.2547 69.6613 69.0542 69.3045 68.6973C68.9476 68.3404 68.7471 67.8564 68.7471 67.3517V63.387C68.7471 62.8823 68.9476 62.3983 69.3045 62.0414C69.6613 61.6845 70.1454 61.484 70.6501 61.484H71.4189C71.9236 61.484 72.4077 61.6845 72.7645 62.0414C73.1214 62.3983 73.3219 62.8823 73.3219 63.387V67.3517C73.3219 67.8564 73.1214 68.3404 72.7645 68.6973C72.4077 69.0542 71.9236 69.2547 71.4189 69.2547ZM70.6501 62.7527C70.4819 62.7527 70.3205 62.8195 70.2015 62.9385C70.0826 63.0574 70.0157 63.2188 70.0157 63.387V67.3517C70.0157 67.5199 70.0826 67.6812 70.2015 67.8002C70.3205 67.9192 70.4819 67.986 70.6501 67.986H71.4189C71.5871 67.986 71.7485 67.9192 71.8675 67.8002C71.9864 67.6812 72.0532 67.5199 72.0532 67.3517V63.387C72.0532 63.2188 71.9864 63.0574 71.8675 62.9385C71.7485 62.8195 71.5871 62.7527 71.4189 62.7527H70.6501Z" fill="#262626"/>
<path d="M71.0386 67.3757C70.8704 67.3757 70.7091 67.3089 70.5901 67.1899C70.4711 67.071 70.4043 66.9096 70.4043 66.7414V66.645C70.4043 66.4767 70.4711 66.3154 70.5901 66.1964C70.7091 66.0775 70.8704 66.0106 71.0386 66.0106C71.2069 66.0106 71.3682 66.0775 71.4872 66.1964C71.6061 66.3154 71.673 66.4767 71.673 66.645V66.7414C71.673 66.9096 71.6061 67.071 71.4872 67.1899C71.3682 67.3089 71.2069 67.3757 71.0386 67.3757Z" fill="#262626"/>
<path d="M73.7032 72.8069H53.9118C53.4071 72.8069 52.9231 72.6065 52.5662 72.2496C52.2093 71.8927 52.0088 71.4086 52.0088 70.9039V58.0903C52.0088 55.6493 53.1417 54.4783 54.092 53.9265C55.0765 53.3543 56.1498 53.2693 56.7029 53.2693H71.039C71.9297 53.257 72.808 53.4783 73.5865 53.9112C74.5075 54.4492 75.6062 55.5884 75.6062 57.9634V70.9039C75.6062 71.4086 75.4057 71.8927 75.0488 72.2496C74.692 72.6065 74.2079 72.8069 73.7032 72.8069ZM56.7029 54.538C55.4241 54.538 53.2775 54.9998 53.2775 58.0903V70.9039C53.2775 71.0722 53.3443 71.2335 53.4633 71.3525C53.5822 71.4714 53.7436 71.5383 53.9118 71.5383H73.7032C73.8714 71.5383 74.0328 71.4714 74.1518 71.3525C74.2707 71.2335 74.3375 71.0722 74.3375 70.9039V57.9634C74.3375 54.9833 72.2709 54.538 71.039 54.538H56.7029Z" fill="#262626"/>
<path d="M74.9719 60.6276H52.6431C52.4749 60.6276 52.3135 60.5608 52.1946 60.4418C52.0756 60.3229 52.0088 60.1615 52.0088 59.9933C52.0088 59.8251 52.0756 59.6637 52.1946 59.5447C52.3135 59.4258 52.4749 59.3589 52.6431 59.3589H74.9719C75.1401 59.3589 75.3015 59.4258 75.4204 59.5447C75.5394 59.6637 75.6062 59.8251 75.6062 59.9933C75.6062 60.1615 75.5394 60.3229 75.4204 60.4418C75.3015 60.5608 75.1401 60.6276 74.9719 60.6276Z" fill="#262626"/>
<path d="M70.9117 62.6576C70.7434 62.6576 70.5821 62.5908 70.4631 62.4718C70.3442 62.3528 70.2773 62.1915 70.2773 62.0233V60.1202C70.2773 59.952 70.3442 59.7907 70.4631 59.6717C70.5821 59.5527 70.7434 59.4859 70.9117 59.4859C71.0799 59.4859 71.2413 59.5527 71.3602 59.6717C71.4792 59.7907 71.546 59.952 71.546 60.1202V62.0233C71.546 62.1915 71.4792 62.3528 71.3602 62.4718C71.2413 62.5908 71.0799 62.6576 70.9117 62.6576Z" fill="#262626"/>
<path d="M71.4189 46.9259H70.6501C70.1454 46.9259 69.6613 46.7254 69.3045 46.3686C68.9476 46.0117 68.7471 45.5276 68.7471 45.0229V41.0583C68.7471 40.5536 68.9476 40.0695 69.3045 39.7127C69.6613 39.3558 70.1454 39.1553 70.6501 39.1553H71.4189C71.9236 39.1553 72.4077 39.3558 72.7645 39.7127C73.1214 40.0695 73.3219 40.5536 73.3219 41.0583V45.0229C73.3219 45.5276 73.1214 46.0117 72.7645 46.3686C72.4077 46.7254 71.9236 46.9259 71.4189 46.9259ZM70.6501 40.424C70.4819 40.424 70.3205 40.4908 70.2015 40.6097C70.0826 40.7287 70.0157 40.8901 70.0157 41.0583V45.0229C70.0157 45.1912 70.0826 45.3525 70.2015 45.4715C70.3205 45.5904 70.4819 45.6573 70.6501 45.6573H71.4189C71.5871 45.6573 71.7485 45.5904 71.8675 45.4715C71.9864 45.3525 72.0532 45.1912 72.0532 45.0229V41.0583C72.0532 40.8901 71.9864 40.7287 71.8675 40.6097C71.7485 40.4908 71.5871 40.424 71.4189 40.424H70.6501Z" fill="#262626"/>
<path d="M71.0386 45.047C70.8704 45.047 70.7091 44.9802 70.5901 44.8613C70.4711 44.7423 70.4043 44.5809 70.4043 44.4127V44.3163C70.4043 44.148 70.4711 43.9867 70.5901 43.8677C70.7091 43.7488 70.8704 43.6819 71.0386 43.6819C71.2069 43.6819 71.3682 43.7488 71.4872 43.8677C71.6061 43.9867 71.673 44.148 71.673 44.3163V44.4127C71.673 44.5809 71.6061 44.7423 71.4872 44.8613C71.3682 44.9802 71.2069 45.047 71.0386 45.047Z" fill="#262626"/>
<path d="M70.9117 40.3288C70.7434 40.3288 70.5821 40.262 70.4631 40.143C70.3442 40.024 70.2773 39.8627 70.2773 39.6945V37.7914C70.2773 37.6232 70.3442 37.4619 70.4631 37.3429C70.5821 37.2239 70.7434 37.1571 70.9117 37.1571C71.0799 37.1571 71.2413 37.2239 71.3602 37.3429C71.4792 37.4619 71.546 37.6232 71.546 37.7914V39.6945C71.546 39.8627 71.4792 40.024 71.3602 40.143C71.2413 40.262 71.0799 40.3288 70.9117 40.3288Z" fill="#262626"/>
<path d="M25.1265 38.4258C24.9583 38.4258 24.7969 38.3589 24.678 38.24C24.559 38.121 24.4922 37.9597 24.4922 37.7914C24.4922 36.7232 24.7941 35.8884 25.3904 35.3188C25.9019 34.8393 26.5772 34.5734 27.2782 34.5753H34.1291C34.2973 34.5753 34.4587 34.6422 34.5776 34.7611C34.6966 34.8801 34.7634 35.0414 34.7634 35.2097C34.7634 35.3779 34.6966 35.5393 34.5776 35.6582C34.4587 35.7772 34.2973 35.844 34.1291 35.844H27.244C26.8772 35.8524 26.5258 35.993 26.2544 36.2398C25.9233 36.5646 25.7558 37.0848 25.7558 37.7876C25.7568 37.9556 25.6911 38.1172 25.5731 38.2368C25.4552 38.3565 25.2945 38.4244 25.1265 38.4258Z" fill="#262626"/>
<path d="M71.8002 38.2685H71.7659C71.6827 38.2641 71.6011 38.2434 71.5259 38.2074C71.4507 38.1715 71.3833 38.1211 71.3276 38.0592C71.2719 37.9972 71.2289 37.9248 71.2011 37.8463C71.1734 37.7677 71.1614 37.6844 71.1658 37.6012C71.1937 37.0747 71.0758 36.6699 70.8157 36.3946C70.3843 35.9392 69.6523 35.9189 69.6447 35.9189H62.7925C62.6243 35.9189 62.463 35.8521 62.344 35.7331C62.225 35.6141 62.1582 35.4528 62.1582 35.2845C62.1582 35.1163 62.225 34.955 62.344 34.836C62.463 34.717 62.6243 34.6502 62.7925 34.6502H69.6434C69.7703 34.6502 70.9324 34.6743 71.7355 35.5218C72.2429 36.0597 72.4789 36.7816 72.4307 37.6684C72.422 37.83 72.3518 37.9821 72.2346 38.0937C72.1174 38.2052 71.962 38.2677 71.8002 38.2685Z" fill="#262626"/>
</svg>
