<svg width="30" height="30" viewBox="0 0 30 30" fill="none" xmlns="http://www.w3.org/2000/svg">
<g clip-path="url(#clip0_282_2786)">
<path d="M28.9284 15.0008C28.9284 18.6949 27.461 22.2377 24.8488 24.8498C22.2367 27.4619 18.6939 28.9294 14.9999 28.9294C11.3058 28.9294 7.76299 27.4619 5.15087 24.8498C2.53876 22.2377 1.07129 18.6949 1.07129 15.0008M28.9284 15.0008C28.9284 11.3067 27.461 7.76396 24.8488 5.15185C22.2367 2.53974 18.6939 1.07227 14.9999 1.07227C11.3058 1.07227 7.76299 2.53974 5.15087 5.15185C2.53876 7.76396 1.07129 11.3067 1.07129 15.0008M28.9284 15.0008H1.07129" stroke="white" stroke-opacity="0.4" stroke-width="2" stroke-linecap="round" stroke-linejoin="round"/>
<path d="M20.3569 15.0008C20.0937 20.0944 18.2176 24.9723 14.9997 28.9294C11.7818 24.9723 9.90572 20.0944 9.64258 15.0008C9.90572 9.90729 11.7818 5.02938 14.9997 1.07227C18.2176 5.02938 20.0937 9.90729 20.3569 15.0008Z" stroke="white" stroke-opacity="0.4" stroke-width="1.5" stroke-linecap="round" stroke-linejoin="round"/>
</g>
<defs>
<clipPath id="clip0_282_2786">
<rect width="30" height="30" fill="white"/>
</clipPath>
</defs>
</svg>
