<svg width="95" height="95" viewBox="0 0 95 95" fill="none" xmlns="http://www.w3.org/2000/svg">
<path d="M69.306 35.4451L56.036 43.1092L57.8993 77.9532L66.5321 71.7774C68.1766 70.6407 69.1493 68.7618 69.1259 66.7618L69.2509 45.1718V45.082L69.306 35.4451ZM78.8958 19.7341L78.8997 19.738C78.9192 19.738 78.9426 19.7419 78.9661 19.7458C81.552 20.1911 84.2044 20.0974 86.7552 19.4724C88.1146 19.0544 89.556 18.9958 90.9466 19.2966L91.0833 19.3474V19.3435L91.0794 19.3474C92.1966 19.7497 93.1458 20.5232 93.7591 21.5388C94.4114 22.5818 94.5755 23.8552 94.2044 25.0271L94.1692 25.1404C93.4622 27.117 90.427 30.656 85.8645 34.7381C81.3254 38.742 76.5051 42.4178 71.4425 45.7341L71.3254 66.7771H71.3214C71.3449 69.4802 70.0284 72.0232 67.8097 73.574L57.5638 80.8982V80.8942C57.388 81.031 57.177 81.1052 56.9583 81.113C56.6653 81.1286 56.3802 81.0271 56.1614 80.8317C55.9466 80.6364 55.8137 80.363 55.802 80.0739L54.4739 55.0539C49.6028 57.2375 44.5012 58.8547 39.2589 59.8703C35.0245 60.7024 30.6808 60.8 26.4109 60.1633L26.368 68.1477H26.3719C26.3758 69.7219 25.6101 71.1985 24.3211 72.1008L19.0242 75.8899C18.6999 76.1321 18.2664 76.179 17.8992 76.0071C17.5281 75.8352 17.2859 75.4719 17.2664 75.0657L16.2585 56.1517C15.7898 55.8275 15.3406 55.4954 14.8991 55.14C14.3093 54.6712 13.7312 54.1634 13.1648 53.6166L1.33275 42.0386C1.08666 41.8003 0.96556 41.4566 1.00853 41.1167C1.0515 40.7769 1.25462 40.4761 1.5515 40.3042L9.3874 35.1284C9.75459 34.8862 10.2311 34.8862 10.5983 35.1284L25.3873 44.9409L41.9493 35.3784L22.8083 22.9254C22.3005 22.5934 22.156 21.9137 22.4841 21.4059C22.6013 21.2301 22.7653 21.0895 22.9567 20.9997L34.4487 15.7809C36.8979 14.6286 39.7573 14.7575 42.0893 16.1285L58.7923 25.6519L69.3353 19.566C72.6283 17.6637 75.7103 18.6988 77.7689 19.3942L77.7728 19.3902C78.14 19.527 78.515 19.6402 78.8978 19.7379L78.8958 19.7341ZM78.9309 21.9685L72.8254 25.4919L72.8293 25.4958C72.3059 25.8005 71.6301 25.6247 71.3254 25.0974C71.0207 24.57 71.2004 23.8982 71.7239 23.5935L75.9934 21.1326C74.177 20.449 72.1536 20.5701 70.4309 21.4685L59.3999 27.8357C59.3686 27.8591 59.3335 27.8787 59.2944 27.8982L44.6534 36.3591C44.6222 36.3747 44.5909 36.3943 44.5557 36.4099L25.9657 47.1479H25.9618C25.5907 47.394 25.1103 47.394 24.7391 47.1518L9.98514 37.3666L3.84454 41.4174L14.6885 52.0304C15.2003 52.5187 15.7237 52.9835 16.2666 53.4171C16.6416 53.714 17.0166 53.9952 17.3916 54.2608L24.8135 49.9756C25.1534 49.7803 25.5753 49.7803 25.9151 49.9795C26.255 50.1749 26.462 50.5421 26.4581 50.9327L26.423 57.671L54.353 41.546L69.0559 33.0538L69.8333 32.6045C69.8567 32.5928 69.8763 32.5811 69.8997 32.5694L89.4227 21.2964C88.6688 21.3511 87.9227 21.4644 87.1844 21.6362C84.4813 22.2886 81.6766 22.4058 78.9305 21.9722L78.9309 21.9685ZM63.0049 27.1169L64.8994 26.0271C65.3486 25.7654 65.8838 25.6951 66.3877 25.8318C66.8916 25.9646 67.3174 26.2966 67.5791 26.7459L68.6963 28.6912C68.958 29.1404 69.0283 29.6755 68.8955 30.1756C68.7627 30.6795 68.4346 31.1091 67.9854 31.3669L66.0362 32.4919C66.0088 32.5076 65.9776 32.5232 65.9463 32.5388V32.5427C65.5127 32.7615 65.0166 32.8162 64.5479 32.6912C64.044 32.5545 63.6144 32.2263 63.3565 31.7732C63.3409 31.7537 63.3292 31.7341 63.3214 31.7146L62.2316 29.8318C61.9699 29.3826 61.8996 28.8435 62.0324 28.3396C62.1691 27.8357 62.4972 27.406 62.9503 27.1482C62.9699 27.1365 62.9894 27.1248 63.0089 27.117L63.0049 27.1169ZM65.7861 28.0505L64.247 28.9372L65.1337 30.4724L66.6728 29.5818L65.7861 28.0505ZM53.9541 32.3435L55.8369 31.2537H55.8408C56.2901 30.992 56.8291 30.9217 57.333 31.0584C57.833 31.1912 58.2627 31.5232 58.5244 31.9724L59.6455 33.9177V33.9138C59.9073 34.3631 59.9776 34.9021 59.8408 35.4021C59.7119 35.906 59.3838 36.3396 58.9307 36.5974L56.9854 37.7224C56.5323 37.9842 55.9971 38.0545 55.4893 37.9217C54.9893 37.7849 54.5635 37.4568 54.3018 37.0076L53.1768 35.0623C53.1612 35.031 53.1455 35.0037 53.1299 34.9724C52.6494 34.0389 52.9893 32.8983 53.8955 32.3748L53.958 32.3435L53.9541 32.3435ZM56.7314 33.2771L55.1962 34.1638L56.0868 35.695L57.618 34.8083L56.7314 33.2771ZM44.8364 37.6052L46.7817 36.4802L46.7856 36.4763C47.2348 36.2185 47.7739 36.1482 48.2739 36.2849C48.7817 36.4177 49.2114 36.7458 49.4692 37.2028L50.5903 39.1481C50.852 39.5974 50.9224 40.1325 50.7856 40.6364C50.6528 41.1403 50.3208 41.5661 49.8716 41.8239L47.9341 42.945H47.9302C47.481 43.2107 46.9419 43.281 46.4419 43.1443C45.938 43.0114 45.5083 42.6833 45.2466 42.2302L44.1255 40.2888L44.0786 40.195C43.8559 39.7615 43.8013 39.2654 43.9302 38.7966C44.063 38.2927 44.3911 37.8631 44.8442 37.6052L44.8364 37.6052ZM47.6802 38.5075L46.149 39.3942L47.0357 40.9254L48.5709 40.0387L47.6802 38.5075ZM35.7892 42.8356L37.7267 41.7145L37.7306 41.7106C38.1837 41.4489 38.7189 41.3786 39.2228 41.5114C39.7267 41.6481 40.1564 41.9762 40.4142 42.4294C40.4299 42.4489 40.4377 42.4684 40.4494 42.4919L41.5432 44.3747C42.0822 45.3122 41.758 46.5114 40.8166 47.0544L38.8791 48.1755C37.9416 48.7184 36.7385 48.3981 36.1955 47.4606L35.0705 45.5153C34.8088 45.0661 34.7385 44.527 34.8713 44.0231C35.008 43.5192 35.3401 43.0895 35.7893 42.8317L35.7892 42.8356ZM38.6251 43.7341L37.0939 44.6208L37.9806 46.156L39.5197 45.2693L38.6251 43.7341ZM91.7501 22.4961L71.5121 34.1761L71.4652 43.0823C75.9925 40.0432 80.3168 36.7073 84.4032 33.094C88.6884 29.262 91.497 26.0588 92.0868 24.3948C92.1064 24.344 92.1025 24.3635 92.1064 24.3479C92.2783 23.7815 92.1923 23.1682 91.872 22.6721C91.8368 22.6096 91.7978 22.5471 91.7509 22.4885L91.7501 22.4961ZM53.8981 44.3441L29.6871 58.3241V58.3202C32.7652 58.4842 35.8473 58.2772 38.8746 57.7069C44.2105 56.66 49.4056 54.9803 54.3476 52.703L53.8981 44.3441ZM19.3551 72.9461L23.0465 70.3016L23.0426 70.3055C23.3942 70.0633 23.6793 69.743 23.8786 69.368C24.07 68.9852 24.1715 68.5633 24.1715 68.1375L24.2223 58.9148C24.2184 58.8601 24.2184 58.8015 24.2223 58.7429L24.2575 52.8367L18.4606 56.1765L19.3551 72.9461ZM44.0931 34.1411L56.5971 26.9223L41.0071 18.0395L41.0032 18.0434C40.1556 17.5473 39.1985 17.2621 38.218 17.2113C37.2297 17.1723 36.2532 17.3715 35.3586 17.7856L25.6945 22.1762L44.0931 34.1411Z" fill="white"/>
</svg>
