<svg width="95" height="95" viewBox="0 0 95 95" fill="none" xmlns="http://www.w3.org/2000/svg">
<path d="M81.4016 62.5614L80.2122 60.9457C80.9004 57.4449 81.8504 54.7669 79.6886 51.8496L69.0591 36.3055C67.8173 34.6225 65.3339 34.3382 63.5236 35.6697C62.1921 36.6496 61.5713 36.9937 60.9953 38.0559L60.2099 36.9937C58.8784 35.1835 56.3276 34.802 54.5248 36.126C53.1933 37.1059 52.5575 37.45 52.0114 38.5496C50.6575 36.8441 48.174 36.4925 46.4087 37.8016L46.0421 38.0709V12.4284C46.0421 9.9823 44.0524 8.00001 41.6138 8.00001H10.4283C7.98228 8.00001 6 9.98978 6 12.4284V69.2339C6 71.6799 7.98976 73.6622 10.4283 73.6622C44.0225 73.6622 42.5189 73.9913 44.1347 72.8768C50.4106 76.3252 48.2264 77.6717 60.2248 75.248L61.7807 77.3575C61.3319 78.7563 61.5563 80.3122 62.454 81.524C66.5457 87.0744 66.426 87.1268 67.0693 87.224C67.376 87.2689 67.6677 87.1866 67.8996 87.0146L89.2859 71.2311C89.5252 71.0516 89.6823 70.7898 89.7272 70.498C89.8244 69.8772 89.9217 70.2138 85.6429 64.4091C84.6481 63.0626 83.0248 62.3894 81.4091 62.5614H81.4016ZM8.23661 12.4284C8.23661 11.224 9.21654 10.2441 10.4209 10.2441H41.6213C42.8256 10.2441 43.8055 11.224 43.8055 12.4284V16.4752H8.23661V12.4284ZM8.23661 18.7193H43.8055V40.0906L37.8213 31.9819C36.8114 30.6205 35.0012 30.1492 33.2882 30.6504C26.2567 24.4118 15.0587 29.3713 15.0587 38.8488C15.0587 48.8725 27.5957 53.7197 34.2831 46.0449L42.4441 57.0933C43.1323 58.0284 43.4689 59.1504 43.424 60.2874C37.0508 59.6965 36.6244 59.4945 35.2555 60.048C33.2732 60.8709 32.0091 61.8957 31.1937 62.9354H8.23661V18.7193ZM21.1551 39.9559L23.6236 42.7685C24.0724 43.2772 24.8654 43.2772 25.3067 42.7685L28.8673 38.7142L32.9067 44.1898C27.8051 50.7575 17.2953 47.1295 17.2953 38.8563C17.2953 31.7276 25.4339 27.6134 31.1713 31.8323C29.8847 32.7823 28.239 33.8146 28.1043 36.1858L24.4614 40.3299L22.8382 38.4748C21.8583 37.3602 20.1752 38.8413 21.1476 39.9559H21.1551ZM10.4283 71.4256C9.22402 71.4256 8.2441 70.4457 8.2441 69.2413V65.187H30.0717C29.6528 66.7504 29.7425 68.2988 30.9843 69.3461C33.2059 71.2236 34.3654 68.6728 41.0977 71.4256H10.4283ZM52.2209 74.2382C49.4307 74.4626 49.0567 72.7122 43.6335 70.0941C36.2205 66.511 33.3854 68.441 32.428 67.6331C31.837 67.1319 32.1512 65.8528 32.4429 65.187C33.2732 63.3095 36.0185 61.8508 37.163 61.9705L44.2768 62.6288C44.763 62.6736 45.339 62.3295 45.4736 61.7685C45.9823 59.5843 45.4288 57.3776 44.2394 55.7693C30.3784 36.9862 30.5429 37.2854 30.4232 36.9413C30.0941 36.0437 30.6776 34.9815 31.448 34.413C32.7047 33.4854 33.7819 32.4158 35.1358 32.7599C35.9512 32.9618 35.465 32.5728 43.8055 43.8756L49.5953 51.715C50.478 52.9118 52.2807 51.5728 51.3981 50.3835L46.0496 43.135C45.4437 42.2973 45.6831 41.1528 46.4461 40.5917L47.7477 39.6268C48.563 39.0284 49.7075 39.2004 50.3059 40.0158L57.704 50.0394C58.5866 51.2362 60.3894 49.8973 59.5067 48.7079L54.1658 41.4744C53.5673 40.6591 53.7394 39.5221 54.5398 38.9236L55.8563 37.9512C56.6642 37.3602 57.8087 37.5323 58.4071 38.3402C66.6055 49.4484 66.1418 49.1717 66.9721 49.1717C67.8847 49.1717 68.4233 48.1319 67.8772 47.3839L63.0075 40.7788C62.5063 40.0906 62.7532 39.0433 63.5611 38.4449L64.8626 37.4799C65.678 36.8815 66.7477 36.9563 67.2339 37.6071L77.8634 53.1512C78.6788 54.2583 78.978 55.6496 78.6862 57.0784C77.8634 61.2599 77.7213 61.3571 78.1103 61.8882C79.367 63.5937 79.2398 63.3618 79.1425 63.4291C63.0599 75.3004 63.3516 75.0685 63.0673 75.3228C60.0303 71.2087 62.6858 73.3555 52.2209 74.2307V74.2382ZM67.4658 84.5461L64.2567 80.1925C63.4563 79.1079 63.7331 77.5969 64.7579 76.8414C81.1024 64.7756 80.5713 65.0748 81.1772 64.8878C82.1571 64.5811 83.2193 64.9252 83.8252 65.748L87.0418 70.1016L67.4658 84.5536V84.5461Z" fill="white"/>
</svg>
