<svg width="95" height="95" viewBox="0 0 95 95" fill="none" xmlns="http://www.w3.org/2000/svg">
<path d="M16.5809 17C13.1395 17.0512 11.0803 19.8418 11.0803 22.5118V68.7089L11.0816 68.7214C11.1024 69.5447 11.2984 70.3748 11.6678 71.1369C9.42331 71.5435 8.02149 73.0769 7.30879 74.4479C7.30372 74.4569 7.2988 74.4659 7.29402 74.4751C6.92895 75.2343 6.86123 76.1759 7.33603 76.9999C7.81083 77.8239 8.84 78.3354 10.0778 78.3014L10.0506 78.3024H28.3654H44.1793C44.308 78.3024 44.4354 78.277 44.5543 78.2278C44.6732 78.1785 44.7813 78.1063 44.8722 78.0153C44.9632 77.9243 45.0354 77.8162 45.0846 77.6973C45.1338 77.5784 45.1591 77.4509 45.1591 77.3222C45.1591 77.1936 45.1338 77.0662 45.0845 76.9473C45.0353 76.8284 44.9631 76.7204 44.8721 76.6294C44.7811 76.5384 44.6731 76.4663 44.5542 76.417C44.4354 76.3678 44.308 76.3425 44.1793 76.3425H28.3693C28.368 76.3425 28.3667 76.3425 28.3654 76.3425H10.0506C10.0418 76.3427 10.0331 76.343 10.0243 76.3434C9.27004 76.3642 9.1188 76.1694 9.03336 76.0211C8.94929 75.8752 8.94538 75.5846 9.0606 75.3351C9.6867 74.1383 10.6711 72.9928 12.8455 72.9928C12.925 72.9928 13.0041 72.9832 13.0812 72.9642C13.9862 73.721 15.194 74.2107 16.596 74.2086H40.1298C41.901 74.2181 43.3401 73.4353 44.2646 72.3612C45.1891 71.2871 45.6505 69.9537 45.6505 68.6964V68.3337L47.4036 68.1575V72.3386L45.6196 72.159C45.4915 72.1461 45.3622 72.1585 45.2389 72.1956C45.1156 72.2327 45.0009 72.2937 44.9012 72.3752C44.8015 72.4566 44.7189 72.5569 44.658 72.6703C44.5971 72.7837 44.5591 72.908 44.5463 73.0361C44.5334 73.1641 44.5458 73.2935 44.5829 73.4167C44.62 73.5399 44.6811 73.6547 44.7625 73.7543C44.844 73.8539 44.9442 73.9366 45.0576 73.9974C45.171 74.0583 45.2953 74.0963 45.4233 74.1091L47.3534 74.3034C47.3657 74.6775 47.4104 75.1202 47.5264 75.5993C47.6826 76.245 47.9761 76.9524 48.5623 77.5221C49.1485 78.0919 50.0278 78.4589 51.0658 78.4589C52.2007 78.4589 53.221 77.8979 53.883 77.0495C54.323 76.4856 54.6221 75.8028 54.7739 75.0502L57.0502 75.2793L56.9994 75.273C56.9994 75.273 58.2519 75.4888 59.5636 74.9366C60.4812 74.5503 61.4031 73.6938 61.875 72.3166C62.4523 72.3361 63.104 72.3301 63.8116 72.0858C64.8396 71.7311 65.7847 70.8349 66.541 69.2361L72.1719 57.9331L72.1742 57.9269C72.1772 57.9214 72.841 56.7235 73.2896 55.0397L75.1819 59.7575C75.0307 59.7631 74.8828 59.8037 74.7499 59.876C73.0754 60.7862 71.5258 62.0806 70.213 63.7765C70.1342 63.8782 70.0762 63.9945 70.0424 64.1186C70.0085 64.2428 69.9995 64.3724 70.0157 64.5C70.032 64.6277 70.0732 64.7509 70.1371 64.8626C70.2009 64.9743 70.2862 65.0724 70.3879 65.1511C70.4897 65.2299 70.6059 65.2879 70.7301 65.3217C70.8542 65.3556 70.9838 65.3646 71.1115 65.3484C71.2391 65.3321 71.3623 65.2909 71.4741 65.227C71.5858 65.1632 71.6838 65.0779 71.7626 64.9762C72.9148 63.4878 74.2488 62.3786 75.6851 61.5979C75.7508 61.5622 75.8123 61.519 75.8682 61.4693L76.6307 63.3707C76.4789 63.3117 76.3148 63.2914 76.1531 63.3118C75.9915 63.3321 75.8375 63.3924 75.7051 63.4873C73.1379 65.329 71.5641 68.6318 72.4732 72.2706C73.6888 77.1365 78.6084 79.3639 82.6411 78.3644C87.4078 77.183 89.8022 72.4076 88.7585 68.23C87.8182 64.4661 84.3399 61.8043 80.3461 61.9117C79.7755 61.9271 79.1937 61.998 78.608 62.1313C78.4978 62.1564 78.3927 62.2004 78.2975 62.2613L77.6768 60.7136C77.7507 60.7086 77.8239 60.6952 77.8948 60.6736C79.5512 60.1711 81.2846 60.0414 82.9799 60.2482C83.611 60.3252 84.2369 60.4481 84.8508 60.6165C85.1012 60.685 85.3685 60.6514 85.5941 60.5231C85.8197 60.3947 85.9852 60.182 86.0541 59.9318C86.0883 59.8076 86.0976 59.678 86.0816 59.5502C86.0655 59.4225 86.0245 59.2992 85.9608 59.1873C85.8971 59.0754 85.8119 58.9772 85.7103 58.8982C85.6086 58.8193 85.4923 58.7611 85.3681 58.7271C84.6628 58.5336 83.9439 58.3918 83.2168 58.3031C82.2405 58.1839 81.2505 58.1615 80.263 58.242C79.2755 58.3225 78.2902 58.5053 77.3253 58.798C77.1998 58.8361 77.0833 58.8989 76.9826 58.9828L72.2487 47.1774L73.476 44.3292C74.2724 43.8124 74.8286 42.9497 74.9531 41.9593C75.0054 41.8375 75.0324 41.7063 75.0325 41.5737C75.0325 41.4409 75.0054 41.3096 74.9531 41.1877C74.9531 41.1872 74.9531 41.1868 74.9531 41.1863C74.7505 39.5813 73.4161 38.3097 71.7587 38.3096C69.9641 38.3096 68.4848 39.7799 68.4848 41.5737C68.4848 43.1591 69.6412 44.4909 71.1488 44.7793L70.2875 46.7753C70.2362 46.8939 70.2089 47.0215 70.2072 47.1508C70.2054 47.28 70.2293 47.4083 70.2773 47.5283L71.5535 50.7105C72.2118 53.266 70.4312 57.0324 70.4312 57.0324C70.4287 57.037 70.4262 57.0416 70.4237 57.0462L64.778 68.3813C64.775 68.3871 64.772 68.3929 64.7691 68.3987C64.1462 69.7156 63.6491 70.0687 63.1712 70.2336C62.9066 70.3249 62.5807 70.3446 62.1957 70.3455C62.1961 70.3135 62.1987 70.2833 62.1987 70.251C62.1987 67.7631 60.8649 66.2849 59.58 65.697C58.5626 65.2314 57.5995 65.2039 57.2311 65.2125C56.0742 60.9567 54.1189 53.6857 53.0592 49.7409L56.5355 49.8335C56.6642 49.8368 56.7922 49.8148 56.9123 49.7686C57.0324 49.7225 57.1422 49.6531 57.2355 49.5645C57.3288 49.4759 57.4038 49.3698 57.4561 49.2522C57.5084 49.1346 57.537 49.0079 57.5403 48.8793C57.547 48.6197 57.4504 48.3681 57.2718 48.1798C57.0931 47.9914 56.847 47.8816 56.5874 47.8746L52.057 47.7541L49.6241 46.2829C49.4718 46.1908 49.2973 46.1419 49.1193 46.1414C48.9504 46.1412 48.7844 46.1845 48.6372 46.2674C48.49 46.3502 48.3667 46.4696 48.2793 46.6141C48.1806 46.7774 48.1316 46.966 48.1385 47.1567C47.7232 46.6782 47.2414 46.3418 46.757 46.1401C46.3724 45.9801 45.9944 45.8907 45.6505 45.8424V35.7513C45.6502 35.4916 45.5468 35.2426 45.363 35.059C45.1792 34.8755 44.9301 34.7724 44.6703 34.7725C44.4108 34.7728 44.162 34.876 43.9785 35.0595C43.795 35.243 43.6918 35.4918 43.6915 35.7513V68.6964C43.6915 69.4501 43.3767 70.3898 42.7797 71.0834C42.1827 71.777 41.3551 72.2562 40.141 72.2496H40.1374H16.5947C15.4216 72.252 14.5992 71.8052 14.0006 71.1343C13.402 70.4633 13.0622 69.5391 13.0402 68.6718V22.5118C13.0402 20.7943 14.1797 18.9951 16.6108 18.9589H40.1213C42.1517 18.9871 43.7221 20.5782 43.6915 22.497V22.5043V30.407C43.6914 30.6667 43.7945 30.9159 43.978 31.0996C44.1616 31.2834 44.4106 31.3868 44.6703 31.3871C44.7991 31.3871 44.9265 31.3618 45.0455 31.3126C45.1644 31.2633 45.2725 31.1911 45.3635 31.1001C45.4545 31.0091 45.5267 30.901 45.576 30.7821C45.6252 30.6631 45.6505 30.5357 45.6505 30.407V22.5279C45.6984 19.5165 43.2076 17.0424 40.1485 17H40.1423H16.5885H16.5809ZM50.8225 19.79C49.1082 19.79 47.6974 21.2006 47.6974 22.9149V38.3927C47.6974 40.107 49.1082 41.5179 50.8225 41.5179H52.599C54.3133 41.5179 55.7241 40.107 55.7241 38.3927V22.9149C55.7241 21.2006 54.3133 19.79 52.599 19.79H50.8225ZM50.8225 21.749H52.599C53.2616 21.749 53.7652 22.2523 53.7652 22.9149V38.3927C53.7652 39.0553 53.2616 39.5589 52.599 39.5589H50.8225C50.1599 39.5589 49.6563 39.0553 49.6563 38.3927V22.9149C49.6563 22.2523 50.1599 21.749 50.8225 21.749ZM19.134 24.0204C17.7171 24.0204 16.5438 25.1896 16.5438 26.6069V36.977C16.5438 38.3943 17.7171 39.5639 19.134 39.5639H37.5964C39.0133 39.5639 40.1882 38.3943 40.1882 36.977V26.6069C40.1882 25.1896 39.0133 24.0204 37.5964 24.0204H19.134ZM19.134 25.9806H37.5964C37.965 25.9806 38.228 26.2447 38.228 26.6069V36.977C38.228 37.3392 37.965 37.6036 37.5964 37.6036H19.134C18.7654 37.6036 18.5027 37.3392 18.5027 36.977V26.6069C18.5027 26.2447 18.7654 25.9806 19.134 25.9806ZM50.8422 26.9496C50.7136 26.9496 50.5862 26.9749 50.4673 27.0242C50.3484 27.0734 50.2404 27.1456 50.1494 27.2366C50.0584 27.3276 49.9862 27.4356 49.937 27.5544C49.8878 27.6733 49.8624 27.8007 49.8624 27.9294C49.8624 28.0581 49.8877 28.1855 49.9369 28.3045C49.9861 28.4234 50.0583 28.5314 50.1493 28.6224C50.2403 28.7135 50.3483 28.7857 50.4672 28.8349C50.5861 28.8842 50.7135 28.9095 50.8422 28.9095H52.5793C52.708 28.9096 52.8355 28.8842 52.9544 28.835C53.0733 28.7858 53.1814 28.7136 53.2724 28.6226C53.3635 28.5315 53.4357 28.4235 53.4849 28.3045C53.5341 28.1856 53.5594 28.0581 53.5594 27.9294C53.5594 27.8007 53.5341 27.6733 53.4848 27.5544C53.4355 27.4355 53.3633 27.3274 53.2723 27.2365C53.1813 27.1455 53.0732 27.0733 52.9543 27.0241C52.8354 26.9749 52.708 26.9496 52.5793 26.9496H50.8422ZM50.8422 29.4468C50.7135 29.4468 50.5861 29.4722 50.4672 29.5215C50.3483 29.5707 50.2403 29.6429 50.1493 29.7339C50.0583 29.8249 49.9861 29.933 49.9369 30.0519C49.8877 30.1708 49.8624 30.2983 49.8624 30.427C49.8624 30.5556 49.8878 30.6831 49.937 30.8019C49.9863 30.9208 50.0584 31.0288 50.1494 31.1198C50.2404 31.2108 50.3484 31.283 50.4673 31.3322C50.5862 31.3814 50.7136 31.4068 50.8422 31.4068H52.5793C52.708 31.4068 52.8354 31.3815 52.9543 31.3323C53.0732 31.2831 53.1813 31.2109 53.2723 31.1199C53.3633 31.0289 53.4355 30.9209 53.4848 30.802C53.5341 30.6831 53.5594 30.5557 53.5594 30.427C53.5594 30.2982 53.5341 30.1708 53.4849 30.0518C53.4357 29.9329 53.3635 29.8248 53.2724 29.7338C53.1814 29.6428 53.0733 29.5706 52.9544 29.5214C52.8355 29.4721 52.708 29.4468 52.5793 29.4468H50.8422ZM50.8422 31.9454C50.7135 31.9454 50.5861 31.9708 50.4672 32.02C50.3483 32.0693 50.2403 32.1415 50.1493 32.2325C50.0583 32.3235 49.9861 32.4316 49.9369 32.5505C49.8877 32.6694 49.8624 32.7968 49.8624 32.9255C49.8627 33.1852 49.966 33.4342 50.1497 33.6177C50.3335 33.8013 50.5825 33.9044 50.8422 33.9043H52.5793C52.839 33.9044 53.0882 33.8014 53.272 33.6178C53.4558 33.4343 53.5591 33.1853 53.5594 32.9255C53.5594 32.7968 53.5341 32.6693 53.4849 32.5504C53.4357 32.4315 53.3635 32.3234 53.2724 32.2324C53.1814 32.1414 53.0733 32.0692 52.9544 32.0199C52.8355 31.9707 52.708 31.9454 52.5793 31.9454H50.8422ZM50.8422 34.4427C50.7135 34.4427 50.5861 34.468 50.4672 34.5173C50.3483 34.5665 50.2403 34.6387 50.1493 34.7297C50.0583 34.8208 49.9861 34.9288 49.9369 35.0477C49.8877 35.1666 49.8624 35.2941 49.8624 35.4228C49.8624 35.5515 49.8877 35.6789 49.9369 35.7978C49.9861 35.9168 50.0583 36.0248 50.1493 36.1158C50.2403 36.2068 50.3483 36.279 50.4672 36.3283C50.5861 36.3776 50.7135 36.4029 50.8422 36.4029H52.5793C52.708 36.403 52.8355 36.3776 52.9544 36.3284C53.0733 36.2792 53.1814 36.207 53.2724 36.1159C53.3635 36.0249 53.4357 35.9168 53.4849 35.7979C53.5341 35.679 53.5594 35.5515 53.5594 35.4228C53.5594 35.2941 53.5341 35.1666 53.4849 35.0476C53.4357 34.9287 53.3635 34.8206 53.2724 34.7296C53.1814 34.6386 53.0733 34.5664 52.9544 34.5172C52.8355 34.4679 52.708 34.4426 52.5793 34.4427H50.8422ZM50.8422 36.9412C50.5825 36.9412 50.3335 37.0443 50.1497 37.2278C49.966 37.4114 49.8627 37.6603 49.8624 37.92C49.8624 38.0487 49.8877 38.1762 49.9369 38.2951C49.9861 38.414 50.0583 38.5221 50.1493 38.6131C50.2403 38.7041 50.3483 38.7763 50.4672 38.8255C50.5861 38.8748 50.7135 38.9002 50.8422 38.9002H52.5793C52.708 38.9002 52.8355 38.8749 52.9544 38.8256C53.0733 38.7764 53.1814 38.7042 53.2724 38.6132C53.3635 38.5222 53.4357 38.4141 53.4849 38.2952C53.5341 38.1762 53.5594 38.0488 53.5594 37.92C53.5591 37.6603 53.4558 37.4113 53.272 37.2277C53.0882 37.0442 52.839 36.9411 52.5793 36.9412H50.8422ZM71.7587 40.2686C72.4984 40.2686 73.0739 40.8432 73.0739 41.5737C73.0739 42.3041 72.4984 42.8797 71.7587 42.8797C71.0189 42.8797 70.445 42.3041 70.445 41.5737C70.445 40.8432 71.0189 40.2686 71.7587 40.2686ZM29.2752 47.1078C29.1009 47.1099 28.9303 47.1585 28.781 47.2486C28.6318 47.3387 28.5092 47.4669 28.4261 47.6202L24.2181 55.3886C24.1372 55.5379 24.0965 55.7057 24.1 55.8755C24.1035 56.0452 24.151 56.2112 24.238 56.357C24.3249 56.5029 24.4483 56.6236 24.5959 56.7075C24.7436 56.7913 24.9105 56.8353 25.0803 56.8352H30.0066L26.5827 63.1561C26.5213 63.2692 26.4828 63.3934 26.4694 63.5214C26.456 63.6494 26.468 63.7788 26.5047 63.9022C26.5413 64.0256 26.6019 64.1405 26.683 64.2405C26.7641 64.3405 26.8641 64.4235 26.9772 64.4848C27.0904 64.5461 27.2145 64.5846 27.3424 64.5979C27.4704 64.6113 27.5998 64.5993 27.7232 64.5627C27.8465 64.526 27.9614 64.4655 28.0614 64.3844C28.1613 64.3033 28.2443 64.2034 28.3056 64.0903L32.514 56.3218C32.5949 56.1725 32.6355 56.0047 32.6321 55.835C32.6286 55.6652 32.581 55.4993 32.4941 55.3534C32.4071 55.2075 32.2838 55.0868 32.1361 55.003C31.9884 54.9191 31.8215 54.8751 31.6517 54.8753H26.7252L30.1493 48.5543C30.2107 48.4412 30.2492 48.3171 30.2626 48.1891C30.276 48.061 30.264 47.9316 30.2274 47.8082C30.1907 47.6848 30.1302 47.5699 30.0491 47.4699C29.968 47.3699 29.868 47.2869 29.7548 47.2256C29.6178 47.1515 29.4651 47.1111 29.3094 47.1078C29.298 47.1076 29.2866 47.1076 29.2752 47.1078ZM45.6505 47.8381C45.7678 47.8662 45.8863 47.9001 46.004 47.9491C46.6947 48.2365 47.4036 48.7546 47.4036 50.9065V66.1887L45.6505 66.365V47.8381ZM48.7303 48.0328L50.9282 49.3612C51.2702 50.6343 51.8523 52.7982 52.4086 54.8664L49.3635 54.5959V50.9065C49.3635 49.732 49.117 48.7793 48.7303 48.0328ZM50.6791 56.6802L52.9505 56.8815C53.8041 60.0522 54.6104 63.0374 55.2521 65.3999L53.4422 65.5821L50.6791 56.6802ZM49.3635 59.0537L51.4518 65.782L49.3635 65.9917V59.0537ZM80.7403 63.8644C83.712 63.918 86.1622 65.9253 86.8567 68.7053C87.6461 71.8651 85.8919 75.5401 82.1698 76.4626C79.1579 77.2091 75.3211 75.5876 74.3737 71.7957C73.6569 68.9264 74.8537 66.5107 76.8477 65.0802C76.9838 64.9823 77.0925 64.8511 77.1634 64.6991L78.4948 68.0183C77.8988 68.5816 77.5225 69.3747 77.5225 70.251C77.5225 71.9448 78.921 73.3351 80.6152 73.3351C82.1745 73.3351 83.4316 72.1399 83.6301 70.6317C83.6813 70.5113 83.7079 70.3818 83.7082 70.251C83.7083 70.1179 83.6813 69.9863 83.6288 69.864C83.4276 68.3587 82.1725 67.1668 80.6152 67.1668C80.4994 67.1668 80.3855 67.1746 80.2729 67.1872L79.0144 64.0492C79.0242 64.0473 79.0339 64.0452 79.0436 64.043C79.6218 63.9114 80.19 63.8545 80.7403 63.8644ZM57.3378 67.1718C57.5993 67.176 58.1936 67.2171 58.7646 67.4783C59.5259 67.8267 60.2387 68.3757 60.2387 70.251C60.2387 70.5506 60.2218 70.8141 60.1938 71.0525C60.1707 71.1354 60.1587 71.2209 60.158 71.3069C59.9529 72.5037 59.3825 72.8865 58.8034 73.1303C58.0798 73.4349 57.2971 73.3364 57.2971 73.3364L57.2724 73.3325L54.8917 73.0929C54.8922 72.6993 54.8929 72.4097 54.8937 72.0786C55.2041 71.8556 55.4439 71.526 55.6076 71.1566C55.6999 71.0655 55.7732 70.9569 55.8233 70.8372C55.8733 70.7176 55.8991 70.5891 55.8991 70.4594C55.8991 70.3297 55.8733 70.2013 55.8233 70.0816C55.7732 69.9619 55.6999 69.8534 55.6076 69.7622C55.3089 69.0891 54.76 68.5464 53.9848 68.5464C52.9393 68.5464 52.0718 69.4139 52.0718 70.4594C52.0718 71.1191 52.4176 71.7079 52.9351 72.053C52.9343 72.4085 52.934 72.5101 52.9334 72.8956L49.3635 72.5362V67.9605L57.2002 67.1731C57.2002 67.1731 57.2506 67.1704 57.3378 67.1718ZM80.6152 69.1258C81.2546 69.1258 81.748 69.6205 81.748 70.251C81.748 70.8815 81.2546 71.3749 80.6152 71.3749C79.9758 71.3749 79.4828 70.8815 79.4828 70.251C79.4828 69.6205 79.9758 69.1258 80.6152 69.1258ZM49.3336 74.5027L52.8058 74.8522C52.7003 75.2519 52.5364 75.5897 52.3383 75.8435C51.9929 76.2862 51.5916 76.5 51.0658 76.5C50.4429 76.5 50.1562 76.3383 49.9281 76.1166C49.7 75.8949 49.5296 75.5475 49.4305 75.1378C49.3793 74.9264 49.3499 74.7093 49.3336 74.5027Z" fill="white"/>
</svg>
