<svg width="95" height="95" viewBox="0 0 95 95" fill="none" xmlns="http://www.w3.org/2000/svg">
<path d="M90.0102 68.3347C89.6448 67.652 88.9834 67.2348 88.2525 67.2348H85.7116V38.7134C87.0343 37.4239 87.8696 35.5655 87.8696 33.4984V31.0711C87.8696 30.8814 87.7826 30.6349 87.6782 30.4832L85.7116 27.7714V21.4375C85.7116 18.9912 83.8843 17 81.6393 17H13.6276C11.3826 17 9.55528 18.9912 9.55528 21.4375V27.7524L7.57132 30.4832C7.48431 30.6349 7.39729 30.8814 7.39729 31.0711V33.4795C7.39729 35.5465 8.23264 37.4049 9.55528 38.7134V67.2348H7.01442C6.28349 67.2348 5.63957 67.652 5.2741 68.3347C4.90863 69.0364 4.90863 69.8518 5.2741 70.5345L5.97023 71.843C8.05861 75.7306 11.8873 78.12 16.0119 78.12H79.2551C83.397 78.12 87.2083 75.7306 89.2967 71.843L89.9928 70.5345C90.3583 69.8708 90.3757 69.0553 90.0102 68.3347ZM86.1293 32.0192V33.4795C86.1293 36.324 83.9887 38.6565 81.3782 38.6565C78.7504 38.6565 76.6272 36.324 76.6272 33.4795V32.0192H86.1293ZM11.2956 67.2538V39.9461C12.0265 40.3064 12.8271 40.496 13.6624 40.515V63.7076C13.6624 64.2386 14.0453 64.6558 14.5326 64.6558H80.7517C81.2216 64.6558 81.6219 64.2386 81.6219 63.7076V40.515C82.4572 40.4771 83.2404 40.2874 83.9713 39.9461V67.2348H11.2956V67.2538ZM59.5895 69.1502L58.7541 71.5965H36.5302L35.6775 69.1502H59.5895ZM31.9706 30.1229L34.059 23.3718H41.9252L41.2291 30.1229H31.9706ZM41.1421 32.0192V33.4795C41.1421 36.324 39.0015 38.6565 36.391 38.6565C33.7631 38.6565 31.6225 36.324 31.6225 33.4795V32.0192H41.1421ZM30.1259 30.1229H21.0066L24.4872 23.3718H32.2316L30.1259 30.1229ZM29.8822 32.0192V33.4795C29.8822 36.324 27.759 38.6565 25.1311 38.6565C22.5207 38.6565 20.3801 36.324 20.3801 33.4795V32.0192H29.8822ZM25.1311 40.5529C27.5502 40.5529 29.6386 39.0737 30.7524 36.9498C31.8836 39.0737 33.972 40.5529 36.391 40.5529C38.7926 40.5529 40.881 39.0737 42.0122 36.9498C43.126 39.0737 45.2144 40.5529 47.6335 40.5529C50.0525 40.5529 52.1409 39.0737 53.2547 36.9498C54.3685 39.0737 56.4569 40.5529 58.8759 40.5529C61.295 40.5529 63.3833 39.0737 64.4972 36.9498C65.6284 39.0737 67.7167 40.5529 70.1184 40.5529C72.5374 40.5529 74.6258 39.0737 75.757 36.9498C76.6272 38.6186 78.1064 39.8702 79.8816 40.3443V62.7594H15.4028V40.3253C17.1605 39.8702 18.6397 38.6186 19.5099 36.9498C20.6237 39.0737 22.7121 40.5529 25.1311 40.5529ZM52.3845 32.0192V33.4795C52.3845 36.324 50.2439 38.6565 47.6335 38.6565C45.0056 38.6565 42.8824 36.324 42.8824 33.4795V32.0192H52.3845ZM42.9868 30.1229L43.6829 23.3718H51.584L52.2801 30.1229H42.9868ZM65.1237 30.1229L63.0353 23.3718H70.7623L74.2603 30.1229H65.1237ZM74.8869 32.0192V33.4795C74.8869 36.324 72.7463 38.6565 70.1184 38.6565C67.5079 38.6565 65.3673 36.324 65.3673 33.4795V32.0192H74.8869ZM63.2963 30.1229H54.0378L53.3417 23.3718H61.1906L63.2963 30.1229ZM63.627 32.0192V33.4795C63.627 36.324 61.5038 38.6565 58.8759 38.6565C56.2654 38.6565 54.1248 36.324 54.1248 33.4795V32.0192H63.627ZM85.2069 30.1229H76.2617L72.7637 23.3718H80.3167L85.2069 30.1229ZM11.2956 21.4375C11.2956 20.0342 12.3398 18.8964 13.6276 18.8964H81.6567C82.9271 18.8964 83.9713 20.0342 83.9713 21.4375V25.363L81.4131 21.8357C81.2564 21.6082 81.0128 21.4754 80.7343 21.4754H14.5152C14.2541 21.4754 14.0105 21.6082 13.8365 21.8357L11.2956 25.344V21.4375ZM14.9503 23.3718H22.4859L19.0052 30.1229H10.06L14.9503 23.3718ZM9.13761 33.4984V32.0192H18.6397V33.4795C18.6397 36.324 16.4992 38.6565 13.8887 38.6565C11.2608 38.6565 9.13761 36.343 9.13761 33.4984ZM88.4962 69.5863L87.8 70.8759C86.0249 74.1755 82.7531 76.2236 79.2551 76.2236H16.0293C12.5138 76.2236 9.24203 74.1755 7.48431 70.8759L6.77077 69.5863C6.70116 69.4536 6.75337 69.3398 6.77077 69.2829C6.80558 69.226 6.87519 69.1312 7.01442 69.1312H33.8327L35.1032 72.8481C35.2424 73.2274 35.5556 73.4739 35.9211 73.4739H59.3458C59.7113 73.4739 60.0419 73.2274 60.1638 72.8481L61.4516 69.1312H88.2525C88.3917 69.1312 88.4613 69.226 88.4962 69.2829C88.531 69.3398 88.5658 69.4536 88.4962 69.5863Z" fill="white"/>
<path d="M56.4222 51.4003L57.2576 50.7745C57.536 50.5659 57.6752 50.1866 57.6056 49.8263C57.536 49.466 57.2924 49.1626 56.9443 49.0867L50.1049 47.3231C49.809 47.2472 49.4958 47.342 49.2695 47.5886C49.0433 47.8351 48.9737 48.1764 49.0607 48.4988L50.8706 55.743C50.9576 56.1033 51.2361 56.3688 51.5667 56.4257C51.8974 56.4825 52.2281 56.3308 52.4369 56.0464L53.0112 55.1551L55.6391 58.0186C55.8131 58.2082 56.0394 58.3031 56.2482 58.3031C56.4744 58.3031 56.7007 58.2082 56.8573 58.0186L59.0327 55.6481C59.1893 55.4775 59.2937 55.2309 59.2937 54.9844C59.2937 54.7379 59.2067 54.4914 59.0327 54.3207L56.4222 51.4003ZM56.2656 55.9516L53.5333 52.9743C53.3767 52.8036 53.1504 52.6898 52.9242 52.6898C52.9068 52.6898 52.872 52.6898 52.8546 52.6898C52.5935 52.7088 52.3673 52.8605 52.2106 53.088L52.0888 53.2587L51.1491 49.5039L54.6819 50.4142L54.5949 50.49C54.386 50.6417 54.2468 50.9072 54.2294 51.1917C54.212 51.4761 54.299 51.7416 54.4731 51.9502L57.2054 54.9275L56.2656 55.9516Z" fill="white"/>
<path d="M44.0658 43.4921H28.4203L28.1245 42.6388C27.7416 41.5578 26.767 40.8372 25.7054 40.8372H22.625C22.1378 40.8372 21.7549 41.2544 21.7549 41.7854C21.7549 42.3164 22.1378 42.7336 22.625 42.7336H25.7054C26.0535 42.7336 26.3667 42.9801 26.4886 43.3215L30.7697 55.4393C31.0482 56.2168 31.7095 56.7288 32.4578 56.8047C32.249 57.1839 32.0924 57.6201 32.0924 58.0942C32.0924 59.4975 33.1366 60.6543 34.4418 60.6543C35.7296 60.6543 36.7912 59.4975 36.7912 58.0942C36.7912 57.6201 36.652 57.2029 36.4432 56.8426H39.5409C39.3321 57.2219 39.1929 57.6391 39.1929 58.0942C39.1929 59.4975 40.2371 60.6543 41.5423 60.6543C42.8301 60.6543 43.8917 59.4975 43.8917 58.0942C43.8917 57.3736 43.6133 56.7478 43.1956 56.2737C43.2478 56.1599 43.2826 56.0271 43.2826 55.8754C43.2826 55.3445 42.8998 54.9273 42.4125 54.9273H32.6667C32.5623 54.9273 32.4578 54.8514 32.4056 54.7376L32.0402 53.7136H41.9426C42.5865 53.7136 43.1782 53.2584 43.3696 52.5947L45.4928 45.654C45.6495 45.1609 45.5624 44.592 45.284 44.1748C45.0229 43.7387 44.5531 43.4921 44.0658 43.4921ZM34.4592 58.7579C34.1286 58.7579 33.8501 58.4545 33.8501 58.0942C33.8501 57.7339 34.1286 57.4305 34.4592 57.4305C34.7899 57.4305 35.0683 57.7339 35.0683 58.0942C35.0683 58.4545 34.7899 58.7579 34.4592 58.7579ZM41.5597 58.7579C41.2291 58.7579 40.9506 58.4545 40.9506 58.0942C40.9506 57.7339 41.2291 57.4305 41.5597 57.4305C41.8904 57.4305 42.1688 57.7339 42.1688 58.0942C42.1688 58.4545 41.8904 58.7579 41.5597 58.7579ZM41.786 51.8362H31.3788L29.099 45.3885H43.7525L41.786 51.8362Z" fill="white"/>
</svg>
