<svg width="95" height="95" viewBox="0 0 95 95" fill="none" xmlns="http://www.w3.org/2000/svg">
<path fill-rule="evenodd" clip-rule="evenodd" d="M76.2428 75.6122H45.1132C44.6947 75.6122 44.3563 75.2818 44.3563 74.8732C44.3563 74.4646 44.6947 74.1342 45.1132 74.1342H75.4862V70.6383C75.4862 70.2297 75.8246 69.8993 76.2431 69.8993C76.6616 69.8993 77 70.2297 77 70.6383V74.8732C77 75.2818 76.6612 75.6122 76.2428 75.6122ZM34.8029 75.6122H30.0365C23.9501 75.6122 19 70.777 19 64.8367C19 58.8942 23.9524 54.0612 30.0365 54.0612H76.2401C76.6586 54.0612 76.997 54.3916 76.997 54.8002V59.0351C76.997 59.4438 76.6586 59.7742 76.2401 59.7742C75.8216 59.7742 75.4832 59.4437 75.4832 59.0351V55.5392H30.0362C24.7842 55.5392 20.5142 59.7111 20.5142 64.8361C20.5142 69.9639 24.787 74.1329 30.0362 74.1329H34.8025C35.221 74.1329 35.5594 74.4633 35.5594 74.8719C35.5594 75.2805 35.221 75.6109 34.8025 75.6109L34.8029 75.6122Z" fill="white"/>
<path fill-rule="evenodd" clip-rule="evenodd" d="M76.2393 71.5714H44.9391C44.5183 71.5714 44.178 71.2312 44.178 70.8105V65.5978H35.3359V70.8105C35.3359 71.2312 34.9956 71.5714 34.5748 71.5714H29.7824C26.0679 71.5714 23.0469 68.5508 23.0469 64.8367C23.0469 61.1227 26.0678 58.1021 29.7824 58.1021H76.2393C76.6601 58.1021 77.0004 58.4423 77.0004 58.863C77.0004 59.2838 76.6601 59.624 76.2393 59.624C73.3638 59.624 71.0261 61.9615 71.0261 64.8366C71.0261 67.7117 73.3638 70.0492 76.2393 70.0492C76.6601 70.0492 77.0004 70.3895 77.0004 70.8102C77.0004 71.231 76.6601 71.5714 76.2393 71.5714ZM45.6998 70.0494H71.9768C70.4677 68.8131 69.5013 66.9353 69.5013 64.8368C69.5013 62.7383 70.4676 60.8604 71.9768 59.6242H29.7797C26.9042 59.6242 24.5665 61.9617 24.5665 64.8368C24.5665 67.7119 26.9042 70.0494 29.7797 70.0494H33.8111V64.8368C33.8111 64.4161 34.1514 64.0758 34.5722 64.0758H44.9391C45.3599 64.0758 45.7001 64.4161 45.7001 64.8368L45.6998 70.0494Z" fill="white"/>
<path fill-rule="evenodd" clip-rule="evenodd" d="M65.9629 55.4069H19.7569C19.3384 55.4069 19 55.0765 19 54.6679V50.433C19 50.0243 19.3384 49.6939 19.7569 49.6939C20.1755 49.6939 20.5139 50.0244 20.5139 50.433V53.9289H65.9632C71.2155 53.9289 75.4858 49.757 75.4858 44.632C75.4858 39.5042 71.2127 35.3352 65.9632 35.3352H20.5139V38.8311C20.5139 39.2397 20.1755 39.5701 19.7569 39.5701C19.3384 39.5701 19 39.2397 19 38.8311V34.5962C19 34.1875 19.3384 33.8571 19.7569 33.8571H65.9629C72.0496 33.8571 77 38.6924 77 44.6327C77 50.5751 72.0474 55.4082 65.9629 55.4082V55.4069Z" fill="white"/>
<path fill-rule="evenodd" clip-rule="evenodd" d="M66.2179 51.3671H19.7611C19.3403 51.3671 19 51.0268 19 50.6061C19 50.1854 19.3403 49.8451 19.7611 49.8451H19.7974C22.6547 49.8244 24.9744 47.4946 24.9744 44.6325C24.9744 41.7574 22.6366 39.4199 19.7611 39.4199C19.3403 39.4199 19.0001 39.0796 19.0001 38.6589C19.0001 38.2382 19.3403 37.8979 19.7611 37.8979H66.218C69.9325 37.8979 72.9535 40.9186 72.9535 44.6326C72.9535 48.3467 69.9325 51.3671 66.2179 51.3671ZM24.0209 49.8451H66.2179C69.0934 49.8451 71.4312 47.5076 71.4312 44.6324C71.4312 41.7573 69.0934 39.4198 66.2179 39.4198H24.0209C25.53 40.6561 26.4964 42.5339 26.4964 44.6324C26.4964 46.731 25.5301 48.6088 24.0209 49.8451Z" fill="white"/>
<path fill-rule="evenodd" clip-rule="evenodd" d="M35.8604 35.2041C30.2818 35.2041 25.7441 30.6727 25.7441 25.102C25.7441 19.5313 30.2819 15 35.8604 15C41.4389 15 45.9767 19.5314 45.9767 25.102C45.9767 30.6728 41.4389 35.2041 35.8604 35.2041ZM35.8604 16.542C31.133 16.542 27.2883 20.3812 27.2883 25.102C27.2883 29.8228 31.133 33.6621 35.8604 33.6621C40.5879 33.6621 44.4325 29.8228 44.4325 25.102C44.4325 20.3812 40.5879 16.542 35.8604 16.542Z" fill="white"/>
<path fill-rule="evenodd" clip-rule="evenodd" d="M60.1397 35.2041C54.5611 35.2041 50.0234 30.6727 50.0234 25.102C50.0234 19.5313 54.5612 15 60.1397 15C65.7182 15 70.256 19.5314 70.256 25.102C70.256 30.6728 65.7182 35.2041 60.1397 35.2041ZM60.1397 16.542C55.4123 16.542 51.5676 20.3812 51.5676 25.102C51.5676 29.8228 55.4123 33.6621 60.1397 33.6621C64.8672 33.6621 68.7118 29.8228 68.7118 25.102C68.7118 20.3812 64.8672 16.542 60.1397 16.542Z" fill="white"/>
<path fill-rule="evenodd" clip-rule="evenodd" d="M44.0506 20.3877C43.8321 20.3877 43.6162 20.3048 43.4635 20.1437C43.187 19.8523 43.2265 19.414 43.5504 19.1652C44.7905 18.2151 46.3704 17.6939 48.0002 17.6939C49.6301 17.6939 51.2099 18.2175 52.4501 19.1652C52.774 19.414 52.8135 19.8523 52.537 20.1437C52.2605 20.4351 51.7734 20.4707 51.4495 20.2219C50.4885 19.4851 49.2615 19.0799 48.0002 19.0799C46.7364 19.0799 45.512 19.4851 44.5509 20.2219C44.4061 20.3333 44.227 20.3877 44.0506 20.3877Z" fill="white"/>
<path fill-rule="evenodd" clip-rule="evenodd" d="M27.6542 25.7755H23.8349C23.3992 25.7755 23.0469 25.4744 23.0469 25.102C23.0469 24.7297 23.3992 24.4286 23.8349 24.4286H27.6542C28.0899 24.4286 28.4422 24.7297 28.4422 25.102C28.4422 25.4744 28.0899 25.7755 27.6542 25.7755Z" fill="white"/>
<path fill-rule="evenodd" clip-rule="evenodd" d="M59.4649 31.1633C55.7448 31.1633 52.7207 28.443 52.7207 25.102C52.7207 21.7587 55.7475 19.0408 59.4649 19.0408C63.185 19.0408 66.2091 21.761 66.2091 25.102C66.2091 28.4454 63.1823 31.1633 59.4649 31.1633ZM59.4649 20.4451C56.6088 20.4451 54.2834 22.535 54.2834 25.1018C54.2834 27.6687 56.6088 29.7586 59.4649 29.7586C62.321 29.7586 64.6463 27.6687 64.6463 25.1018C64.6463 22.535 62.321 20.4451 59.4649 20.4451Z" fill="white"/>
<path fill-rule="evenodd" clip-rule="evenodd" d="M36.5352 31.1633C32.8151 31.1633 29.791 28.443 29.791 25.102C29.791 21.7587 32.8178 19.0408 36.5352 19.0408C40.2553 19.0408 43.2794 21.761 43.2794 25.102C43.2794 28.4454 40.2526 31.1633 36.5352 31.1633ZM36.5352 20.4451C33.6791 20.4451 31.3538 22.535 31.3538 25.1018C31.3538 27.6687 33.6791 29.7586 36.5352 29.7586C39.3913 29.7586 41.7167 27.6687 41.7167 25.1018C41.7167 22.535 39.3913 20.4451 36.5352 20.4451Z" fill="white"/>
<path fill-rule="evenodd" clip-rule="evenodd" d="M65.4417 66.1837H31.9073C31.4829 66.1837 31.1396 65.5815 31.1396 64.8367C31.1396 64.092 31.4829 63.4898 31.9073 63.4898H65.4417C65.8662 63.4898 66.2094 64.092 66.2094 64.8367C66.2094 65.5815 65.8662 66.1837 65.4417 66.1837Z" fill="white"/>
<path fill-rule="evenodd" clip-rule="evenodd" d="M65.4417 44.6326H31.9073C31.4829 44.6326 31.1396 44.3315 31.1396 43.9592C31.1396 43.5868 31.4829 43.2857 31.9073 43.2857H65.4417C65.8662 43.2857 66.2094 43.5868 66.2094 43.9592C66.2094 44.3315 65.8662 44.6326 65.4417 44.6326Z" fill="white"/>
<path fill-rule="evenodd" clip-rule="evenodd" d="M45.202 80.9997C44.9977 80.9997 44.7988 80.9197 44.6476 80.7677L39.9504 75.9915L35.1631 80.773C34.9403 80.9944 34.6061 81.0611 34.317 80.941C34.0279 80.821 33.8369 80.5357 33.8369 80.2183V64.2712C33.8369 63.8391 34.1844 63.4898 34.614 63.4898H45.1994C45.629 63.4898 45.9765 63.8392 45.9765 64.2712V80.2183C45.9765 80.5357 45.7855 80.821 45.4937 80.941C45.3983 80.981 45.2975 80.9997 45.1993 80.9997L45.202 80.9997ZM35.3941 65.0525V78.3386L39.4096 74.3277C39.5555 74.181 39.7571 74.0957 39.9613 74.101C40.1682 74.101 40.3644 74.1864 40.5103 74.333L44.4251 78.3145V65.0524L35.3941 65.0525Z" fill="white"/>
</svg>
