<svg width="95" height="95" viewBox="0 0 95 95" fill="none" xmlns="http://www.w3.org/2000/svg">
<path d="M70.8768 15.0039C70.4686 14.9864 70.0546 15.0272 69.6435 15.1381L21.5775 28.0241C19.3821 28.6134 18.0585 30.9094 18.6474 33.1062L19.5862 36.6187C17.487 37.5172 16 39.6089 16 42.0274C16 44.9418 18.1546 47.3837 20.9448 47.8329L20.9477 75.8515C20.9477 78.1271 22.8195 80 25.0937 80H74.854C77.1282 80 79 78.1271 79 75.8515V42.4945C79 41.7302 78.379 41.1117 77.618 41.1117H28.8429L76.067 28.4504C76.8046 28.252 77.242 27.4936 77.0437 26.7584L74.72 18.0733C74.2418 16.2879 72.6378 15.0798 70.8768 15.0039ZM70.6406 17.7637C71.2879 17.7199 71.8768 18.1284 72.0518 18.7877L74.0169 26.1365L26.7786 38.8007C25.8019 37.3274 24.1779 36.3122 22.3265 36.1664L21.3148 32.3913C21.1136 31.6386 21.5393 30.9005 22.2944 30.6963L70.3582 17.8103C70.4515 17.7841 70.5477 17.7695 70.6381 17.7636L70.6406 17.7637ZM67.037 20.5119C66.9554 20.5206 66.8766 20.5352 66.8008 20.5556C66.0632 20.754 65.6259 21.5125 65.8241 22.2506L66.5413 24.9229C66.7396 25.661 67.4976 26.0985 68.2353 25.9002C68.9729 25.7018 69.4102 24.9433 69.212 24.2052L68.4919 21.5329C68.3198 20.8824 67.7046 20.4506 67.0341 20.5119L67.037 20.5119ZM59.0253 22.662C58.9436 22.6678 58.8649 22.6824 58.7891 22.7028C58.0514 22.9012 57.6141 23.6597 57.8124 24.3978L58.5267 27.07C58.7249 27.8081 59.483 28.2457 60.2206 28.0474C60.9583 27.849 61.3956 27.0905 61.1973 26.3524L60.4801 23.6801C60.3052 23.0325 59.6929 22.6036 59.0253 22.662ZM51.0165 24.8091C50.9378 24.815 50.8561 24.8295 50.7803 24.85C50.0398 25.0483 49.6024 25.8068 49.8007 26.542L50.515 29.2172C50.7133 29.9553 51.4713 30.3929 52.2089 30.1945C52.9466 29.9962 53.3839 29.2377 53.1857 28.4996L52.4713 25.8273C52.2964 25.1796 51.6841 24.7508 51.0165 24.8091ZM43.0047 26.9563C42.926 26.9621 42.8444 26.9767 42.7686 26.9971C42.0309 27.1955 41.5936 27.954 41.7919 28.6921L42.5062 31.3644C42.7044 32.1025 43.4624 32.5401 44.2001 32.3417C44.9348 32.1462 45.3751 31.3878 45.1768 30.6497L44.4596 27.9774C44.2876 27.3297 43.6753 26.898 43.0047 26.9563ZM34.993 29.1064C34.9143 29.1122 34.8326 29.1268 34.7568 29.1472C34.0192 29.3456 33.5819 30.1041 33.7801 30.8422L34.4944 33.5116C34.6927 34.2496 35.4507 34.6872 36.1884 34.4889C36.9231 34.2934 37.3604 33.5349 37.1651 32.7968L36.4478 30.1245C36.2758 29.4769 35.6606 29.0481 34.993 29.1064ZM26.9842 31.2536C26.9055 31.2594 26.8239 31.274 26.7481 31.2944C26.0104 31.4928 25.5731 32.2513 25.7713 32.9894L26.4857 35.6616C26.6839 36.3997 27.4419 36.8373 28.1796 36.639C28.9143 36.4406 29.3517 35.6821 29.1534 34.944L28.4391 32.2717C28.2642 31.6241 27.6519 31.1952 26.9842 31.2536ZM21.8761 38.9147C23.6109 38.9147 24.987 40.2917 24.987 42.0275C24.987 43.7633 23.6109 45.1404 21.8761 45.1404C20.1413 45.1404 18.7651 43.7633 18.7651 42.0275C18.7651 40.2917 20.1413 38.9147 21.8761 38.9147ZM27.4477 43.8771H76.234V52.8653L23.7128 52.8683V47.6082C25.468 47.0248 26.8617 45.6332 27.4506 43.8769L27.4477 43.8771ZM29.2408 45.6042C28.4769 45.6042 27.8588 46.2226 27.8588 46.987V49.7526C27.8588 50.517 28.4769 51.1355 29.2408 51.1355C30.0047 51.1355 30.6228 50.517 30.6228 49.7526V46.987C30.6228 46.2227 30.0047 45.6042 29.2408 45.6042ZM37.5324 45.6042C36.7686 45.6042 36.1504 46.2226 36.1504 46.987V49.7526C36.1504 50.517 36.7685 51.1355 37.5324 51.1355C38.2963 51.1355 38.9145 50.517 38.9145 49.7526V46.987C38.9145 46.2227 38.2964 45.6042 37.5324 45.6042ZM45.8241 45.6042C45.0602 45.6042 44.4421 46.2226 44.4421 46.987V49.7526C44.4421 50.517 45.0602 51.1355 45.8241 51.1355C46.5879 51.1355 47.2061 50.517 47.2061 49.7526V46.987C47.2061 46.2227 46.588 45.6042 45.8241 45.6042ZM54.1157 45.6042C53.3519 45.6042 52.7337 46.2226 52.7337 46.987V49.7526C52.7337 50.517 53.3518 51.1355 54.1157 51.1355C54.8796 51.1355 55.4977 50.517 55.4977 49.7526V46.987C55.4977 46.2227 54.8796 45.6042 54.1157 45.6042ZM62.4074 45.6042C61.6435 45.6042 61.0254 46.2226 61.0254 46.987V49.7526C61.0254 50.517 61.6435 51.1355 62.4074 51.1355C63.1712 51.1355 63.7894 50.517 63.7894 49.7526V46.987C63.7894 46.2227 63.1713 45.6042 62.4074 45.6042ZM70.699 45.6042C69.9352 45.6042 69.317 46.2226 69.317 46.987V49.7526C69.317 50.517 69.9351 51.1355 70.699 51.1355C71.4629 51.1355 72.081 50.517 72.081 49.7526V46.987C72.081 46.2227 71.4629 45.6042 70.699 45.6042ZM23.7115 55.6343H76.2357V75.8513C76.2357 76.6302 75.6322 77.2341 74.8537 77.2341H25.0934C24.3149 77.2341 23.7114 76.6303 23.7114 75.8513L23.7115 55.6343ZM32.0032 61.2064C31.2393 61.2064 30.6212 61.8249 30.6212 62.5892C30.6212 63.3536 31.2393 63.9721 32.0032 63.9721H67.9404C68.7042 63.9721 69.3224 63.3536 69.3224 62.5892C69.3224 61.8249 68.7043 61.2064 67.9404 61.2064H32.0032ZM32.0032 68.526C31.2393 68.526 30.6212 69.1445 30.6212 69.9089C30.6212 70.6732 31.2393 71.2917 32.0032 71.2917H67.9404C68.7042 71.2917 69.3224 70.6733 69.3224 69.9089C69.3224 69.1446 68.7043 68.526 67.9404 68.526H32.0032Z" fill="white"/>
</svg>
