<svg width="95" height="95" viewBox="0 0 95 95" fill="none" xmlns="http://www.w3.org/2000/svg">
<mask id="path-1-inside-1_378_2595" fill="white">
<path fill-rule="evenodd" clip-rule="evenodd" d="M40.5898 17.9737H55.424C56.3649 17.9737 57.1333 18.7413 57.1333 19.6814C57.1333 20.6215 56.3649 21.3891 55.424 21.3891H40.5898C39.6489 21.3891 38.8806 20.6215 38.8806 19.6814C38.8806 18.7413 39.6489 17.9737 40.5898 17.9737ZM61.251 52.9611L58.0713 53.7862C57.8094 54.9419 57.3519 56.0258 56.7361 57.0003L58.4079 59.8551L56.3562 61.902L53.5016 60.2288C52.5261 60.8441 51.4441 61.2983 50.2845 61.5599L49.4471 64.7597C48.4802 64.7597 47.5134 64.7597 46.5494 64.7568L45.7149 61.557C44.5581 61.2954 43.4761 60.8383 42.5035 60.226L39.646 61.8991L37.5972 59.8522L39.272 56.9975C38.6562 56.0258 38.1986 54.9419 37.9396 53.7833L34.7368 52.9496V50.0546L37.9396 49.2209C38.2015 48.0652 38.659 46.9813 39.272 46.0068L37.5972 43.152L39.646 41.1051L42.5035 42.7783C43.4761 42.163 44.561 41.7088 45.7206 41.4472L46.5551 38.2474H49.4528L50.2873 41.4472C51.4441 41.7088 52.529 42.1659 53.5045 42.7783L56.3619 41.1051L58.4107 43.152L56.736 46.0068C57.3518 46.9785 57.8064 48.0623 58.0683 49.2209L61.2711 50.0575L61.251 52.9611ZM48.0058 52.1992H48.0317V52.2021C49.2202 52.2021 50.5812 52.872 50.5841 53.9817H50.5812C50.5812 54.4359 50.3222 54.8585 49.8992 55.1776C48.2504 56.4253 45.4361 55.5226 45.4217 53.9759C45.4131 53.0502 44.0088 53.0646 44.0175 53.9874C44.0348 55.6722 45.5772 56.8479 47.2289 57.1096L47.2174 58.0152C47.2059 58.938 48.6101 58.9553 48.6216 58.0324L48.6331 57.1297C50.3482 56.9141 51.9884 55.7297 51.9884 53.9817L51.9913 53.9846C51.9855 52.0355 50.0029 50.7964 48.0346 50.7964V50.7992H47.9828V50.7964C46.7943 50.7964 45.4333 50.1265 45.4275 49.0168H45.4303C45.4303 48.5626 45.6893 48.14 46.1123 47.8208C47.7612 46.5731 50.5755 47.4759 50.5898 49.0225C50.5985 49.9482 52.0028 49.9339 51.9941 49.011C51.9768 47.3263 50.4344 46.1505 48.7827 45.8889L48.7942 44.9833C48.8057 44.0604 47.4014 44.0432 47.3899 44.966L47.3784 45.8688C45.6634 46.0844 44.0232 47.2688 44.0232 49.0167H44.026C44.0318 50.9659 46.0144 52.205 47.9827 52.205V52.2021L48.0058 52.1992ZM56.8914 41.6285L61.0697 37.48C61.2078 37.3449 61.3862 37.2759 61.5646 37.2759V37.273H64.9861V18.2555C64.9861 16.1424 63.2537 14.4117 61.1387 14.4117L34.8723 14.4089C32.7573 14.4089 31.0249 16.1396 31.0249 18.2526V37.2701H34.4464V37.273C34.6248 37.273 34.8061 37.342 34.9413 37.4771L39.1196 41.6256L38.1268 42.6175L34.1586 38.6788H31.0249V50.7907H34.737V52.1994H31.0249V64.3113H34.1586L38.1268 60.3698L39.1196 61.3617L34.9413 65.5102C34.8032 65.6453 34.6248 65.7143 34.4464 65.7143V65.7171H31.0249V76.7479C31.0249 78.861 32.7573 80.5917 34.8723 80.5917H61.1358C63.2508 80.5917 64.9831 78.861 64.9831 76.7479L64.986 65.6936H61.5904V65.6907C61.412 65.6907 61.2307 65.6217 61.0955 65.4866L56.9172 61.3382L57.9129 60.3463L61.881 64.2849H64.9889V52.2106H61.2595L61.271 50.8018H64.9889L64.986 38.6811H61.8523L57.8842 42.6197L56.8914 41.6285ZM77.4376 47.9533C75.7111 47.9533 74.2752 49.1809 73.9471 50.808C73.9241 50.8051 73.9011 50.8051 73.8781 50.8051H66.3936L66.3965 38.6815L71.1301 38.6757C71.4409 39.8918 72.5459 40.7945 73.8609 40.7945C75.4177 40.7945 76.678 39.5325 76.678 37.9771C76.678 36.4218 75.4148 35.1598 73.8609 35.1598C72.5458 35.1598 71.4408 36.0596 71.1301 37.2786L66.3965 37.2728V18.2553C66.3965 15.366 64.0311 13.0029 61.1391 13.0029L34.8727 13C31.9807 13 29.6154 15.3631 29.6154 18.2524V37.2699L24.8789 37.2757C24.5681 36.0596 23.4631 35.1569 22.1481 35.1569C20.5913 35.1569 19.3309 36.4189 19.3309 37.9743C19.3309 39.5296 20.5942 40.7916 22.1481 40.7916C23.4632 40.7916 24.5682 39.8918 24.8789 38.6728L29.6154 38.6786V50.7905H22.1191C22.0961 50.7905 22.0731 50.7934 22.0501 50.7934C21.7249 49.1662 20.2861 47.9386 18.5595 47.9386C16.5941 47.9386 15 49.5313 15 51.4948C15 53.4583 16.5942 55.051 18.5595 55.051C20.2832 55.051 21.722 53.8234 22.0501 52.1963C22.0731 52.1992 22.0961 52.1992 22.1191 52.1992H29.6154V64.311L24.8789 64.3168C24.5681 63.1007 23.4631 62.198 22.1481 62.198C20.5913 62.198 19.3281 63.4601 19.3281 65.0154C19.3281 66.5707 20.5913 67.8299 22.1481 67.8299C23.4632 67.8299 24.5682 66.93 24.8789 65.7111L29.6154 65.7168V76.7476C29.6154 79.6369 31.9807 82 34.8727 82H61.1362C64.0282 82 66.3935 79.6369 66.3935 76.7476L66.3964 65.6933L71.1588 65.6875C71.4695 66.9036 72.5745 67.8063 73.8896 67.8063C75.4463 67.8063 76.7096 66.5443 76.7096 64.9918C76.7096 63.4365 75.4463 62.1744 73.8896 62.1744C72.5745 62.1744 71.4695 63.0743 71.1588 64.2932L66.3964 64.2875V52.2131H73.8809C73.9039 52.2131 73.9269 52.2131 73.9499 52.2103C74.2751 53.8374 75.7139 55.065 77.4405 55.065C79.4059 55.065 81 53.4723 81 51.5088C80.9971 49.5424 79.403 47.9533 77.4376 47.9533ZM48.7881 70.162L48.7939 64.7542H47.3839L47.3896 70.162C46.1724 70.4724 45.2688 71.5764 45.2688 72.8902C45.2688 74.4455 46.5321 75.7076 48.0889 75.7076C49.6456 75.7076 50.9089 74.4455 50.9089 72.8902C50.906 71.5763 50.0053 70.4724 48.7881 70.162ZM48.7881 32.5236C50.0053 32.2131 50.9089 31.1091 50.9089 29.7954C50.9089 28.24 49.6457 26.9808 48.0889 26.9808C46.5321 26.9808 45.2689 28.2429 45.2689 29.7954C45.2689 31.1092 46.1696 32.2132 47.3897 32.5236L47.3839 37.9313C47.3839 38.0434 47.4098 38.1498 47.4559 38.2447H48.7191C48.7651 38.1498 48.791 38.0434 48.791 37.9313L48.7881 32.5236Z"/>
</mask>
<path fill-rule="evenodd" clip-rule="evenodd" d="M40.5898 17.9737H55.424C56.3649 17.9737 57.1333 18.7413 57.1333 19.6814C57.1333 20.6215 56.3649 21.3891 55.424 21.3891H40.5898C39.6489 21.3891 38.8806 20.6215 38.8806 19.6814C38.8806 18.7413 39.6489 17.9737 40.5898 17.9737ZM61.251 52.9611L58.0713 53.7862C57.8094 54.9419 57.3519 56.0258 56.7361 57.0003L58.4079 59.8551L56.3562 61.902L53.5016 60.2288C52.5261 60.8441 51.4441 61.2983 50.2845 61.5599L49.4471 64.7597C48.4802 64.7597 47.5134 64.7597 46.5494 64.7568L45.7149 61.557C44.5581 61.2954 43.4761 60.8383 42.5035 60.226L39.646 61.8991L37.5972 59.8522L39.272 56.9975C38.6562 56.0258 38.1986 54.9419 37.9396 53.7833L34.7368 52.9496V50.0546L37.9396 49.2209C38.2015 48.0652 38.659 46.9813 39.272 46.0068L37.5972 43.152L39.646 41.1051L42.5035 42.7783C43.4761 42.163 44.561 41.7088 45.7206 41.4472L46.5551 38.2474H49.4528L50.2873 41.4472C51.4441 41.7088 52.529 42.1659 53.5045 42.7783L56.3619 41.1051L58.4107 43.152L56.736 46.0068C57.3518 46.9785 57.8064 48.0623 58.0683 49.2209L61.2711 50.0575L61.251 52.9611ZM48.0058 52.1992H48.0317V52.2021C49.2202 52.2021 50.5812 52.872 50.5841 53.9817H50.5812C50.5812 54.4359 50.3222 54.8585 49.8992 55.1776C48.2504 56.4253 45.4361 55.5226 45.4217 53.9759C45.4131 53.0502 44.0088 53.0646 44.0175 53.9874C44.0348 55.6722 45.5772 56.8479 47.2289 57.1096L47.2174 58.0152C47.2059 58.938 48.6101 58.9553 48.6216 58.0324L48.6331 57.1297C50.3482 56.9141 51.9884 55.7297 51.9884 53.9817L51.9913 53.9846C51.9855 52.0355 50.0029 50.7964 48.0346 50.7964V50.7992H47.9828V50.7964C46.7943 50.7964 45.4333 50.1265 45.4275 49.0168H45.4303C45.4303 48.5626 45.6893 48.14 46.1123 47.8208C47.7612 46.5731 50.5755 47.4759 50.5898 49.0225C50.5985 49.9482 52.0028 49.9339 51.9941 49.011C51.9768 47.3263 50.4344 46.1505 48.7827 45.8889L48.7942 44.9833C48.8057 44.0604 47.4014 44.0432 47.3899 44.966L47.3784 45.8688C45.6634 46.0844 44.0232 47.2688 44.0232 49.0167H44.026C44.0318 50.9659 46.0144 52.205 47.9827 52.205V52.2021L48.0058 52.1992ZM56.8914 41.6285L61.0697 37.48C61.2078 37.3449 61.3862 37.2759 61.5646 37.2759V37.273H64.9861V18.2555C64.9861 16.1424 63.2537 14.4117 61.1387 14.4117L34.8723 14.4089C32.7573 14.4089 31.0249 16.1396 31.0249 18.2526V37.2701H34.4464V37.273C34.6248 37.273 34.8061 37.342 34.9413 37.4771L39.1196 41.6256L38.1268 42.6175L34.1586 38.6788H31.0249V50.7907H34.737V52.1994H31.0249V64.3113H34.1586L38.1268 60.3698L39.1196 61.3617L34.9413 65.5102C34.8032 65.6453 34.6248 65.7143 34.4464 65.7143V65.7171H31.0249V76.7479C31.0249 78.861 32.7573 80.5917 34.8723 80.5917H61.1358C63.2508 80.5917 64.9831 78.861 64.9831 76.7479L64.986 65.6936H61.5904V65.6907C61.412 65.6907 61.2307 65.6217 61.0955 65.4866L56.9172 61.3382L57.9129 60.3463L61.881 64.2849H64.9889V52.2106H61.2595L61.271 50.8018H64.9889L64.986 38.6811H61.8523L57.8842 42.6197L56.8914 41.6285ZM77.4376 47.9533C75.7111 47.9533 74.2752 49.1809 73.9471 50.808C73.9241 50.8051 73.9011 50.8051 73.8781 50.8051H66.3936L66.3965 38.6815L71.1301 38.6757C71.4409 39.8918 72.5459 40.7945 73.8609 40.7945C75.4177 40.7945 76.678 39.5325 76.678 37.9771C76.678 36.4218 75.4148 35.1598 73.8609 35.1598C72.5458 35.1598 71.4408 36.0596 71.1301 37.2786L66.3965 37.2728V18.2553C66.3965 15.366 64.0311 13.0029 61.1391 13.0029L34.8727 13C31.9807 13 29.6154 15.3631 29.6154 18.2524V37.2699L24.8789 37.2757C24.5681 36.0596 23.4631 35.1569 22.1481 35.1569C20.5913 35.1569 19.3309 36.4189 19.3309 37.9743C19.3309 39.5296 20.5942 40.7916 22.1481 40.7916C23.4632 40.7916 24.5682 39.8918 24.8789 38.6728L29.6154 38.6786V50.7905H22.1191C22.0961 50.7905 22.0731 50.7934 22.0501 50.7934C21.7249 49.1662 20.2861 47.9386 18.5595 47.9386C16.5941 47.9386 15 49.5313 15 51.4948C15 53.4583 16.5942 55.051 18.5595 55.051C20.2832 55.051 21.722 53.8234 22.0501 52.1963C22.0731 52.1992 22.0961 52.1992 22.1191 52.1992H29.6154V64.311L24.8789 64.3168C24.5681 63.1007 23.4631 62.198 22.1481 62.198C20.5913 62.198 19.3281 63.4601 19.3281 65.0154C19.3281 66.5707 20.5913 67.8299 22.1481 67.8299C23.4632 67.8299 24.5682 66.93 24.8789 65.7111L29.6154 65.7168V76.7476C29.6154 79.6369 31.9807 82 34.8727 82H61.1362C64.0282 82 66.3935 79.6369 66.3935 76.7476L66.3964 65.6933L71.1588 65.6875C71.4695 66.9036 72.5745 67.8063 73.8896 67.8063C75.4463 67.8063 76.7096 66.5443 76.7096 64.9918C76.7096 63.4365 75.4463 62.1744 73.8896 62.1744C72.5745 62.1744 71.4695 63.0743 71.1588 64.2932L66.3964 64.2875V52.2131H73.8809C73.9039 52.2131 73.9269 52.2131 73.9499 52.2103C74.2751 53.8374 75.7139 55.065 77.4405 55.065C79.4059 55.065 81 53.4723 81 51.5088C80.9971 49.5424 79.403 47.9533 77.4376 47.9533ZM48.7881 70.162L48.7939 64.7542H47.3839L47.3896 70.162C46.1724 70.4724 45.2688 71.5764 45.2688 72.8902C45.2688 74.4455 46.5321 75.7076 48.0889 75.7076C49.6456 75.7076 50.9089 74.4455 50.9089 72.8902C50.906 71.5763 50.0053 70.4724 48.7881 70.162ZM48.7881 32.5236C50.0053 32.2131 50.9089 31.1091 50.9089 29.7954C50.9089 28.24 49.6457 26.9808 48.0889 26.9808C46.5321 26.9808 45.2689 28.2429 45.2689 29.7954C45.2689 31.1092 46.1696 32.2132 47.3897 32.5236L47.3839 37.9313C47.3839 38.0434 47.4098 38.1498 47.4559 38.2447H48.7191C48.7651 38.1498 48.791 38.0434 48.791 37.9313L48.7881 32.5236Z" fill="white" stroke="white" stroke-width="2" mask="url(#path-1-inside-1_378_2595)"/>
</svg>
