<svg width="95" height="95" viewBox="0 0 95 95" fill="none" xmlns="http://www.w3.org/2000/svg">
<path d="M38.0794 49.9094V43.3453H57.9218V49.9094C57.9218 51.726 59.4051 53.2061 61.2254 53.2061H62.6296C64.0454 53.2061 65.259 52.311 65.7251 51.059C66.1414 51.2462 66.5987 51.3515 67.0853 51.3515H68.4895C70.3099 51.3515 71.7931 49.8742 71.7931 48.0548V43.3452H72.5992C74.6365 43.3452 76.2928 41.6925 76.2928 39.6594C76.2928 37.6264 74.6366 35.9737 72.5992 35.9737H71.7931V31.2641C71.7931 29.4475 70.3127 27.9674 68.4895 27.9674H67.0853C66.6016 27.9674 66.1414 28.0727 65.7251 28.2599C65.2561 27.0079 64.0454 26.1128 62.6296 26.1128H61.2254C59.405 26.1128 57.9218 27.59 57.9218 29.4095V35.9736H38.0794V29.4095C38.0794 27.5929 36.5961 26.1128 34.7757 26.1128H33.3716C31.9557 26.1128 30.7421 27.0079 30.276 28.2599C29.8598 28.0727 29.4024 27.9674 28.9159 27.9674H27.5117C25.6913 27.9674 24.208 29.4446 24.208 31.2641V35.9737H23.4019C21.3646 35.9737 19.7083 37.6264 19.7083 39.6594C19.7083 41.6925 21.3646 43.3452 23.4019 43.3452H24.208V48.0548C24.208 49.8714 25.6884 51.3515 27.5117 51.3515H28.9159C29.3995 51.3515 29.8598 51.2462 30.276 51.059C30.7451 52.3139 31.9557 53.2061 33.3716 53.2061H34.7757C36.5962 53.2061 38.0794 51.7288 38.0794 49.9094ZM72.6026 38.118C73.4556 38.118 74.1475 38.8083 74.1475 39.6596C74.1475 40.5079 73.4557 41.2012 72.6026 41.2012H71.7965V38.1209H72.6026V38.118ZM65.9337 31.2613C65.9337 30.6266 66.4496 30.1117 67.0858 30.1117H68.4899C69.126 30.1117 69.642 30.6265 69.642 31.2613V48.0551C69.642 48.6899 69.1261 49.2047 68.4899 49.2047H67.0858C66.4496 49.2047 65.9337 48.6899 65.9337 48.0551V31.2613ZM60.0709 29.4067C60.0709 28.772 60.5868 28.2571 61.223 28.2571H62.6271C63.2632 28.2571 63.7792 28.7719 63.7792 29.4067V49.9096C63.7792 50.5443 63.2632 51.0592 62.6271 51.0592H61.223C60.5868 51.0592 60.0709 50.5444 60.0709 49.9096V29.4067ZM57.9221 38.1181V41.1984H38.0798V38.1181H57.9221ZM23.3989 41.1984C22.5488 41.1984 21.8541 40.508 21.8541 39.6568C21.8541 38.8085 22.5459 38.1152 23.3989 38.1152H24.205V41.1955H23.3989V41.1984ZM28.9159 49.2044H27.5117C26.8756 49.2044 26.3596 48.6895 26.3596 48.0547V31.261C26.3596 30.6262 26.8756 30.1113 27.5117 30.1113H28.9159C29.552 30.1113 30.0679 30.6262 30.0679 31.261V48.0547C30.0679 48.6895 29.552 49.2044 28.9159 49.2044ZM35.9307 49.9093C35.9307 50.5441 35.4148 51.059 34.7787 51.059H33.3745C32.7384 51.059 32.2224 50.5441 32.2224 49.9093V29.4065C32.2224 28.7717 32.7384 28.2569 33.3745 28.2569H34.7787C35.4148 28.2569 35.9307 28.7717 35.9307 29.4065V49.9093ZM77.3753 58.2576H73.4442C74.0188 57.576 74.567 56.8915 75.0829 56.204C80.3096 49.2888 82.5933 42.3765 81.8691 35.657C81.4265 31.553 79.9168 27.7709 77.5043 24.7171C75.1181 21.6983 72.0167 19.5862 68.5283 18.6093C61.4079 16.6113 53.9855 19.5804 48 26.765C42.014 19.5778 34.5949 16.6113 27.4717 18.6093C23.9863 19.5863 20.8849 21.6983 18.4957 24.7171C16.0802 27.7709 14.5705 31.5532 14.1308 35.657C13.4068 42.3763 15.6903 49.2884 20.9171 56.204C21.4359 56.8885 21.9812 57.573 22.5557 58.2576H18.6247C18.0326 58.2576 17.5489 58.7373 17.5489 59.3311C17.5489 59.922 18.0296 60.4047 18.6247 60.4047H24.4552C30.0131 66.3721 37.723 72.2253 47.4547 77.8567C47.6218 77.9532 47.8065 78 47.9941 78C48.1817 78 48.3664 77.9532 48.5335 77.8567C58.2659 72.2257 65.9752 66.3693 71.5329 60.4047H77.3635C77.9556 60.4047 78.4393 59.9249 78.4393 59.3311C78.4393 58.7402 77.9586 58.2576 77.3635 58.2576H77.3753ZM22.6397 54.9111C17.7531 48.4464 15.6102 42.0428 16.2756 35.8857C17.0788 28.4294 21.7046 22.4588 28.0598 20.675C29.3086 20.324 30.572 20.1514 31.8354 20.1514C37.2262 20.1514 42.6492 23.2873 47.1518 29.1377C47.3541 29.4009 47.6707 29.556 48.0049 29.556C48.339 29.556 48.6527 29.4009 48.8579 29.1377C54.4188 21.9154 61.3782 18.829 67.9498 20.6749C74.3051 22.4592 78.931 28.427 79.734 35.8856C80.3965 42.0461 78.2565 48.4461 73.3699 54.9109C72.5256 56.0284 71.5993 57.1429 70.5997 58.2574H59.0767L57.7341 55.4375C57.5377 55.028 57.1068 54.7852 56.6553 54.8291C56.2039 54.8759 55.8286 55.1976 55.7202 55.6393L54.4274 60.8549L51.0973 49.7629C50.9537 49.2832 50.4964 48.9673 49.9981 48.9995C49.4998 49.0317 49.0865 49.4032 49.0073 49.8946L46.4247 65.6033L41.9661 53.2352C41.8078 52.7964 41.3798 52.5098 40.9137 52.5273C40.4476 52.5449 40.0431 52.8608 39.9171 53.3113L37.9296 60.4487L37.3052 58.9247C37.1411 58.521 36.7483 58.2577 36.3115 58.2577H25.4151C24.4126 57.1461 23.4892 56.0287 22.6449 54.9113L22.6397 54.9111ZM48.0053 75.6857C39.5043 70.7188 32.6213 65.5995 27.447 60.4017H35.5848L37.1238 64.1635C37.2967 64.5876 37.7218 64.8567 38.1821 64.8275C38.6423 64.8011 39.0322 64.4852 39.1553 64.0435L41.0812 57.1283L45.7979 70.213C45.9533 70.6401 46.3578 70.9238 46.8093 70.9238C46.8415 70.9238 46.8738 70.9209 46.9089 70.918C47.3955 70.8741 47.7913 70.5055 47.8704 70.0229L50.3709 54.8234L53.4928 65.2257C53.6306 65.6879 54.0645 66.0009 54.5481 65.9892C55.0318 65.9775 55.448 65.644 55.5653 65.1731L57.0808 59.0653L57.4238 59.7849C57.6026 60.1593 57.9808 60.3963 58.3941 60.3963H68.5603C63.3864 65.5914 56.5038 70.7132 48.002 75.6803L48.0053 75.6857Z" fill="white"/>
</svg>
