<svg width="95" height="95" viewBox="0 0 95 95" fill="none" xmlns="http://www.w3.org/2000/svg">
<path d="M62.671 43.1977C64.3857 41.4843 65.2908 39.1293 65.1664 36.7109C65.0421 34.2924 63.8999 32.0414 62.0203 30.5129C58.6748 27.7766 53.5075 28.1666 50.2718 31.4L49.5316 32.1397C48.6727 32.9603 47.3224 32.9603 46.4636 32.1397L45.7263 31.4C42.4934 28.1666 37.3289 27.7708 33.9778 30.5129C32.0982 32.0414 30.9532 34.2924 30.8288 36.7109C30.7045 39.1293 31.6124 41.4843 33.3243 43.1977L44.827 54.6921C46.5793 56.4373 49.416 56.4373 51.1683 54.6921L62.671 43.1977ZM46.4661 53.0566L34.9604 41.5622C33.7141 40.314 33.052 38.5976 33.1416 36.8351C33.2226 35.0638 34.0612 33.4139 35.4434 32.3043C36.5133 31.4432 37.8492 30.9809 39.2227 30.9954C41.0502 31.007 42.8025 31.7409 44.0922 33.0354L44.8324 33.7751C46.6049 35.4684 49.3983 35.4684 51.1708 33.7751L51.911 33.0354C54.3226 30.6285 58.1164 30.3077 60.5601 32.3015C61.9337 33.4168 62.7693 35.0609 62.8619 36.8264C62.9544 38.5919 62.2922 40.314 61.0402 41.5622L49.5315 53.0566C48.6843 53.9003 47.3134 53.9003 46.4661 53.0566ZM52.4836 42.3426C52.4836 42.6489 52.3621 42.9436 52.1481 43.1604C51.9313 43.38 51.6363 43.5013 51.3298 43.5013H49.1553V45.6714C49.138 46.2984 48.6261 46.7982 47.9987 46.7982C47.3712 46.7982 46.8565 46.2983 46.842 45.6714V43.5013H44.6675C44.0401 43.4869 43.5398 42.9726 43.5398 42.3455C43.5398 41.7185 44.0401 41.2071 44.6675 41.1898H46.842V39.0169C46.8565 38.3898 47.3712 37.89 47.9987 37.89C48.6261 37.89 49.138 38.3899 49.1553 39.0169V41.1869H51.3298C51.9688 41.1898 52.4836 41.7041 52.4836 42.3426ZM37.777 54.539C37.7018 54.4812 29.7993 48.8438 25.8575 49.5083C25.0739 49.6124 24.3712 50.0487 23.9317 50.7075C23.3996 51.4587 23.2001 52.3949 23.3765 53.2965C21.361 51.8575 20.5803 51.0196 20.4704 50.7248C20.2015 48.6935 20.135 46.642 20.2738 44.602C20.3981 39.9008 20.5167 35.4599 17.7725 34.4628C16.8212 34.1334 15.7687 34.379 15.0602 35.0898C12.0182 37.7222 10.1127 47.3498 11.4168 53.4783C12.8105 60.0461 18.8481 64.227 23.6975 67.5904C25.9501 69.1508 27.8961 70.5002 28.8879 71.7426L28.885 71.7398C31.0971 74.6234 32.5082 78.0388 32.9795 81.6422C33.1819 83.1043 34.1968 84.3295 35.5964 84.8004C36.97 85.2627 38.488 84.9073 39.5117 83.8844C43.3893 80.0559 47.7092 74.0685 46.2722 67.2898C44.9624 61.1266 42.2796 58.0555 37.777 54.539ZM37.8869 82.2403C37.485 82.6564 36.8777 82.8009 36.3312 82.6102C35.7558 82.4195 35.3423 81.9138 35.27 81.3128C34.7379 77.3022 33.1591 73.5052 30.6925 70.3008C29.4925 68.7924 27.4192 67.3535 25.0163 65.692C20.4996 62.5627 14.8815 58.6705 13.6816 53.0015C12.3746 46.8614 14.5606 38.5831 16.5732 36.8352C16.6194 36.7976 16.8218 36.6272 16.9433 36.6272C16.9549 36.6272 16.9664 36.6272 16.978 36.63C18.1548 37.0577 18.0305 41.7386 17.9582 44.5383C17.8021 46.7632 17.8859 48.9967 18.204 51.2014C18.3341 51.8082 18.6782 53.4263 26.9397 58.3327L31.6386 62.196C32.1186 62.5918 32.8271 62.534 33.2318 62.063L34.0241 62.5311L33.3735 61.8376H33.3706C33.6395 61.3609 33.5297 60.7599 33.1075 60.4102L28.397 56.5412C25.7599 53.7268 25.2828 52.8628 25.864 51.9671C25.8871 51.9296 25.9507 51.8371 26.2341 51.788C28.5301 51.395 34.7063 55.0762 36.3518 56.362C40.6025 59.6821 42.8348 62.2364 44.009 67.7698C45.2321 73.5257 41.3539 78.817 37.8869 82.2403ZM80.9398 35.0868C80.2314 34.376 79.1789 34.1304 78.2304 34.4569C75.492 35.4538 75.6048 39.895 75.7291 44.5961C75.8651 46.6303 75.7985 48.6732 75.5354 50.6929C75.4226 51.0021 74.639 51.8487 72.6236 53.2877V53.2906C72.7999 52.389 72.6004 51.4557 72.0684 50.7045C71.6289 50.0457 70.9291 49.6093 70.1425 49.5053C66.1406 48.835 58.2926 54.4811 58.223 54.536C53.7208 58.0525 51.0345 61.124 49.725 67.2871C48.2878 74.0658 52.6079 80.0559 56.4855 83.8847H56.4884C57.5149 84.9075 59.0301 85.2601 60.4037 84.7978C61.8061 84.3268 62.8181 83.1016 63.0206 81.6396C63.4919 78.0364 64.9059 74.6239 67.1151 71.7371C68.1069 70.4946 70.053 69.1481 72.3055 67.5849C77.1547 64.2215 83.1923 60.0406 84.5862 53.4757C85.8846 47.35 83.9789 37.7217 80.9398 35.0868ZM82.3163 53.0018C81.1162 58.6652 75.4979 62.5604 70.9815 65.6923C68.5786 67.3538 66.5053 68.7927 65.3053 70.3011C62.8359 73.5055 61.257 77.3022 60.7279 81.3101C60.6527 81.914 60.2392 82.4168 59.6638 82.6104C59.1173 82.7982 58.51 82.6537 58.1081 82.2406C54.6439 78.8165 50.7663 73.526 51.9895 67.7644C53.1605 62.231 55.3958 59.6765 59.6466 56.3566C61.211 55.1344 66.9045 51.7565 69.4061 51.7565H69.4032C69.5246 51.7565 69.6432 51.7652 69.7617 51.7854C70.048 51.8317 70.1087 51.927 70.1319 51.9646C70.7131 52.8603 70.236 53.7243 67.5988 56.5387L62.8884 60.4077C62.4691 60.7573 62.3563 61.3584 62.6252 61.8351L61.9746 62.5286L62.7669 62.0605H62.764C63.1717 62.5315 63.8802 62.5893 64.3573 62.1905L69.0619 58.3244C77.3202 53.4209 77.6644 51.8028 77.7976 51.196C78.1157 48.9913 78.1995 46.7549 78.0434 44.5329C77.9682 41.7359 77.8468 37.0551 79.0236 36.6246C79.1538 36.5755 79.3793 36.7864 79.4285 36.8269C81.4381 38.5808 83.6242 46.8588 82.3172 52.9991L82.3163 53.0018ZM46.8509 20.1336V12.1847C46.8422 11.8726 46.9608 11.5721 47.1805 11.3496C47.3974 11.1242 47.6952 11 48.0075 11C48.3198 11 48.6177 11.1242 48.8374 11.3496C49.0543 11.5721 49.1728 11.8726 49.1642 12.1847V20.1336C49.1728 20.4457 49.0543 20.7462 48.8374 20.9687C48.6177 21.194 48.3198 21.3183 48.0075 21.3183C47.6952 21.3183 47.3974 21.194 47.1805 20.9687C46.9608 20.7462 46.8422 20.4457 46.8509 20.1336ZM55.3179 20.8097L57.8914 16.0883C58.1979 15.5278 58.9035 15.3226 59.4644 15.6289C60.0254 15.9352 60.2307 16.6373 59.9242 17.1979L57.3507 21.9193H57.3535C57.047 22.4799 56.3415 22.6879 55.7805 22.3816C55.2195 22.0753 55.0113 21.3703 55.3179 20.8097ZM62.6336 25.6612C62.4485 25.4156 62.3705 25.1064 62.4138 24.803C62.4543 24.4996 62.6191 24.2251 62.8649 24.0431L70.357 18.4201H70.3541C70.8659 18.0387 71.5917 18.1427 71.9734 18.6513C72.358 19.1627 72.2539 19.888 71.7421 20.2694L64.25 25.8924C64.0071 26.0744 63.6977 26.1553 63.3941 26.112C63.0905 26.0686 62.8186 25.9068 62.6336 25.6612ZM67.9397 29.1517L74.2087 27.1782C74.8189 26.9875 75.4695 27.3256 75.6603 27.9323C75.854 28.542 75.5157 29.1921 74.9056 29.3828L68.6366 31.3564C68.0322 31.5326 67.3961 31.1946 67.2052 30.5936C67.0173 29.9955 67.344 29.354 67.9397 29.1517ZM20.2572 28.1173C20.344 27.8226 20.5464 27.577 20.8182 27.4325C21.09 27.288 21.4081 27.2591 21.7001 27.3516L27.9923 29.2818C28.5388 29.4494 28.88 29.9926 28.7932 30.5561C28.7094 31.1224 28.2236 31.5414 27.6539 31.5414C27.5382 31.5414 27.4255 31.5241 27.3156 31.4894L21.0235 29.5592V29.5621C20.7285 29.4696 20.4827 29.2674 20.341 28.9957C20.1965 28.727 20.1676 28.4092 20.2572 28.1173ZM24.2708 20.2749C23.759 19.8935 23.6578 19.1683 24.0395 18.6568C24.4241 18.1454 25.147 18.0443 25.6588 18.4257L33.1508 24.0486C33.6598 24.43 33.7639 25.1553 33.3822 25.6639C32.9976 26.1753 32.2747 26.2793 31.7629 25.8979L24.2708 20.2749ZM35.8661 17.2756C35.707 17.0069 35.6637 16.6862 35.7446 16.3886C35.8285 16.0881 36.028 15.8309 36.2998 15.6807C36.5716 15.5304 36.8926 15.4928 37.1904 15.5824C37.4883 15.6691 37.7398 15.8742 37.8844 16.1487L40.5129 20.8529C40.8223 21.4105 40.6228 22.1155 40.0676 22.4247C39.5095 22.7368 38.804 22.5374 38.4917 21.9798L35.8661 17.2756Z" fill="white"/>
</svg>
