<svg width="95" height="95" viewBox="0 0 95 95" fill="none" xmlns="http://www.w3.org/2000/svg">
<path fill-rule="evenodd" clip-rule="evenodd" d="M30.8074 51.8988H18.9646C16.4858 51.8988 14.9778 50.366 14.3399 48.1271C14.0378 47.0707 13.9399 45.8545 14.035 44.5824C14.1301 43.3326 14.4071 42.024 14.8603 40.7547C16.3431 36.599 19.692 32.8215 24.5236 32.8215C25.1671 32.8215 25.805 32.8747 26.4373 32.9812C26.7675 33.0372 27.092 33.1045 27.411 33.1858C28.116 31.4904 29.2715 30.0333 30.7291 28.9573C32.391 27.7328 34.4417 27.007 36.6603 27.007C36.9905 27.007 37.3234 27.0238 37.6591 27.0574C37.6535 26.9005 37.6507 26.7464 37.6507 26.5979C37.6507 23.1624 39.2566 20.3575 41.7131 18.3598C44.3709 16.1993 48.0304 15 51.698 15C55.1896 15 58.3595 16.3983 60.6759 18.6652C62.847 20.7892 64.271 23.6811 64.5117 26.9004C66.403 27.601 68.0313 28.8367 69.2119 30.4256C70.3926 32.0088 71.1284 33.9423 71.2431 36.0383C75.7083 36.3269 78.6682 39.2104 80.014 42.402C80.4616 43.4668 80.733 44.5624 80.817 45.6105C80.9037 46.6809 80.7974 47.7121 80.498 48.6228C79.8573 50.5563 78.3801 51.8929 76.0356 51.8929L64.187 51.8985V52.4842C64.187 53.0306 64.0052 53.5378 63.6918 53.9441C63.3785 54.3505 62.9308 54.6503 62.402 54.7848L60.3596 55.306C60.2757 55.3284 60.2058 55.3621 60.1554 55.4097C60.1022 55.4573 60.0603 55.5218 60.0323 55.6002C59.9819 55.7347 59.9204 55.8945 59.8448 56.0766C59.7805 56.2307 59.7133 56.3876 59.6406 56.5446C59.6042 56.623 59.5874 56.7015 59.593 56.7743C59.5958 56.8444 59.621 56.9172 59.6658 56.9929L60.7429 58.8115C61.0199 59.2823 61.1234 59.8063 61.0618 60.3135C60.9975 60.8207 60.7681 61.3083 60.382 61.695L58.2193 63.8638C57.8305 64.2533 57.3436 64.4859 56.8344 64.5504C56.3281 64.6148 55.8021 64.5111 55.332 64.2309L53.5219 63.1521C53.4464 63.1073 53.3708 63.082 53.3009 63.0792C53.2309 63.0764 53.1526 63.0933 53.0743 63.1269C52.9176 63.1997 52.7609 63.267 52.607 63.3314C52.4448 63.3987 52.2853 63.4603 52.1286 63.5192C52.0503 63.5472 51.9859 63.5892 51.9384 63.6425C51.8908 63.6929 51.8572 63.763 51.8348 63.847L51.3145 65.8954C51.1802 66.4251 50.8808 66.8734 50.4751 67.1873C50.0694 67.5039 49.5631 67.6832 49.0175 67.6832H48.4383V73.6518C49.0874 73.8228 49.6665 74.1618 50.1254 74.6242C50.7997 75.2995 51.2165 76.2326 51.2165 77.2638C51.2165 78.295 50.7996 79.2282 50.1254 79.9035C49.4512 80.5788 48.5195 80.9963 47.4899 80.9963C46.4603 80.9963 45.5286 80.5788 44.8544 79.9035C44.1801 79.2282 43.7633 78.295 43.7633 77.2638C43.7633 76.2326 44.1802 75.2995 44.8544 74.6242C45.3132 74.1646 45.8923 73.8228 46.5415 73.6518V67.6832H45.9623C45.4168 67.6832 44.9103 67.5011 44.5047 67.1873C44.099 66.8706 43.7996 66.4251 43.6653 65.8954L43.1449 63.847C43.1225 63.763 43.089 63.6929 43.0414 63.6425C42.9939 63.592 42.9295 63.55 42.8484 63.5192C42.7141 63.4687 42.5574 63.4071 42.3728 63.3314C42.2189 63.267 42.0622 63.1997 41.9055 63.1269C41.8272 63.0905 41.7517 63.0736 41.6789 63.0792C41.609 63.082 41.5362 63.1073 41.4579 63.1521L39.6478 64.2309C39.1777 64.5111 38.6518 64.6148 38.1453 64.5504C37.6361 64.4859 37.1493 64.2533 36.7604 63.8638L34.5978 61.695C34.2117 61.3083 33.9823 60.8236 33.9179 60.3135C33.8536 59.8063 33.9571 59.2823 34.2369 58.8115L35.314 56.9901C35.3588 56.9144 35.384 56.8388 35.3867 56.7715C35.3895 56.6987 35.3756 56.6202 35.3392 56.5418C35.2664 56.382 35.1965 56.2251 35.1349 56.071C35.0594 55.8861 34.9951 55.7291 34.9475 55.5946C34.9195 55.5162 34.8748 55.4517 34.8244 55.4041C34.774 55.3564 34.7041 55.3228 34.6201 55.3004L32.5778 54.7792C32.049 54.6447 31.6013 54.3421 31.288 53.9385C30.9718 53.5322 30.7928 53.0251 30.7928 52.4786L30.804 51.8985L30.8074 51.8988ZM47.4963 75.4315C46.9899 75.4315 46.5338 75.6361 46.2009 75.9696C45.8708 76.3002 45.6637 76.7598 45.6637 77.267C45.6637 77.7741 45.868 78.2309 46.2009 78.5644C46.531 78.895 46.9899 79.1024 47.4963 79.1024C48.0026 79.1024 48.4587 78.8978 48.7916 78.5644C49.1218 78.2337 49.3288 77.7741 49.3288 77.267C49.3288 76.7598 49.1246 76.3002 48.7916 75.9696C48.4587 75.6389 48.0026 75.4315 47.4963 75.4315ZM29.9372 73.5345C28.9077 73.5345 27.976 73.952 27.3017 74.6273C26.6275 75.3026 26.2106 76.2358 26.2106 77.267C26.2106 78.2982 26.6275 79.2313 27.3017 79.9066C27.976 80.5819 28.9077 80.9994 29.9372 80.9994C30.9668 80.9994 31.8985 80.5819 32.5727 79.9066C33.0316 79.4471 33.3729 78.867 33.5436 78.2169H39.3797C39.9029 78.2169 40.3281 77.791 40.3281 77.267L40.3253 67.4816C40.3253 66.9576 39.9001 66.5316 39.3769 66.5316C38.8537 66.5316 38.4285 66.9576 38.4285 67.4816V76.3165H33.5408C33.3701 75.6664 33.0316 75.0864 32.5699 74.6268C31.8985 73.9514 30.9668 73.5345 29.9372 73.5345ZM31.2326 75.9696C30.9025 75.6389 30.4436 75.4315 29.9372 75.4315C29.4308 75.4315 28.972 75.6361 28.6419 75.9696C28.3117 76.3002 28.1047 76.7598 28.1047 77.267C28.1047 77.7741 28.3089 78.2309 28.6419 78.5644C28.972 78.895 29.4309 79.1024 29.9372 79.1024C30.4436 79.1024 30.9025 78.8978 31.2326 78.5644C31.5627 78.2337 31.7698 77.7741 31.7698 77.267C31.7698 76.7598 31.5627 76.3002 31.2326 75.9696ZM65.055 75.4315C64.5486 75.4315 64.0926 75.6361 63.7596 75.9696C63.4295 76.3002 63.2225 76.7598 63.2225 77.267C63.2225 77.7741 63.4267 78.2309 63.7596 78.5644C64.0898 78.895 64.5486 79.1024 65.055 79.1024C65.5614 79.1024 66.0175 78.8978 66.3504 78.5644C66.6805 78.2337 66.8876 77.7741 66.8876 77.267C66.8876 76.7598 66.6833 76.3002 66.3504 75.9696C66.0175 75.6389 65.5614 75.4315 65.055 75.4315ZM62.4223 74.6273C61.9635 75.0869 61.6221 75.6669 61.4515 76.317H56.5638V67.4821C56.5638 66.9581 56.1413 66.5322 55.6154 66.5322C55.0922 66.5322 54.6669 66.9581 54.6669 67.4821V77.2675C54.6669 77.7915 55.0894 78.2175 55.6154 78.2175H61.4515C61.6221 78.8648 61.9607 79.4476 62.4223 79.9072C63.0966 80.5825 64.0282 81 65.0578 81C66.0874 81 67.0191 80.5825 67.6933 79.9072C68.3676 79.2319 68.7844 78.2987 68.7844 77.2675C68.7844 76.2363 68.3675 75.3032 67.6933 74.6279C67.019 73.9526 66.0874 73.5351 65.0578 73.5351C64.0254 73.5351 63.0938 73.952 62.4223 74.6273ZM71.8085 62.8778C71.3021 62.8778 70.8432 63.0824 70.5131 63.4158C70.183 63.7465 69.9759 64.2061 69.9759 64.7132C69.9759 65.2204 70.1802 65.6772 70.5131 66.0106C70.8432 66.3413 71.3021 66.5486 71.8085 66.5486C72.3148 66.5486 72.7709 66.3441 73.1038 66.0106C73.434 65.68 73.641 65.2204 73.641 64.7132C73.641 64.2061 73.4368 63.7465 73.1038 63.4158C72.7709 63.0824 72.312 62.8778 71.8085 62.8778ZM69.173 62.0736C68.7141 62.5331 68.3728 63.1132 68.2021 63.7633H60.3516C59.8284 63.7633 59.4031 64.1864 59.4031 64.7132C59.4031 65.2372 59.8256 65.6631 60.3516 65.6631H68.2021C68.3728 66.3104 68.7113 66.8933 69.173 67.3529C69.8472 68.0282 70.7789 68.4457 71.8085 68.4457C72.838 68.4457 73.7697 68.0282 74.444 67.3529C75.1182 66.6776 75.5351 65.7444 75.5351 64.7132C75.5351 63.682 75.1182 62.7489 74.444 62.0736C73.7697 61.3983 72.838 60.9808 71.8085 60.9808C70.7789 60.978 69.8472 61.3983 69.173 62.0736ZM75.8653 55.0009C75.3589 55.0009 74.9028 55.2055 74.5699 55.5389C74.2397 55.8696 74.0327 56.3292 74.0327 56.8363C74.0327 57.3435 74.237 57.8031 74.5699 58.1338C74.9 58.4644 75.3589 58.6718 75.8653 58.6718C76.3716 58.6718 76.8277 58.4672 77.1606 58.1338C77.4908 57.8031 77.6978 57.3435 77.6978 56.8363C77.6978 56.3292 77.4936 55.8696 77.1606 55.5389C76.8305 55.2055 76.3716 55.0009 75.8653 55.0009ZM73.2325 54.1967C72.7737 54.6563 72.4324 55.2363 72.2617 55.8864H64.4111C63.8879 55.8864 63.4627 56.3096 63.4627 56.8363C63.4627 57.3604 63.888 57.7863 64.4111 57.7863H72.2617C72.4324 58.4336 72.7709 59.0164 73.2325 59.476C73.9068 60.1513 74.8385 60.5688 75.868 60.5688C76.8976 60.5688 77.8293 60.1513 78.5035 59.476C79.1778 58.8007 79.5946 57.8675 79.5946 56.8363C79.5946 55.8052 79.1778 54.872 78.5035 54.1967C77.8293 53.5214 76.8976 53.1039 75.868 53.1039C74.8385 53.1039 73.9068 53.5214 73.2325 54.1967ZM23.1861 60.9779C22.1566 60.9779 21.2249 61.3954 20.5506 62.0707C19.8764 62.746 19.4595 63.6792 19.4595 64.7104C19.4595 65.7416 19.8764 66.6747 20.5506 67.35C21.2249 68.0253 22.1566 68.4428 23.1861 68.4428C24.2157 68.4428 25.1474 68.0253 25.8216 67.35C26.2805 66.8904 26.6218 66.3104 26.7925 65.6603H34.6431C35.1662 65.6603 35.5915 65.2344 35.5915 64.7104C35.5915 64.1864 35.169 63.7604 34.6431 63.7604L26.7896 63.7632C26.619 63.1131 26.2804 62.5331 25.8188 62.0735C25.1445 61.3982 24.2129 60.9779 23.1861 60.9779ZM24.4815 63.413C24.1514 63.0823 23.6925 62.8749 23.1861 62.8749C22.6797 62.8749 22.2237 63.0795 21.8908 63.413C21.5606 63.7436 21.3536 64.2032 21.3536 64.7104C21.3536 65.2175 21.5578 65.6743 21.8908 66.0078C22.2209 66.3384 22.6798 66.5458 23.1861 66.5458C23.6925 66.5458 24.1514 66.3412 24.4815 66.0078C24.8117 65.6771 25.0187 65.2175 25.0187 64.7104C25.0159 64.2032 24.8117 63.7464 24.4815 63.413ZM19.1266 53.1039C18.097 53.1039 17.1653 53.5214 16.4911 54.1967C15.8168 54.872 15.4 55.8052 15.4 56.8363C15.4 57.8675 15.8168 58.8007 16.4911 59.476C17.1653 60.1513 18.097 60.5688 19.1266 60.5688C20.1561 60.5688 21.0878 60.1513 21.7621 59.476C22.2209 59.0164 22.5622 58.4364 22.7329 57.7863H30.5835C31.1067 57.7863 31.5319 57.3603 31.5319 56.8363C31.5319 56.3123 31.1067 55.8864 30.5835 55.8864H22.73C22.5594 55.2363 22.2209 54.6563 21.7592 54.1967C21.0849 53.5214 20.1533 53.1039 19.1266 53.1039ZM20.4219 55.5361C20.0918 55.2055 19.6329 54.9981 19.1266 54.9981C18.6202 54.9981 18.1641 55.2027 17.8312 55.5361C17.5011 55.8668 17.294 56.3264 17.294 56.8335C17.294 57.3407 17.4983 57.8003 17.8312 58.1309C18.1613 58.4616 18.6202 58.669 19.1266 58.669C19.633 58.669 20.0918 58.4644 20.4219 58.1309C20.7521 57.8003 20.9591 57.3407 20.9591 56.8335C20.9563 56.3264 20.7521 55.8696 20.4219 55.5361ZM50.4784 53.8605C50.4532 53.8353 50.4281 53.81 50.4029 53.7848C49.5915 52.9918 48.5451 52.5967 47.496 52.5967C46.4469 52.5967 45.4005 52.9947 44.5919 53.7877L44.5164 53.8634C44.1527 54.2388 44.1611 54.8357 44.536 55.2C44.9109 55.5643 45.5068 55.5559 45.8705 55.1804L45.9097 55.1411C46.3573 54.704 46.9281 54.4854 47.496 54.4854C48.0667 54.4854 48.6375 54.704 49.0851 55.1384L49.1243 55.1776C49.488 55.5531 50.0868 55.5615 50.4589 55.1972C50.8366 54.8329 50.8421 54.2331 50.4784 53.8605ZM52.283 51.5599C52.2438 51.5207 52.2046 51.4815 52.1655 51.4422C50.8617 50.1673 49.1774 49.5311 47.496 49.5339C45.8117 49.5367 44.1303 50.1756 42.8266 51.4506L42.821 51.4562C42.7818 51.4955 42.7426 51.5319 42.7063 51.5711C42.3426 51.9466 42.3509 52.5435 42.7258 52.9078C43.1007 53.2721 43.6967 53.2636 44.0604 52.8882C44.0884 52.8601 44.1135 52.8349 44.1415 52.8069L44.1443 52.8041C45.0844 51.8822 46.2902 51.4226 47.4961 51.4226C48.7019 51.4226 49.9077 51.8794 50.8506 52.7985C50.8786 52.8265 50.9093 52.8573 50.9373 52.8854C51.3038 53.2581 51.9026 53.2637 52.2718 52.8966C52.644 52.5295 52.6495 51.9326 52.283 51.5599ZM54.0931 49.2257L53.928 49.066C52.1291 47.3091 49.8125 46.432 47.4931 46.4348C45.1738 46.4376 42.8572 47.3175 41.0611 49.0744C41.0051 49.1276 40.9519 49.1837 40.896 49.2397C40.5323 49.6152 40.5407 50.2121 40.9156 50.5764C41.2905 50.9407 41.8864 50.9322 42.2501 50.5568C42.2921 50.5147 42.3341 50.4699 42.376 50.4279C43.8085 49.024 45.6494 48.3234 47.4903 48.3206C49.3312 48.3178 51.1749 49.0184 52.6074 50.4195L52.7361 50.5512C53.1026 50.9267 53.7014 50.9323 54.0762 50.5652C54.4539 50.2009 54.4596 49.6012 54.0931 49.2257ZM47.496 42.8508C45.2634 42.8508 43.2462 43.7559 41.7857 45.2187C40.3253 46.6842 39.4216 48.7102 39.4216 50.9491C39.4216 53.188 40.3253 55.214 41.7857 56.6795C43.2462 58.1423 45.2634 59.0474 47.496 59.0474C49.7286 59.0474 51.7458 58.1423 53.2063 56.6795C54.6667 55.214 55.5704 53.188 55.5704 50.9491C55.5704 48.7102 54.6667 46.6842 53.2063 45.2187C51.7458 43.7559 49.7286 42.8508 47.496 42.8508ZM40.4484 43.8848C38.6439 45.695 37.5276 48.1917 37.5276 50.9491C37.5276 53.7065 38.6439 56.2031 40.4484 58.0134C42.253 59.8235 44.7458 60.9444 47.496 60.9444C50.2462 60.9444 52.739 59.8235 54.5435 58.0134C56.3481 56.2032 57.4616 53.7065 57.4616 50.9491C57.4616 48.1917 56.3453 45.6951 54.5435 43.8848C52.7362 42.0747 50.2462 40.9538 47.496 40.9538C44.7458 40.9538 42.253 42.0747 40.4484 43.8848ZM64.1878 50.0019H76.0306C77.4351 50.0019 78.3192 49.1977 78.7025 48.0348C78.9207 47.3763 78.9935 46.5973 78.9263 45.765C78.8564 44.9076 78.6382 44.0109 78.2717 43.1422C77.1134 40.3905 74.4835 37.9162 70.4941 37.9162C70.2423 37.9162 70.6144 37.9106 70.4046 37.9134H70.3459C70.3207 37.9162 70.2927 37.9162 70.2647 37.9134C69.7444 37.8938 69.3359 37.4566 69.3555 36.9354C69.3583 36.8626 69.3611 36.8093 69.3611 36.7729C69.3639 36.7 69.3583 36.7925 69.3583 36.6076C69.3583 34.7161 68.7372 32.9676 67.6908 31.5608C66.6137 30.1149 65.0917 29.0277 63.3291 28.5037C62.9431 28.3916 62.6605 28.0385 62.6521 27.6154C62.5821 24.6423 61.3315 21.9607 59.3535 20.0244C57.3783 18.0909 54.6757 16.9 51.6935 16.9C48.4424 16.9 45.2194 17.9451 42.9003 19.831C40.8692 21.4815 39.5402 23.7904 39.5402 26.601C39.5402 26.8672 39.5486 27.1138 39.5626 27.3379C39.5794 27.5761 39.599 27.8031 39.6269 28.0189C39.6493 28.1422 39.6465 28.271 39.6186 28.3999C39.501 28.9099 38.9947 29.2266 38.4855 29.1117C38.1917 29.0444 37.8896 28.9912 37.5818 28.9576C37.288 28.924 36.9775 28.9071 36.6557 28.9071C34.8512 28.9071 33.1893 29.4928 31.8407 30.4847C30.4726 31.4935 29.4347 32.917 28.9087 34.5703C28.9031 34.5983 28.8947 34.6263 28.8835 34.6543C28.7128 35.1503 28.1756 35.4137 27.6804 35.2428C27.1712 35.0691 26.6536 34.9346 26.1276 34.8477C25.6129 34.7608 25.0757 34.7188 24.5161 34.7188C20.6272 34.7188 17.8827 37.8965 16.6348 41.3935C16.2375 42.506 15.9941 43.6437 15.913 44.7225C15.8346 45.7761 15.9102 46.7681 16.1508 47.6087C16.5564 49.0294 17.4741 50.0017 18.9569 50.0017H30.7998V49.416C30.7998 48.8696 30.9816 48.3624 31.295 47.9561C31.6083 47.5498 32.056 47.2499 32.5848 47.1154L34.6272 46.5942C34.7111 46.5718 34.7782 46.5382 34.8314 46.4905C34.8845 46.4429 34.9265 46.3785 34.9545 46.3C35.0049 46.1655 35.0664 46.0058 35.1419 45.8236C35.2063 45.6695 35.2734 45.5126 35.3462 45.3557C35.3826 45.2772 35.3993 45.1988 35.3937 45.1259C35.3909 45.0559 35.3658 44.983 35.321 44.9073L34.2439 43.0859C33.9669 42.6151 33.8634 42.0912 33.9249 41.5839C33.9893 41.0739 34.2187 40.5892 34.6048 40.2024L36.7674 38.0336C37.1563 37.6441 37.6432 37.4115 38.1523 37.3471C38.6587 37.2826 39.1847 37.3863 39.6548 37.6665L41.4649 38.7453C41.5404 38.7902 41.616 38.8154 41.6831 38.8182C41.7531 38.821 41.8314 38.8042 41.9097 38.7706C42.0664 38.6977 42.2231 38.6304 42.377 38.566C42.5392 38.4987 42.6987 38.4371 42.8526 38.3782C42.9309 38.3502 42.9953 38.3082 43.0428 38.2549C43.0904 38.2045 43.124 38.1345 43.1463 38.0504L43.6667 36.002C43.801 35.4724 44.1004 35.024 44.5061 34.7102C44.9117 34.3935 45.4181 34.2142 45.9637 34.2142H49.0189C49.5644 34.2142 50.0709 34.3963 50.4765 34.7102C50.8822 35.0268 51.1816 35.4724 51.3159 36.002L51.8363 38.0504C51.8587 38.1345 51.8922 38.2045 51.9398 38.2549C51.9873 38.3082 52.0517 38.3502 52.13 38.3782C52.2867 38.4371 52.4462 38.4987 52.6056 38.566C52.7595 38.6304 52.9162 38.6977 53.0729 38.7706C53.1512 38.807 53.2267 38.8238 53.2995 38.8182C53.3694 38.8154 53.4422 38.7902 53.5177 38.7453L55.3278 37.6665C55.7979 37.3863 56.321 37.2826 56.8303 37.3471C57.3395 37.4115 57.8263 37.6441 58.2152 38.0336L60.3778 40.2024C60.7639 40.5891 60.9933 41.0739 61.0577 41.5839C61.122 42.0911 61.0185 42.6151 60.7387 43.0859L59.6616 44.9073C59.6168 44.983 59.5917 45.0558 59.5889 45.1259C59.5861 45.1988 59.6029 45.2772 59.6364 45.3557C59.7092 45.5154 59.7763 45.6723 59.8407 45.8264C59.9162 46.0114 59.9805 46.1683 60.0281 46.3028C60.0561 46.3813 60.1009 46.4457 60.1512 46.4934C60.2016 46.541 60.2715 46.5746 60.3555 46.597L62.3979 47.1182C62.9266 47.2527 63.3743 47.5554 63.6876 47.9589C64.0038 48.3652 64.1828 48.8724 64.1828 49.4189L64.1878 50.0019ZM45.5072 36.4676L44.9868 38.516C44.8889 38.8999 44.7098 39.239 44.4552 39.522C44.2034 39.8022 43.8845 40.018 43.5096 40.1581C43.3697 40.2085 43.2354 40.2617 43.1067 40.3178C42.9696 40.3738 42.8353 40.4327 42.7066 40.4943C42.3457 40.6596 41.968 40.7325 41.5931 40.7129C41.2154 40.6933 40.8461 40.5812 40.5076 40.3794L38.6975 39.3006C38.5995 39.2418 38.4904 39.2193 38.3897 39.2334C38.289 39.2474 38.1939 39.2922 38.1155 39.3707L35.9529 41.5395C35.8717 41.6208 35.827 41.716 35.813 41.8169C35.799 41.9206 35.8214 42.0271 35.8801 42.1252L36.9573 43.9466C37.1587 44.2857 37.2678 44.6555 37.2902 45.031C37.3098 45.4065 37.237 45.782 37.072 46.1435C37.0132 46.2724 36.9545 46.4069 36.8957 46.547C36.8509 46.6563 36.7978 46.7908 36.7362 46.9561C36.5991 47.3316 36.3837 47.6482 36.1011 47.9032C35.8186 48.1554 35.48 48.3376 35.0968 48.4356L33.0544 48.9568C32.9453 48.9849 32.8557 49.0437 32.7942 49.1222C32.7326 49.2006 32.6991 49.3043 32.6991 49.4164L32.7019 52.4847C32.7019 52.5996 32.7382 52.7005 32.797 52.779C32.8585 52.8574 32.9481 52.9191 33.0572 52.9443L35.0996 53.4655C35.4829 53.5636 35.8214 53.7457 36.1039 53.9979C36.3837 54.2501 36.5991 54.5695 36.739 54.945C36.8006 55.1103 36.8537 55.2448 36.8985 55.3541C36.9573 55.4942 37.016 55.6287 37.0748 55.7576C37.2398 56.1191 37.3126 56.4946 37.293 56.8701C37.2734 57.2484 37.1615 57.6155 36.9601 57.9573L35.8829 59.7788C35.8242 59.8768 35.8046 59.9833 35.8158 60.087C35.8298 60.1879 35.8745 60.286 35.9557 60.3644L38.1183 62.5333C38.1967 62.6117 38.2918 62.6566 38.3925 62.6706C38.496 62.6846 38.6023 62.6622 38.7003 62.6033L40.5104 61.5245C40.8489 61.3227 41.2182 61.2106 41.5959 61.191C41.9736 61.1714 42.3513 61.2443 42.7094 61.4096C42.8381 61.4684 42.9724 61.5273 43.1095 61.5833C43.2186 61.6282 43.3529 61.6814 43.518 61.7431C43.8873 61.8804 44.2062 62.0961 44.458 62.3792C44.7098 62.6622 44.8917 63.0012 44.9896 63.3851L45.51 65.4335C45.5379 65.5428 45.5967 65.6324 45.675 65.6941C45.7534 65.7557 45.8569 65.7894 45.9688 65.7894H49.0239C49.1387 65.7894 49.2394 65.7529 49.3177 65.6941C49.396 65.6324 49.4576 65.5428 49.4828 65.4335L50.0032 63.3851C50.1011 63.0012 50.2801 62.6621 50.5347 62.3792C50.7865 62.0989 51.1055 61.8832 51.4804 61.7431C51.6203 61.6926 51.7546 61.6394 51.8833 61.5833C52.0203 61.5245 52.1546 61.4684 52.2833 61.4068C52.6442 61.2415 53.0191 61.1686 53.3969 61.1882C53.7745 61.2078 54.1439 61.3199 54.4824 61.5217L56.2925 62.6005C56.3904 62.6594 56.4995 62.6818 56.6002 62.6678C56.701 62.6538 56.7961 62.6089 56.8744 62.5305L59.0371 60.3616C59.1182 60.2804 59.163 60.1851 59.177 60.0842C59.1909 59.9805 59.1686 59.874 59.1098 59.776L58.0327 57.9545C57.8312 57.6155 57.7221 57.2456 57.6997 56.8673C57.6802 56.4918 57.7529 56.1163 57.918 55.7548C57.9767 55.6259 58.0355 55.4914 58.0942 55.3513C58.139 55.242 58.1922 55.1075 58.2537 54.9422C58.3908 54.5667 58.6062 54.2501 58.8888 53.9951C59.1686 53.7429 59.5099 53.5608 59.8932 53.4627L61.9356 52.9415C62.0447 52.9135 62.1342 52.8546 62.1957 52.7762C62.2573 52.6977 62.2909 52.594 62.2909 52.4819V49.4136C62.2909 49.2987 62.2545 49.1978 62.1957 49.1194C62.1342 49.0409 62.0447 48.9793 61.9356 48.954L59.8932 48.4328C59.5099 48.3348 59.1714 48.1526 58.8888 47.9004C58.609 47.6482 58.3936 47.3288 58.2537 46.9533C58.1922 46.788 58.139 46.6535 58.0942 46.5442C58.0355 46.4041 57.9767 46.2696 57.918 46.1407C57.7529 45.7792 57.6802 45.4037 57.6997 45.0282C57.7193 44.6499 57.8312 44.2828 58.0327 43.941L59.1098 42.1196C59.1686 42.0215 59.1882 41.915 59.177 41.8113C59.163 41.7105 59.1182 41.6152 59.0371 41.5339L56.8744 39.3651C56.7961 39.2866 56.701 39.2418 56.6002 39.2278C56.4967 39.2138 56.3904 39.2362 56.2925 39.295L54.4824 40.3738C54.1438 40.5756 53.7745 40.6877 53.3969 40.7073C53.0192 40.7269 52.6414 40.6541 52.2833 40.4887C52.1546 40.4299 52.0203 40.371 51.8833 40.3122C51.7546 40.259 51.6203 40.2057 51.4804 40.1553C51.1055 40.0152 50.7893 39.7994 50.5347 39.5192C50.2829 39.2362 50.1011 38.8971 50.0032 38.5132L49.4828 36.4648C49.4548 36.3556 49.3961 36.2659 49.3177 36.2042C49.2394 36.1426 49.1359 36.109 49.0239 36.109H45.9688C45.8541 36.109 45.7534 36.1454 45.675 36.2042C45.5939 36.2687 45.5351 36.3583 45.5072 36.4676ZM56.0995 20.3466C55.3385 19.8702 54.5132 19.4975 53.6458 19.2482C52.7981 19.0044 51.9056 18.8755 50.9852 18.8755C48.9764 18.8755 47.1102 19.4919 45.5603 20.5483C43.9711 21.6328 42.7206 23.1796 42.0044 25.0009C41.8141 25.4885 42.0547 26.0377 42.5416 26.2283C43.0284 26.4188 43.5767 26.1778 43.7669 25.6902C44.3433 24.2303 45.3477 22.9862 46.6291 22.1119C47.8685 21.2684 49.3681 20.7724 50.9879 20.7724C51.7322 20.7724 52.4512 20.8761 53.131 21.0723C53.8417 21.2768 54.5048 21.5739 55.1035 21.9494C55.5455 22.2268 56.1275 22.0923 56.4016 21.6495C56.6758 21.204 56.5415 20.6212 56.0995 20.3466Z" fill="white"/>
</svg>
