<svg width="95" height="95" viewBox="0 0 95 95" fill="none" xmlns="http://www.w3.org/2000/svg">
<path fill-rule="evenodd" clip-rule="evenodd" d="M16.5746 26.8665C16.5746 25.2818 17.8526 24 19.4288 24H59.4286C61.0049 24 62.2865 25.2819 62.2865 26.8665V32.596H73.1175C76.2074 32.596 79.058 34.2657 80.579 36.9624L85.9633 46.5222C87.2966 48.8864 88 51.5572 88 54.276V59.1041C88 62.2699 85.4404 64.8373 82.2842 64.8373H80.8258C80.4648 68.8527 77.0987 72 72.9997 72C68.9006 72 65.5345 68.8527 65.1735 64.8373H40.8263C40.4654 68.8527 37.0993 72 33.0002 72C28.9011 72 25.5387 68.8527 25.1778 64.8373H19.4288C17.8525 64.8373 16.5746 63.5517 16.5746 61.9707V56.2376H9.42987C8.64174 56.2376 8.00094 55.5985 8.00094 54.8043C8.00094 54.0138 8.64176 53.3747 9.42987 53.3747H20.8577C21.6495 53.3747 22.2866 54.0138 22.2866 54.8043C22.2866 55.5985 21.6495 56.2376 20.8577 56.2376H19.4288V61.9707H25.4392C26.3747 58.6609 29.4056 56.2376 33.0001 56.2376C36.5983 56.2376 39.6292 58.6609 40.561 61.9707H59.4286V26.8663H19.4288V29.0162C19.4288 29.8068 18.7917 30.4495 18.0035 30.4495C17.2117 30.4495 16.5746 29.8067 16.5746 29.0162V26.8665ZM62.286 61.9709H65.4386C66.3703 58.6611 69.4013 56.2378 72.9995 56.2378C76.5939 56.2378 79.6249 58.6611 80.5604 61.9709H82.2839C83.8639 61.9709 85.1418 60.6891 85.1418 59.1044V54.2763C85.1418 53.4082 85.0534 52.5438 84.8803 51.7015L72.1485 47.638C70.1451 46.9989 68.6535 45.3033 68.2668 43.231L66.812 35.4624H62.2858L62.286 61.9709ZM69.7217 35.4627L71.0733 42.703C71.2685 43.7411 72.0124 44.587 73.0142 44.9046L83.683 48.3106C83.6168 48.185 83.5468 48.0557 83.4768 47.9301L78.0925 38.374C77.076 36.5751 75.1756 35.4631 73.117 35.4631L69.7217 35.4627ZM8.00038 33.3128C8.00038 32.5223 8.6412 31.8796 9.42931 31.8796H39.4296C40.2178 31.8796 40.8586 32.5223 40.8586 33.3128C40.8586 34.1033 40.2177 34.7461 39.4296 34.7461H19.4278V39.7626C19.4278 40.5531 18.7907 41.1959 18.0026 41.1959C17.2108 41.1959 16.5737 40.5531 16.5737 39.7626V34.7461H9.42893C8.64079 34.7461 8.00038 34.1033 8.00038 33.3128ZM8.00038 44.0585C8.00038 43.268 8.6412 42.6253 9.42931 42.6253H30.1458C30.9339 42.6253 31.571 43.268 31.571 44.0585C31.571 44.8527 30.9339 45.4918 30.1458 45.4918H19.4288V50.5083C19.4288 51.2988 18.7917 51.9416 18.0035 51.9416C17.2117 51.9416 16.5746 51.2988 16.5746 50.5083V45.4918H9.42987C8.64174 45.4918 8.00038 44.8527 8.00038 44.0585ZM33 59.1042C30.4293 59.1042 28.308 61.0547 28.0319 63.5592C28.0135 63.7439 28.0024 63.9286 28.0024 64.1207C28.0024 66.8875 30.2416 69.1335 33.0001 69.1335C35.7622 69.1335 38.0014 66.8875 38.0014 64.1207C38.0014 63.9286 37.9904 63.7439 37.972 63.5592C37.6957 61.0547 35.5743 59.1042 33 59.1042ZM72.9998 59.1042C70.4255 59.1042 68.3078 61.0547 68.0317 63.5592C68.0096 63.7439 67.9985 63.9286 67.9985 64.1207C67.9985 66.8875 70.2377 69.1335 72.9999 69.1335C75.762 69.1335 77.9975 66.8875 77.9975 64.1207C77.9975 63.9286 77.9902 63.7439 77.9681 63.5592C77.6919 61.0547 75.5704 59.1042 72.9998 59.1042Z" fill="white"/>
</svg>
