<svg width="95" height="95" viewBox="0 0 95 95" fill="none" xmlns="http://www.w3.org/2000/svg">
<path d="M73.0851 43.5071C73.6672 44.0339 74.4293 44.3289 75.2125 44.3289C76.1122 44.3289 76.9695 43.9496 77.5728 43.2859C78.1443 42.6643 78.4301 41.853 78.3878 41.0102C78.3454 40.1673 77.975 39.3877 77.3505 38.8293L70.9895 33.0979V22.2142C70.9895 21.0553 70.0369 20.1071 68.8727 20.1071H64.639C63.4747 20.1071 62.5222 21.0553 62.5222 22.2142V25.4803L55.1238 18.8218C53.9066 17.7261 52.0755 17.7261 50.8583 18.8218L28.6319 38.8183C28.0075 39.3873 27.637 40.1564 27.5947 40.9992C27.5525 41.8421 27.8382 42.6533 28.4097 43.275C29.5845 44.5709 31.5955 44.6657 32.8974 43.4962L33.9452 42.5585V59.2053C32.5481 59.3633 31.1616 59.6794 29.8491 60.1956C28.2192 60.8489 26.5045 61.1754 24.7476 61.1754H18.0584C17.4763 61.1754 17 61.6495 17 62.229C17 62.8085 17.4763 63.2826 18.0584 63.2826H24.737C26.7692 63.2826 28.7484 62.9033 30.6218 62.1552C34.2099 60.7224 38.4009 60.891 41.8725 62.6188L41.9784 62.6715C43.312 63.3352 44.7515 63.7882 46.2226 64.0517C46.3496 64.1044 46.4872 64.136 46.6354 64.136H46.6671C47.461 64.2624 48.2654 64.3467 49.0698 64.3467H54.0443C56.3834 64.3467 58.278 66.2326 58.278 68.561H44.5189C43.9368 68.561 43.4605 69.0351 43.4605 69.6145C43.4605 70.194 43.9368 70.6681 44.5189 70.6681H59.3368C59.9189 70.6681 60.3952 70.194 60.3952 69.6145H69.9206C71.921 69.6145 73.6039 71.0052 74.0484 72.87L52.0652 74.777C49.3768 75.0088 46.6144 74.8613 43.9576 74.3345L33.8605 72.3221C31.8812 71.9323 29.8491 71.7321 27.8169 71.7321H18.0585C17.4764 71.7321 17.0001 72.2062 17.0001 72.7857C17.0001 73.3652 17.4764 73.8393 18.0585 73.8393H27.8169C29.7009 73.8393 31.5954 74.0289 33.4371 74.3977L43.5342 76.41C45.5135 76.7998 47.5456 77 49.5778 77C50.4669 77 51.3665 76.9579 52.245 76.8841L75.308 74.8929C75.8583 74.8507 76.2711 74.3872 76.2711 73.8393C76.2711 71.0895 74.5036 68.7611 72.0375 67.8867V42.5801L73.0853 43.5178L73.0851 43.5071ZM64.6286 22.2038H68.8623V31.1906L64.6286 27.3768V22.2038ZM31.4686 41.9475C31.0346 42.3373 30.3678 42.3057 29.9762 41.8737C29.7857 41.663 29.6904 41.3996 29.701 41.1152C29.7116 40.8307 29.8386 40.5778 30.0503 40.3882L52.2767 20.36C52.6789 19.9912 53.2928 19.9912 53.695 20.36L62.8079 28.5674C62.8079 28.5674 62.8396 28.599 62.8608 28.6095L75.9323 40.3778C76.144 40.5674 76.2604 40.8203 76.2816 41.1047C76.3027 41.3892 76.1969 41.6526 76.0064 41.8633C75.6254 42.2847 74.9374 42.3163 74.514 41.937L71.7516 39.4506C71.7516 39.4506 71.7198 39.4295 71.7093 39.4085L53.7057 23.194C53.5046 23.0149 53.2506 22.92 52.9965 22.92C52.7425 22.92 52.4885 23.0149 52.2874 23.194L34.2838 39.4085C34.2838 39.4085 34.2521 39.4295 34.2415 39.4506L31.479 41.937L31.4686 41.9475ZM54.0445 62.2394H49.0699C48.6148 62.2394 48.1491 62.2078 47.694 62.1551V50.6505C47.694 50.071 48.1703 49.5969 48.7524 49.5969H57.2197C57.8019 49.5969 58.2781 50.071 58.2781 50.6505V63.8624C57.1563 62.8615 55.6744 62.2394 54.0445 62.2394ZM69.921 67.5072H60.3956V50.6501C60.3956 48.9118 58.9668 47.4894 57.2204 47.4894H48.7531C47.0067 47.4894 45.5778 48.9118 45.5778 50.6501V61.7758C44.6676 61.5335 43.7679 61.2174 42.9318 60.796L42.826 60.7433C40.7303 59.7003 38.3912 59.1629 36.0521 59.1103V40.6626L52.9868 25.4069L69.9214 40.6518L69.921 67.5072Z" fill="white"/>
</svg>
