<svg width="95" height="95" viewBox="0 0 95 95" fill="none" xmlns="http://www.w3.org/2000/svg">
<path fill-rule="evenodd" clip-rule="evenodd" d="M43.0311 58.3417H50.6761C51.9201 58.3417 52.9301 59.3471 52.9301 60.5895C52.9301 61.832 51.9201 62.8407 50.6761 62.8407H43.0311C41.7871 62.8407 40.7804 61.832 40.7804 60.5895C40.7804 59.3471 41.7871 58.3417 43.0311 58.3417ZM54.9202 86.7417C54.9937 87.1125 55.1977 87.4431 55.4954 87.6702C55.5221 87.6903 55.5489 87.7136 55.579 87.7337C55.9201 87.9641 56.3448 88.051 56.7495 87.9708L71.8559 85.025C72.2605 84.9448 72.615 84.711 72.8457 84.367C73.0765 84.0263 73.1634 83.6088 73.0832 83.2046L72.1635 78.5086H72.1668C72.0933 78.1379 71.8893 77.8072 71.5883 77.5768C71.5615 77.5568 71.5348 77.5367 71.508 77.5167C71.2204 77.323 70.876 77.2328 70.5315 77.2562C70.4446 76.8721 70.3777 76.488 70.3275 76.1005C70.2473 75.4859 70.2272 74.8647 70.264 74.2434C70.381 72.4332 71.3108 71.1038 72.2806 69.7144C74.0597 67.166 75.9626 64.4507 74.4511 58.5759L69.9865 40.9878V40.9911C69.9765 40.9544 69.9665 40.9177 69.9531 40.8843C69.5284 39.9124 68.8896 39.0506 68.0836 38.3626C67.4382 37.7748 66.7125 37.2838 65.9266 36.8997V28.3828C67.8396 28.2258 69.311 26.6326 69.3143 24.7188V10.674C69.311 8.64663 67.6656 7.00333 65.6356 7H45.5937C43.9182 7.00334 42.4567 8.13224 42.032 9.74877H31.1095C29.2736 9.75211 27.7887 11.2384 27.782 13.072V30.9346C24.7019 32.1703 22.2439 34.5918 20.9631 37.6546C19.679 40.714 19.679 44.1609 20.9631 47.2233C22.244 50.2827 24.702 52.7043 27.782 53.9434V64.1003C27.7854 65.934 29.2736 67.4203 31.1095 67.4236H50.7705C49.5432 71.4149 51.2588 74.3273 52.9877 77.2634V77.26C53.6231 78.282 54.1849 79.3508 54.6733 80.4497C54.5027 80.5633 54.3556 80.7102 54.2385 80.8806C54.0077 81.2246 53.9208 81.6454 54.0011 82.0496L54.9202 86.7417ZM56.5254 79.9682L68.6653 77.6002C68.5683 77.1693 68.4947 76.7418 68.4412 76.3243H68.4379C68.3476 75.5962 68.3242 74.8581 68.3677 74.12C68.5181 71.7853 69.5983 70.2389 70.7253 68.629C72.2671 66.4246 73.9091 64.0733 72.6115 59.033V59.0296L68.1636 41.5082C67.8426 40.8369 67.3811 40.2424 66.8126 39.7647C66.5317 39.5142 66.2374 39.2804 65.923 39.0734V59.9918V59.9885C65.923 60.1454 65.8862 60.2957 65.816 60.4327L64.8963 62.4634C64.6187 63.0846 63.9398 63.4186 63.2777 63.2683C62.6156 63.118 62.1541 62.5168 62.1741 61.8388C62.1841 61.5014 62.1942 61.2075 62.2042 60.9136V60.917C62.3246 59.1668 62.2543 57.41 61.9968 55.6766C61.8831 54.9685 61.5454 54.3138 61.0337 53.8062C60.7461 53.5223 60.4016 53.3085 60.0204 53.1749C59.6625 53.0513 59.278 53.0213 58.9067 53.0847C58.5188 53.1582 58.1543 53.3252 57.8466 53.569C58.0539 55.1789 57.9269 56.8122 57.4687 58.3686C56.9436 60.3325 56.0574 62.1795 54.8568 63.8194C50.5929 69.474 52.5961 72.8674 54.6194 76.3012C55.3518 77.4702 55.9872 78.696 56.5223 79.9686L56.5254 79.9682ZM55.9301 82.0156L70.3636 79.2L71.1528 83.228L56.716 86.0469L55.9267 82.0189L55.9301 82.0156ZM29.6847 54.5339V64.1001C29.688 64.885 30.3234 65.5196 31.1094 65.5229H51.5426C52.0576 64.5242 52.6596 63.569 53.3451 62.6773C54.3986 61.2311 55.1778 59.6079 55.6393 57.8811C56.0841 56.4482 56.171 54.9285 55.8935 53.4556C55.8132 53.1383 55.9068 52.8009 56.1343 52.5671C56.7864 51.869 57.6458 51.3948 58.5856 51.2178C59.2678 51.0975 59.9701 51.1543 60.6256 51.3781C61.2744 51.6019 61.8696 51.9693 62.3612 52.4502C63.1572 53.2351 63.6856 54.2505 63.8728 55.3526C63.9363 55.7167 63.9865 56.0741 64.0266 56.4214V28.3959H53.8635L47.8105 33.486C47.3088 33.9102 46.5965 33.9737 46.028 33.6497C45.4561 33.3257 45.1485 32.6811 45.2555 32.0365L45.8541 28.3959H45.5933C43.56 28.3926 41.9146 26.7493 41.9112 24.7186V11.6494H31.1095C30.3236 11.6527 29.6881 12.2873 29.6848 13.0723V30.3431C32.7214 29.6584 35.9084 30.1427 38.6073 31.6924C41.3061 33.2455 43.3227 35.7539 44.2558 38.7198C45.1922 41.6891 44.9748 44.8988 43.6538 47.7148L45.4063 54.2478C45.4497 54.4114 45.4497 54.5818 45.4063 54.7454C45.3394 54.9892 45.1822 55.1963 44.9648 55.3232C44.7474 55.4468 44.4866 55.4836 44.2424 55.4167L37.6911 53.6632C35.4338 54.722 32.9089 55.076 30.4475 54.6819C30.19 54.6418 29.9358 54.5918 29.6817 54.535L29.6847 54.5339ZM56.4421 9.74805C56.6795 9.66122 56.927 9.60109 57.1812 9.57104C57.7664 9.5009 58.3584 9.61446 58.8767 9.89167C59.4018 10.1722 59.8165 10.6265 60.0439 11.1742C60.1409 11.4047 60.2044 11.6485 60.2312 11.8957C60.2379 11.9424 60.2379 11.9925 60.2345 12.0393C60.278 12.8242 60.2011 13.6057 60.0105 14.3673C59.9469 14.5911 59.87 14.8115 59.783 15.0253H63.3614C63.9065 15.0253 64.4316 15.2424 64.8195 15.6298C64.8429 15.6532 64.8629 15.6799 64.883 15.7033C65.6321 16.5149 65.602 17.7708 64.8161 18.5422C64.689 18.6725 64.5419 18.7827 64.3847 18.8729C64.4182 19.0165 64.4315 19.1635 64.4315 19.3104C64.4315 19.8549 64.2142 20.3792 63.8296 20.7633L63.8229 20.77C63.7928 20.8001 63.7593 20.8335 63.7259 20.8602C63.8028 21.0773 63.8396 21.3044 63.8396 21.5349C63.8396 22.0826 63.6189 22.6037 63.231 22.9911C63.1473 23.0779 63.0504 23.1547 62.95 23.2249C63.1407 23.9363 62.9333 24.6945 62.4083 25.2155C62.0237 25.6029 61.4986 25.82 60.9502 25.82H56.6161C56.5793 25.82 56.5458 25.8167 56.509 25.8133C55.576 25.7799 54.653 25.6296 53.7601 25.3624C53.2919 25.2288 52.817 25.1253 52.3354 25.0585C52.1582 25.2956 51.8773 25.4326 51.5796 25.4326H49.3858C48.8507 25.4326 48.3758 25.0919 48.2086 24.5842H47.0348C46.3526 24.5842 45.7974 24.0298 45.7974 23.3451V17.4934V17.4968C45.8041 16.8154 46.3559 16.2676 47.0381 16.2676H48.2086C48.2688 16.0839 48.3725 15.9169 48.5096 15.78C48.543 15.7499 48.5765 15.7165 48.6133 15.6898C48.834 15.5161 49.1049 15.4193 49.3858 15.4193H51.5896C51.8438 15.4193 52.0846 15.5195 52.2652 15.6998C53.0845 15.2957 53.8035 14.7112 54.3687 13.9964C55.1813 13.0846 55.6595 11.9256 55.7264 10.7099C55.7164 10.3157 55.9471 9.95835 56.3083 9.80805C56.3518 9.79135 56.3986 9.77131 56.4421 9.75461L56.4421 9.74805ZM58.1075 11.6485C58.1878 11.7153 58.2513 11.8022 58.2915 11.9024C58.3182 11.9592 58.3349 12.0226 58.3416 12.0861C58.3784 12.6839 58.3249 13.2851 58.1811 13.8663C57.9905 14.4508 57.7397 15.0153 57.4353 15.5497C57.2848 15.8436 57.2949 16.1943 57.4688 16.4748C57.6393 16.7587 57.947 16.929 58.2781 16.929H63.3613C63.4048 16.929 63.4449 16.9457 63.475 16.9791L63.4951 16.9992C63.5152 17.0259 63.5252 17.0593 63.5252 17.0927C63.5252 17.1361 63.5085 17.1762 63.4784 17.2063C63.4483 17.2397 63.4081 17.2564 63.3647 17.2564H59.7796C59.2546 17.2564 58.8299 17.6805 58.8299 18.2049C58.8299 18.7293 59.2546 19.1535 59.7796 19.1535H62.4082C62.4383 19.1602 62.4651 19.1769 62.4885 19.2003C62.5186 19.2303 62.5386 19.2738 62.5353 19.3172C62.5386 19.3606 62.5219 19.4007 62.4918 19.4341C62.4617 19.4608 62.4182 19.4775 62.3781 19.4775H59.1877C58.9302 19.4708 58.6793 19.5677 58.4954 19.7447C58.3115 19.9251 58.2078 20.1689 58.2078 20.426C58.2078 20.6832 58.3115 20.9304 58.4954 21.1074C58.6793 21.2878 58.9302 21.3846 59.1877 21.3779H61.8162C61.8463 21.3846 61.8764 21.4013 61.8998 21.4247L61.9166 21.4414C61.9366 21.4715 61.9467 21.5049 61.9467 21.5416C61.95 21.5817 61.9333 21.6251 61.9032 21.6552C61.8731 21.6852 61.8296 21.7019 61.7895 21.7019H58.5857C58.3282 21.6952 58.0774 21.7921 57.8934 21.9691C57.7095 22.1495 57.6025 22.3966 57.6025 22.6538C57.6025 22.9077 57.7095 23.1548 57.8934 23.3352C58.0774 23.5122 58.3282 23.6091 58.5857 23.6024H60.9634C61.0035 23.6024 61.0437 23.6191 61.0738 23.6491C61.1072 23.6825 61.1239 23.7226 61.1239 23.766C61.1239 23.8061 61.1072 23.8495 61.0771 23.8796C61.047 23.9096 61.0069 23.9297 60.9634 23.9264H56.5724C55.7865 23.8963 55.0107 23.766 54.2582 23.5423C53.6964 23.3786 53.1245 23.2584 52.546 23.1815V17.6171C53.8435 17.1195 54.9806 16.2778 55.8434 15.189C56.6996 14.1703 57.2848 12.9545 57.549 11.652L58.1075 11.6485ZM47.3588 40.0083C46.8338 40.0083 46.4091 39.5842 46.4091 39.0598C46.4091 38.5354 46.8338 38.1079 47.3588 38.1079C47.8839 38.1079 48.3086 38.5354 48.3086 39.0598C48.3086 39.5841 47.8839 40.0083 47.3588 40.0083ZM47.3588 46.842C46.8438 46.8253 46.4358 46.4044 46.4358 45.8934C46.4358 45.379 46.8438 44.9581 47.3588 44.9448C47.6163 44.9348 47.8638 45.0316 48.0511 45.212C48.235 45.389 48.3387 45.6362 48.3387 45.8934C48.3387 46.1505 48.235 46.3944 48.0511 46.5747C47.8638 46.7517 47.6163 46.8486 47.3588 46.842ZM59.759 44.9448C60.274 44.9582 60.682 45.379 60.682 45.8934C60.682 46.4044 60.274 46.8252 59.759 46.842H49.5086C48.9936 46.8253 48.5856 46.4044 48.5856 45.8934C48.5856 45.379 48.9936 44.9581 49.5086 44.9448H59.759ZM49.5086 43.4251C48.9936 43.4084 48.5856 42.9876 48.5856 42.4766C48.5856 41.9622 48.9936 41.5413 49.5086 41.528H56.3509C56.6084 41.518 56.8559 41.6148 57.0432 41.7952C57.2271 41.9722 57.3308 42.2194 57.3308 42.4766C57.3308 42.7337 57.2271 42.9776 57.0432 43.1579C56.8559 43.3349 56.6084 43.4318 56.3509 43.4251L49.5086 43.4251ZM60.8223 35.319H60.819C61.2838 35.0785 61.8556 35.2589 62.0965 35.7198C62.3406 36.184 62.16 36.7551 61.6952 36.9957L56.1504 39.8948C56.0166 39.9682 55.8661 40.005 55.7123 40.005H49.5087C48.9836 40.005 48.5556 39.5808 48.5556 39.0564C48.5556 38.532 48.9836 38.1045 49.5087 38.1045H55.4916L60.8223 35.3156L60.8223 35.319ZM47.358 43.4251C46.843 43.4084 46.435 42.9876 46.435 42.4766C46.435 41.9622 46.843 41.5413 47.358 41.528C47.6155 41.518 47.863 41.6148 48.0502 41.7952C48.2342 41.9722 48.3378 42.2194 48.3378 42.4766C48.3378 42.7337 48.2342 42.9776 48.0502 43.1579C47.863 43.3349 47.6155 43.4318 47.358 43.4251ZM65.6346 8.89627C66.6144 8.89961 67.4137 9.69452 67.4137 10.6731V24.7145C67.4137 25.6964 66.6178 26.4913 65.6346 26.4913H53.5221C53.2679 26.4913 53.0205 26.5949 52.8432 26.7786L47.2684 31.4679L47.9071 27.5969H47.9038C47.9439 27.3498 47.8837 27.0959 47.7366 26.8922C47.5894 26.6885 47.3687 26.5515 47.1212 26.5115C47.0711 26.5014 47.0209 26.4981 46.9674 26.4981H45.5929C44.6097 26.4948 43.8171 25.6998 43.8138 24.7212V10.673C43.8171 9.69443 44.6097 8.8995 45.5929 8.89617L65.6346 8.89627ZM48.1439 22.694H47.6991V18.1649H48.1439V22.694ZM50.0468 23.5457V17.3132H50.6388V23.5457H50.0468ZM32.4157 48.0809C30.961 47.3294 29.6567 46.3207 28.5665 45.1016C27.7572 44.2499 27.1051 43.2646 26.6402 42.1892C26.2723 41.411 26.2188 40.5192 26.4897 39.7043C26.6502 39.3302 26.8877 38.9962 27.1954 38.729C27.8876 38.0978 28.8675 37.8907 29.7571 38.188C30.6433 38.4819 31.2988 39.2267 31.4793 40.1419C31.5596 40.5894 31.9475 40.9201 32.4057 40.9234C32.8638 40.9268 33.2584 40.6028 33.3454 40.1552C33.5227 39.2368 34.1848 38.4853 35.0744 38.188C35.964 37.8941 36.9438 38.1011 37.6361 38.7324C37.9404 38.9996 38.1812 39.3336 38.3384 39.7076C38.6126 40.5259 38.5591 41.4144 38.1879 42.1925C37.723 43.2713 37.0709 44.2567 36.2616 45.105C35.1714 46.3241 33.8671 47.3361 32.4157 48.0876L32.4157 48.0809ZM37.6662 46.3708C36.3017 47.9039 34.6363 49.1363 32.7702 49.9947C32.5428 50.0882 32.2852 50.0882 32.0578 49.9947C30.1951 49.1363 28.5263 47.9039 27.1618 46.3708C26.1987 45.3521 25.4229 44.1698 24.8743 42.8839C24.3158 41.6515 24.2657 40.252 24.7305 38.9861C24.9981 38.3515 25.4027 37.7871 25.9177 37.3295C26.8073 36.5179 27.9878 36.1004 29.1917 36.1672C30.3956 36.2373 31.5227 36.7851 32.3152 37.6902C32.352 37.7302 32.3821 37.7703 32.4156 37.8104C32.449 37.7703 32.4824 37.7302 32.5159 37.6902H32.5192C33.3152 36.7817 34.4388 36.234 35.6427 36.1672C36.8466 36.1004 38.0272 36.5179 38.9167 37.3295C39.4351 37.7871 39.8397 38.3582 40.1039 38.9928C40.5721 40.262 40.5186 41.6615 39.9601 42.8906C39.4117 44.1798 38.6358 45.3588 37.6726 46.3808L37.6662 46.3708ZM41.8131 47.149C41.6894 47.3628 41.6559 47.6166 41.7228 47.8571L43.1442 53.1543L37.8402 51.7348C37.6128 51.6747 37.3753 51.7014 37.168 51.8049C32.5563 54.1296 26.9381 52.7668 23.9117 48.5885C20.8818 44.4136 21.34 38.6556 24.9885 35.008C28.6371 31.3574 34.3991 30.8965 38.5864 33.9159C42.7737 36.9353 44.1446 42.5466 41.8203 47.1518L41.8131 47.149ZM50.6723 60.2354H43.0307C42.8434 60.2454 42.6963 60.399 42.6963 60.5861C42.6963 60.7731 42.8434 60.9301 43.0307 60.9401H50.6756C50.8629 60.9301 51.0101 60.7731 51.0101 60.5861C51.0101 60.399 50.8629 60.2454 50.6756 60.2354H50.6723Z" fill="white"/>
</svg>
