<svg width="95" height="95" viewBox="0 0 95 95" fill="none" xmlns="http://www.w3.org/2000/svg">
<path d="M42.8515 73.2855C43.6328 73.2855 44.2617 73.9144 44.2617 74.6957C44.2617 75.477 43.6328 76.1059 42.8515 76.1059H37.2031C36.4219 76.1059 35.7929 75.477 35.7929 74.6957C35.7929 73.9144 36.4218 73.2855 37.2031 73.2855H42.8515ZM28.6915 73.2855C29.4727 73.2855 30.1017 73.9144 30.1017 74.6957C30.1017 75.477 29.4728 76.1059 28.6915 76.1059H9.4685C8.68725 76.1059 8.0583 75.477 8.0583 74.6957C8.0583 73.9144 8.68721 73.2855 9.4685 73.2855H28.6915ZM25.6212 54.7735C26.4025 54.7735 27.0314 55.4024 27.0314 56.1837C27.0314 56.965 26.4025 57.5939 25.6212 57.5939H22.5431C21.7619 57.5939 21.1329 56.965 21.1329 56.1837C21.1329 55.4024 21.7618 54.7735 22.5431 54.7735H25.6212ZM16.379 54.7735C17.1602 54.7735 17.7892 55.4024 17.7892 56.1837C17.7892 56.965 17.1603 57.5939 16.379 57.5939H9.4688C8.68755 57.5939 8.0586 56.965 8.0586 56.1837C8.0586 55.4024 8.68751 54.7735 9.4688 54.7735H16.379ZM13.6485 45.5235C14.4298 45.5235 15.0587 46.1524 15.0587 46.9337C15.0587 47.715 14.4298 48.3439 13.6485 48.3439H9.4688C8.68755 48.3439 8.0586 47.715 8.0586 46.9337C8.0586 46.1524 8.68751 45.5235 9.4688 45.5235H13.6485ZM32.4415 21.1955C34.5821 19.5549 36.461 18.7541 38.2227 19.0666C40.0235 19.3752 41.5313 20.7971 42.8633 23.5783L42.9024 23.6798C43.9141 26.4884 45.3321 28.3712 47.0508 29.5314C48.7696 30.6798 50.832 31.1408 53.1524 31.1212C53.8242 31.1212 54.5821 31.0118 55.3516 30.9103C57.7227 30.59 60.1328 30.2697 62.0821 32.1603C63.3204 33.3595 63.4532 34.9103 63.6407 37.1798L63.6914 37.7579V37.879C63.8907 42.2188 64.8125 47.879 66.9726 52.32C68.5117 55.4919 70.6718 58.0114 73.621 58.8708C74.9999 59.2692 76.6405 59.2106 78.2694 59.152C81.1913 59.0505 84.0311 58.9411 86.0897 61.152C86.5897 61.6911 86.9804 62.3434 87.2694 63.1012C87.5507 63.8005 87.9804 66.0895 87.9999 66.3824C88.0702 66.5114 87.8515 69.734 87.3905 70.8238C86.7694 72.2652 85.6913 73.4527 84.0116 74.1129C82.6522 74.652 79.9804 75.0544 77.0819 75.3317C73.0936 75.7107 68.6014 75.8708 66.5699 75.8122C59.5894 75.6208 54.4609 74.4216 50.1789 72.0505C45.8898 69.6911 42.4992 66.1911 38.9679 61.4415C34.7882 55.8009 33.8077 55.0704 30.3781 52.5001C29.5891 51.9103 28.6867 51.2306 27.6789 50.4493C24.7687 48.1993 21.8195 45.461 19.6672 42.5587C18.0891 40.4376 16.9367 38.2189 16.5383 36.0275C16.1086 33.7267 16.5071 31.4884 18.0774 29.4572C18.636 28.7267 19.3586 28.0353 20.2376 27.3791C20.8665 26.9104 21.6165 26.4807 22.4485 26.0783C23.2688 25.6877 24.1399 25.3283 25.0266 25.008C25.8548 24.6994 26.4875 24.4885 27.0071 24.3088C28.3782 23.84 29.1087 23.5783 30.0774 22.969C30.3665 22.7893 30.6868 22.5588 31.0774 22.2698C31.4993 21.9612 31.9368 21.6213 32.4172 21.219L32.468 21.1799L32.4415 21.1955ZM34.3712 64.0545C35.1525 64.0545 35.7814 64.6834 35.7814 65.4647C35.7814 66.246 35.1525 66.8749 34.3712 66.8749H9.4102C8.62895 66.8749 8 66.246 8 65.4647C8 64.6834 8.62891 64.0545 9.4102 64.0545H34.3712ZM33.7814 22.9135L35.1095 26.1244L30.0704 28.8627L28.3595 26.1518L27.6681 26.39C27.1095 26.5815 26.4572 26.8119 25.7267 27.0815C24.8556 27.4018 24.047 27.7299 23.3361 28.0697C22.9142 28.269 22.5275 28.4799 22.1564 28.6986C22.9064 30.4174 23.758 32.0502 24.715 33.5697C25.7736 35.2689 26.9532 36.8314 28.2344 38.2689C29.336 39.4877 30.3556 40.4486 31.3361 41.2377C32.297 42.019 33.2266 42.6596 34.1055 43.226C39.7539 46.8549 41.5469 49.7963 43.5547 53.0971C44.8047 55.1479 46.1446 57.3471 48.6329 59.9369C50.8829 62.2885 53.2422 64.058 55.7422 65.2767C58.2227 66.4876 60.8517 67.1751 63.6642 67.3548C67.8751 67.6244 73.3633 67.0736 78.6441 66.5345C81.0933 66.2845 83.4957 66.0463 85.7027 65.8861V65.8548C85.5738 65.1166 85.4137 64.4564 85.191 63.8939C84.9918 63.3822 84.7496 62.9643 84.441 62.6439C83.0621 61.1634 80.7105 61.2455 78.3004 61.3353C76.5113 61.3939 74.6793 61.4643 72.9723 60.9643C69.7106 60.015 67.2926 57.5424 65.5426 54.3862C64.3512 55.2846 63.1832 55.8979 62.0035 56.1557C60.5816 56.4642 59.2144 56.2846 57.8629 55.5267C57.0543 55.0658 56.7731 54.0462 57.234 53.2376C57.6949 52.429 58.7145 52.1478 59.5231 52.6087C60.1012 52.9369 60.6833 53.0189 61.2848 52.89C62.0231 52.7298 62.8434 52.2494 63.7536 51.5306C63.863 51.4407 63.9841 51.3704 64.113 51.3118C63.9216 50.8118 63.7419 50.3118 63.5739 49.8001C62.5622 50.4915 61.5739 50.9603 60.5739 51.179C59.152 51.4876 57.7848 51.3079 56.4333 50.5384C55.6248 50.0775 55.3435 49.0579 55.8044 48.2493C56.2654 47.4407 57.2849 47.1595 58.0935 47.6204C58.6716 47.9485 59.2537 48.0306 59.8552 47.9017C60.5935 47.7415 61.4138 47.2727 62.324 46.5423C62.4139 46.4719 62.5154 46.4016 62.6131 46.3508C62.4334 45.5618 62.2732 44.7805 62.1443 43.9992C61.1326 44.6907 60.1443 45.1594 59.1443 45.3781C57.7224 45.6867 56.3552 45.5071 55.0037 44.7375C54.1951 44.2766 53.9139 43.257 54.3748 42.4484C54.8358 41.6398 55.8553 41.3586 56.6639 41.8195C57.2421 42.1476 57.8241 42.2297 58.4256 42.1008C59.1639 41.9406 59.9842 41.4601 60.8944 40.7414C61.1132 40.5617 61.3827 40.4406 61.664 40.4015C61.5858 39.5617 61.5233 38.7531 61.4921 37.9796L61.4413 37.3585C61.2929 35.5694 61.1913 34.3468 60.5429 33.7179C59.3632 32.5695 57.4726 32.8195 55.621 33.0695C54.8007 33.1789 53.9804 33.2882 53.1601 33.3C50.4218 33.3312 47.9492 32.7609 45.832 31.3391C43.7422 29.9407 42.0429 27.718 40.8632 24.468C39.8749 22.4172 38.8944 21.3977 37.832 21.218C36.7539 21.0266 35.4101 21.6594 33.7734 22.9094L33.7814 22.9135ZM85.8204 68.0655C83.6407 68.2139 81.2813 68.4561 78.879 68.7061C73.5079 69.2569 67.918 69.8155 63.551 69.5342C60.4612 69.335 57.551 68.5733 54.8127 67.2334C52.0822 65.8936 49.5236 63.9834 47.0939 61.4522C44.4337 58.6827 43.0236 56.3741 41.7228 54.2334C39.8517 51.1631 38.1837 48.4248 32.9533 45.0615C32.0236 44.4599 31.0431 43.792 29.9845 42.9326C28.9337 42.081 27.8243 41.042 26.6329 39.7217C25.2423 38.1709 23.9845 36.4912 22.8712 34.7217C21.961 33.2725 21.1407 31.7334 20.4024 30.0811C20.1719 30.3116 19.9609 30.5499 19.7617 30.7999C18.6133 32.2804 18.3203 33.9405 18.6406 35.6397C18.9805 37.4678 19.9922 39.378 21.3789 41.2608C23.3984 43.9717 26.1992 46.5811 28.9687 48.7217C30.0703 49.5732 30.9101 50.2022 31.6484 50.7529C35.2773 53.4717 36.3203 54.2529 40.6875 60.1318C44.0391 64.6435 47.2266 67.9404 51.1995 70.1318C55.18 72.3232 59.9886 73.4521 66.5905 73.6201C68.5514 73.6708 72.9303 73.5185 76.8405 73.1396C79.5593 72.8779 82.0202 72.5185 83.1921 72.0615C84.2624 71.6396 84.9538 70.8701 85.3523 69.9404C85.6023 69.3623 85.743 68.7099 85.8016 68.0498L85.8204 68.0655Z" fill="white"/>
</svg>
