<svg width="95" height="95" viewBox="0 0 95 95" fill="none" xmlns="http://www.w3.org/2000/svg">
<path d="M73.6543 76.2261H22.3451C20.7504 76.2261 19.4716 75.7325 18.5391 74.7595C16.9507 73.0962 17.0002 70.6261 17.0002 70.3787V45.0165C17.0002 42.1138 17.8286 39.8784 19.4639 38.375C21.8047 36.2182 24.9523 36.3654 25.31 36.3895H33.5399C33.7082 36.3895 33.8695 36.4564 33.9885 36.5753C34.1075 36.6943 34.1743 36.8556 34.1743 37.0239C34.1743 37.1921 34.1075 37.3534 33.9885 37.4724C33.8695 37.5914 33.7082 37.6582 33.5399 37.6582H25.2935H25.2415C25.2136 37.6582 22.3362 37.4539 20.3203 39.3189C18.959 40.5762 18.2688 42.4881 18.2688 45.0165V70.4193C18.2688 70.4383 18.1965 72.5761 19.4627 73.8891C20.144 74.5983 21.112 74.9574 22.3438 74.9574H73.6543C74.8887 74.9574 75.8606 74.5958 76.5418 73.8828C77.8105 72.5545 77.7306 70.4396 77.7293 70.4193V45.0165C77.7293 42.4881 77.0417 40.5762 75.6842 39.3164C73.6683 37.4514 70.7922 37.6582 70.7617 37.6582H70.711H62.3237C62.1555 37.6582 61.9942 37.5914 61.8752 37.4724C61.7562 37.3534 61.6894 37.1921 61.6894 37.0239C61.6894 36.8556 61.7562 36.6943 61.8752 36.5753C61.9942 36.4564 62.1555 36.3895 62.3237 36.3895H70.6881C71.0472 36.3654 74.1935 36.2195 76.5355 38.375C78.1696 39.8784 78.998 42.1138 78.998 45.0165V70.3774C79.0069 70.6312 79.0487 73.095 77.4591 74.7595C76.5291 75.7325 75.2491 76.2261 73.6543 76.2261Z" fill="white"/>
<path d="M59.0252 37.6582H36.855C36.6868 37.6582 36.5255 37.5914 36.4065 37.4724C36.2875 37.3535 36.2207 37.1921 36.2207 37.0239C36.2207 36.8557 36.2875 36.6943 36.4065 36.5754C36.5255 36.4564 36.6868 36.3896 36.855 36.3896H59.0252C59.1935 36.3896 59.3548 36.4564 59.4738 36.5754C59.5927 36.6943 59.6596 36.8557 59.6596 37.0239C59.6596 37.1921 59.5927 37.3535 59.4738 37.4724C59.3548 37.5914 59.1935 37.6582 59.0252 37.6582Z" fill="white"/>
<path d="M59.0252 35.1513H36.855C36.6868 35.1513 36.5255 35.0845 36.4065 34.9655C36.2875 34.8466 36.2207 34.6852 36.2207 34.517C36.2207 34.3487 36.2875 34.1874 36.4065 34.0684C36.5255 33.9495 36.6868 33.8826 36.855 33.8826H59.0252C59.1935 33.8826 59.3548 33.9495 59.4738 34.0684C59.5927 34.1874 59.6596 34.3487 59.6596 34.517C59.6596 34.6852 59.5927 34.8466 59.4738 34.9655C59.3548 35.0845 59.1935 35.1513 59.0252 35.1513Z" fill="white"/>
<path d="M40.3437 68.4871H39.5749C39.0702 68.4871 38.5861 68.2866 38.2293 67.9297C37.8724 67.5729 37.6719 67.0888 37.6719 66.5841V62.6195C37.6719 62.1148 37.8724 61.6307 38.2293 61.2738C38.5861 60.917 39.0702 60.7165 39.5749 60.7165H40.3437C40.8484 60.7165 41.3325 60.917 41.6894 61.2738C42.0462 61.6307 42.2467 62.1148 42.2467 62.6195V66.5841C42.2467 67.0888 42.0462 67.5729 41.6894 67.9297C41.3325 68.2866 40.8484 68.4871 40.3437 68.4871ZM39.5749 61.9851C39.4067 61.9851 39.2453 62.052 39.1263 62.1709C39.0074 62.2899 38.9406 62.4512 38.9406 62.6195V66.5841C38.9406 66.7523 39.0074 66.9137 39.1263 67.0326C39.2453 67.1516 39.4067 67.2184 39.5749 67.2184H40.3437C40.512 67.2184 40.6733 67.1516 40.7923 67.0326C40.9112 66.9137 40.9781 66.7523 40.9781 66.5841V62.6195C40.9781 62.4512 40.9112 62.2899 40.7923 62.1709C40.6733 62.052 40.512 61.9851 40.3437 61.9851H39.5749Z" fill="white"/>
<path d="M39.9625 66.6081C39.7942 66.6081 39.6329 66.5413 39.5139 66.4223C39.395 66.3034 39.3281 66.142 39.3281 65.9738V65.8774C39.3281 65.7091 39.395 65.5478 39.5139 65.4288C39.6329 65.3099 39.7942 65.243 39.9625 65.243C40.1307 65.243 40.292 65.3099 40.411 65.4288C40.53 65.5478 40.5968 65.7091 40.5968 65.8774V65.9738C40.5968 66.142 40.53 66.3034 40.411 66.4223C40.292 66.5413 40.1307 66.6081 39.9625 66.6081Z" fill="white"/>
<path d="M38.8209 47.6808H31.5894C31.4212 47.6808 31.2598 47.614 31.1409 47.495C31.0219 47.376 30.9551 47.2147 30.9551 47.0465V41.0837C30.9551 40.9154 31.0219 40.7541 31.1409 40.6351C31.2598 40.5162 31.4212 40.4493 31.5894 40.4493H33.6193C33.7875 40.4493 33.9489 40.5162 34.0679 40.6351C34.1868 40.7541 34.2536 40.9154 34.2536 41.0837C34.2536 41.2519 34.1868 41.4132 34.0679 41.5322C33.9489 41.6512 33.7875 41.718 33.6193 41.718H32.2238V46.4121H38.1866V41.718H36.8037C36.6355 41.718 36.4741 41.6512 36.3551 41.5322C36.2362 41.4132 36.1694 41.2519 36.1694 41.0837C36.1694 40.9154 36.2362 40.7541 36.3551 40.6351C36.4741 40.5162 36.6355 40.4493 36.8037 40.4493H38.8209C38.9891 40.4493 39.1505 40.5162 39.2694 40.6351C39.3884 40.7541 39.4552 40.9154 39.4552 41.0837V47.0465C39.4552 47.2147 39.3884 47.376 39.2694 47.495C39.1505 47.614 38.9891 47.6808 38.8209 47.6808Z" fill="white"/>
<path d="M59.0759 43.1135C58.9077 43.1135 58.7463 43.0467 58.6274 42.9277C58.5084 42.8087 58.4416 42.6474 58.4416 42.4791V30.3747C58.4416 30.3468 58.3972 27.3616 56.1986 25.1528C54.4085 23.3551 51.6313 22.4442 47.9395 22.4442C44.2476 22.4442 41.4692 23.3551 39.6816 25.1528C37.4792 27.3654 37.4386 30.3544 37.4386 30.3848V42.3523C37.4386 42.5205 37.3718 42.6819 37.2528 42.8008C37.1338 42.9198 36.9725 42.9866 36.8043 42.9866C36.636 42.9866 36.4747 42.9198 36.3557 42.8008C36.2368 42.6819 36.1699 42.5205 36.1699 42.3523V30.3836C36.1699 30.2402 36.1991 26.8515 38.7834 24.2571C40.8196 22.212 43.8962 21.1755 47.9395 21.1755C51.9827 21.1755 55.0606 22.212 57.0968 24.2571C59.6811 26.8528 59.7103 30.2326 59.7103 30.3747V42.4791C59.7103 42.6474 59.6434 42.8087 59.5245 42.9277C59.4055 43.0467 59.2442 43.1135 59.0759 43.1135Z" fill="white"/>
<path d="M64.3219 47.6808H57.0904C56.9222 47.6808 56.7608 47.614 56.6418 47.495C56.5229 47.376 56.4561 47.2147 56.4561 47.0465V41.0837C56.4561 40.9154 56.5229 40.7541 56.6418 40.6351C56.7608 40.5162 56.9222 40.4493 57.0904 40.4493H59.0759C59.2441 40.4493 59.4055 40.5162 59.5244 40.6351C59.6434 40.7541 59.7102 40.9154 59.7102 41.0837C59.7102 41.2519 59.6434 41.4132 59.5244 41.5322C59.4055 41.6512 59.2441 41.718 59.0759 41.718H57.7247V46.4121H63.6875V41.718H62.2577C62.0895 41.718 61.9281 41.6512 61.8092 41.5322C61.6902 41.4132 61.6234 41.2519 61.6234 41.0837C61.6234 40.9154 61.6902 40.7541 61.8092 40.6351C61.9281 40.5162 62.0895 40.4493 62.2577 40.4493H64.3219C64.4901 40.4493 64.6515 40.5162 64.7704 40.6351C64.8894 40.7541 64.9562 40.9154 64.9562 41.0837V47.0465C64.9562 47.2147 64.8894 47.376 64.7704 47.495C64.6515 47.614 64.4901 47.6808 64.3219 47.6808Z" fill="white"/>
<path d="M62.2576 43.1135C62.0894 43.1135 61.928 43.0467 61.809 42.9277C61.6901 42.8088 61.6233 42.6474 61.6233 42.4792V30.4064C61.6233 29.9687 61.5509 26.0548 58.4934 22.9504C56.0829 20.5031 52.5306 19.2623 47.9393 19.2623C43.3479 19.2623 39.7956 20.5031 37.3851 22.9504C34.2629 26.1221 34.254 30.2288 34.254 30.4013V42.3523C34.254 42.5205 34.1872 42.6819 34.0682 42.8008C33.9493 42.9198 33.7879 42.9866 33.6197 42.9866C33.4515 42.9866 33.2901 42.9198 33.1711 42.8008C33.0522 42.6819 32.9854 42.5205 32.9854 42.3523V30.4064C32.9854 29.923 33.0513 25.5423 36.4793 22.0598C39.1359 19.3613 42.9914 18 47.9367 18C52.8821 18 56.7388 19.3676 59.3942 22.0661C62.8082 25.5334 62.8907 29.9319 62.8894 30.4153V42.4792C62.8894 42.647 62.8229 42.8079 62.7045 42.9268C62.5861 43.0457 62.4254 43.1128 62.2576 43.1135Z" fill="white"/>
<path d="M42.627 72.0394H22.8356C22.3309 72.0394 21.8469 71.8389 21.49 71.482C21.1331 71.1251 20.9326 70.6411 20.9326 70.1364V57.3227C20.9326 54.8818 22.0655 53.7108 23.0158 53.1589C24.0003 52.5867 25.0736 52.5017 25.6267 52.5017H39.9628C40.8535 52.4894 41.7318 52.7108 42.5103 53.1437C43.4314 53.6816 44.5301 54.8209 44.5301 57.1958V70.1364C44.5301 70.6411 44.3296 71.1251 43.9727 71.482C43.6158 71.8389 43.1317 72.0394 42.627 72.0394ZM25.6267 53.7704C24.3479 53.7704 22.2013 54.2322 22.2013 57.3227V70.1364C22.2013 70.3046 22.2681 70.4659 22.3871 70.5849C22.5061 70.7039 22.6674 70.7707 22.8356 70.7707H42.627C42.7953 70.7707 42.9566 70.7039 43.0756 70.5849C43.1945 70.4659 43.2614 70.3046 43.2614 70.1364V57.1958C43.2614 54.2157 41.1947 53.7704 39.9628 53.7704H25.6267Z" fill="white"/>
<path d="M43.8957 59.86H21.567C21.3987 59.86 21.2374 59.7932 21.1184 59.6743C20.9994 59.5553 20.9326 59.3939 20.9326 59.2257C20.9326 59.0575 20.9994 58.8961 21.1184 58.7772C21.2374 58.6582 21.3987 58.5914 21.567 58.5914H43.8957C44.064 58.5914 44.2253 58.6582 44.3443 58.7772C44.4632 58.8961 44.5301 59.0575 44.5301 59.2257C44.5301 59.3939 44.4632 59.5553 44.3443 59.6743C44.2253 59.7932 44.064 59.86 43.8957 59.86Z" fill="white"/>
<path d="M39.8365 61.89C39.6683 61.89 39.5069 61.8232 39.3879 61.7042C39.269 61.5852 39.2021 61.4239 39.2021 61.2557V59.3526C39.2021 59.1844 39.269 59.023 39.3879 58.9041C39.5069 58.7851 39.6683 58.7183 39.8365 58.7183C40.0047 58.7183 40.1661 58.7851 40.285 58.9041C40.404 59.023 40.4708 59.1844 40.4708 59.3526V61.2557C40.4708 61.4239 40.404 61.5852 40.285 61.7042C40.1661 61.8232 40.0047 61.89 39.8365 61.89Z" fill="white"/>
<path d="M70.9189 68.4871H70.1501C69.6454 68.4871 69.1613 68.2866 68.8045 67.9297C68.4476 67.5729 68.2471 67.0888 68.2471 66.5841V62.6195C68.2471 62.1148 68.4476 61.6307 68.8045 61.2738C69.1613 60.917 69.6454 60.7165 70.1501 60.7165H70.9189C71.4236 60.7165 71.9077 60.917 72.2645 61.2738C72.6214 61.6307 72.8219 62.1148 72.8219 62.6195V66.5841C72.8219 67.0888 72.6214 67.5729 72.2645 67.9297C71.9077 68.2866 71.4236 68.4871 70.9189 68.4871ZM70.1501 61.9851C69.9819 61.9851 69.8205 62.052 69.7015 62.1709C69.5826 62.2899 69.5157 62.4512 69.5157 62.6195V66.5841C69.5157 66.7523 69.5826 66.9137 69.7015 67.0326C69.8205 67.1516 69.9819 67.2184 70.1501 67.2184H70.9189C71.0871 67.2184 71.2485 67.1516 71.3675 67.0326C71.4864 66.9137 71.5532 66.7523 71.5532 66.5841V62.6195C71.5532 62.4512 71.4864 62.2899 71.3675 62.1709C71.2485 62.052 71.0871 61.9851 70.9189 61.9851H70.1501Z" fill="white"/>
<path d="M70.5386 66.6081C70.3704 66.6081 70.2091 66.5413 70.0901 66.4223C69.9711 66.3034 69.9043 66.142 69.9043 65.9738V65.8774C69.9043 65.7091 69.9711 65.5478 70.0901 65.4288C70.2091 65.3099 70.3704 65.243 70.5386 65.243C70.7069 65.243 70.8682 65.3099 70.9872 65.4288C71.1061 65.5478 71.173 65.7091 71.173 65.8774V65.9738C71.173 66.142 71.1061 66.3034 70.9872 66.4223C70.8682 66.5413 70.7069 66.6081 70.5386 66.6081Z" fill="white"/>
<path d="M73.2032 72.0394H53.4118C52.9071 72.0394 52.4231 71.8389 52.0662 71.482C51.7093 71.1251 51.5088 70.6411 51.5088 70.1364V57.3227C51.5088 54.8818 52.6417 53.7108 53.592 53.1589C54.5765 52.5867 55.6498 52.5017 56.2029 52.5017H70.539C71.4297 52.4894 72.308 52.7108 73.0865 53.1437C74.0075 53.6816 75.1062 54.8209 75.1062 57.1958V70.1364C75.1062 70.6411 74.9057 71.1251 74.5488 71.482C74.192 71.8389 73.7079 72.0394 73.2032 72.0394ZM56.2029 53.7704C54.9241 53.7704 52.7775 54.2322 52.7775 57.3227V70.1364C52.7775 70.3046 52.8443 70.4659 52.9633 70.5849C53.0822 70.7039 53.2436 70.7707 53.4118 70.7707H73.2032C73.3714 70.7707 73.5328 70.7039 73.6518 70.5849C73.7707 70.4659 73.8375 70.3046 73.8375 70.1364V57.1958C73.8375 54.2157 71.7709 53.7704 70.539 53.7704H56.2029Z" fill="white"/>
<path d="M74.4719 59.86H52.1431C51.9749 59.86 51.8135 59.7932 51.6946 59.6743C51.5756 59.5553 51.5088 59.3939 51.5088 59.2257C51.5088 59.0575 51.5756 58.8961 51.6946 58.7772C51.8135 58.6582 51.9749 58.5914 52.1431 58.5914H74.4719C74.6401 58.5914 74.8015 58.6582 74.9204 58.7772C75.0394 58.8961 75.1062 59.0575 75.1062 59.2257C75.1062 59.3939 75.0394 59.5553 74.9204 59.6743C74.8015 59.7932 74.6401 59.86 74.4719 59.86Z" fill="white"/>
<path d="M70.4117 61.89C70.2434 61.89 70.0821 61.8232 69.9631 61.7042C69.8442 61.5852 69.7773 61.4239 69.7773 61.2557V59.3526C69.7773 59.1844 69.8442 59.023 69.9631 58.9041C70.0821 58.7851 70.2434 58.7183 70.4117 58.7183C70.5799 58.7183 70.7413 58.7851 70.8602 58.9041C70.9792 59.023 71.046 59.1844 71.046 59.3526V61.2557C71.046 61.4239 70.9792 61.5852 70.8602 61.7042C70.7413 61.8232 70.5799 61.89 70.4117 61.89Z" fill="white"/>
<path d="M70.9189 46.1584H70.1501C69.6454 46.1584 69.1613 45.9579 68.8045 45.601C68.4476 45.2441 68.2471 44.7601 68.2471 44.2554V40.2907C68.2471 39.786 68.4476 39.302 68.8045 38.9451C69.1613 38.5882 69.6454 38.3877 70.1501 38.3877H70.9189C71.4236 38.3877 71.9077 38.5882 72.2645 38.9451C72.6214 39.302 72.8219 39.786 72.8219 40.2907V44.2554C72.8219 44.7601 72.6214 45.2441 72.2645 45.601C71.9077 45.9579 71.4236 46.1584 70.9189 46.1584ZM70.1501 39.6564C69.9819 39.6564 69.8205 39.7232 69.7015 39.8422C69.5826 39.9611 69.5157 40.1225 69.5157 40.2907V44.2554C69.5157 44.4236 69.5826 44.5849 69.7015 44.7039C69.8205 44.8229 69.9819 44.8897 70.1501 44.8897H70.9189C71.0871 44.8897 71.2485 44.8229 71.3675 44.7039C71.4864 44.5849 71.5532 44.4236 71.5532 44.2554V40.2907C71.5532 40.1225 71.4864 39.9611 71.3675 39.8422C71.2485 39.7232 71.0871 39.6564 70.9189 39.6564H70.1501Z" fill="white"/>
<path d="M70.5386 44.2795C70.3704 44.2795 70.2091 44.2127 70.0901 44.0937C69.9711 43.9747 69.9043 43.8134 69.9043 43.6452V43.5487C69.9043 43.3805 69.9711 43.2192 70.0901 43.1002C70.2091 42.9812 70.3704 42.9144 70.5386 42.9144C70.7069 42.9144 70.8682 42.9812 70.9872 43.1002C71.1061 43.2192 71.173 43.3805 71.173 43.5487V43.6452C71.173 43.8134 71.1061 43.9747 70.9872 44.0937C70.8682 44.2127 70.7069 44.2795 70.5386 44.2795Z" fill="white"/>
<path d="M70.4117 39.5613C70.2434 39.5613 70.0821 39.4944 69.9631 39.3755C69.8442 39.2565 69.7773 39.0952 69.7773 38.9269V37.0239C69.7773 36.8557 69.8442 36.6943 69.9631 36.5754C70.0821 36.4564 70.2434 36.3896 70.4117 36.3896C70.5799 36.3896 70.7413 36.4564 70.8602 36.5754C70.9792 36.6943 71.046 36.8557 71.046 37.0239V38.9269C71.046 39.0952 70.9792 39.2565 70.8602 39.3755C70.7413 39.4944 70.5799 39.5613 70.4117 39.5613Z" fill="white"/>
<path d="M24.6265 37.6582C24.4583 37.6582 24.2969 37.5913 24.178 37.4724C24.059 37.3534 23.9922 37.1921 23.9922 37.0238C23.9922 35.9556 24.2941 35.1208 24.8904 34.5512C25.4019 34.0717 26.0772 33.8058 26.7782 33.8077H33.6291C33.7973 33.8077 33.9587 33.8746 34.0776 33.9935C34.1966 34.1125 34.2634 34.2738 34.2634 34.4421C34.2634 34.6103 34.1966 34.7716 34.0776 34.8906C33.9587 35.0096 33.7973 35.0764 33.6291 35.0764H26.744C26.3772 35.0848 26.0258 35.2254 25.7544 35.4722C25.4233 35.797 25.2558 36.3172 25.2558 37.02C25.2568 37.188 25.1911 37.3496 25.0731 37.4692C24.9552 37.5889 24.7945 37.6568 24.6265 37.6582Z" fill="white"/>
<path d="M71.3002 37.5009H71.2659C71.1827 37.4965 71.1011 37.4758 71.0259 37.4399C70.9507 37.404 70.8833 37.3536 70.8276 37.2916C70.7719 37.2296 70.7289 37.1573 70.7011 37.0787C70.6734 37.0001 70.6614 36.9168 70.6658 36.8336C70.6937 36.3071 70.5758 35.9024 70.3157 35.6271C69.8843 35.1716 69.1523 35.1513 69.1447 35.1513H62.2925C62.1243 35.1513 61.963 35.0845 61.844 34.9655C61.725 34.8466 61.6582 34.6852 61.6582 34.517C61.6582 34.3487 61.725 34.1874 61.844 34.0684C61.963 33.9495 62.1243 33.8826 62.2925 33.8826H69.1434C69.2703 33.8826 70.4324 33.9067 71.2355 34.7542C71.7429 35.2921 71.9789 36.014 71.9307 36.9008C71.922 37.0624 71.8518 37.2145 71.7346 37.3261C71.6174 37.4376 71.462 37.5002 71.3002 37.5009Z" fill="white"/>
</svg>
