<svg width="42" height="42" viewBox="0 0 42 42" fill="none" xmlns="http://www.w3.org/2000/svg">
<g clip-path="url(#clip0_107_942)">
<path d="M9.33547 0C9.58156 0 32.1894 0 32.5995 0C33.7316 0 34.8308 0.180469 35.8972 0.557813C37.4394 1.11563 38.8339 2.1 39.8839 3.37969C40.9503 4.65938 41.6558 6.23438 41.9019 7.875C42.0003 8.48203 42.0167 9.08906 42.0167 9.69609C42.0167 10.2539 42.0167 29.9086 42.0167 30.7945C42.0167 31.3195 42.0167 31.8609 42.0167 32.3859C42.0167 33.1078 41.9839 33.8461 41.8363 34.5516C41.5081 36.1758 40.737 37.7016 39.6214 38.932C38.5222 40.1625 37.0784 41.0812 35.5198 41.5734C34.5683 41.8687 33.5839 42 32.5831 42C32.1402 42 9.26985 42 8.92531 41.9836C7.25188 41.9016 5.59485 41.3602 4.20031 40.425C2.8386 39.5062 1.72297 38.2266 1.0011 36.75C0.377658 35.4867 0.0659396 34.0758 0.0659396 32.6648C0.0659396 32.3367 0.0659396 9.66328 0.0659396 9.33516C0.0331271 7.94063 0.32844 6.5625 0.935471 5.31563C1.64094 3.83906 2.74016 2.54297 4.10188 1.62422C5.49641 0.672656 7.13703 0.114844 8.81047 0.0328125C8.97453 0 9.155 0 9.33547 0Z" fill="url(#paint0_linear_107_942)"/>
<path d="M35.4375 34.3547C35.2898 34.125 35.1258 33.8953 34.9453 33.682C34.5352 33.1898 34.0594 32.7633 33.5344 32.4023C32.8781 31.9594 32.107 31.6805 31.3195 31.6477C30.7617 31.6148 30.2039 31.7133 29.6789 31.9102C29.1539 32.0906 28.6453 32.3531 28.1531 32.6156C27.5789 32.9109 27.0047 33.2063 26.3977 33.4523C25.6758 33.7477 24.9211 33.9773 24.15 34.1414C23.182 34.3219 22.1977 34.3875 21.2297 34.3711C19.4742 34.3383 17.7188 34.0758 16.0453 33.5836C14.5688 33.1406 13.1578 32.5336 11.8289 31.7625C10.6641 31.0898 9.58125 30.3188 8.56406 29.4492C7.72734 28.7273 6.95625 27.9563 6.23438 27.1359C5.74219 26.5617 5.26641 25.9547 4.82344 25.3313C4.64297 25.0852 4.47891 24.8227 4.33125 24.5602L0 19.8844V9.30234C0 4.16719 4.15078 0 9.28594 0H17.5711L23.707 6.23438C37.5539 15.6516 33.075 26.0367 33.075 26.0367C33.075 26.0367 37.0125 30.4664 35.4375 34.3547Z" fill="url(#paint1_linear_107_942)"/>
<path d="M23.7396 6.23438C37.5865 15.6516 33.1076 26.0367 33.1076 26.0367C33.1076 26.0367 37.0451 30.4828 35.4537 34.3711C35.4537 34.3711 33.8295 31.6477 31.1061 31.6477C28.4811 31.6477 26.9389 34.3711 21.6561 34.3711C9.89277 34.3711 4.33105 24.5438 4.33105 24.5438C14.9295 31.5164 22.1646 26.5781 22.1646 26.5781C17.3904 23.8055 7.23496 10.5492 7.23496 10.5492C16.0779 18.0797 19.9006 20.0648 19.9006 20.0648C17.6201 18.1781 11.2217 8.95781 11.2217 8.95781C16.3404 14.1422 26.5123 21.3773 26.5123 21.3773C29.3998 13.3711 23.7396 6.23438 23.7396 6.23438Z" fill="white"/>
</g>
<defs>
<linearGradient id="paint0_linear_107_942" x1="24.9854" y1="-1.49868" x2="17.0502" y2="43.5039" gradientUnits="userSpaceOnUse">
<stop stop-color="#FAAE42"/>
<stop offset="1" stop-color="#EF3E31"/>
</linearGradient>
<linearGradient id="paint1_linear_107_942" x1="21.4285" y1="0.678611" x2="15.6209" y2="33.6152" gradientUnits="userSpaceOnUse">
<stop stop-color="#E39F3A"/>
<stop offset="1" stop-color="#D33929"/>
</linearGradient>
<clipPath id="clip0_107_942">
<rect width="42" height="42" fill="white"/>
</clipPath>
</defs>
</svg>
