<svg width="43" height="42" viewBox="0 0 43 42" fill="none" xmlns="http://www.w3.org/2000/svg">
<g clip-path="url(#clip0_100_895)">
<path d="M42.0684 34.65C42.0684 38.7188 38.7871 42 34.7184 42H7.41836C3.34961 42 0.0683594 38.7188 0.0683594 34.65V7.35C0.0683594 3.28125 3.34961 0 7.41836 0H34.7184C38.7871 0 42.0684 3.28125 42.0684 7.35V34.65Z" fill="#CF0A2C"/>
<path d="M11.623 35.2897L11.7871 30.1709V6.25781H15.344V18.6892H15.4254C16.6932 16.4809 18.9822 15.0496 22.1716 15.0496C27.079 15.0496 30.5539 19.138 30.506 25.1558C30.506 32.2302 26.0487 35.7464 21.6335 35.7464C18.7709 35.7464 16.4819 34.6426 15.0093 32.0255H14.8997L14.7356 35.2969H11.6283L11.623 35.2897ZM15.344 27.3569C15.344 27.8064 15.4254 28.256 15.508 28.6655C16.2037 31.1592 18.2886 32.8773 20.905 32.8773C24.6673 32.8773 26.9163 29.81 26.9163 25.2648C26.9163 21.2984 24.8714 17.9043 21.0284 17.9043C18.574 17.9043 16.285 19.581 15.5487 22.3208C15.4674 22.7297 15.344 23.2199 15.344 23.7928V27.3569Z" fill="white"/>
</g>
<defs>
<clipPath id="clip0_100_895">
<rect width="42" height="42" fill="white" transform="translate(0.0683594)"/>
</clipPath>
</defs>
</svg>
