<svg width="49" height="48" viewBox="0 0 49 48" fill="none" xmlns="http://www.w3.org/2000/svg">
<g clip-path="url(#clip0_111_1691)">
<path d="M43.7316 2.52391C43.0593 4.1358 42.1986 5.66242 41.1674 7.07191C38.9161 4.8113 36.238 3.02076 33.2886 1.80441C30.3392 0.588062 27.1775 -0.029834 23.9872 -0.0133506C20.7968 0.00313282 17.6416 0.653667 14.705 1.90043C11.7683 3.14719 9.10882 4.9653 6.88108 7.24906C4.65334 9.53282 2.90183 12.2367 1.72837 15.2034C0.554916 18.1701 -0.0170699 21.3405 0.045671 24.5302C0.108412 27.7199 0.804628 30.8654 2.09384 33.7836C3.38305 36.7019 5.23954 39.3348 7.55536 41.5292L8.44486 42.3144C11.8393 45.1746 15.9587 47.04 20.3475 47.7043C24.7363 48.3685 29.2232 47.8058 33.312 46.0783C37.4008 44.3508 40.932 41.5258 43.515 37.916C46.098 34.3062 47.632 30.0522 47.9474 25.6247C48.6036 19.4972 46.8044 11.7422 43.7324 2.52466L43.7316 2.52391ZM10.9791 41.6687C10.723 41.9852 10.3787 42.2186 9.9899 42.3393C9.60108 42.4601 9.18517 42.4629 8.7948 42.3472C8.40442 42.2316 8.05712 42.0027 7.79683 41.6896C7.53655 41.3766 7.37498 40.9933 7.33256 40.5884C7.29015 40.1834 7.3688 39.775 7.55856 39.4148C7.74832 39.0546 8.04066 38.7587 8.3986 38.5647C8.75654 38.3707 9.16399 38.2872 9.5694 38.3248C9.9748 38.3624 10.36 38.5194 10.6761 38.7759C11.0996 39.1195 11.3694 39.6172 11.4262 40.1596C11.483 40.702 11.3222 41.2447 10.9791 41.6687ZM43.6326 34.4612C37.6926 42.3737 25.0101 39.7037 16.8786 40.0877C16.8786 40.0877 15.4371 40.1724 13.9859 40.4102C13.9859 40.4102 14.5334 40.1777 15.2331 39.9129C20.9436 37.9254 23.6429 37.5429 27.1116 35.7579C33.6426 32.4377 40.1031 25.1664 41.4456 17.6079C38.9609 24.8792 31.4159 31.1319 24.5481 33.6714C19.8411 35.4062 11.3376 37.0959 11.3376 37.0959L10.9949 36.9122C5.20936 34.0997 5.03086 21.5694 15.5526 17.5284C20.1599 15.7539 24.5676 16.7282 29.5431 15.5409C34.8561 14.2787 41.0031 10.2984 43.5044 5.10391C46.3019 13.4139 49.6724 26.4204 43.6289 34.4664L43.6326 34.4612Z" fill="#68BD45"/>
</g>
<defs>
<clipPath id="clip0_111_1691">
<rect width="48" height="48" fill="white" transform="translate(0.0820312)"/>
</clipPath>
</defs>
</svg>
