<svg width="45" height="42" viewBox="0 0 45 42" fill="none" xmlns="http://www.w3.org/2000/svg">
<g clip-path="url(#clip0_110_1234)">
<path d="M30.7095 29.2163C32.3357 29.0481 33.5694 27.6461 33.5133 25.9638C33.4572 24.2815 32.0554 22.9356 30.3731 22.9356H30.2609C28.5226 22.9917 27.1768 24.4497 27.2329 26.1881C27.289 27.0293 27.6254 27.7583 28.1301 28.263C26.2235 32.0202 23.3076 34.7679 18.9337 37.0671C15.9617 38.6373 12.8776 39.1981 9.79346 38.8055C7.27007 38.4691 5.30744 37.3475 4.07378 35.497C2.27937 32.7492 2.11114 29.7771 3.62518 26.805C4.69061 24.674 6.37287 23.1039 7.4383 22.3188C7.214 21.5898 6.87754 20.3561 6.70932 19.4588C-1.4216 25.347 -0.58047 33.3099 1.88684 37.0671C3.73733 39.871 7.49437 41.6094 11.6439 41.6094C12.7655 41.6094 13.887 41.4972 15.0085 41.2168C22.1861 39.8149 27.6254 35.553 30.7095 29.2163ZM40.5788 22.2627C36.3171 17.2718 30.0366 14.524 22.859 14.524H21.9618C21.4571 13.5146 20.3917 12.8417 19.2141 12.8417H19.102C17.3636 12.8978 16.0178 14.3558 16.0739 16.0942C16.13 17.7765 17.5319 19.1224 19.2141 19.1224H19.3263C20.5599 19.0663 21.6253 18.2812 22.0739 17.2157H23.0833C27.345 17.2157 31.3824 18.4494 35.0273 20.8608C37.8311 22.7113 39.8498 25.1226 40.9713 28.0387C41.9246 30.3939 41.8685 32.6931 40.8592 34.6558C39.2891 37.6279 36.6535 39.2541 33.1769 39.2541C30.9338 39.2541 28.803 38.5812 27.6815 38.0765C27.0647 38.6373 25.9431 39.5345 25.1581 40.0953C27.5693 41.2168 30.0366 41.8337 32.3918 41.8337C37.775 41.8337 41.7564 38.8616 43.2704 35.8895C44.8966 32.637 44.7844 27.0293 40.5788 22.2627ZM12.0925 30.1696C12.1486 31.8519 13.5505 33.1978 15.2328 33.1978H15.3449C17.0832 33.1417 18.4291 31.6837 18.373 29.9453C18.3169 28.263 16.915 26.9171 15.2328 26.9171H15.1206C15.0085 26.9171 14.8402 26.9171 14.7281 26.9732C12.429 23.1599 11.4757 19.0102 11.8122 14.524C12.0365 11.1594 13.158 8.24337 15.1206 5.83204C16.7468 3.75718 19.887 2.74779 22.0179 2.69171C27.9619 2.57956 30.4852 9.98177 30.6535 12.9539C31.3824 13.1221 32.6161 13.5146 33.4572 13.795C32.7843 4.7105 27.1768 0 21.7936 0C16.7468 0 12.0925 3.64503 10.2421 9.02845C7.6626 16.2064 9.34486 23.1039 12.4851 28.5434C12.2047 28.9359 12.0365 29.5528 12.0925 30.1696Z" fill="#764ABC"/>
</g>
<defs>
<clipPath id="clip0_110_1234">
<rect width="44.0656" height="42" fill="white" transform="translate(0.176758)"/>
</clipPath>
</defs>
</svg>
