<svg width="51" height="42" viewBox="0 0 51 42" fill="none" xmlns="http://www.w3.org/2000/svg">
<g clip-path="url(#clip0_115_1580)">
<path d="M47.9307 31.9695C48.0608 32.3068 47.9541 32.5892 47.666 32.8211C44.9665 34.9941 42.1332 36.965 39.0491 38.56L36.4741 39.8897C37.0053 40.314 37.6048 40.4332 38.2412 40.4095C38.9378 40.3834 39.5215 40.0636 40.0606 39.6523C40.7047 39.1609 41.314 38.6172 41.9908 38.1767C43.6296 37.1099 45.3959 37.2064 46.9461 38.4092C47.6045 38.9202 48.2098 39.5039 48.893 39.9769C49.2233 40.2057 49.6463 40.3303 50.0518 40.4199L50.1415 40.4393C50.6335 40.5429 50.9326 40.7908 50.8997 41.2155C50.8671 41.6371 50.5332 41.8834 50.0288 41.8508C48.9602 41.7818 48.1225 41.2305 47.3374 40.5642C46.8472 40.1481 46.3737 39.7046 45.8447 39.3437C44.8637 38.6746 43.8226 38.655 42.8231 39.2974C42.234 39.676 41.6984 40.1392 41.1472 40.5748C40.2587 41.277 39.2998 41.794 38.1299 41.8116C36.8467 41.8309 35.8141 41.2553 34.8679 40.464C34.5296 40.1811 34.1945 39.8939 33.8498 39.619C32.5571 38.5878 31.2329 38.5883 29.9358 39.6197C29.7846 39.7399 29.6351 39.862 29.4858 39.9847L29.1876 40.2302C28.9388 40.4345 28.6889 40.6372 28.4322 40.8311C26.8444 42.0312 25.0261 42.0884 23.3807 40.9647C22.7821 40.5559 22.2364 40.0695 21.6655 39.6198C20.3682 38.5981 19.2914 38.6013 17.9711 39.6155L17.8631 39.6986L17.5393 39.9489C17.1073 40.2825 16.6728 40.6131 16.2165 40.9098C14.4971 42.0277 12.7472 41.9809 11.0384 40.9005C10.3312 40.4534 9.68563 39.909 9.01582 39.4028L8.91516 39.3272C8.64783 39.1275 8.38373 38.9231 8.10924 38.7337C7.7264 38.4695 7.31436 38.3956 6.89988 38.6473C6.16747 39.092 5.44365 39.5508 4.71826 40.0069C4.03274 40.4379 3.37033 40.9116 2.65746 41.2908C2.27132 41.4963 1.80725 41.5918 1.367 41.6481C0.957316 41.7003 0.675462 41.396 0.659859 41.0123C0.64448 40.6342 0.891395 40.3967 1.27507 40.2877L1.29736 40.2815C1.70533 40.1724 2.12539 40.0339 2.47924 39.8114C3.47776 39.1837 4.44521 38.5066 5.4239 37.8474C5.4516 37.8287 5.46777 37.7931 5.50098 37.7505L4.89344 36.6017C4.69069 36.2182 4.48805 35.8342 4.28653 35.4496C3.93303 34.7748 4.16307 34.3222 4.92181 34.268C6.96737 34.1219 9.01443 33.9964 11.061 33.8647L22.8407 33.1087C25.625 32.9296 28.4091 32.7487 31.1934 32.569C35.1199 32.3157 39.0464 32.0626 42.9729 31.8096C44.0169 31.7424 45.0611 31.6768 46.1051 31.6085L47.1491 31.5393C47.5087 31.515 47.7974 31.6237 47.9307 31.9695ZM44.9436 33.1624L44.9086 33.0768L5.92963 35.5863L6.02587 35.7661C6.27859 36.2395 6.50222 36.6671 6.74671 37.0823C6.76925 37.1206 6.84804 37.1284 6.93064 37.1312L7.01503 37.1333C7.02367 37.1335 7.03214 37.1338 7.04037 37.1342L7.06428 37.1356C7.40303 37.1606 7.77335 37.101 8.0741 37.2196C8.55429 37.4091 9.013 37.6807 9.43635 37.9804C10.194 38.5167 10.8947 39.1346 11.6619 39.6556C13.025 40.5813 14.3088 40.5537 15.6497 39.6152C16.2157 39.2191 16.7525 38.7816 17.3131 38.3776C19.0662 37.1146 20.7269 37.1408 22.4382 38.4595C22.9383 38.8448 23.4149 39.2606 23.9141 39.6471C25.1658 40.6161 26.4357 40.6196 27.6811 39.657C28.0958 39.3365 28.4907 38.9903 28.8977 38.6597C30.7437 37.1599 32.615 37.0153 34.4302 38.3528L34.4852 38.3938C35.0662 38.8317 35.4986 38.8097 36.0775 38.521L36.3594 38.3801C38.9416 37.0854 41.4749 35.7097 43.8138 33.9999C44.1923 33.7233 44.5671 33.4417 44.9436 33.1624ZM8.74869 0.132517C12.9676 2.03586 16.7562 4.59624 20.1995 7.67366C24.4842 11.5031 27.8608 16.025 30.3549 21.1967C31.6676 23.9189 32.6886 26.7462 33.1575 29.7481L33.18 29.8953L33.2141 30.1304C33.2147 30.7113 32.7493 31.0527 32.2643 30.8567C29.8557 29.8835 27.3687 29.2085 24.7986 28.823C21.4022 28.3135 18.0486 28.4402 14.7466 29.4344C12.5569 30.0937 10.474 30.9931 8.53841 32.2203C8.18105 32.4469 7.80214 32.4074 7.56881 32.1301C7.32647 31.842 7.32682 31.4945 7.60675 31.1905C9.62897 28.9949 10.8055 26.3582 11.5856 23.5229C12.3478 20.7528 12.6261 17.922 12.4554 15.0583C12.3271 12.9058 11.8109 10.8231 11.1354 8.77853C10.2615 6.13355 9.12746 3.60524 7.7602 1.17992C7.53682 0.783616 7.54097 0.47485 7.76678 0.221196C8.00054 -0.0413339 8.30158 -0.0692474 8.74869 0.132517ZM21.755 5.07663C22.1462 5.19072 22.6731 5.30331 23.1687 5.49619C25.1477 6.26646 26.8527 7.48857 28.4769 8.82369C31.1166 10.9936 33.5337 13.3936 35.6952 16.0406C37.1996 17.883 38.4338 19.9095 39.5589 22.0014C40.8347 24.3736 41.9333 26.8259 42.866 29.3522L42.9308 29.5285C42.9553 29.5957 42.9806 29.6625 43.0034 29.7303C43.1016 30.0224 43.0894 30.3049 42.8605 30.5281C42.6269 30.756 42.3468 30.771 42.051 30.6554L42.0304 30.6471C41.6064 30.4729 41.1768 30.312 40.7536 30.1361L40.5726 30.0597C39.3822 29.5486 38.1587 29.4464 36.8987 29.7327C36.7825 29.7591 36.6647 29.7791 36.547 29.7972C36.0795 29.8692 35.7876 29.6866 35.66 29.2338C34.4328 24.8797 32.7025 20.7336 30.512 16.7778L30.4024 16.5809C28.9902 14.0573 27.3733 11.6844 25.2721 9.66825C24.0316 8.47778 22.7261 7.36783 21.2842 6.42514C20.9501 6.2067 20.8249 5.90359 20.9349 5.57271C21.0432 5.24719 21.2958 5.11943 21.755 5.07663ZM10.0101 2.3137C10.0142 2.42385 10.0437 2.50988 10.0837 2.59062C11.0006 4.43992 11.7979 6.3394 12.4455 8.29942C13.0598 10.1589 13.531 12.0541 13.7566 14.0028C14.0092 16.1842 13.9052 18.3598 13.606 20.5295C13.212 23.3866 12.4196 26.1193 11.0528 28.6717L10.8939 28.9691C10.8143 29.1183 10.7343 29.2685 10.6529 29.421C10.7034 29.4346 10.7289 29.4509 10.7454 29.4444C10.8893 29.3875 11.0325 29.3287 11.1742 29.2665C14.075 27.9932 17.0977 27.2242 20.2723 27.1452C23.8974 27.055 27.4084 27.7084 30.8372 28.8467L31.0712 28.9245C31.2409 28.9801 31.4218 29.0375 31.6562 29.1134C30.2672 23.0336 27.3879 17.8078 23.5069 13.1069C19.7656 8.57526 15.2152 5.03433 10.0101 2.3137ZM27.2347 9.68507L27.2807 9.73703L27.3719 9.8388C27.4072 9.87849 27.4393 9.91583 27.4693 9.95476C27.682 10.2305 27.8996 10.503 28.118 10.775L28.4749 11.2189C29.0112 11.8871 29.5405 12.5597 30.0062 13.2739C32.9511 17.7906 35.1166 22.6745 36.6953 27.8214L36.7429 27.9775C36.8249 28.247 36.9375 28.3227 37.2002 28.283L37.2184 28.2802C38.3993 28.0835 39.5535 28.1857 40.6727 28.6167L40.7305 28.6393C40.8375 28.6817 40.9518 28.7053 41.159 28.7658C39.6428 24.9829 37.8509 21.4617 35.5836 18.1792C33.6228 15.3407 28.3727 10.3013 27.2347 9.68507Z" fill="#1A222D"/>
</g>
<defs>
<clipPath id="clip0_115_1580">
<rect width="50.243" height="42" fill="white" transform="translate(0.65918)"/>
</clipPath>
</defs>
</svg>
