<svg width="38" height="38" viewBox="0 0 38 38" fill="none" xmlns="http://www.w3.org/2000/svg">
<path d="M13.1965 2.58984H23.5032L12.8039 34.2909C12.6939 34.6167 12.4846 34.8998 12.2053 35.1003C11.9259 35.3008 11.5908 35.4087 11.2471 35.4089H3.22588C2.96539 35.4088 2.70865 35.3468 2.47684 35.228C2.24505 35.1091 2.0449 34.9367 1.89297 34.7251C1.74107 34.5135 1.6417 34.2688 1.60307 34.0112C1.56447 33.7536 1.58778 33.4905 1.67105 33.2436L11.6393 3.70769C11.7492 3.3818 11.9586 3.09861 12.238 2.89799C12.5174 2.6975 12.8526 2.58972 13.1965 2.58984Z" fill="url(#paint0_linear_111_1705)"/>
<path d="M28.1735 23.8535H11.8295C11.6776 23.8533 11.5291 23.8989 11.4034 23.9842C11.2778 24.0697 11.1808 24.191 11.125 24.3323C11.0693 24.4737 11.0574 24.6285 11.0909 24.7767C11.1244 24.9249 11.2018 25.0596 11.313 25.1632L21.8153 34.9657C22.1211 35.2509 22.5237 35.4095 22.9418 35.4095H32.1963L28.1735 23.8535Z" fill="#0078D4"/>
<path d="M13.1964 2.58986C12.8487 2.58853 12.5097 2.6984 12.2289 2.90343C11.9481 3.10846 11.7402 3.3979 11.6356 3.72948L1.68317 33.2167C1.5943 33.4644 1.5664 33.7299 1.60183 33.9907C1.63727 34.2515 1.73499 34.4999 1.88674 34.715C2.03853 34.93 2.23982 35.1053 2.47361 35.2261C2.70748 35.3468 2.96693 35.4094 3.23009 35.4089H11.4583C11.7647 35.354 12.0511 35.2189 12.2883 35.0173C12.5254 34.8156 12.7048 34.5546 12.8081 34.2609L14.7928 28.4117L21.8822 35.0241C22.1793 35.2698 22.5519 35.4057 22.9375 35.4089H32.1576L28.1138 23.8529L16.3254 23.8555L23.5403 2.58986H13.1964Z" fill="url(#paint1_linear_111_1705)"/>
<path d="M26.3609 3.70609C26.2511 3.38074 26.042 3.09803 25.763 2.89776C25.4841 2.69748 25.1494 2.58978 24.806 2.58984H13.3193C13.6627 2.58986 13.9974 2.69758 14.2763 2.89783C14.5553 3.09808 14.7643 3.38077 14.8742 3.70609L24.8428 33.2432C24.9262 33.4901 24.9496 33.7532 24.911 34.0108C24.8725 34.2686 24.7731 34.5134 24.6211 34.7251C24.4692 34.9367 24.269 35.1092 24.0372 35.2282C23.8054 35.3471 23.5486 35.4092 23.2881 35.4092H34.7751C35.0356 35.4091 35.2923 35.3469 35.5241 35.228C35.7559 35.109 35.956 34.9365 36.1079 34.7249C36.2598 34.5132 36.3591 34.2685 36.3977 34.0108C36.4363 33.7532 36.4129 33.4901 36.3295 33.2432L26.3609 3.70609Z" fill="url(#paint2_linear_111_1705)"/>
<defs>
<linearGradient id="paint0_linear_111_1705" x1="16.953" y1="5.02184" x2="6.24926" y2="36.6435" gradientUnits="userSpaceOnUse">
<stop stop-color="#114A8B"/>
<stop offset="1" stop-color="#0669BC"/>
</linearGradient>
<linearGradient id="paint1_linear_111_1705" x1="20.2965" y1="19.7584" x2="17.8205" y2="20.5955" gradientUnits="userSpaceOnUse">
<stop stop-opacity="0.3"/>
<stop offset="0.071" stop-opacity="0.2"/>
<stop offset="0.321" stop-opacity="0.1"/>
<stop offset="0.623" stop-opacity="0.05"/>
<stop offset="1" stop-opacity="0"/>
</linearGradient>
<linearGradient id="paint2_linear_111_1705" x1="18.935" y1="4.09956" x2="30.6846" y2="35.4024" gradientUnits="userSpaceOnUse">
<stop stop-color="#3CCBF4"/>
<stop offset="1" stop-color="#2892DF"/>
</linearGradient>
</defs>
</svg>
