<svg width="42" height="42" viewBox="0 0 42 42" fill="none" xmlns="http://www.w3.org/2000/svg">
<g clip-path="url(#clip0_110_1242)">
<path d="M21 42C32.598 42 42 32.598 42 21C42 9.40202 32.598 0 21 0C9.40202 0 0 9.40202 0 21C0 32.598 9.40202 42 21 42Z" fill="#4353FF"/>
<path d="M27.1684 18.5057L25.2653 24.5038C25.2653 24.0444 23.9528 14.0957 23.9528 14.0957C20.934 14.0957 19.3328 16.2351 18.4928 18.5057L16.1696 24.517C16.1696 24.0838 15.8415 18.5582 15.8415 18.5582C15.7295 17.362 15.1826 16.2485 14.3046 15.4285C13.4265 14.6084 12.2782 14.1389 11.0771 14.1088L13.5446 29.1763C16.6946 29.1763 18.4009 27.0369 19.2803 24.7663L21.249 19.6476C21.249 19.8576 22.5615 29.1763 22.5615 29.1763C23.8496 29.1747 25.1037 28.7629 26.142 28.0007C27.1804 27.2384 27.949 26.1653 28.3365 24.937L32.799 14.0957C29.649 14.0957 27.9953 16.2351 27.1553 18.5057H27.1684Z" fill="white"/>
</g>
<defs>
<clipPath id="clip0_110_1242">
<rect width="42" height="42" fill="white"/>
</clipPath>
</defs>
</svg>
