<svg width="48" height="48" viewBox="0 0 48 48" fill="none" xmlns="http://www.w3.org/2000/svg">
<path d="M30.3498 11.1702H28.3998V9.33711H30.3498V11.1702ZM20.5999 11.1702H18.6499V9.33711H20.5999V11.1702ZM31.3832 5.9642L33.9376 3.56276C34.3081 3.21446 34.3081 2.62785 33.9376 2.26122C33.5477 1.91293 32.9237 1.91293 32.5532 2.26122L29.6673 4.97419C28.1073 4.25926 26.3523 3.83765 24.4998 3.83765C22.6278 3.83765 20.8729 4.25928 19.313 4.99254L16.4076 2.26122C16.0371 1.91293 15.4131 1.91293 15.0427 2.26122C14.6527 2.62785 14.6527 3.21446 15.0427 3.56276L17.5971 5.9642C14.6918 7.98072 12.8002 11.1703 12.8002 14.8366H36.2002C36.2002 11.1703 34.2496 7.96237 31.3832 5.9642ZM41.0751 16.6699C39.4597 16.6699 38.1502 17.9009 38.1502 19.4195V32.2516C38.1502 33.7702 39.4597 35.0013 41.0751 35.0013C42.6905 35.0013 44 33.7702 44 32.2516V19.4195C44 17.9009 42.6905 16.6699 41.0751 16.6699ZM7.92489 16.6699C6.30952 16.6699 5 17.9009 5 19.4195V32.2516C5 33.7702 6.30952 35.0013 7.92489 35.0013C9.54026 35.0013 10.8498 33.7702 10.8498 32.2516V19.4195C10.8498 17.9009 9.54026 16.6699 7.92489 16.6699ZM12.7998 35.0013C12.7998 36.0137 13.6729 36.8344 14.7498 36.8344H16.6998V43.2503C16.6998 43.9796 17.0079 44.679 17.5564 45.1946C18.105 45.7103 18.8489 46 19.6246 46C21.24 46 22.5495 44.7689 22.5495 43.2503V36.8344H26.4494V43.2503C26.4494 44.7689 27.759 46 29.3743 46C30.9897 46 32.2992 44.7689 32.2992 43.2503V36.8344H34.2492C35.3261 36.8344 36.1991 36.0137 36.1991 35.0013V16.6699H12.7992L12.7998 35.0013Z" fill="#8BC34A"/>
</svg>
