<svg width="40" height="38" viewBox="0 0 40 38" fill="none" xmlns="http://www.w3.org/2000/svg">
<g clip-path="url(#clip0_100_748)">
<path d="M33.2639 0H7.15583C3.57214 0 0.666992 2.89224 0.666992 6.46V31.4792C0.666992 35.047 3.57214 37.9392 7.15583 37.9392H33.2639C36.8476 37.9392 39.7527 35.047 39.7527 31.4792V6.46C39.7527 2.89224 36.8476 0 33.2639 0Z" fill="#470137"/>
<path d="M21.2141 9.9767L16.3372 17.9905L21.555 26.5002C21.5884 26.5597 21.5978 26.6298 21.5812 26.6959C21.5731 26.7242 21.5557 26.7312 21.529 26.7322L21.4993 26.7318L21.4633 26.7309C21.4437 26.7308 21.4219 26.7318 21.3977 26.7357L17.6357 26.7357L17.5618 26.7346C17.3589 26.7293 17.2129 26.7004 17.1238 26.5524C16.7739 25.8737 16.4243 25.1994 16.075 24.5294C15.7688 23.9434 15.4462 23.3471 15.107 22.7408L14.9607 22.4802C14.5674 21.7845 14.1784 21.0797 13.7939 20.3659H13.7676C13.4178 21.0621 13.055 21.7582 12.6795 22.4542C12.3034 23.1504 11.932 23.8421 11.5652 24.5294C11.1981 25.217 10.8223 25.9001 10.4377 26.5785C10.3759 26.7167 10.2732 26.7455 10.13 26.7504L10.0706 26.7513H6.47851L6.46297 26.7517L6.41158 26.7564C6.38307 26.758 6.36603 26.7519 6.3605 26.709C6.35064 26.6454 6.36465 26.5803 6.39987 26.5263L11.4603 18.2515L6.53092 9.95057C6.47851 9.88126 6.46976 9.82471 6.50467 9.78092C6.54392 9.73577 6.6022 9.71159 6.66204 9.71565H10.359C10.4396 9.71127 10.5202 9.7246 10.595 9.75483C10.6577 9.79019 10.7115 9.83929 10.7523 9.8984C11.067 10.5946 11.4166 11.2907 11.8011 11.9867C12.1854 12.6829 12.5744 13.3703 12.9679 14.0488C13.3612 14.7275 13.7239 15.4149 14.0561 16.111H14.0823C14.4317 15.3976 14.7857 14.7016 15.1442 14.0228C15.5023 13.3441 15.8694 12.661 16.2454 11.9736C16.6211 11.2864 16.9839 10.6033 17.3336 9.92449C17.3537 9.86007 17.3897 9.80172 17.4384 9.75483C17.5032 9.72211 17.576 9.70851 17.6482 9.71565H21.083C21.1512 9.69889 21.222 9.73142 21.2534 9.79398C21.282 9.85085 21.2711 9.91874 21.228 9.96387L21.2141 9.9767ZM28.9199 27.0725L28.739 27.0745C27.5321 27.0928 26.3363 26.8431 25.2386 26.3436C24.2159 25.8724 23.3611 25.1032 22.7871 24.1378C22.2082 23.1807 21.9112 21.9883 21.8961 20.5605L21.8955 20.4442C21.8857 19.2461 22.1932 18.0667 22.7871 17.0246C23.3818 15.9927 24.2486 15.1432 25.2929 14.5674L25.3828 14.5187C26.5189 13.8922 27.891 13.579 29.4993 13.579L29.5697 13.5798L29.65 13.5822L29.7401 13.5863L29.8402 13.592L30.0085 13.6038L30.199 13.6191L30.3384 13.6312V8.48881C30.3384 8.36725 30.3908 8.30608 30.4957 8.30608H33.7994C33.8427 8.29992 33.8864 8.31442 33.9174 8.34522C33.9484 8.37602 33.9629 8.41954 33.9568 8.46267V23.8898C33.9568 24.149 33.9668 24.4278 33.9868 24.7265L34.0357 25.4037L34.0617 25.7954C34.0682 25.9064 34.0058 26.01 33.9043 26.0564C33.052 26.4103 32.1643 26.6728 31.2561 26.8395C30.485 26.9812 29.7036 27.0591 28.9199 27.0725ZM30.3384 23.8376V16.7114C30.1966 16.6732 30.0519 16.647 29.9058 16.6331C29.7272 16.6152 29.5477 16.6065 29.3682 16.607C28.7319 16.6007 28.1031 16.7438 27.5328 17.0246C26.9773 17.2995 26.503 17.7133 26.1563 18.2254C25.8102 18.7295 25.6312 19.3876 25.6194 20.1999L25.6188 20.2876C25.606 20.8566 25.6993 21.423 25.8941 21.9582C26.0525 22.3894 26.303 22.7812 26.6283 23.1067C26.9396 23.4062 27.3166 23.6296 27.7295 23.7593C28.1656 23.8999 28.6214 23.9704 29.0798 23.9683C29.3244 23.9683 29.5516 23.9595 29.7615 23.9421C29.929 23.9295 30.095 23.902 30.2574 23.8599L30.3384 23.8376Z" fill="#FF61F6"/>
</g>
<defs>
<clipPath id="clip0_100_748">
<rect width="39.0857" height="38" fill="white" transform="translate(0.666992)"/>
</clipPath>
</defs>
</svg>
