<svg width="42" height="42" viewBox="0 0 42 42" fill="none" xmlns="http://www.w3.org/2000/svg">
<g clip-path="url(#clip0_100_892)">
<path d="M42 0H0V42H42V0Z" fill="#FF0066"/>
<path d="M14.2922 13.5156C15.6208 13.4962 16.6839 12.4069 16.671 11.0783C16.6581 9.74964 15.574 8.68118 14.2453 8.68753C12.9167 8.69393 11.8429 9.77275 11.8428 11.1014C11.845 11.7472 12.1049 12.3653 12.5648 12.8186C13.0247 13.2718 13.6465 13.5228 14.2922 13.5156Z" fill="white"/>
<path d="M9.21265 26.4401C9.07357 27.0345 9.00089 27.6424 8.99593 28.2528C8.99593 30.378 10.1484 31.7892 12.5978 31.7892C14.629 31.7892 16.277 30.583 17.4614 28.6342L16.7374 31.5406H20.7694L23.076 22.3006C23.6522 19.9587 24.7678 18.744 26.4612 18.744C27.7934 18.744 28.6217 19.5723 28.6217 20.9415C28.6283 21.3804 28.5676 21.8178 28.4419 22.2384L27.2542 26.4871C27.0842 27.0723 26.9994 27.6788 27.0022 28.2881C27.0022 30.3041 28.1899 31.7825 30.6746 31.7825C32.7998 31.7825 34.4933 30.415 35.429 27.1373L33.8448 26.5241C33.0518 28.7215 32.3681 29.118 31.8288 29.118C31.2895 29.118 30.9989 28.7585 30.9989 28.0378C31.0145 27.6596 31.0748 27.2846 31.1786 26.9206L32.3328 22.7794C32.5919 21.928 32.7255 21.0434 32.7293 20.1535C32.7293 17.0556 30.8561 15.4395 28.5864 15.4395C26.4612 15.4395 24.3007 17.3563 23.2205 19.374L24.0118 15.7519H17.8546L16.9894 18.9439H19.8722L18.0982 26.0403C16.7038 29.1382 14.1434 29.1886 13.8226 29.1163C13.295 28.9971 12.959 28.7971 12.959 28.1083C12.9744 27.5507 13.0591 26.997 13.211 26.4603L15.9125 15.7435H9.07153L8.20801 18.9355H11.0522L9.21265 26.4401Z" fill="white"/>
</g>
<defs>
<clipPath id="clip0_100_892">
<rect width="42" height="42" fill="white"/>
</clipPath>
</defs>
</svg>
