<svg width="48" height="48" viewBox="0 0 48 48" fill="none" xmlns="http://www.w3.org/2000/svg">
<g clip-path="url(#clip0_106_1292)">
<path d="M36.7349 0.244141H11.2655C5.17912 0.244141 0.245117 5.17815 0.245117 11.2645V36.7339C0.245117 42.8203 5.17912 47.7543 11.2655 47.7543H36.7349C42.8213 47.7543 47.7553 42.8203 47.7553 36.7339V11.2645C47.7553 5.17815 42.8213 0.244141 36.7349 0.244141Z" fill="url(#paint0_linear_106_1292)" stroke="#D9D9D9"/>
<path fill-rule="evenodd" clip-rule="evenodd" d="M8.05288 33.6833H6.93533V18.7497H8.05288V33.6833ZM7.4782 15.0889C7.00692 15.0889 6.61719 14.7151 6.61719 14.2438C6.61719 13.7586 7.00493 13.3828 7.4782 13.3828C7.96339 13.3828 8.34916 13.7566 8.34916 14.2438C8.34916 14.7151 7.96339 15.0889 7.4782 15.0889Z" fill="url(#paint1_linear_106_1292)"/>
<path fill-rule="evenodd" clip-rule="evenodd" d="M18.9077 33.9736C13.4433 33.9736 9.99121 29.9945 9.99121 23.6693C9.99121 17.3756 13.4592 13.3809 18.9077 13.3809C24.3562 13.3809 27.8222 17.3759 27.8222 23.6693C27.8222 29.9947 24.3701 33.9736 18.9077 33.9736ZM18.9077 14.4087C14.1513 14.4087 11.1148 17.9999 11.1148 23.669C11.1148 29.3423 14.1653 32.9475 18.9077 32.9475C23.6641 32.9475 26.7006 29.3423 26.7006 23.669C26.7006 17.9979 23.6641 14.4087 18.9077 14.4087Z" fill="url(#paint2_linear_106_1292)"/>
<path fill-rule="evenodd" clip-rule="evenodd" d="M35.7796 33.9739C31.6773 33.9739 28.7364 31.6572 28.5693 28.3444H29.665C29.832 31.0608 32.3834 32.9617 35.8631 32.9617C39.2594 32.9617 41.6297 31.0329 41.6297 28.4279C41.6297 26.332 40.2159 25.1269 36.8613 24.2818L34.491 23.6991C30.7904 22.7546 29.1101 21.2573 29.1101 18.7498C29.1101 15.6298 32.0232 13.3828 35.6702 13.3828C39.4404 13.3828 42.256 15.602 42.3814 18.5411H41.2857C41.1326 16.143 38.7902 14.395 35.6423 14.395C32.6318 14.395 30.2335 16.1986 30.2335 18.7218C30.2335 20.7203 31.703 21.8698 34.9184 22.673L37.1515 23.2417C41.0191 24.1982 42.753 25.6836 42.753 28.3442C42.753 31.6569 39.9671 33.9736 35.7793 33.9736L35.7796 33.9739Z" fill="url(#paint3_linear_106_1292)"/>
</g>
<defs>
<linearGradient id="paint0_linear_106_1292" x1="2375.76" y1="2375.75" x2="2375.76" y2="4751.26" gradientUnits="userSpaceOnUse">
<stop stop-color="white"/>
<stop offset="1" stop-color="#E9E5E5"/>
</linearGradient>
<linearGradient id="paint1_linear_106_1292" x1="93.2156" y1="13.3828" x2="93.2156" y2="1780.58" gradientUnits="userSpaceOnUse">
<stop stop-color="#0339F1"/>
<stop offset="1" stop-color="#01ADE5"/>
</linearGradient>
<linearGradient id="paint2_linear_106_1292" x1="259.822" y1="209.726" x2="1491.79" y2="1387.69" gradientUnits="userSpaceOnUse">
<stop stop-color="#0756EE"/>
<stop offset="0.37448" stop-color="#00A3F5"/>
<stop offset="0.71708" stop-color="#18B5B6"/>
<stop offset="1" stop-color="#80DF43"/>
</linearGradient>
<linearGradient id="paint3_linear_106_1292" x1="213.198" y1="76.6549" x2="1722.94" y2="1315.35" gradientUnits="userSpaceOnUse">
<stop stop-color="#20BBA6"/>
<stop offset="0.4988" stop-color="#9BEC23"/>
<stop offset="1" stop-color="#D9EF35"/>
</linearGradient>
<clipPath id="clip0_106_1292">
<rect width="48" height="48" fill="white"/>
</clipPath>
</defs>
</svg>
