<svg width="41" height="40" viewBox="0 0 41 40" fill="none" xmlns="http://www.w3.org/2000/svg">
<g clip-path="url(#clip0_100_750)">
<path d="M7.91937 0.5H33.7525C37.6694 0.5 40.8359 3.66656 40.8359 7.58344V32.4166C40.8359 36.3334 37.6694 39.5 33.7525 39.5H7.91937C4.0025 39.5 0.835938 36.3334 0.835938 32.4166V7.58344C0.835938 3.66656 4.0025 0.5 7.91937 0.5Z" fill="#001E36"/>
<path d="M15.1694 10.416C14.6694 10.416 14.1694 10.416 13.6528 10.4329C13.1359 10.4495 12.6525 10.4495 12.2025 10.4663C11.7525 10.4829 11.3359 10.4829 10.9359 10.4995C10.5525 10.516 10.2859 10.516 10.0025 10.516C9.88594 10.516 9.83594 10.5826 9.83594 10.6995V27.8495C9.83594 27.9995 9.9025 28.0663 10.0359 28.0663H13.2694C13.3859 28.0495 13.4694 27.9495 13.4525 27.8329V22.4829C13.7691 22.4829 14.0025 22.4829 14.1694 22.4995C14.3359 22.516 14.6025 22.516 15.0025 22.516C16.3694 22.516 17.6194 22.366 18.7525 21.9495C19.8359 21.5495 20.7694 20.8495 21.4359 19.916C22.1025 18.9829 22.4359 17.7995 22.4359 16.366C22.4359 15.616 22.3028 14.8995 22.0528 14.1995C21.7881 13.4862 21.3731 12.8382 20.8359 12.2995C20.2021 11.6837 19.4392 11.2168 18.6025 10.9326C17.6691 10.5826 16.5359 10.416 15.1694 10.416ZM15.5413 13.6988C16.135 13.7101 16.7131 13.8138 17.2525 14.0326C17.7359 14.216 18.1359 14.5495 18.4194 14.9826C18.6855 15.4307 18.8185 15.9454 18.8028 16.4663C18.8028 17.1995 18.6359 17.7663 18.2859 18.1829C17.9191 18.5995 17.4525 18.9163 16.9194 19.0663C16.3025 19.2663 15.6525 19.366 15.0025 19.366H14.1191C13.9191 19.366 13.7028 19.3495 13.4694 19.3329V13.7329C13.5859 13.716 13.8194 13.6995 14.1528 13.7163C14.4694 13.6995 14.8525 13.6995 15.2859 13.6995C15.3713 13.6973 15.4566 13.697 15.5413 13.6988ZM29.5194 14.5498C28.3359 14.5498 27.3525 14.7329 26.5694 15.1329C25.8528 15.4663 25.2359 15.9995 24.8194 16.666C24.4528 17.2829 24.2525 17.966 24.2525 18.6829C24.2382 19.2725 24.3699 19.8565 24.6359 20.3829C24.9477 20.9434 25.3805 21.4273 25.9028 21.7995C26.636 22.3008 27.4316 22.7042 28.2694 22.9995C29.0859 23.316 29.6359 23.566 29.9028 23.7826C30.1694 23.9995 30.3028 24.216 30.3028 24.4495C30.3028 24.7495 30.1194 25.0329 29.8528 25.1495C29.5528 25.2995 29.1028 25.3829 28.4694 25.3829C27.8028 25.3829 27.1359 25.2995 26.5025 25.1329C25.7752 24.9703 25.0779 24.6948 24.4359 24.3163C24.3859 24.2829 24.3359 24.2663 24.2859 24.2998C24.2359 24.3329 24.2194 24.3995 24.2194 24.4495V27.3495C24.2028 27.4829 24.2859 27.5995 24.4028 27.666C24.9433 27.9185 25.515 28.0979 26.1028 28.1995C26.8528 28.3495 27.6025 28.416 28.3691 28.416C29.5691 28.416 30.5694 28.2329 31.3859 27.8829C32.1359 27.5829 32.7859 27.0663 33.2525 26.3995C33.6893 25.7438 33.916 24.9706 33.9025 24.1829C33.9188 23.5878 33.7871 22.998 33.5194 22.4663C33.2025 21.8995 32.7525 21.4329 32.2025 21.0829C31.3979 20.5777 30.5364 20.1692 29.6359 19.866C29.2338 19.6997 28.8389 19.5162 28.4525 19.316C28.2359 19.1995 28.0359 19.0495 27.8859 18.866C27.7859 18.7326 27.7194 18.5829 27.7194 18.4329C27.7194 18.2829 27.7694 18.1163 27.8525 17.9829C27.9694 17.8163 28.1525 17.6995 28.3691 17.6495C28.6859 17.5663 29.0359 17.516 29.3691 17.5326C30.0025 17.5326 30.6191 17.616 31.2359 17.7495C31.8028 17.866 32.3359 18.0495 32.8359 18.3163C32.9025 18.3495 32.9859 18.3495 33.1359 18.3163C33.1621 18.2971 33.1832 18.2719 33.1977 18.2429C33.2122 18.2139 33.2197 18.1819 33.2194 18.1495V15.4329C33.2194 15.366 33.2025 15.2995 33.1859 15.2329C33.1525 15.1663 33.0859 15.0995 33.0194 15.0829C32.5597 14.8949 32.0781 14.766 31.5859 14.6995C30.9016 14.5998 30.2109 14.55 29.5194 14.5498Z" fill="#31A8FF"/>
</g>
<defs>
<clipPath id="clip0_100_750">
<rect width="40" height="40" fill="white" transform="translate(0.835938)"/>
</clipPath>
</defs>
</svg>
