<svg width="53" height="42" viewBox="0 0 53 42" fill="none" xmlns="http://www.w3.org/2000/svg">
<g clip-path="url(#clip0_111_1712)">
<path d="M34.7116 11.5844L39.2486 7.04734L39.551 5.13695C31.2833 -2.38084 18.1407 -1.52841 10.6878 6.91563C8.61755 9.26091 7.0817 12.1848 6.2627 15.2041L7.88765 14.9751L16.9615 13.4788L17.662 12.7624C21.6983 8.32957 28.5229 7.73321 33.1833 11.5048L34.7116 11.5844Z" fill="#EA4335"/>
<path d="M45.7114 15.0703C44.6685 11.23 42.5275 7.77762 39.5506 5.13672L33.1829 11.5044C35.8717 13.7015 37.4035 17.0113 37.3379 20.4828V21.6132C40.4677 21.6132 43.0052 24.1505 43.0052 27.2803C43.0052 30.4103 40.4677 32.884 37.3379 32.884H25.9875L24.873 34.0939V40.8914L25.9875 41.9579H37.3379C45.4789 42.0213 52.13 35.5368 52.1934 27.3957C52.2318 22.4611 49.7988 17.835 45.7114 15.0703Z" fill="#4285F4"/>
<path d="M14.6528 41.9583H25.9873V32.8843H14.6528C13.8452 32.8841 13.0631 32.7106 12.3287 32.375L10.7207 32.8684L6.15189 37.4054L5.75391 38.9496C8.31611 40.8843 11.4423 41.9722 14.6528 41.9583Z" fill="#34A853"/>
<path d="M14.6532 12.5235C6.5119 12.5721 -0.0482568 19.2113 0.000267467 27.3524C0.027384 31.8986 2.15063 36.1781 5.75427 38.9495L12.3291 32.3749C9.47657 31.0861 8.20903 27.7292 9.49777 24.8768C10.7863 22.0245 14.1435 20.757 16.9956 22.0455C18.2525 22.6133 19.2591 23.6201 19.8269 24.8768L26.4018 18.3022C23.6043 14.6451 19.2575 12.507 14.6532 12.5235Z" fill="#FBBC05"/>
</g>
<defs>
<clipPath id="clip0_111_1712">
<rect width="52.1942" height="42" fill="white"/>
</clipPath>
</defs>
</svg>
