<svg width="42" height="42" viewBox="0 0 42 42" fill="none" xmlns="http://www.w3.org/2000/svg">
<g clip-path="url(#clip0_110_1252)">
<path d="M3.28125 0H38.7188C40.5309 0 42 1.46907 42 3.28125V38.7188C42 40.5309 40.5309 42 38.7188 42H3.28125C1.46907 42 0 40.5309 0 38.7188V3.28125C0 1.46907 1.46907 0 3.28125 0Z" fill="#3178C6"/>
<path d="M24.6944 32.8904V37.4218C25.4313 37.7995 26.303 38.0827 27.3092 38.2715C28.3154 38.4604 29.3759 38.5547 30.4909 38.5547C31.5773 38.5547 32.6096 38.4508 33.5874 38.2431C34.5652 38.0354 35.4227 37.6932 36.1595 37.2166C36.8965 36.7398 37.4799 36.1167 37.9099 35.3473C38.3398 34.578 38.5547 33.6269 38.5547 32.4941C38.5547 31.6728 38.4318 30.9529 38.1862 30.3345C37.9406 29.7161 37.5862 29.1662 37.1232 28.6849C36.6604 28.2033 36.1052 27.7715 35.4582 27.3891C34.8109 27.0068 34.081 26.6457 33.2684 26.3059C32.6732 26.0603 32.1395 25.8221 31.667 25.5908C31.1947 25.3595 30.7931 25.1235 30.4625 24.8827C30.1317 24.642 29.8766 24.3871 29.6971 24.118C29.5176 23.8489 29.4279 23.5446 29.4279 23.2047C29.4279 22.8931 29.5081 22.6124 29.6687 22.3622C29.8294 22.112 30.0562 21.8973 30.3491 21.7179C30.642 21.5385 31.0009 21.3993 31.4262 21.3001C31.8513 21.201 32.3238 21.1514 32.8433 21.1514C33.2213 21.1514 33.6205 21.1798 34.0408 21.2364C34.4613 21.293 34.8841 21.3803 35.3094 21.4984C35.7345 21.6164 36.1477 21.765 36.5494 21.9445C36.9508 22.1238 37.3218 22.3315 37.6619 22.5675V18.3335C36.9721 18.0692 36.2186 17.8733 35.4014 17.7458C34.5842 17.6183 33.6464 17.5547 32.5882 17.5547C31.5112 17.5547 30.4909 17.6704 29.5271 17.9017C28.5634 18.1328 27.7154 18.4939 26.9832 18.9848C26.251 19.4759 25.6723 20.1013 25.2471 20.8612C24.822 21.6211 24.6094 22.5297 24.6094 23.5871C24.6094 24.937 24.999 26.0887 25.7786 27.0423C26.5581 27.9956 27.7413 28.8028 29.3286 29.4637C29.9522 29.7186 30.5333 29.9686 31.0718 30.2142C31.6104 30.4597 32.0757 30.7145 32.4678 30.9788C32.8599 31.2431 33.1693 31.531 33.3961 31.8426C33.6228 32.1541 33.7362 32.5082 33.7362 32.9047C33.7362 33.1972 33.6653 33.4687 33.5235 33.7189C33.382 33.969 33.1669 34.1862 32.8788 34.3703C32.5907 34.5543 32.2316 34.6982 31.8017 34.8021C31.3719 34.9059 30.8687 34.9579 30.2923 34.9579C29.3098 34.9579 28.3367 34.7857 27.373 34.441C26.4091 34.0965 25.5163 33.5797 24.6944 32.8904ZM17.1416 21.6139H22.9688V17.8828H6.72656V21.6139H12.5253V38.2266H17.1416V21.6139Z" fill="white"/>
</g>
<defs>
<clipPath id="clip0_110_1252">
<rect width="42" height="42" fill="white"/>
</clipPath>
</defs>
</svg>
