<svg width="29" height="43" viewBox="0 0 29 43" fill="none" xmlns="http://www.w3.org/2000/svg">
<g clip-path="url(#clip0_100_706)">
<path d="M7.16667 42.9994C11.1227 42.9994 14.3333 39.7887 14.3333 35.8327V28.666H7.16667C3.21067 28.666 0 31.8767 0 35.8327C0 39.7887 3.21067 42.9994 7.16667 42.9994Z" fill="#0ACF83"/>
<path d="M0 21.5007C0 17.5447 3.21067 14.334 7.16667 14.334H14.3333V28.6673H7.16667C3.21067 28.6673 0 25.4567 0 21.5007Z" fill="#A259FF"/>
<path d="M0 7.16667C0 3.21067 3.21067 0 7.16667 0H14.3333V14.3333H7.16667C3.21067 14.3333 0 11.1227 0 7.16667Z" fill="#F24E1E"/>
<path d="M14.333 0H21.4997C25.4557 0 28.6663 3.21067 28.6663 7.16667C28.6663 11.1227 25.4557 14.3333 21.4997 14.3333H14.333V0Z" fill="#FF7262"/>
<path d="M28.6663 21.5007C28.6663 25.4567 25.4557 28.6673 21.4997 28.6673C17.5437 28.6673 14.333 25.4567 14.333 21.5007C14.333 17.5447 17.5437 14.334 21.4997 14.334C25.4557 14.334 28.6663 17.5447 28.6663 21.5007Z" fill="#1ABCFE"/>
</g>
<defs>
<clipPath id="clip0_100_706">
<rect width="28.6667" height="43" fill="white"/>
</clipPath>
</defs>
</svg>
