<svg width="42" height="42" viewBox="0 0 42 42" fill="none" xmlns="http://www.w3.org/2000/svg">
<g clip-path="url(#clip0_107_959)">
<path d="M0 0H42V42H0" fill="#F7DF1E"/>
<path d="M26.5781 30.3516C27.5078 31.9375 28.7383 32.7305 30.2695 32.7305C32.1836 32.7305 33.1406 31.9922 33.1406 30.5156C33.1406 29.6133 31.9102 28.793 29.9414 27.9727C26.2773 26.7695 24.4727 24.7188 24.5273 21.8203C24.5273 18.8672 26.7422 16.5703 30.2695 16.5703C32.8945 16.5703 34.7539 17.6367 35.8477 19.7695L32.8125 21.7383C32.1562 20.5352 31.3086 19.9609 30.2695 20.0156C29.0664 20.0703 28.4375 20.6445 28.3828 21.7383C28.3828 22.8867 29.1211 23.3789 31.582 24.4453C35.1094 25.8398 37.0781 27.3984 37.0781 30.7617C36.9141 34.3164 34.7539 36.1484 30.5977 36.2578C27.1523 36.2578 24.7188 34.918 23.2969 32.2383L26.5781 30.3516ZM12.6328 30.6797C13.2891 31.7461 13.6992 32.7305 15.3398 32.7305C16.6523 32.7305 17.3086 31.9102 17.3086 30.2695V16.6523H21.2461V30.1055C21.1914 33.9883 19.2227 35.957 15.3398 36.0117C12.4414 35.957 10.4727 34.7539 9.43359 32.4023L12.6328 30.6797Z" fill="black"/>
</g>
<defs>
<clipPath id="clip0_107_959">
<rect width="42" height="42" fill="white"/>
</clipPath>
</defs>
</svg>
