<svg width="53" height="42" viewBox="0 0 53 42" fill="none" xmlns="http://www.w3.org/2000/svg">
<g clip-path="url(#clip0_100_899)">
<path d="M8.15282 28.9062L5.40904 29.9086L5.26172 38.0711L14.7598 34.6014C11.502 33.5071 9.12306 31.5817 8.15282 28.9062Z" fill="#FDBD39"/>
<path d="M9.58837 20.2734L0.0683594 23.7512L5.40869 29.9091L8.15248 28.9067C7.18507 26.239 7.78166 23.2235 9.58837 20.2734Z" fill="#F69833"/>
<path d="M25.6085 8.49482C13.4857 12.9234 5.67016 22.0619 8.15213 28.9062L52.0528 12.8687C49.5709 6.02441 37.7314 4.06617 25.6085 8.49482Z" fill="#FECF33"/>
<path d="M34.5966 33.2805C46.7195 28.8519 54.5497 19.7539 52.0531 12.8691L8.15234 28.9066C10.649 35.7914 22.4738 37.7091 34.5966 33.2805Z" fill="#EE6723"/>
<path d="M52.0531 12.8691L8.15234 28.9066C9.01198 31.2772 12.2901 32.4451 16.8897 32.4451C21.374 32.4451 27.1142 31.3358 33.0986 29.1496C45.2215 24.721 53.7508 17.5508 52.0531 12.8691Z" fill="#F69833"/>
<path d="M43.3162 9.33008C38.8319 9.33008 33.0917 10.4393 27.1072 12.6255C14.9843 17.0542 6.45509 24.2244 8.15283 28.906L52.0535 12.8685C51.1939 10.498 47.9158 9.33008 43.3162 9.33008Z" fill="#FDBD39"/>
<path d="M40.891 38.5022H40.8907C39.5991 38.5022 37.6935 37.3355 35.2269 35.0345C32.3088 32.3123 28.9661 28.3251 25.8144 23.8074C22.6629 19.29 20.0732 14.7736 18.5225 11.0901C16.8329 7.07609 16.592 4.608 17.8064 3.75435C18.0727 3.56738 18.3937 3.47266 18.7604 3.47266C19.7483 3.47266 21.6731 4.20813 25.2324 7.71213L25.3102 7.78871L25.2997 7.89761C25.2754 8.14934 25.2529 8.40332 25.2329 8.6526L25.1933 9.14759L24.8441 8.79579C21.0091 4.93218 19.3209 4.51507 18.773 4.51507C18.6168 4.51507 18.4924 4.54684 18.4032 4.60954C17.8764 4.97968 17.8425 6.79256 19.4805 10.6837C21.0036 14.3015 23.5556 18.7496 26.6664 23.2086C29.7774 27.668 33.069 31.5963 35.9349 34.2698C39.0254 37.1528 40.4181 37.4641 40.8735 37.4641C41.0307 37.4641 41.1584 37.4303 41.2532 37.3637C41.8089 36.9732 41.8095 35.0311 39.9828 30.8429L39.899 30.6507L40.0826 30.5502C40.2662 30.4497 40.4437 30.3507 40.6102 30.256L40.8301 30.1311L40.9315 30.3633C42.2268 33.331 43.4375 37.1028 41.8499 38.2188C41.5822 38.4069 41.2597 38.5022 40.891 38.5022ZM40.8907 38.0444H40.8911L40.8908 38.2733L40.8907 38.0444Z" fill="#EE6723"/>
<path d="M34.8907 33.1548L34.8722 33.3828C34.5658 37.1752 33.7588 41.7344 31.6547 41.919C31.6124 41.9227 31.5685 41.9247 31.5246 41.9247C30.0952 41.9247 28.7429 39.8767 27.5054 35.8377C26.3344 32.0164 25.4258 26.8859 24.9469 21.3911C24.4679 15.8974 24.4751 10.6864 24.9671 6.71815C25.5033 2.39396 26.5243 0.135724 28.0014 0.00610032C28.0451 0.00207473 28.0903 0 28.135 0C29.1719 0 30.7347 1.17411 32.3345 6.6429L31.2899 6.84452C30.7557 5.017 30.1736 3.53063 29.5957 2.50927C29.0612 1.56456 28.5414 1.0443 28.1321 1.0443C28.1186 1.0443 28.1051 1.04486 28.0917 1.046C27.4515 1.10224 26.5191 2.65528 25.9992 6.84709C25.516 10.7442 25.5102 15.877 25.9828 21.3002C26.4558 26.7242 27.3495 31.7781 28.4995 35.5308C29.0144 37.2116 29.5793 38.5967 30.133 39.5367C30.6436 40.4034 31.1377 40.8808 31.5243 40.8808C31.5376 40.8808 31.5508 40.8802 31.564 40.8791C32.1766 40.8254 33.3311 39.2093 33.817 33.5232L34.8907 33.1548Z" fill="#EE6723"/>
</g>
<defs>
<clipPath id="clip0_100_899">
<rect width="52.4488" height="42" fill="white" transform="translate(0.0683594)"/>
</clipPath>
</defs>
</svg>
