<svg width="43" height="42" viewBox="0 0 43 42" fill="none" xmlns="http://www.w3.org/2000/svg">
<g clip-path="url(#clip0_100_894)">
<path d="M0.0683594 10.5C0.0683594 4.70101 4.76937 0 10.5684 0H31.5684C37.3674 0 42.0684 4.70101 42.0684 10.5V31.5C42.0684 37.299 37.3674 42 31.5684 42H10.5684C4.76937 42 0.0683594 37.299 0.0683594 31.5V10.5Z" fill="#FFDD33"/>
<path d="M27.991 8.00586H24.1783L27.3555 13.5882L20.3656 8.00586H16.5531L20.048 14.8289L12.7404 8.00586H8.92773L12.7404 16.6908L8.92773 34.059H12.7404L20.048 15.4501L16.5531 34.059H20.3656L27.3555 14.2094L24.1783 34.059H27.991L34.9809 12.3475L27.991 8.00586Z" fill="black"/>
</g>
<defs>
<clipPath id="clip0_100_894">
<rect width="42" height="42" fill="white" transform="translate(0.0683594)"/>
</clipPath>
</defs>
</svg>
