<svg width="41" height="39" viewBox="0 0 41 39" fill="none" xmlns="http://www.w3.org/2000/svg">
<g clip-path="url(#clip0_100_749)">
<path d="M34.1808 0H7.40641C3.73126 0 0.751953 2.96835 0.751953 6.63V32.3076C0.751953 35.9693 3.73126 38.9376 7.40641 38.9376H34.1808C37.856 38.9376 40.8353 35.9693 40.8353 32.3076V6.63C40.8353 2.96835 37.856 0 34.1808 0Z" fill="#330000"/>
<path d="M20.1762 23.3682H13.9648L12.701 27.2796C12.6655 27.4267 12.53 27.5279 12.3783 27.5207H9.23231C9.0529 27.5207 8.99016 27.4225 9.04409 27.226L14.4219 11.7947C14.4757 11.634 14.5295 11.4509 14.5833 11.2455C14.6536 10.8881 14.6896 10.5248 14.6908 10.1606C14.6834 10.1089 14.7009 10.0568 14.7379 10.0199C14.7749 9.98301 14.8272 9.96563 14.8791 9.97298H19.1544C19.2796 9.97298 19.3514 10.0176 19.3695 10.107L25.4734 27.2528C25.5272 27.4315 25.4734 27.5208 25.312 27.5207H21.8164C21.6922 27.5344 21.5771 27.4541 21.5475 27.3332L20.1762 23.3682ZM14.9328 19.9926H19.1813L19.1209 19.7934L19.0235 19.4779L18.9542 19.2565L18.8435 18.9077L18.6081 18.1734L18.4011 17.5223L17.8637 15.8267C17.7254 15.3904 17.597 14.9672 17.4785 14.5572L17.3801 14.2125L17.2652 13.8048L17.0898 13.1731C17.0787 13.1329 17.0678 13.0932 17.0571 13.0539H17.0302C16.8956 13.697 16.7318 14.3337 16.5391 14.9619L16.1402 16.2403L15.9207 16.9467L15.6991 17.6618C15.6591 17.791 15.6192 17.9187 15.5794 18.0449L15.4604 18.4191L15.342 18.7844L15.2243 19.1407L15.1072 19.4882C15.0683 19.6025 15.0295 19.7153 14.9908 19.8267L14.9328 19.9926ZM29.1031 12.8128C28.5484 12.835 28.0105 12.6206 27.6242 12.2234C27.2395 11.8095 27.0363 11.26 27.0595 10.6964C27.0397 10.1376 27.2598 9.59681 27.6645 9.20948C28.051 8.83986 28.5653 8.63377 29.0996 8.63281L29.1569 8.6335C29.8023 8.6335 30.3087 8.82549 30.6761 9.20948C31.0508 9.61251 31.2491 10.1475 31.2273 10.6964C31.2501 11.2624 31.0415 11.8133 30.6492 12.2234C30.2527 12.6128 29.7157 12.8255 29.1606 12.8147L29.1031 12.8128ZM27.2477 27.2528V14.447C27.2477 14.2863 27.3191 14.2059 27.4628 14.2059H30.7703C30.9135 14.2059 30.9852 14.2862 30.9854 14.447V27.2528C30.9854 27.4315 30.9137 27.5208 30.7703 27.5207H27.4897C27.3369 27.5207 27.2565 27.4406 27.2484 27.2802L27.2477 27.2528Z" fill="#FF9A00"/>
</g>
<defs>
<clipPath id="clip0_100_749">
<rect width="40.0833" height="39" fill="white" transform="translate(0.751953)"/>
</clipPath>
</defs>
</svg>
