<svg width="47" height="42" viewBox="0 0 47 42" fill="none" xmlns="http://www.w3.org/2000/svg">
<g clip-path="url(#clip0_100_751)">
<path d="M23.745 0L10.8327 1.38093L0.835938 14.9547L23.745 41.9388L46.6541 14.9547L36.6575 1.38093L23.745 0Z" fill="#FDB300"/>
<path d="M0.835938 14.9551L23.745 41.939L10.1152 14.9551H0.835938Z" fill="#EB6C00"/>
<path d="M37.3748 14.9551L23.7451 41.939L46.654 14.9551H37.3748Z" fill="#EB6C00"/>
<path d="M10.1152 14.9551L23.7451 41.939L37.3749 14.9551H10.1152Z" fill="#FDAD00"/>
<path d="M10.8328 1.38093L10.1152 14.9547L23.7451 0L10.8328 1.38093Z" fill="#FDD231"/>
<path d="M37.3748 14.9547L36.6574 1.38075L23.7451 0L37.3748 14.9547Z" fill="#FDD231"/>
<path d="M37.3747 14.9548H46.6538L36.6572 1.38086L37.3747 14.9548Z" fill="#FDAD00"/>
<path d="M0.835938 14.9548H10.1152L10.8327 1.38086L0.835938 14.9548Z" fill="#FDAD00"/>
<path d="M23.7451 0L10.1152 14.9547H37.3749L23.7451 0Z" fill="#FEEEB7"/>
</g>
<defs>
<clipPath id="clip0_100_751">
<rect width="45.8182" height="42" fill="white" transform="translate(0.835938)"/>
</clipPath>
</defs>
</svg>
