<svg width="43" height="48" viewBox="0 0 43 48" fill="none" xmlns="http://www.w3.org/2000/svg">
<path d="M36.7845 9.42657C36.7515 9.18642 36.5413 9.05369 36.3675 9.03912C36.1941 9.02454 32.5237 8.75256 32.5237 8.75256C32.5237 8.75256 29.9746 6.22185 29.6949 5.94181C29.4149 5.66178 28.8682 5.74694 28.6561 5.80947C28.6246 5.81867 28.0991 5.98094 27.2294 6.24986C26.3778 3.79971 24.8752 1.5479 22.2313 1.5479C22.1584 1.5479 22.0832 1.55096 22.0081 1.55518C21.2562 0.560856 20.3248 0.128906 19.5203 0.128906C13.3618 0.128906 10.4195 7.82766 9.49686 11.7401C7.10388 12.4817 5.4037 13.0088 5.18657 13.077C3.85083 13.4959 3.80863 13.5381 3.63332 14.7968C3.50097 15.7497 0.00585938 42.7791 0.00585938 42.7791L27.2406 47.882L41.9974 44.6895C41.9974 44.6895 36.8171 9.66671 36.7845 9.42657ZM25.7241 6.71556C25.0401 6.92732 24.2626 7.16785 23.4198 7.4287C23.4205 7.26643 23.4213 7.10647 23.4213 6.93192C23.4213 5.40897 23.2099 4.18294 22.8708 3.21086C24.233 3.38196 25.1403 4.93176 25.7241 6.71556ZM21.181 3.51277C21.5596 4.46183 21.8059 5.82366 21.8059 7.66156C21.8059 7.75554 21.8051 7.84147 21.8044 7.92855C20.3056 8.39273 18.6771 8.8968 17.0449 9.4024C17.9613 5.86547 19.6791 4.15724 21.181 3.51277ZM19.3511 1.78075C19.617 1.78075 19.8848 1.8709 20.141 2.04736C18.1673 2.97609 16.0517 5.31537 15.1582 9.98664C13.8524 10.391 12.5761 10.7861 11.3961 11.1517C12.4426 7.58867 14.9277 1.78075 19.3511 1.78075Z" fill="#95BF46"/>
<path d="M36.3676 9.0397C36.1942 9.02513 32.5238 8.75314 32.5238 8.75314C32.5238 8.75314 29.9747 6.22244 29.695 5.9424C29.5903 5.83806 29.4491 5.78474 29.3014 5.76172L27.2422 47.8822L41.9975 44.6901C41.9975 44.6901 36.8172 9.6673 36.7846 9.42715C36.7516 9.18701 36.5414 9.05428 36.3676 9.0397Z" fill="#5E8E3E"/>
<path d="M22.2315 17.1936L20.412 22.606C20.412 22.606 18.8177 21.7552 16.8635 21.7552C13.9987 21.7552 13.8545 23.5532 13.8545 24.0062C13.8545 26.4782 20.2984 27.4254 20.2984 33.2156C20.2984 37.7711 17.409 40.7046 13.5131 40.7046C8.83795 40.7046 6.44727 37.7948 6.44727 37.7948L7.699 33.6591C7.699 33.6591 10.1564 35.769 12.2303 35.769C13.5852 35.769 14.1364 34.7021 14.1364 33.9226C14.1364 30.698 8.84984 30.5541 8.84984 25.2556C8.84984 20.7961 12.0507 16.4805 18.5119 16.4805C21.0016 16.4805 22.2315 17.1936 22.2315 17.1936Z" fill="white"/>
</svg>
