<svg width="42" height="42" viewBox="0 0 42 42" fill="none" xmlns="http://www.w3.org/2000/svg">
<path d="M38.048 20.1757C37.7937 20.2373 33.6206 21.3718 33.6206 21.3718L30.2081 16.2419C30.1127 16.0935 30.0325 15.9451 30.2718 15.9105C30.5106 15.8753 34.3886 15.108 34.5638 15.064C34.7394 15.02 34.8899 14.9678 35.1056 15.291C35.3203 15.6136 38.2713 19.7047 38.3827 19.8624C38.4941 20.0196 38.3029 20.1153 38.048 20.1757ZM37.3207 29.0164C37.425 29.1961 37.5294 29.3104 37.2018 29.4407C36.8747 29.5715 26.1544 33.5355 25.9459 33.6328C25.7377 33.7307 25.5746 33.7637 25.3057 33.3393C25.0378 32.9161 21.5501 26.3021 21.5501 26.3021L32.9144 23.0625C33.2475 22.9471 33.3258 22.99 33.4653 23.2098C33.6559 23.5111 37.2172 28.8377 37.3207 29.0164ZM18.9159 25.2375C18.7775 25.2737 12.2485 26.9821 11.9008 27.0694C11.5521 27.1562 11.5521 27.1133 11.5124 26.9814C11.4723 26.8511 3.75128 9.40747 3.6439 9.18917C3.53654 8.97151 3.54206 8.79892 3.6439 8.79892C3.74524 8.79892 9.80875 8.20529 10.0235 8.19266C10.2377 8.18002 10.2152 8.22948 10.2944 8.37789L18.9957 24.8343C19.1447 25.1174 19.216 25.1589 18.9159 25.2375ZM35.7036 14.5245C35.0825 13.7039 34.7805 13.8523 34.3977 13.9133C34.0154 13.9738 29.5564 14.7944 29.0387 14.89C28.5209 14.9862 28.1943 15.2132 28.5129 15.7019C28.7964 16.1361 31.7277 20.6889 32.3734 21.6919L20.7191 24.7506L11.4479 7.77244C11.0796 7.17331 11.0029 6.96336 10.1635 7.00512C9.3232 7.04634 2.89206 7.63172 2.43396 7.67404C1.97592 7.71581 1.47272 7.93898 1.93077 9.12402C2.3893 10.3091 9.693 27.5523 9.89657 28.0542C10.1003 28.5566 10.629 29.3706 11.8683 29.0447C13.1386 28.7094 17.5424 27.4507 19.9475 26.7609C21.2188 29.2827 23.8116 34.3995 24.2912 35.1322C24.9313 36.1105 25.3718 35.9495 26.3546 35.623C27.1222 35.3685 38.3616 30.9399 38.8678 30.712C39.3745 30.4839 39.6866 30.3206 39.3444 29.7666C39.0926 29.3582 36.1277 25.0066 34.5743 22.73C35.6379 22.4195 39.4206 21.3163 39.8235 21.1965C40.2931 21.0569 40.3573 20.8041 40.1024 20.4902C39.8476 20.1758 36.3232 15.3427 35.7025 14.5226L35.7036 14.5245Z" fill="#FF5722"/>
</svg>
