<svg width="44" height="42" viewBox="0 0 44 42" fill="none" xmlns="http://www.w3.org/2000/svg">
<g clip-path="url(#clip0_100_823)">
<path d="M7.62667 0.00390625H35.4414C39.6585 0.00390625 43.0681 3.41352 43.0681 7.63058V34.3686C43.0681 38.5857 39.6585 41.9953 35.4414 41.9953H7.62667C3.40961 41.9953 0 38.5857 0 34.3686V7.63058C0 3.41352 3.40961 0.00390625 7.62667 0.00390625Z" fill="#00005B"/>
<path d="M17.2991 25.127H10.6236L9.25971 29.3619C9.22388 29.5233 9.0802 29.631 8.91878 29.6131H5.54517C5.34775 29.6131 5.294 29.5054 5.34775 29.2901L11.1261 12.7268C11.1799 12.5473 11.2338 12.3859 11.3056 12.1705C11.3775 11.7938 11.4133 11.3989 11.4133 11.0041C11.3954 10.9143 11.467 10.8246 11.5568 10.8066H16.2045C16.3301 10.8066 16.4199 10.8604 16.4378 10.9501L22.9877 29.2541C23.0417 29.4515 22.9877 29.5413 22.8082 29.5413H19.0577C18.9321 29.5592 18.8065 29.4694 18.7705 29.3438L17.299 25.037V25.1268L17.2991 25.127ZM11.6645 21.5559H16.2224C16.1148 21.1792 15.9713 20.7304 15.8097 20.2639C15.6481 19.7794 15.4867 19.259 15.3252 18.7207C15.1457 18.1644 14.9843 17.626 14.8048 17.0698C14.6253 16.5135 14.4639 15.9931 14.3204 15.4726C14.1769 14.9701 14.0513 14.5036 13.9255 14.0729H13.8897C13.7281 14.8445 13.5309 15.6161 13.2795 16.3879C13.0104 17.2493 12.7412 18.1465 12.454 19.0438C12.2207 19.959 11.9335 20.8024 11.6645 21.5561V21.5559ZM33.5573 23.5119H27.8687C27.9406 24.0682 28.1199 24.6244 28.425 25.109C28.748 25.5935 29.1966 25.9704 29.735 26.1857C30.4528 26.4908 31.2424 26.6523 32.0319 26.6343C32.66 26.6164 33.2881 26.5625 33.8981 26.4369C34.4544 26.3651 34.9927 26.2216 35.4952 26.0241C35.585 25.9523 35.6387 25.9883 35.6387 26.1677V28.9133C35.6387 28.9852 35.6208 29.0568 35.6029 29.1287C35.5671 29.1826 35.5311 29.2184 35.4773 29.2543C34.9031 29.5054 34.3109 29.6849 33.6828 29.7926C32.8393 29.954 31.9959 30.0259 31.1345 30.0079C29.7706 30.0079 28.6223 29.7926 27.6891 29.3798C26.8098 29.0029 26.0382 28.4108 25.428 27.675C24.8538 26.9753 24.441 26.1856 24.1899 25.3242C23.9387 24.4808 23.8129 23.6015 23.8129 22.7043C23.8129 21.7353 23.9564 20.7841 24.2615 19.8509C24.5487 18.9537 24.9973 18.1282 25.6073 17.3924C26.1996 16.6746 26.9352 16.1004 27.7786 15.6876C28.6221 15.2749 29.627 15.1314 30.7755 15.1314C31.7266 15.1134 32.6777 15.293 33.557 15.6876C34.2928 16.0106 34.9388 16.4952 35.4413 17.1232C35.9078 17.7334 36.2848 18.4152 36.518 19.1689C36.7513 19.8868 36.8589 20.6224 36.8589 21.3582C36.8589 21.7888 36.841 22.1658 36.8231 22.5067C36.7873 22.8476 36.7692 23.099 36.7513 23.2604C36.7334 23.386 36.6257 23.4936 36.5001 23.4936C36.3924 23.4936 36.195 23.5116 35.9078 23.5295C35.6207 23.5653 35.2797 23.5834 34.867 23.5834C34.4542 23.5834 34.0235 23.5116 33.557 23.5116L33.5573 23.5119ZM27.8687 20.892H31.6551C32.1216 20.892 32.4627 20.892 32.6779 20.8741C32.8214 20.8561 32.9651 20.8201 33.0907 20.7306V20.5511C33.0907 20.3178 33.0548 20.1025 32.983 19.8871C32.66 18.8823 31.7089 18.2002 30.6501 18.2362C29.6631 18.1823 28.7299 18.7027 28.2634 19.6001C28.0481 20.0129 27.9225 20.4436 27.8686 20.8922L27.8687 20.892Z" fill="#9999FF"/>
</g>
<defs>
<clipPath id="clip0_100_823">
<rect width="43.0681" height="42" fill="white"/>
</clipPath>
</defs>
</svg>
