<svg width="43" height="42" viewBox="0 0 43 42" fill="none" xmlns="http://www.w3.org/2000/svg">
<path d="M22.0992 16.6201H25.853V20.4579H27.7509C28.6385 20.4538 29.5196 20.3062 30.3601 20.0208C30.8015 19.8747 31.2264 19.6829 31.628 19.4486C31.1143 18.7375 30.8097 17.8969 30.7486 17.0218C30.5907 15.7447 30.9186 14.455 31.6674 13.4085L32.0611 12.9517L32.531 13.3297C33.777 14.2433 34.6212 15.6034 34.8869 17.1255C36.3356 16.6805 37.9015 16.8263 39.2431 17.531L39.7589 17.8276L39.4873 18.3526C38.9377 19.2779 38.1258 20.0192 37.1544 20.4825C36.1831 20.9458 35.0961 21.1104 34.0312 20.9553C30.7762 29.0508 23.7005 32.8833 15.1194 32.8833C10.6857 32.8833 6.61962 31.2256 4.30305 27.2934L4.26499 27.2291L3.93424 26.5479C3.17136 24.8132 2.87327 22.9098 3.0693 21.0249L3.1218 20.4566H6.33087V16.6201H10.0859V12.8625H17.5947V9.11133H22.0992V16.6201Z" fill="#0096E6"/>
<path d="M16.1487 32.2438C14.3123 31.4612 12.84 30.0128 12.0275 28.1895C11.0567 28.4492 10.0601 28.6002 9.056 28.6396C8.6185 28.6641 8.16131 28.6764 7.68444 28.6764C7.13144 28.6764 6.54913 28.6602 5.9375 28.6278C7.11844 29.8574 8.55019 30.8184 10.1355 31.4455C11.7208 32.0726 13.4225 32.3511 15.125 32.2621C15.468 32.2621 15.8092 32.256 16.1487 32.2438Z" fill="white"/>
<path d="M9.68313 17.5175H9.94563V20.2304H9.68313V17.5175ZM9.18963 17.5175H9.45213V20.2304H9.18438V17.5175H9.18963ZM8.69613 17.5175H8.95863V20.2304H8.69613V17.5175ZM8.20263 17.5175H8.46513V20.2304H8.20263V17.5175ZM7.70913 17.5175H7.97163V20.2304H7.70913V17.5175ZM7.22613 17.5175H7.48863V20.2304H7.22613V17.5175ZM6.95312 17.2471H10.2108V20.5008H6.95312V17.2471ZM10.7056 13.492H13.9606V16.7457H10.7108L10.7056 13.492ZM13.4316 13.7637H13.6941V16.4753H13.4316V13.7637ZM12.9381 13.7637H13.2006V16.4753H12.9381V13.7637ZM12.4446 13.7637H12.7071V16.4753H12.4446V13.7637ZM11.9511 13.7637H12.2136V16.4753H11.9511V13.7637ZM11.4576 13.7637H11.7201V16.4753H11.4576V13.7637ZM10.9746 13.7637H11.2371V16.4753H10.9746V13.7637ZM10.7029 17.2458H13.9579V20.5008H10.7108V17.2471L10.7029 17.2458ZM13.429 17.5175H13.6915V20.2304H13.429V17.5175ZM12.9355 17.5175H13.198V20.2304H12.9355V17.5175ZM12.442 17.5175H12.7045V20.2304H12.442V17.5175ZM11.9485 17.5175H12.211V20.2304H11.9485V17.5175ZM11.455 17.5175H11.7175V20.2304H11.455V17.5175ZM10.972 17.5175H11.2345V20.2304H10.972V17.5175ZM14.4554 17.2458H17.7156V20.5008H14.4606V17.2471L14.4554 17.2458ZM17.1801 17.5175H17.4531V20.2304H17.1906L17.1801 17.5175ZM16.6866 17.5175H16.9491V20.2304H16.6866V17.5175ZM16.1931 17.5175H16.4556V20.2304H16.1931V17.5175ZM15.6996 17.5175H15.9621V20.2304H15.6996V17.5175ZM15.2061 17.5175H15.4686V20.2304H15.2061V17.5175ZM14.7231 17.5175H14.9856V20.2304H14.7231V17.5175ZM14.4528 13.492H17.7156V16.7457H14.4606V13.492H14.4528ZM17.1775 13.7637H17.4531V16.4753H17.1906L17.1775 13.7637ZM16.684 13.7637H16.9465V16.4753H16.684V13.7637ZM16.1905 13.7637H16.453V16.4753H16.1905V13.7637ZM15.697 13.7637H15.9595V16.4753H15.697V13.7637ZM15.2035 13.7637H15.466V16.4753H15.2035V13.7637ZM14.7205 13.7637H14.983V16.4753H14.7205V13.7637ZM18.2039 17.2458H21.4576V20.5008H18.2026V17.2471L18.2039 17.2458ZM20.9286 17.5175H21.1911V20.2304H20.9286V17.5175ZM20.4351 17.5175H20.6976V20.2304H20.4351V17.5175ZM19.9416 17.5175H20.2041V20.2304H19.9416V17.5175ZM19.4481 17.5175H19.7106V20.2304H19.4481V17.5175ZM18.9546 17.5175H19.2171V20.2304H18.9546V17.5175ZM18.4716 17.5175H18.7236V20.2304H18.4611V17.5175H18.4716ZM18.2013 13.492H21.4549V16.7457H18.1999L18.2013 13.492ZM20.926 13.7637H21.1885V16.4753H20.926V13.7637ZM20.4325 13.7637H20.695V16.4753H20.4325V13.7637ZM19.939 13.7637H20.2015V16.4753H19.939V13.7637ZM19.4455 13.7637H19.708V16.4753H19.4455V13.7637ZM18.952 13.7637H19.2145V16.4753H18.952V13.7637ZM18.469 13.7637H18.721V16.4753H18.4585V13.7637H18.469ZM18.1986 9.73828H21.4523V12.9946H18.1973L18.1986 9.73828ZM20.9234 10.0087H21.1859V12.7203H20.9234V10.0087ZM20.4299 10.0087H20.6924V12.7203H20.4299V10.0087ZM19.9364 10.0087H20.1989V12.7203H19.9364V10.0087ZM19.4429 10.0087H19.7054V12.7203H19.4429V10.0087ZM18.9494 10.0087H19.2119V12.7203H18.9494V10.0087ZM18.4664 10.0087H18.7184V12.7203H18.4559V10.0087H18.4664ZM21.9498 17.2458H25.2034V20.5008H21.9484V17.2471L21.9498 17.2458ZM24.6745 17.5175H24.9304V20.2304H24.6679V17.5175H24.6745ZM24.181 17.5175H24.4514V20.2304H24.181V17.5175ZM23.6875 17.5175H23.95V20.2304H23.6875V17.5175ZM23.194 17.5175H23.4565V20.2304H23.194V17.5175ZM22.7005 17.5175H22.963V20.2304H22.6939V17.5175H22.7005ZM22.2175 17.5175H22.48V20.2304H22.2254V17.5175H22.2175Z" fill="white"/>
<path d="M13.762 25.7754C13.9396 25.7754 14.1131 25.828 14.2608 25.9267C14.4084 26.0253 14.5235 26.1655 14.5914 26.3296C14.6594 26.4936 14.6771 26.6741 14.6425 26.8483C14.6079 27.0224 14.5224 27.1824 14.3968 27.3079C14.2713 27.4335 14.1113 27.519 13.9372 27.5536C13.763 27.5883 13.5825 27.5705 13.4185 27.5026C13.2544 27.4346 13.1142 27.3195 13.0156 27.1719C12.9169 27.0243 12.8643 26.8507 12.8643 26.6731C12.8643 26.435 12.9588 26.2067 13.1272 26.0383C13.2956 25.87 13.5239 25.7754 13.762 25.7754ZM13.762 26.03C13.8415 26.0299 13.9202 26.0446 13.9943 26.0733C13.9591 26.0935 13.9289 26.1215 13.9063 26.1553C13.8838 26.189 13.8693 26.2276 13.8641 26.2678C13.859 26.3081 13.8632 26.3491 13.8765 26.3874C13.8899 26.4258 13.9119 26.4605 13.9409 26.4889C13.97 26.5173 14.0052 26.5386 14.0438 26.5511C14.0825 26.5636 14.1235 26.5669 14.1637 26.5608C14.2038 26.5548 14.242 26.5395 14.2753 26.5161C14.3085 26.4928 14.3359 26.4621 14.3553 26.4264C14.4088 26.5536 14.4199 26.6947 14.3871 26.8288C14.3542 26.9629 14.2791 27.0829 14.1728 27.1709C14.0665 27.259 13.9347 27.3106 13.7969 27.318C13.659 27.3254 13.5224 27.2882 13.4073 27.212C13.2923 27.1357 13.2047 27.0245 13.1577 26.8947C13.1107 26.7649 13.1068 26.6234 13.1464 26.4912C13.186 26.3589 13.2671 26.243 13.3778 26.1604C13.4884 26.0778 13.6226 26.033 13.7607 26.0326L13.762 26.03Z" fill="white"/>
</svg>
