<svg width="49" height="48" viewBox="0 0 49 48" fill="none" xmlns="http://www.w3.org/2000/svg">
<g clip-path="url(#clip0_110_1237)">
<path d="M14.481 14.8129H11.8303L19.0568 35.2407L23.1025 23.6796L19.9659 14.8129H17.1691V12.8664H29.554V14.8129H26.6538L33.8802 35.2407L36.4779 27.8174C39.8855 18.3067 33.685 15.3441 33.685 13.2215C33.685 11.099 35.4057 9.37841 37.5281 9.37841C37.6429 9.37841 37.7545 9.38462 37.8637 9.39481C34.2674 5.99988 29.4181 3.91797 24.0822 3.91797C17.1099 3.91797 10.9684 7.47191 7.36816 12.8664H14.4808V14.8129H14.481Z" fill="#00769D"/>
<path d="M4.00098 23.9996C4.00098 31.6878 8.32219 38.3657 14.6676 41.7402L5.60532 16.123C4.573 18.5415 4.00098 21.2037 4.00098 23.9996Z" fill="#00769D"/>
<path d="M41.5583 14.1055C41.8456 15.7968 41.7586 17.6977 41.3178 19.606H41.3977L41.0941 20.4736C40.9141 21.1001 40.6876 21.741 40.4302 22.3707L33.5205 41.7285C39.8527 38.3499 44.1628 31.6792 44.1628 24.0008C44.1628 20.4028 43.2156 17.0263 41.5583 14.1055Z" fill="#00769D"/>
<path d="M17.8887 43.1059C19.8396 43.7379 21.9205 44.0807 24.082 44.0807C26.1436 44.0807 28.1324 43.7695 30.0047 43.1923L24.1308 26.5879L17.8887 43.1059Z" fill="#00769D"/>
<path d="M41.0525 7.0294C36.5195 2.49642 30.4926 0 24.0819 0C17.6713 0 11.6444 2.49642 7.11143 7.0294C2.57845 11.5624 0.0820312 17.5893 0.0820312 24C0.0820312 30.4106 2.57845 36.4375 7.11143 40.9705C11.6444 45.5035 17.6714 47.9999 24.082 47.9999C30.4927 47.9999 36.5195 45.5035 41.0526 40.9705C45.5856 36.4375 48.082 30.4105 48.082 24C48.0819 17.5893 45.5855 11.5624 41.0525 7.0294ZM24.0819 46.3069C11.7819 46.3069 1.77505 36.3001 1.77505 24C1.77505 11.6999 11.7819 1.69302 24.0819 1.69302C36.382 1.69302 46.3888 11.6999 46.3888 24C46.3888 36.3001 36.3821 46.3069 24.0819 46.3069Z" fill="#00769D"/>
</g>
<defs>
<clipPath id="clip0_110_1237">
<rect width="48" height="48" fill="white" transform="translate(0.0820312)"/>
</clipPath>
</defs>
</svg>
