<svg width="63" height="37" viewBox="0 0 63 37" fill="none" xmlns="http://www.w3.org/2000/svg">
<g clip-path="url(#clip0_111_1694)">
<path d="M18.0431 13.4979C18.0431 14.2501 18.1244 14.86 18.2667 15.3073C18.4293 15.7545 18.6326 16.2424 18.9173 16.771C19.0189 16.9336 19.0596 17.0963 19.0596 17.2386C19.0596 17.4419 18.9376 17.6452 18.6733 17.8485L17.3925 18.7023C17.2096 18.8243 17.0266 18.8853 16.864 18.8853C16.6607 18.8853 16.4574 18.7836 16.2541 18.6007C15.9695 18.2957 15.7255 17.9705 15.5222 17.6452C15.3189 17.2996 15.1156 16.9133 14.892 16.4457C13.3063 18.3161 11.314 19.2512 8.91506 19.2512C7.20736 19.2512 5.84528 18.7633 4.84912 17.7875C3.85297 16.8117 3.34473 15.5106 3.34473 13.8842C3.34473 12.1562 3.95462 10.7534 5.19473 9.69628C6.43484 8.63914 8.08154 8.11057 10.1755 8.11057C10.8667 8.11057 11.5782 8.17156 12.3304 8.27321C13.0826 8.37486 13.8552 8.53749 14.6684 8.72046V7.23639C14.6684 5.69134 14.3431 4.61386 13.7129 3.98365C13.0623 3.35343 11.9645 3.04848 10.3991 3.04848C9.68758 3.04848 8.95572 3.1298 8.20352 3.31277C7.45132 3.49573 6.71945 3.71936 6.00791 4.00398C5.68264 4.14628 5.43868 4.2276 5.29637 4.26826C5.15407 4.30892 5.05242 4.32925 4.9711 4.32925C4.68648 4.32925 4.54418 4.12595 4.54418 3.69903V2.70288C4.54418 2.3776 4.58484 2.13365 4.68648 1.99134C4.78813 1.84903 4.9711 1.70672 5.25572 1.56441C5.96725 1.19848 6.8211 0.893535 7.81725 0.649579C8.81341 0.385294 9.87055 0.263316 10.9887 0.263316C13.4079 0.263316 15.1766 0.812217 16.3151 1.91002C17.4332 3.00782 18.0024 4.67485 18.0024 6.91112V13.4979H18.0431ZM9.78923 16.588C10.4601 16.588 11.1513 16.4661 11.8832 16.2221C12.6151 15.9782 13.2656 15.5309 13.8145 14.921C14.1398 14.5347 14.3837 14.1078 14.5057 13.6199C14.6277 13.132 14.709 12.5424 14.709 11.8512V10.9974C14.1195 10.8551 13.4892 10.7331 12.8387 10.6518C12.1881 10.5705 11.5579 10.5298 10.9277 10.5298C9.56561 10.5298 8.56945 10.7941 7.89857 11.343C7.22769 11.8919 6.90242 12.6644 6.90242 13.6809C6.90242 14.6364 7.14637 15.3479 7.65462 15.8358C8.14253 16.3441 8.85407 16.588 9.78923 16.588ZM26.114 18.7836C25.748 18.7836 25.5041 18.7227 25.3414 18.5803C25.1788 18.4584 25.0365 18.1738 24.9145 17.7875L20.137 2.07266C20.0151 1.66606 19.9541 1.40178 19.9541 1.25947C19.9541 0.934195 20.1167 0.751228 20.442 0.751228H22.4343C22.8205 0.751228 23.0848 0.812217 23.2271 0.954524C23.3898 1.0765 23.5118 1.36112 23.6337 1.74738L27.0491 15.2056L30.2205 1.74738C30.3222 1.34079 30.4442 1.0765 30.6068 0.954524C30.7694 0.832546 31.0541 0.751228 31.42 0.751228H33.0464C33.4326 0.751228 33.6969 0.812217 33.8596 0.954524C34.0222 1.0765 34.1645 1.36112 34.2458 1.74738L37.4579 15.3683L40.9749 1.74738C41.0969 1.34079 41.2392 1.0765 41.3815 0.954524C41.5442 0.832546 41.8085 0.751228 42.1744 0.751228H44.0651C44.3903 0.751228 44.5733 0.913865 44.5733 1.25947C44.5733 1.36112 44.553 1.46277 44.5326 1.58474C44.5123 1.70672 44.4716 1.86936 44.3903 2.09299L39.4909 17.8078C39.3689 18.2144 39.2266 18.4787 39.064 18.6007C38.9013 18.7227 38.637 18.804 38.2914 18.804H36.5431C36.1568 18.804 35.8925 18.743 35.7299 18.6007C35.5672 18.4584 35.4249 18.1941 35.3436 17.7875L32.1925 4.67485L29.0618 17.7672C28.9601 18.1738 28.8381 18.438 28.6755 18.5803C28.5129 18.7227 28.2282 18.7836 27.8623 18.7836H26.114ZM52.2376 19.3325C51.1804 19.3325 50.1233 19.2106 49.1068 18.9666C48.0903 18.7227 47.2975 18.4584 46.7689 18.1534C46.4436 17.9705 46.22 17.7672 46.1387 17.5842C46.0574 17.4012 46.0167 17.1979 46.0167 17.015V15.9782C46.0167 15.5512 46.1793 15.3479 46.4843 15.3479C46.6063 15.3479 46.7282 15.3683 46.8502 15.4089C46.9722 15.4496 47.1552 15.5309 47.3585 15.6122C48.0497 15.9172 48.8019 16.1611 49.5947 16.3238C50.4079 16.4864 51.2008 16.5677 52.014 16.5677C53.2947 16.5677 54.2909 16.3441 54.9821 15.8968C55.6733 15.4496 56.0392 14.799 56.0392 13.9655C56.0392 13.3963 55.8563 12.9287 55.4903 12.5424C55.1244 12.1562 54.4332 11.8106 53.437 11.4853L50.4892 10.5705C49.0052 10.1029 47.9074 9.41167 47.2365 8.49683C46.5656 7.60233 46.22 6.60617 46.22 5.54903C46.22 4.69518 46.403 3.94299 46.7689 3.29244C47.1348 2.64189 47.6227 2.07266 48.2326 1.6254C48.8425 1.15782 49.5337 0.812217 50.3469 0.568261C51.1601 0.324305 52.014 0.222656 52.9085 0.222656C53.3557 0.222656 53.8233 0.242986 54.2705 0.303975C54.7381 0.364964 55.1651 0.446283 55.592 0.527601C55.9986 0.62925 56.3848 0.730898 56.7508 0.852876C57.1167 0.974854 57.4013 1.09683 57.6046 1.21881C57.8892 1.38145 58.0925 1.54408 58.2145 1.72705C58.3365 1.88969 58.3975 2.11332 58.3975 2.39793V3.35343C58.3975 3.78035 58.2348 4.00398 57.9299 4.00398C57.7673 4.00398 57.503 3.92266 57.1574 3.76002C55.9986 3.23145 54.6975 2.96716 53.2541 2.96716C52.0953 2.96716 51.1804 3.15013 50.5502 3.53639C49.92 3.92266 49.5947 4.51222 49.5947 5.34573C49.5947 5.91496 49.798 6.40288 50.2046 6.78914C50.6112 7.1754 51.3634 7.56167 52.4409 7.90727L55.3277 8.82211C56.7914 9.28969 57.8486 9.94024 58.4788 10.7738C59.109 11.6073 59.414 12.5628 59.414 13.6199C59.414 14.4941 59.231 15.2869 58.8854 15.9782C58.5194 16.6694 58.0315 17.2793 57.4013 17.7672C56.7711 18.2754 56.0189 18.6413 55.1447 18.9056C54.2299 19.1902 53.2744 19.3325 52.2376 19.3325Z" fill="#262626"/>
<path fill-rule="evenodd" clip-rule="evenodd" d="M56.0799 29.2131C49.3915 34.1532 39.6739 36.7757 31.3184 36.7757C19.6085 36.7757 9.05741 32.4455 1.08818 25.2488C0.457958 24.6796 1.02719 23.907 1.77939 24.3543C10.3992 29.3554 21.0316 32.3845 32.0299 32.3845C39.4503 32.3845 47.6025 30.8394 55.1041 27.668C56.2222 27.1598 57.1777 28.3999 56.0799 29.2131Z" fill="#FF9900"/>
<path fill-rule="evenodd" clip-rule="evenodd" d="M58.8649 26.0424C58.011 24.9446 53.2132 25.5138 51.0379 25.7781C50.3874 25.8594 50.2857 25.2902 50.8753 24.8633C54.6973 22.1798 60.9792 22.9523 61.711 23.8468C62.4429 24.7616 61.5077 31.0435 57.9297 34.0523C57.3808 34.5199 56.8522 34.2759 57.0962 33.666C57.9094 31.6534 59.7187 27.1199 58.8649 26.0424Z" fill="#FF9900"/>
</g>
<defs>
<clipPath id="clip0_111_1694">
<rect width="61.8022" height="37" fill="white" transform="translate(0.478516)"/>
</clipPath>
</defs>
</svg>
