<svg width="42" height="42" viewBox="0 0 42 42" fill="none" xmlns="http://www.w3.org/2000/svg">
<g clip-path="url(#clip0_106_1314)">
<path d="M8.56551 33.4348L1.38024 26.2495C0.528011 25.3757 0 24.1406 0 22.9332C0 22.3743 0.314954 21.5005 0.552713 21.0003L7.18527 7.18555L8.56551 33.4348Z" fill="#01579B"/>
<path d="M33.1598 8.56551L25.9745 1.38024C25.3477 0.750331 24.0416 0 22.9362 0C21.9851 0 21.0526 0.191442 20.4505 0.552713L7.18848 7.18527L33.1598 8.56551Z" fill="#40C4FF"/>
<path d="M17.131 41.9995H34.5399V34.5395L21.5527 30.3926L9.6709 34.5395L17.131 41.9995Z" fill="#40C4FF"/>
<path d="M7.18555 29.5658C7.18555 31.7828 7.46345 32.3263 8.56578 33.4348L9.67121 34.5402H34.5402L22.3836 20.7255L7.18555 7.18555V29.5658Z" fill="#29B6F6"/>
<path d="M29.291 7.18164H7.18555L34.5402 34.5363H42.0003V17.4053L33.1569 8.56188C31.9156 7.3175 30.8132 7.18164 29.291 7.18164Z" fill="#01579B"/>
<path opacity="0.2" d="M8.84378 33.7096C7.73835 32.6011 7.46354 31.508 7.46354 29.5658V7.46036L7.18873 7.18555V29.5658C7.18564 31.508 7.18564 32.0453 8.84378 33.7096Z" fill="white"/>
<path opacity="0.2" d="M41.7247 17.1309V34.2619H34.2646L34.5395 34.5398H41.9995V17.4057L41.7247 17.1309Z" fill="#263238"/>
<path opacity="0.2" d="M33.1598 8.56578C31.7888 7.19481 30.668 7.18555 29.016 7.18555H7.18848L7.46329 7.46036H29.016C29.8404 7.46036 31.9216 7.32141 33.1598 8.56578Z" fill="white"/>
<path opacity="0.2" d="M41.725 17.131L33.1595 8.56551L25.9743 1.38024C25.3474 0.750331 24.0413 0 22.9359 0C21.9848 0 21.0523 0.191442 20.4502 0.552713L7.1882 7.18527L0.555642 21C0.317883 21.5033 0.00292969 22.3772 0.00292969 22.933C0.00292969 24.1403 0.534028 25.3723 1.38317 26.2492L8.00337 32.8231C8.16085 33.0176 8.34611 33.2153 8.56535 33.4345L8.84016 33.7093L9.66768 34.5368L16.853 41.7221L17.1278 41.9969H34.2588H34.5336V34.5368H41.9937V34.5183V17.4058L41.725 17.131Z" fill="url(#paint0_radial_106_1314)"/>
</g>
<defs>
<radialGradient id="paint0_radial_106_1314" cx="0" cy="0" r="1" gradientUnits="userSpaceOnUse" gradientTransform="translate(2099.54 2099.6) scale(2099.69 2099.69)">
<stop stop-color="white" stop-opacity="0.1"/>
<stop offset="1" stop-color="white" stop-opacity="0"/>
</radialGradient>
<clipPath id="clip0_106_1314">
<rect width="42" height="42" fill="white"/>
</clipPath>
</defs>
</svg>
