<svg width="32" height="42" viewBox="0 0 32 42" fill="none" xmlns="http://www.w3.org/2000/svg">
<path d="M10.0212 32.4668C10.0212 32.4668 8.41908 33.3985 11.1614 33.7138C14.4836 34.0928 16.1815 34.0384 19.8426 33.3455C19.8426 33.3455 20.8052 33.949 22.1494 34.4718C13.9422 37.9892 3.57485 34.268 10.0212 32.4668Z" fill="#5382A1"/>
<path d="M9.01815 27.877C9.01815 27.877 7.22122 29.2071 9.96555 29.4909C13.5144 29.8571 16.3171 29.887 21.1667 28.9532C21.1667 28.9532 21.8375 29.6332 22.8922 30.0051C12.9692 32.9067 1.91675 30.2339 9.01815 27.877Z" fill="#5382A1"/>
<path d="M17.472 20.0908C19.4943 22.419 16.9407 24.5142 16.9407 24.5142C16.9407 24.5142 22.0756 21.8634 19.7174 18.544C17.5149 15.4485 15.8258 13.9104 24.9695 8.60742C24.9695 8.60742 10.617 12.192 17.472 20.0908Z" fill="#E76F00"/>
<path d="M28.3272 35.8624C28.3272 35.8624 29.5128 36.8393 27.0215 37.595C22.2841 39.0301 7.30422 39.4635 3.14287 37.6522C1.64697 37.0015 4.4522 36.0984 5.33463 35.9088C6.2549 35.7093 6.78081 35.7465 6.78081 35.7465C5.11721 34.5745 -3.97198 38.0476 2.16394 39.0422C18.8975 41.756 32.6676 37.8203 28.3272 35.8624Z" fill="#5382A1"/>
<path d="M10.7915 23.1221C10.7915 23.1221 3.17173 24.9319 8.09313 25.5891C10.1711 25.8673 14.3135 25.8044 18.172 25.4811C21.3254 25.2151 24.4918 24.6495 24.4918 24.6495C24.4918 24.6495 23.3798 25.1257 22.5754 25.675C14.8377 27.71 -0.110147 26.7633 4.19314 24.6817C7.83243 22.9225 10.7915 23.1221 10.7915 23.1221Z" fill="#5382A1"/>
<path d="M24.4598 30.7623C32.3256 26.6749 28.6888 22.747 26.1503 23.2762C25.5282 23.4057 25.2507 23.5179 25.2507 23.5179C25.2507 23.5179 25.4817 23.1561 25.9229 22.9995C30.9447 21.2339 34.8069 28.2066 24.3018 30.9683C24.3018 30.9683 24.4235 30.8595 24.4598 30.7623Z" fill="#5382A1"/>
<path d="M19.7177 0.0449219C19.7177 0.0449219 24.0738 4.40256 15.586 11.1034C8.77965 16.4786 14.034 19.5434 15.5832 23.045C11.6102 19.4604 8.69456 16.3049 10.6506 13.368C13.5216 9.05694 21.4753 6.96677 19.7177 0.0449219Z" fill="#E76F00"/>
<path d="M11.5639 41.8387C19.1141 42.322 30.7081 41.5706 30.9827 37.998C30.9827 37.998 30.4549 39.3524 24.743 40.4279C18.2988 41.6406 10.3508 41.499 5.63672 40.7218C5.63672 40.7218 6.60174 41.5205 11.5639 41.8387Z" fill="#5382A1"/>
</svg>
