<svg width="44" height="42" viewBox="0 0 44 42" fill="none" xmlns="http://www.w3.org/2000/svg">
<path fill-rule="evenodd" clip-rule="evenodd" d="M25.198 0.697266C24.9007 0.697266 24.6246 0.76098 24.3697 0.845928C24.9113 1.20697 25.2086 1.68481 25.3573 2.22637C25.3679 2.3007 25.3891 2.35379 25.3998 2.42812C25.4104 2.49184 25.421 2.55555 25.421 2.61926C25.4635 3.55371 25.1768 3.67052 24.975 4.22269C24.6671 4.93415 24.752 5.6987 25.1237 6.31459C25.1555 6.38892 25.198 6.47387 25.2511 6.5482C24.8476 3.86166 27.0881 3.45814 27.5023 2.61926C27.5341 1.88657 26.9289 1.3981 26.451 1.0583C25.9944 0.782216 25.5803 0.697266 25.198 0.697266ZM28.5748 1.30254C28.5323 1.54677 28.5641 1.48305 28.5535 1.61048C28.5429 1.69543 28.5429 1.80162 28.5323 1.88657C28.5111 1.97152 28.4898 2.05647 28.458 2.14142C28.4368 2.22637 28.4049 2.31132 28.373 2.39627C28.3305 2.48122 28.2987 2.55555 28.2562 2.6405C28.2244 2.68299 28.2031 2.72545 28.1713 2.76793C28.1501 2.79978 28.1288 2.83164 28.1076 2.86349C28.0545 2.93783 28.0014 3.01216 27.9483 3.07587C27.8846 3.13958 27.8315 3.21391 27.7571 3.26701V3.27764C27.6934 3.33073 27.6297 3.39445 27.5554 3.44754C27.3324 3.61744 27.0775 3.74486 26.8439 3.90415C26.7696 3.95724 26.6953 3.99972 26.6316 4.06343C26.5572 4.11652 26.4935 4.16961 26.4298 4.23333C26.3555 4.29704 26.3024 4.36075 26.2387 4.43509C26.1856 4.4988 26.1219 4.57313 26.0794 4.64746C26.0263 4.72179 25.9732 4.79612 25.9307 4.87045C25.8882 4.9554 25.8564 5.02974 25.8139 5.11468C25.7821 5.19963 25.7502 5.27397 25.729 5.35891C25.6971 5.45448 25.6759 5.53943 25.6546 5.62439C25.644 5.66688 25.644 5.71995 25.6334 5.76243C25.6228 5.80492 25.6228 5.84738 25.6122 5.88986C25.6122 5.9748 25.6016 6.07037 25.6016 6.15532C25.6016 6.21904 25.6016 6.28275 25.6122 6.34646C25.6122 6.43141 25.6228 6.51636 25.644 6.61193C25.6547 6.69688 25.6759 6.78183 25.6971 6.86678C25.729 6.95173 25.7502 7.03668 25.7821 7.12163C25.8033 7.17473 25.8352 7.22782 25.8564 7.27029L23.4141 6.32522C23 6.20842 22.5965 6.10223 22.1823 6.00666C21.9593 5.95357 21.7363 5.90047 21.5134 5.84738C20.8762 5.71995 20.2285 5.62439 19.5807 5.56068C19.5595 5.56068 19.5489 5.55004 19.5276 5.55004C18.8905 5.48633 18.264 5.45447 17.6269 5.45447C17.1597 5.45447 16.6924 5.47569 16.2358 5.50757C15.5881 5.55006 14.9403 5.63499 14.2926 5.74118C14.1333 5.7624 13.974 5.79428 13.8147 5.82613C13.4856 5.88984 13.167 5.96417 12.8591 6.03851C12.6998 6.081 12.5405 6.12346 12.3812 6.16593C12.2219 6.22964 12.0733 6.30397 11.9246 6.36769C11.8078 6.42078 11.691 6.47387 11.5742 6.52697C11.553 6.5376 11.5317 6.5376 11.5211 6.54819C11.4149 6.60128 11.3193 6.64375 11.2238 6.69685C11.1919 6.70749 11.1707 6.71807 11.1494 6.72871C11.0326 6.7818 10.9158 6.84551 10.8203 6.89861C10.7459 6.93046 10.6716 6.97294 10.6079 7.0048C10.576 7.02602 10.5336 7.04729 10.5123 7.05789C10.4167 7.11098 10.3212 7.16407 10.2362 7.21717C10.1407 7.27026 10.0557 7.32336 9.98137 7.37645C9.90705 7.42955 9.83271 7.47202 9.769 7.52511C9.75836 7.53574 9.74778 7.53575 9.73714 7.54633C9.67343 7.58883 9.5991 7.6419 9.53539 7.695C9.53539 7.695 9.52475 7.70563 9.51417 7.71622C9.46108 7.75871 9.40798 7.80117 9.35489 7.84364C9.33366 7.85428 9.31239 7.8755 9.29117 7.88613C9.23808 7.92863 9.18499 7.9817 9.1319 8.02418C9.12126 8.0454 9.10004 8.05604 9.0894 8.06667C9.02569 8.13039 8.96198 8.18348 8.89826 8.24719C8.88763 8.24719 8.88763 8.25783 8.87704 8.26841C8.81333 8.32151 8.74962 8.38522 8.6859 8.44893C8.67527 8.45957 8.67527 8.47015 8.66468 8.47015C8.61159 8.52324 8.5585 8.57634 8.5054 8.64005C8.48418 8.66127 8.45231 8.68254 8.43107 8.70376C8.37798 8.76748 8.31427 8.83119 8.25055 8.8949C8.23992 8.91612 8.2187 8.92676 8.20806 8.94799C8.12311 9.03295 8.04878 9.1179 7.96383 9.20285C7.95319 9.21348 7.94261 9.22407 7.93197 9.2347C7.76207 9.41522 7.58155 9.59574 7.39042 9.75502C7.19928 9.92492 6.99752 10.0842 6.79576 10.2222C6.58339 10.3709 6.38163 10.4983 6.15864 10.6258C5.94626 10.7426 5.72327 10.8488 5.48966 10.9443C5.26666 11.0399 5.03305 11.1248 4.79944 11.1992C4.35345 11.2947 3.89684 11.4753 3.50395 11.5071C3.419 11.5071 3.32343 11.5283 3.23848 11.539C3.14291 11.5602 3.05796 11.5815 2.97301 11.6027C2.88806 11.6345 2.80311 11.6664 2.71816 11.6983C2.63321 11.7301 2.54826 11.7726 2.46331 11.8151C2.38898 11.8682 2.30403 11.9106 2.2297 11.9637C2.15537 12.0168 2.08104 12.0805 2.01732 12.1442C1.94299 12.1973 1.86866 12.2717 1.80495 12.3354C1.74123 12.4097 1.67752 12.4734 1.62443 12.5478C1.57134 12.6327 1.50762 12.707 1.46515 12.792C1.41205 12.8663 1.35896 12.9513 1.31648 13.0362C1.27399 13.1318 1.23154 13.2167 1.19968 13.3123C1.16782 13.3973 1.13597 13.4928 1.10411 13.5884C1.08289 13.6733 1.06162 13.7583 1.05102 13.8432C1.05102 13.8539 1.04038 13.8645 1.04038 13.8751C1.01916 13.9707 1.01916 14.0981 1.00853 14.1618C0.99789 14.2361 0.987305 14.2998 0.987305 14.3742C0.987305 14.4167 0.987305 14.4698 0.99794 14.5122C1.00857 14.5866 1.01916 14.6503 1.04043 14.714C1.06165 14.7777 1.08292 14.8414 1.11476 14.9051V14.9158C1.14662 14.9795 1.18909 15.0432 1.23157 15.1069C1.27406 15.1706 1.31652 15.2343 1.36961 15.298C1.4227 15.3511 1.48642 15.4148 1.55013 15.4679C1.61384 15.5316 1.67756 15.5847 1.75189 15.6378C2.00674 15.8608 2.07045 15.9352 2.39963 16.1051C2.45272 16.1369 2.50582 16.1582 2.56953 16.19C2.58017 16.19 2.59076 16.2006 2.60139 16.2006C2.60139 16.2219 2.60139 16.2325 2.61203 16.2537C2.62266 16.3387 2.64388 16.4236 2.66512 16.5086C2.68634 16.6042 2.71822 16.6891 2.75007 16.7634C2.78193 16.8272 2.80317 16.8909 2.83502 16.9546C2.84566 16.9758 2.85624 16.9971 2.86688 17.0077C2.90937 17.0926 2.95183 17.167 2.9943 17.2413C3.0474 17.3156 3.10049 17.3899 3.15358 17.4643C3.20668 17.528 3.27039 17.6023 3.3341 17.666C3.39782 17.7297 3.46153 17.7828 3.53586 17.8465C3.53586 17.8465 3.5465 17.8572 3.55708 17.8572C3.6208 17.9103 3.68451 17.9634 3.74822 18.0059C3.82255 18.059 3.89688 18.1014 3.98183 18.1439C4.05617 18.1864 4.14112 18.2289 4.22606 18.2607C4.28978 18.2926 4.36411 18.3138 4.43844 18.335C4.44908 18.3457 4.45966 18.3457 4.48093 18.3563C4.52342 18.3669 4.5765 18.3775 4.61897 18.3881C4.58712 18.9615 4.57648 19.5031 4.66146 19.6942C4.75703 19.9066 5.22426 19.2589 5.69148 18.5155C5.62777 19.2482 5.58529 20.1084 5.69148 20.3632C5.80829 20.6287 6.44542 19.8004 6.99759 18.8872C14.5263 17.1457 21.3966 22.3489 22.1187 29.6971C21.9807 28.5503 20.5684 27.9131 19.9206 28.0724C19.6021 28.8582 19.0605 29.867 18.1898 30.4935C18.2641 29.7927 18.2323 29.0706 18.0836 28.3698C17.85 29.3467 17.3934 30.2599 16.7668 31.0457C15.7581 31.12 14.7493 30.6315 14.2183 29.8989C14.1758 29.867 14.1652 29.8033 14.1334 29.7608C14.1015 29.6865 14.0697 29.6122 14.0484 29.5378C14.0166 29.4635 13.9954 29.3892 13.9847 29.3148C13.9741 29.2405 13.9741 29.1662 13.9741 29.0812C13.9741 29.0281 13.9741 28.975 13.9741 28.9219C13.9847 28.8476 14.006 28.7733 14.0272 28.6989C14.0484 28.6246 14.0697 28.5503 14.1015 28.4759C14.144 28.4016 14.1758 28.3273 14.2289 28.253C14.4095 27.7432 14.4095 27.3291 14.0803 27.0849C14.0166 27.0424 13.9529 27.0106 13.8785 26.9787C13.836 26.9681 13.783 26.9468 13.7405 26.9362C13.7086 26.9256 13.6874 26.915 13.6555 26.9043C13.5812 26.8831 13.5069 26.8619 13.4325 26.8513C13.3582 26.83 13.2839 26.8194 13.2095 26.8194C13.1352 26.8088 13.0503 26.7982 12.9759 26.7982C12.9228 26.7982 12.8697 26.8088 12.8166 26.8088C12.7317 26.8088 12.6574 26.8195 12.583 26.8407C12.5087 26.8513 12.4344 26.8619 12.36 26.8832C12.2857 26.9044 12.2114 26.9256 12.137 26.9575C12.0627 26.9893 11.999 27.0212 11.9247 27.0531C11.861 27.0849 11.7973 27.1274 11.7229 27.1592C9.24875 28.7733 10.7248 32.5536 12.4131 33.6473C11.776 33.7641 11.1283 33.9022 10.9478 34.0402C10.9371 34.0508 10.9265 34.0614 10.9265 34.0614C11.3831 34.3375 11.861 34.5711 12.3601 34.7729C13.0397 34.9959 13.7617 35.1976 14.0803 35.2826V35.2932C14.9617 35.4737 15.8536 35.5374 16.7562 35.4844C21.4603 35.1552 25.3149 31.5766 26.0158 26.8619C26.037 26.9575 26.0583 27.0424 26.0795 27.138C26.1114 27.3291 26.1538 27.5309 26.1751 27.7327V27.7433C26.1963 27.8389 26.2069 27.9344 26.2176 28.0194V28.0619C26.2282 28.1574 26.2388 28.253 26.2388 28.338C26.2494 28.4548 26.26 28.5716 26.26 28.6884V28.8583C26.26 28.9114 26.2706 28.9751 26.2706 29.0282C26.2706 29.0919 26.26 29.1556 26.26 29.2193V29.368C26.26 29.4423 26.2494 29.506 26.2494 29.5804C26.2494 29.6229 26.2494 29.6653 26.2387 29.7184C26.2387 29.7927 26.2281 29.8671 26.2281 29.952C26.2174 29.9839 26.2174 30.0157 26.2174 30.0476C26.2068 30.1325 26.1962 30.2069 26.1856 30.2918C26.1856 30.3237 26.1856 30.3555 26.175 30.3874C26.1643 30.4936 26.1431 30.5891 26.1325 30.6953V30.706V30.7166C26.1112 30.8122 26.09 30.9184 26.0687 31.0139V31.0458C26.0475 31.1414 26.0263 31.2369 26.005 31.3325C26.005 31.3431 25.9944 31.3644 25.9944 31.375C25.9732 31.4706 25.9519 31.5661 25.9201 31.6617V31.6936C25.8882 31.7997 25.8564 31.8953 25.8351 31.9909C25.8245 32.0015 25.8245 32.0121 25.8245 32.0121C25.7926 32.1183 25.7608 32.2245 25.7289 32.3307C25.6864 32.4368 25.6546 32.5324 25.6121 32.6386C25.5696 32.7448 25.5378 32.851 25.4953 32.9465C25.4528 33.0527 25.4104 33.1483 25.3679 33.2545H25.3572C25.3147 33.3501 25.2723 33.4563 25.2192 33.5518C25.2086 33.5837 25.198 33.6049 25.1873 33.6261C25.1767 33.6368 25.1767 33.6474 25.1661 33.658C24.4759 35.0491 23.4565 36.2702 22.1822 37.2259C22.0973 37.279 22.0123 37.3427 21.9274 37.4064C21.9062 37.4277 21.8743 37.4383 21.8531 37.4595C21.7787 37.5126 21.7044 37.5657 21.6195 37.6188L21.6513 37.6825H21.6619C21.8106 37.6613 21.9593 37.64 22.1079 37.6188H22.1186C22.3946 37.5763 22.6707 37.5232 22.9468 37.4701C23.0212 37.4595 23.1061 37.4383 23.1804 37.417C23.2335 37.4064 23.276 37.3958 23.3291 37.3852C23.4034 37.3745 23.4778 37.3533 23.5521 37.3427C23.6158 37.3215 23.6795 37.3108 23.7432 37.2896C24.8051 37.0348 25.8351 36.6843 26.8227 36.2702C25.1343 38.5745 22.8725 40.4328 20.2284 41.6539C21.4496 41.569 22.6707 41.3672 23.8494 41.0274C28.1288 39.7638 31.7285 36.8861 33.8841 33.0102C33.4488 35.4632 32.4718 37.7993 31.0277 39.8381C32.0577 39.1585 33.0028 38.3727 33.8629 37.4807C36.2415 34.9959 37.8025 31.8422 38.3334 28.4548C38.6944 30.1326 38.8006 31.8634 38.6413 33.573C46.3081 22.8799 39.2785 11.794 36.3371 8.8738C36.3264 8.85258 36.3159 8.84195 36.3159 8.82071C36.3052 8.83134 36.3052 8.83134 36.3052 8.84193C36.3052 8.8313 36.3052 8.8313 36.2946 8.82071C36.2946 8.94814 36.2839 9.07556 36.2734 9.20298C36.2415 9.44722 36.2096 9.68083 36.1672 9.91444C36.1141 10.1481 36.0504 10.3817 35.9866 10.6153C35.9123 10.8383 35.8274 11.0719 35.7318 11.2949C35.6362 11.5073 35.53 11.7302 35.4132 11.9426C35.2964 12.1444 35.169 12.3568 35.031 12.5479C34.8929 12.7497 34.7443 12.9408 34.5956 13.1213C34.4363 13.3124 34.2664 13.4823 34.0965 13.6522C33.9903 13.7478 33.8948 13.8328 33.7886 13.9177C33.7036 13.992 33.6293 14.0558 33.5443 14.1301C33.3532 14.2787 33.1621 14.4168 32.9497 14.5442C32.7479 14.6716 32.5356 14.7991 32.3232 14.9053C32.1002 15.0114 31.8772 15.107 31.6542 15.2026C31.4312 15.2875 31.1976 15.3619 30.964 15.4256C30.7304 15.4893 30.4861 15.5424 30.2525 15.5849C30.0083 15.6273 29.7641 15.6486 29.5304 15.6698C29.3605 15.6804 29.1906 15.691 29.0207 15.691C28.7765 15.691 28.5323 15.6698 28.2987 15.6485C28.0544 15.6273 27.8102 15.5954 27.5766 15.5423C27.3324 15.4999 27.0987 15.4362 26.8651 15.3618H26.8545C27.0881 15.3406 27.3217 15.3193 27.5553 15.2769C27.7996 15.2344 28.0332 15.1813 28.2668 15.1176C28.5004 15.0539 28.734 14.9795 28.957 14.8946C29.1906 14.8097 29.4136 14.7035 29.626 14.5973C29.849 14.4911 30.0508 14.3743 30.2631 14.2469C30.4649 14.1088 30.6666 13.9708 30.8578 13.8221C31.0489 13.6734 31.2294 13.5142 31.3993 13.3443C31.5799 13.185 31.7391 13.0045 31.8984 12.8239C32.0577 12.6328 32.2064 12.4417 32.3444 12.2505C32.3656 12.2187 32.3869 12.1762 32.4081 12.1443C32.5143 11.9744 32.6205 11.8045 32.7161 11.6346C32.8329 11.4223 32.9391 11.2099 33.0346 10.9869C33.1302 10.7639 33.2151 10.5409 33.2895 10.3073C33.3638 10.0843 33.4169 9.85069 33.47 9.61708C33.5125 9.37285 33.5549 9.13924 33.5762 8.90562C33.5974 8.66139 33.6187 8.41716 33.6187 8.18355C33.6187 8.01365 33.608 7.84375 33.5975 7.67385C33.5762 7.42962 33.5444 7.196 33.5125 6.96239C33.47 6.71816 33.4169 6.48455 33.3532 6.25093C33.2789 6.02794 33.2046 5.79433 33.1196 5.57134C33.0346 5.34834 32.9285 5.12535 32.8223 4.91297C32.7055 4.7006 32.5887 4.48822 32.4612 4.28647C32.3232 4.08471 32.1852 3.89357 32.0365 3.70243C31.8772 3.52191 31.7179 3.3414 31.548 3.16088C31.4631 3.07593 31.3675 2.98036 31.2719 2.89541C30.7941 2.52375 30.295 2.17333 29.7959 1.85477C29.7216 1.81228 29.6579 1.78044 29.5836 1.74858C29.2331 1.52559 28.9039 1.40872 28.5748 1.30254Z" fill="#E0234E"/>
</svg>
