<svg width="106" height="38" viewBox="0 0 106 38" fill="none" xmlns="http://www.w3.org/2000/svg">
<path d="M70.9255 0.000121598C70.8263 0.000187367 70.7289 0.0260782 70.6428 0.0752445C70.5572 0.12531 70.4862 0.196803 70.4367 0.282679C70.3871 0.368555 70.3608 0.465851 70.3603 0.564983V14.9724C70.3603 15.1137 70.2947 15.2404 70.1721 15.3113C70.1121 15.3463 70.0439 15.3647 69.9744 15.3647C69.9049 15.3647 69.8367 15.3463 69.7766 15.3113L67.4224 13.9555C67.2507 13.8561 67.0558 13.8038 66.8575 13.8038C66.6591 13.8038 66.4642 13.8561 66.2925 13.9555L56.8948 19.3792C56.5435 19.5821 56.3299 19.9718 56.3299 20.3775V31.2254C56.3299 31.6305 56.5438 32.0017 56.8948 32.2046L66.2925 37.6286C66.4641 37.7282 66.659 37.7807 66.8575 37.7807C67.0559 37.7807 67.2508 37.7282 67.4224 37.6286L76.8201 32.2046C76.9922 32.1055 77.1351 31.9628 77.2343 31.7909C77.3335 31.619 77.3856 31.4239 77.3853 31.2254V4.18109C77.385 3.97792 77.3308 3.77846 77.2283 3.60307C77.1257 3.42768 76.9785 3.28264 76.8016 3.18277L71.2079 0.0563984C71.1202 0.00745066 71.0229 -0.00118716 70.9255 0.000121598ZM10.4711 13.5411C10.2921 13.5482 10.1235 13.5796 9.96282 13.6728L0.564866 19.0968C0.392715 19.1957 0.249787 19.3384 0.150582 19.5103C0.0513784 19.6823 -0.00057116 19.8775 4.73653e-06 20.076L0.0188509 34.6344C0.0188509 34.8368 0.12329 35.025 0.301282 35.1239C0.386615 35.1752 0.484291 35.2023 0.583843 35.2023C0.683396 35.2023 0.781072 35.1752 0.866405 35.1239L6.44095 31.9224C6.79405 31.7125 7.02465 31.3476 7.02465 30.9429V24.1442C7.02465 23.7384 7.23798 23.3662 7.58978 23.1647L9.96256 21.79C10.1341 21.6902 10.3292 21.6382 10.5277 21.6392C10.7214 21.6392 10.9203 21.6876 11.0925 21.79L13.4656 23.1647C13.6379 23.2635 13.781 23.4062 13.8802 23.5782C13.9795 23.7503 14.0314 23.9455 14.0307 24.1442V30.9427C14.0307 31.3473 14.2637 31.7148 14.6144 31.9221L20.189 35.1239C20.2743 35.1752 20.372 35.2023 20.4715 35.2023C20.5711 35.2023 20.6688 35.1752 20.7541 35.1239C20.84 35.0742 20.9113 35.0028 20.9609 34.9168C21.0105 34.8309 21.0367 34.7334 21.0368 34.6342L21.0551 20.076C21.0562 19.8774 21.0045 19.682 20.9052 19.5099C20.806 19.3379 20.6628 19.1953 20.4902 19.0968L11.0925 13.6728C10.9337 13.5796 10.7646 13.5484 10.5842 13.5411H10.4711ZM94.9187 13.6728C94.7224 13.6728 94.53 13.7225 94.3539 13.8235L84.9562 19.2476C84.7841 19.3465 84.6412 19.4892 84.542 19.6612C84.4427 19.8331 84.3907 20.0282 84.3911 20.2268V31.0746C84.3911 31.4827 84.6209 31.8522 84.9748 32.0541L94.2973 37.365C94.6415 37.5613 95.0619 37.5762 95.4085 37.3833L101.058 34.2384C101.238 34.1389 101.359 33.9531 101.36 33.7489C101.361 33.6495 101.335 33.5516 101.285 33.4655C101.236 33.3794 101.164 33.3081 101.077 33.2592L91.623 27.8351C91.4461 27.7341 91.3217 27.5297 91.3217 27.3265V23.9369C91.3217 23.734 91.4474 23.5482 91.623 23.4471L94.5609 21.752C94.6468 21.7023 94.7443 21.6761 94.8435 21.6761C94.9427 21.6761 95.0402 21.7023 95.1261 21.752L98.0637 23.4471C98.1498 23.4966 98.2212 23.5679 98.2709 23.6538C98.3205 23.7398 98.3466 23.8373 98.3464 23.9366V26.6109C98.3461 26.7102 98.3721 26.8077 98.4217 26.8937C98.4713 26.9796 98.5428 27.051 98.6288 27.1004C98.805 27.2022 99.0181 27.2025 99.1937 27.1004L104.825 23.824C104.997 23.7246 105.139 23.5818 105.239 23.4099C105.338 23.238 105.39 23.043 105.39 22.8446V20.227C105.39 19.8226 105.176 19.4507 104.825 19.2476L95.4839 13.8235C95.3122 13.7242 95.1171 13.672 94.9187 13.6728ZM66.8196 21.7711C66.8688 21.7711 66.9264 21.7832 66.9704 21.8085L70.191 23.673C70.2784 23.7235 70.3418 23.817 70.3418 23.9177V27.6467C70.3418 27.748 70.279 27.8412 70.191 27.8917L66.9704 29.7561C66.9274 29.7807 66.8787 29.7936 66.8292 29.7936C66.7797 29.7936 66.731 29.7807 66.688 29.7561L63.4676 27.8917C63.3799 27.8409 63.3169 27.748 63.3169 27.6467V23.9177C63.3169 23.8167 63.3802 23.7241 63.4676 23.673L66.688 21.8088C66.7276 21.7842 66.773 21.771 66.8196 21.7711Z" fill="#262626"/>
<path d="M38.7025 13.6172C38.5067 13.6172 38.313 13.6669 38.1376 13.768L28.7399 19.1731C28.3884 19.3755 28.1748 19.766 28.1748 20.1712V31.019C28.1748 31.4247 28.3887 31.7954 28.7399 31.9985L38.1376 37.4223C38.3092 37.5219 38.5042 37.5745 38.7026 37.5745C38.9011 37.5745 39.096 37.5219 39.2676 37.4223L48.6653 31.9985C48.8374 31.8994 48.9802 31.7567 49.0794 31.5847C49.1786 31.4127 49.2306 31.2175 49.2302 31.019V20.1712C49.2302 19.7655 49.0166 19.3755 48.6653 19.1731L39.2676 13.768C39.0958 13.6687 38.9009 13.6167 38.7025 13.6172ZM94.9005 23.2976C94.863 23.2976 94.8214 23.2976 94.7876 23.3164L92.9797 24.371C92.946 24.3898 92.9178 24.417 92.8979 24.4501C92.8781 24.4832 92.8673 24.5209 92.8666 24.5595V26.631C92.8666 26.709 92.9117 26.7805 92.9797 26.8195L94.7876 27.8552C94.8554 27.8945 94.9277 27.8945 94.9947 27.8552L96.8026 26.8192C96.8362 26.8004 96.8643 26.7731 96.8841 26.7401C96.904 26.7071 96.9148 26.6695 96.9157 26.631V24.5592C96.9148 24.5207 96.904 24.4831 96.8841 24.4501C96.8643 24.4171 96.8362 24.3899 96.8026 24.371L94.9947 23.3162C94.9612 23.2965 94.9382 23.2976 94.9005 23.2976Z" fill="#83CD29"/>
</svg>
