<svg width="43" height="42" viewBox="0 0 43 42" fill="none" xmlns="http://www.w3.org/2000/svg">
<g clip-path="url(#clip0_111_1693)">
<path d="M0.390625 20.6421C0.408125 20.5844 0.422125 20.5249 0.43 20.4654C0.462375 19.8555 0.469375 19.2386 0.535 18.6279C0.637375 16.6504 1.29713 14.7429 2.43813 13.1241C2.95248 12.428 3.623 11.8623 4.39576 11.4725C5.16853 11.0827 6.02199 10.8797 6.8875 10.8797H21.0494C21.325 10.8797 21.325 10.8797 21.325 10.6041V9.61975C21.325 9.41675 21.2655 9.37125 21.0756 9.37125H11.4358C11.2713 9.37125 11.2126 9.32487 11.2126 9.15425V4.34525C11.2441 3.64875 11.5346 2.989 12.0264 2.49462C12.6794 1.79954 13.4926 1.27475 14.395 0.965997C15.497 0.569766 16.6428 0.307712 17.8075 0.185497C19.3996 0.00372089 21.0041 -0.0445724 22.6043 0.0411225C24.3298 0.0734975 26.0369 0.390247 27.6583 0.979122C28.7704 1.3542 29.7533 2.03684 30.4933 2.94787C31.0881 3.71338 31.3823 4.67014 31.3201 5.63762C31.2808 6.45137 31.3201 7.27125 31.3201 8.09112V12.6324C31.3201 13.524 31.3201 14.4226 31.2808 15.3081C31.2744 16.2684 30.9767 17.2041 30.427 17.9915C29.8774 18.779 29.1017 19.381 28.2025 19.7181C27.3302 20.0753 26.3949 20.2535 25.4524 20.2422H15.4249C14.3645 20.2219 13.3194 20.4967 12.4061 21.0359C11.2382 21.7699 10.4062 22.9342 10.09 24.2769C9.89972 24.9537 9.8046 25.6537 9.80738 26.3567V30.9032C9.80738 31.2051 9.80738 31.199 9.5055 31.2051C8.41613 31.2051 7.32675 31.2384 6.22425 31.2051C5.14528 31.1616 4.11613 30.7393 3.3175 30.0125C2.38914 29.1681 1.697 28.0963 1.30938 26.9027C0.916519 25.8178 0.667075 24.6862 0.567375 23.5366C0.50175 22.8016 0.4755 22.0666 0.43 21.3386C0.42147 21.2571 0.408323 21.1762 0.390625 21.0962V20.6421Z" fill="#3772A4"/>
<path d="M13.6934 5.02081C13.696 5.38488 13.8063 5.74002 14.0104 6.04147C14.2146 6.34293 14.5034 6.57718 14.8405 6.71471C15.1776 6.85224 15.5479 6.88688 15.9046 6.81427C16.2614 6.74166 16.5887 6.56505 16.8452 6.30669C17.1017 6.04834 17.276 5.71983 17.3461 5.36256C17.4162 5.0053 17.3789 4.63528 17.239 4.29916C17.0991 3.96305 16.8628 3.67589 16.5599 3.47388C16.257 3.27188 15.9011 3.16407 15.537 3.16406C15.0469 3.16776 14.5781 3.36498 14.2328 3.71276C13.8875 4.06055 13.6936 4.53071 13.6934 5.02081Z" fill="black"/>
<path d="M13.6934 5.02008C13.6934 4.77763 13.7411 4.53755 13.8339 4.31355C13.9267 4.08955 14.0627 3.88602 14.2341 3.71458C14.4056 3.54314 14.6091 3.40715 14.8331 3.31437C15.0571 3.22158 15.2972 3.17383 15.5396 3.17383C15.7821 3.17383 16.0221 3.22158 16.2461 3.31437C16.4701 3.40715 16.6737 3.54314 16.8451 3.71458C17.0165 3.88602 17.1525 4.08955 17.2453 4.31355C17.3381 4.53755 17.3859 4.77763 17.3859 5.02008C17.3859 5.50973 17.1913 5.97933 16.8451 6.32557C16.4989 6.67181 16.0293 6.86633 15.5396 6.86633C15.05 6.86633 14.5804 6.67181 14.2341 6.32557C13.8879 5.97933 13.6934 5.50973 13.6934 5.02008Z" fill="white"/>
<path d="M42.3906 21.3508C42.3731 21.4086 42.3591 21.4681 42.3513 21.5285C42.3189 22.1383 42.3119 22.7552 42.2463 23.366C42.1437 25.3433 41.484 27.2514 40.3431 28.8697C39.8294 29.5669 39.1592 30.1338 38.3864 30.5247C37.6136 30.9156 36.7598 31.1196 35.8938 31.1202H21.7319C21.4563 31.1202 21.4563 31.1202 21.4563 31.3958V32.3802C21.4563 32.5832 21.5158 32.6296 21.7056 32.6296H31.3464C31.51 32.6296 31.5695 32.6751 31.5695 32.8457V37.6547C31.5374 38.3512 31.2474 39.0109 30.7558 39.5053C30.1024 40.2005 29.289 40.7253 28.3863 41.034C27.2865 41.4296 26.1431 41.6917 24.9808 41.8145C23.3883 41.9965 21.7835 42.0446 20.1831 41.9588C18.4586 41.9269 16.7511 41.61 15.13 41.0208C14.0179 40.6458 13.0349 39.9631 12.295 39.0521C11.7001 38.2866 11.406 37.3298 11.4681 36.3623C11.5075 35.5486 11.4681 34.7287 11.4681 33.9088V29.3676C11.4681 28.476 11.4681 27.5773 11.5075 26.6918C11.5137 25.7316 11.8112 24.7959 12.3607 24.0085C12.9102 23.221 13.6858 22.6189 14.5849 22.2818C15.4572 21.9247 16.3924 21.7464 17.335 21.7577H27.3564C28.4167 21.778 29.4619 21.5032 30.3751 20.9641C31.5445 20.2283 32.3766 19.0613 32.6913 17.7161C32.8815 17.0393 32.9766 16.3392 32.9739 15.6362V11.0897C32.9739 10.7878 32.9739 10.7948 33.2758 10.7878C34.3651 10.7878 35.4545 10.7555 36.557 10.7878C37.6362 10.8318 38.6654 11.2547 39.4638 11.9822C40.3921 12.8266 41.0842 13.8984 41.4719 15.092C41.8633 16.1812 42.1104 17.3169 42.2069 18.4703C42.2725 19.2053 42.2988 19.9403 42.3451 20.6683C42.3539 20.748 42.367 20.8267 42.3845 20.9046C42.3889 21.049 42.3906 21.1977 42.3906 21.3508Z" fill="#FFDA4B"/>
<path d="M29.0876 36.7426C29.085 36.3785 28.9747 36.0234 28.7705 35.7219C28.5664 35.4205 28.2775 35.1862 27.9404 35.0487C27.6033 34.9112 27.2331 34.8765 26.8763 34.9491C26.5196 35.0218 26.1923 35.1984 25.9358 35.4567C25.6792 35.7151 25.5049 36.0436 25.4349 36.4009C25.3648 36.7581 25.4021 37.1281 25.542 37.4643C25.6819 37.8004 25.9182 38.0875 26.2211 38.2895C26.524 38.4915 26.8799 38.5994 27.244 38.5994C27.7341 38.5957 28.2028 38.3984 28.5482 38.0507C28.8935 37.7029 29.0874 37.2327 29.0876 36.7426Z" fill="black"/>
<path d="M29.088 36.7427C29.088 37.2324 28.8935 37.702 28.5473 38.0482C28.201 38.3945 27.7314 38.589 27.2418 38.589C26.7521 38.589 26.2825 38.3945 25.9363 38.0482C25.59 37.702 25.3955 37.2324 25.3955 36.7427C25.3955 36.2531 25.59 35.7835 25.9363 35.4372C26.2825 35.091 26.7521 34.8965 27.2418 34.8965C27.7314 34.8965 28.201 35.091 28.5473 35.4372C28.8935 35.7835 29.088 36.2531 29.088 36.7427Z" fill="white"/>
</g>
<defs>
<clipPath id="clip0_111_1693">
<rect width="42" height="42" fill="white" transform="translate(0.390625)"/>
</clipPath>
</defs>
</svg>
