<svg width="96" height="96" viewBox="0 0 96 96" fill="none" xmlns="http://www.w3.org/2000/svg">
<path d="M69.806 36.2127L56.536 43.8768L58.3993 78.7208L67.0321 72.545C68.6766 71.4083 69.6493 69.5294 69.6259 67.5294L69.7509 45.9394V45.8495L69.806 36.2127ZM79.3958 20.5017L79.3997 20.5056C79.4192 20.5056 79.4426 20.5095 79.4661 20.5134C82.052 20.9587 84.7044 20.865 87.2552 20.24C88.6146 19.822 90.056 19.7634 91.4466 20.0642L91.5833 20.115V20.1111L91.5794 20.115C92.6966 20.5173 93.6458 21.2908 94.2591 22.3064C94.9114 23.3494 95.0755 24.6228 94.7044 25.7947L94.6692 25.9079C93.9622 27.8845 90.927 31.4235 86.3645 35.5056C81.8254 39.5095 77.0051 43.1853 71.9425 46.5016L71.8254 67.5446H71.8214C71.8449 70.2477 70.5284 72.7907 68.3097 74.3415L58.0638 81.6657V81.6618C57.888 81.7985 57.677 81.8728 57.4583 81.8806C57.1653 81.8962 56.8802 81.7946 56.6614 81.5993C56.4466 81.404 56.3137 81.1306 56.302 80.8415L54.9739 55.8215C50.1028 58.0051 45.0012 59.6223 39.7589 60.6379C35.5245 61.47 31.1808 61.5676 26.9109 60.9309L26.868 68.9153H26.8719C26.8758 70.4895 26.1101 71.9661 24.8211 72.8684L19.5242 76.6575C19.1999 76.8997 18.7663 76.9466 18.3992 76.7747C18.0281 76.6028 17.7859 76.2395 17.7664 75.8333L16.7585 56.9193C16.2898 56.5951 15.8406 56.263 15.3991 55.9076C14.8093 55.4388 14.2311 54.931 13.6648 54.3842L1.83275 42.8062C1.58666 42.5679 1.46556 42.2241 1.50853 41.8843C1.5515 41.5445 1.75462 41.2437 2.0515 41.0718L9.8874 35.896C10.2546 35.6538 10.7311 35.6538 11.0983 35.896L25.8873 45.7085L42.4493 36.146L23.3083 23.693C22.8005 23.361 22.656 22.6813 22.9841 22.1735C23.1013 21.9977 23.2653 21.8571 23.4567 21.7672L34.9487 16.5484C37.3979 15.3961 40.2573 15.525 42.5893 16.8961L59.2923 26.4195L69.8353 20.3336C73.1283 18.4313 76.2103 19.4664 78.2689 20.1617L78.2728 20.1578C78.64 20.2945 79.015 20.4078 79.3978 20.5055L79.3958 20.5017ZM79.4309 22.7361L73.3254 26.2595L73.3293 26.2634C72.8059 26.5681 72.1301 26.3923 71.8254 25.8649C71.5207 25.3376 71.7004 24.6657 72.2239 24.361L76.4934 21.9001C74.677 21.2166 72.6536 21.3376 70.9309 22.2361L59.8999 28.6033C59.8686 28.6267 59.8335 28.6463 59.7944 28.6658L45.1534 37.1267C45.1222 37.1423 45.0909 37.1618 45.0557 37.1775L26.4657 47.9155H26.4618C26.0907 48.1616 25.6103 48.1616 25.2391 47.9194L10.4851 38.1342L4.34454 42.185L15.1885 52.798C15.7003 53.2863 16.2237 53.7511 16.7666 54.1847C17.1416 54.4816 17.5166 54.7628 17.8916 55.0284L25.3135 50.7432C25.6534 50.5479 26.0753 50.5479 26.4151 50.7471C26.755 50.9424 26.962 51.3096 26.9581 51.7002L26.923 58.4385L54.853 42.3135L69.5559 33.8213L70.3333 33.3721C70.3567 33.3604 70.3763 33.3487 70.3997 33.337L89.9227 22.064C89.1688 22.1187 88.4227 22.2319 87.6844 22.4038C84.9813 23.0562 82.1766 23.1733 79.4305 22.7398L79.4309 22.7361ZM63.5049 27.8845L65.3994 26.7947C65.8486 26.533 66.3838 26.4626 66.8877 26.5994C67.3916 26.7322 67.8174 27.0642 68.0791 27.5134L69.1963 29.4587C69.458 29.9079 69.5284 30.4431 69.3955 30.9431C69.2627 31.447 68.9346 31.8767 68.4854 32.1345L66.5362 33.2595C66.5088 33.2752 66.4776 33.2908 66.4463 33.3064V33.3103C66.0127 33.5291 65.5166 33.5837 65.0479 33.4587C64.544 33.322 64.1143 32.9939 63.8565 32.5408C63.8409 32.5212 63.8292 32.5017 63.8214 32.4822L62.7316 30.5994C62.4699 30.1502 62.3996 29.6111 62.5324 29.1072C62.6691 28.6033 62.9972 28.1736 63.4503 27.9158C63.4699 27.9041 63.4894 27.8923 63.5089 27.8845L63.5049 27.8845ZM66.2861 28.8181L64.747 29.7048L65.6337 31.24L67.1728 30.3494L66.2861 28.8181ZM54.4541 33.1111L56.3369 32.0213H56.3408C56.7901 31.7595 57.3291 31.6892 57.833 31.826C58.333 31.9588 58.7627 32.2908 59.0244 32.74L60.1455 34.6853V34.6814C60.4072 35.1306 60.4776 35.6697 60.3408 36.1697C60.2119 36.6736 59.8838 37.1072 59.4307 37.365L57.4854 38.49C57.0323 38.7517 56.4971 38.822 55.9893 38.6892C55.4893 38.5525 55.0635 38.2244 54.8018 37.7752L53.6768 35.8299C53.6612 35.7986 53.6455 35.7713 53.6299 35.74C53.1494 34.8064 53.4893 33.6658 54.3955 33.1423L54.458 33.1111L54.4541 33.1111ZM57.2314 34.0447L55.6962 34.9314L56.5868 36.4626L58.118 35.5759L57.2314 34.0447ZM45.3364 38.3728L47.2817 37.2478L47.2856 37.2439C47.7348 36.986 48.2739 36.9157 48.7739 37.0524C49.2817 37.1853 49.7114 37.5134 49.9692 37.9704L51.0903 39.9157C51.352 40.3649 51.4224 40.9001 51.2856 41.404C51.1528 41.9079 50.8208 42.3337 50.3716 42.5915L48.4341 43.7126H48.4302C47.981 43.9782 47.4419 44.0486 46.9419 43.9118C46.438 43.779 46.0083 43.4509 45.7466 42.9978L44.6255 41.0564L44.5786 40.9626C44.3559 40.529 44.3013 40.0329 44.4302 39.5642C44.563 39.0603 44.8911 38.6306 45.3442 38.3728L45.3364 38.3728ZM48.1802 39.2751L46.649 40.1618L47.5357 41.693L49.0709 40.8063L48.1802 39.2751ZM36.2892 43.6032L38.2267 42.4821L38.2306 42.4782C38.6838 42.2165 39.2189 42.1462 39.7228 42.279C40.2267 42.4157 40.6564 42.7438 40.9142 43.1969C40.9299 43.2165 40.9377 43.236 40.9494 43.2594L42.0432 45.1422C42.5822 46.0797 42.258 47.2789 41.3166 47.8219L39.3791 48.943C38.4416 49.486 37.2385 49.1657 36.6955 48.2282L35.5705 46.2829C35.3088 45.8337 35.2385 45.2946 35.3713 44.7907C35.508 44.2868 35.8401 43.8571 36.2893 43.5993L36.2892 43.6032ZM39.1251 44.5016L37.5939 45.3884L38.4806 46.9236L40.0197 46.0368L39.1251 44.5016ZM92.2501 23.2636L72.0121 34.9436L71.9652 43.8498C76.4925 40.8107 80.8168 37.4748 84.9032 33.8615C89.1884 30.0295 91.997 26.8263 92.5868 25.1623C92.6064 25.1116 92.6025 25.1311 92.6064 25.1155C92.7783 24.5491 92.6923 23.9358 92.372 23.4397C92.3368 23.3772 92.2978 23.3147 92.2509 23.2561L92.2501 23.2636ZM54.3981 45.1116L30.1871 59.0916V59.0877C33.2652 59.2518 36.3473 59.0448 39.3746 58.4745C44.7105 57.4276 49.9056 55.7479 54.8476 53.4706L54.3981 45.1116ZM19.8551 73.7136L23.5465 71.0691L23.5426 71.073C23.8942 70.8309 24.1793 70.5105 24.3786 70.1355C24.57 69.7527 24.6715 69.3309 24.6715 68.905L24.7223 59.6823C24.7184 59.6277 24.7184 59.5691 24.7223 59.5105L24.7575 53.6043L18.9606 56.9441L19.8551 73.7136ZM44.5931 34.9086L57.0971 27.6898L41.5071 18.807L41.5032 18.8109C40.6556 18.3149 39.6985 18.0297 38.718 17.9789C37.7297 17.9399 36.7532 18.1391 35.8586 18.5531L26.1945 22.9437L44.5931 34.9086Z" fill="#262626"/>
</svg>
