<svg width="96" height="96" viewBox="0 0 96 96" fill="none" xmlns="http://www.w3.org/2000/svg">
<path d="M81.9016 63.329L80.7122 61.7132C81.4004 58.2125 82.3504 55.5345 80.1886 52.6172L69.5591 37.0731C68.3173 35.39 65.8339 35.1058 64.0236 36.4373C62.6922 37.4172 62.0713 37.7613 61.4953 38.8235L60.7099 37.7613C59.3784 35.951 56.8276 35.5695 55.0248 36.8936C53.6933 37.8735 53.0575 38.2176 52.5114 39.3172C51.1575 37.6117 48.674 37.2601 46.9087 38.5692L46.5421 38.8384V13.1959C46.5421 10.7499 44.5524 8.76758 42.1138 8.76758H10.9283C8.48228 8.76758 6.5 10.7573 6.5 13.1959V70.0014C6.5 72.4475 8.48976 74.4298 10.9283 74.4298C44.5225 74.4298 43.0189 74.7589 44.6347 73.6443C50.9106 77.0928 48.7264 78.4392 60.7248 76.0156L62.2807 78.1251C61.8319 79.5239 62.0563 81.0798 62.954 82.2916C67.0457 87.842 66.926 87.8943 67.5693 87.9916C67.876 88.0365 68.1677 87.9542 68.3996 87.7821L89.7859 71.9987C90.0252 71.8192 90.1823 71.5573 90.2272 71.2656C90.3244 70.6447 90.4217 70.9814 86.1429 65.1766C85.1481 63.8302 83.5248 63.157 81.9091 63.329H81.9016ZM8.73661 13.1959C8.73661 11.9916 9.71654 11.0117 10.9209 11.0117H42.1213C43.3256 11.0117 44.3055 11.9916 44.3055 13.1959V17.2428H8.73661V13.1959ZM8.73661 19.4869H44.3055V40.8581L38.3213 32.7495C37.3114 31.388 35.5012 30.9168 33.7882 31.418C26.7567 25.1794 15.5587 30.1388 15.5587 39.6164C15.5587 49.64 28.0957 54.4873 34.7831 46.8125L42.9441 57.8609C43.6323 58.7959 43.9689 59.918 43.924 61.055C37.5508 60.464 37.1244 60.2621 35.7555 60.8156C33.7732 61.6384 32.5091 62.6632 31.6937 63.703H8.73661V19.4869ZM21.6551 40.7235L24.1236 43.5361C24.5724 44.0447 25.3654 44.0447 25.8067 43.5361L29.3673 39.4818L33.4067 44.9573C28.3051 51.5251 17.7953 47.8971 17.7953 39.6239C17.7953 32.4951 25.9339 28.381 31.6713 32.5999C30.3847 33.5499 28.739 34.5821 28.6043 36.9534L24.9614 41.0975L23.3382 39.2424C22.3583 38.1278 20.6752 39.6089 21.6476 40.7235H21.6551ZM10.9283 72.1932C9.72402 72.1932 8.7441 71.2132 8.7441 70.0089V65.9546H30.5717C30.1528 67.518 30.2425 69.0664 31.4843 70.1136C33.7059 71.9912 34.8654 69.4404 41.5977 72.1932H10.9283ZM52.7209 75.0058C49.9307 75.2302 49.5567 73.4798 44.1335 70.8617C36.7205 67.2786 33.8854 69.2085 32.928 68.4007C32.337 67.8995 32.6512 66.6203 32.9429 65.9546C33.7732 64.077 36.5185 62.6184 37.663 62.7381L44.7768 63.3963C45.263 63.4412 45.839 63.0971 45.9736 62.5361C46.4823 60.3518 45.9288 58.1451 44.7394 56.5369C30.8784 37.7538 31.0429 38.053 30.9232 37.7089C30.5941 36.8113 31.1776 35.7491 31.948 35.1806C33.2047 34.253 34.2819 33.1833 35.6358 33.5274C36.4512 33.7294 35.965 33.3404 44.3055 44.6432L50.0953 52.4825C50.978 53.6794 52.7807 52.3404 51.8981 51.151L46.5496 43.9026C45.9437 43.0648 46.1831 41.9203 46.9461 41.3593L48.2477 40.3943C49.063 39.7959 50.2075 39.968 50.8059 40.7833L58.204 50.8069C59.0866 52.0038 60.8894 50.6648 60.0067 49.4755L54.6658 42.242C54.0673 41.4266 54.2394 40.2896 55.0398 39.6912L56.3563 38.7188C57.1642 38.1278 58.3087 38.2999 58.9071 39.1077C67.1055 50.216 66.6418 49.9392 67.4721 49.9392C68.3847 49.9392 68.9233 48.8995 68.3772 48.1514L63.5075 41.5463C63.0063 40.8581 63.2532 39.8109 64.0611 39.2125L65.3626 38.2475C66.178 37.6491 67.2477 37.7239 67.7339 38.3747L78.3634 53.9188C79.1788 55.0258 79.478 56.4172 79.1862 57.8459C78.3634 62.0274 78.2213 62.1247 78.6103 62.6558C79.867 64.3613 79.7398 64.1294 79.6425 64.1967C63.5599 76.068 63.8516 75.8361 63.5673 76.0904C60.5303 71.9762 63.1858 74.1231 52.7209 74.9983V75.0058ZM67.9658 85.3136L64.7567 80.9601C63.9563 79.8755 64.2331 78.3644 65.2579 77.6089C81.6024 65.5432 81.0713 65.8424 81.6772 65.6554C82.6571 65.3487 83.7193 65.6928 84.3252 66.5156L87.5418 70.8692L67.9658 85.3211V85.3136Z" fill="#262626"/>
</svg>
