<svg width="96" height="96" viewBox="0 0 96 96" fill="none" xmlns="http://www.w3.org/2000/svg">
<path d="M71.3768 15.7715C70.9686 15.754 70.5546 15.7948 70.1436 15.9057L22.0775 28.7917C19.8821 29.381 18.5585 31.677 19.1474 33.8738L20.0862 37.3862C17.987 38.2848 16.5 40.3765 16.5 42.795C16.5 45.7094 18.6546 48.1513 21.4448 48.6005L21.4477 76.6191C21.4477 78.8946 23.3195 80.7676 25.5937 80.7676H75.354C77.6282 80.7676 79.5 78.8946 79.5 76.6191V43.2621C79.5 42.4978 78.879 41.8792 78.118 41.8792H29.3429L76.567 29.218C77.3046 29.0196 77.742 28.2612 77.5437 27.526L75.22 18.8409C74.7418 17.0555 73.1378 15.8474 71.3768 15.7715ZM71.1406 18.5313C71.7879 18.4875 72.3768 18.896 72.5518 19.5553L74.5169 26.9041L27.2786 39.5683C26.3019 38.095 24.6779 37.0798 22.8265 36.9339L21.8148 33.1589C21.6136 32.4062 22.0393 31.6681 22.7944 31.4639L70.8582 18.5779C70.9515 18.5516 71.0477 18.537 71.1381 18.5312L71.1406 18.5313ZM67.537 21.2794C67.4554 21.2882 67.3766 21.3028 67.3008 21.3232C66.5632 21.5216 66.1259 22.2801 66.3241 23.0182L67.0413 25.6904C67.2396 26.4285 67.9976 26.8661 68.7353 26.6678C69.4729 26.4694 69.9102 25.7109 69.712 24.9728L68.9919 22.3005C68.8198 21.65 68.2046 21.2182 67.5341 21.2794L67.537 21.2794ZM59.5252 23.4295C59.4436 23.4354 59.3649 23.45 59.2891 23.4704C58.5514 23.6688 58.1141 24.4272 58.3124 25.1653L59.0267 27.8376C59.2249 28.5757 59.9829 29.0133 60.7206 28.8149C61.4583 28.6166 61.8956 27.8581 61.6973 27.12L60.9801 24.4477C60.8052 23.8 60.1929 23.3712 59.5252 23.4295ZM51.5165 25.5767C51.4378 25.5825 51.3561 25.5971 51.2803 25.6175C50.5398 25.8159 50.1024 26.5744 50.3007 27.3096L51.015 29.9848C51.2133 30.7229 51.9713 31.1605 52.7089 30.9621C53.4466 30.7637 53.8839 30.0053 53.6857 29.2671L52.9713 26.5949C52.7964 25.9472 52.1841 25.5184 51.5165 25.5767ZM43.5047 27.7239C43.426 27.7297 43.3444 27.7443 43.2686 27.7647C42.5309 27.9631 42.0936 28.7216 42.2919 29.4597L43.0062 32.132C43.2044 32.8701 43.9624 33.3076 44.7001 33.1093C45.4348 32.9138 45.8751 32.1553 45.6768 31.4172L44.9596 28.745C44.7876 28.0973 44.1753 27.6656 43.5047 27.7239ZM35.493 29.874C35.4143 29.8798 35.3326 29.8944 35.2568 29.9148C34.5192 30.1132 34.0819 30.8717 34.2801 31.6098L34.9944 34.2791C35.1927 35.0172 35.9507 35.4548 36.6884 35.2565C37.4231 35.061 37.8604 34.3025 37.6651 33.5644L36.9478 30.8921C36.7758 30.2445 36.1606 29.8156 35.493 29.874ZM27.4842 32.0211C27.4055 32.027 27.3239 32.0416 27.2481 32.062C26.5104 32.2604 26.0731 33.0188 26.2713 33.7569L26.9857 36.4292C27.1839 37.1673 27.9419 37.6049 28.6796 37.4065C29.4143 37.2082 29.8517 36.4497 29.6534 35.7116L28.9391 33.0393C28.7642 32.3916 28.1519 31.9628 27.4842 32.0211ZM22.3761 39.6823C24.1109 39.6823 25.487 41.0593 25.487 42.7951C25.487 44.5309 24.1109 45.9079 22.3761 45.9079C20.6413 45.9079 19.2651 44.5309 19.2651 42.7951C19.2651 41.0593 20.6413 39.6823 22.3761 39.6823ZM27.9477 44.6447H76.734V53.6329L24.2128 53.6358V48.3758C25.968 47.7923 27.3617 46.4008 27.9506 44.6445L27.9477 44.6447ZM29.7408 46.3717C28.9769 46.3717 28.3588 46.9902 28.3588 47.7546V50.5202C28.3588 51.2845 28.9769 51.9031 29.7408 51.9031C30.5047 51.9031 31.1228 51.2846 31.1228 50.5202V47.7546C31.1228 46.9903 30.5047 46.3717 29.7408 46.3717ZM38.0324 46.3717C37.2686 46.3717 36.6504 46.9902 36.6504 47.7546V50.5202C36.6504 51.2845 37.2685 51.9031 38.0324 51.9031C38.7963 51.9031 39.4145 51.2846 39.4145 50.5202V47.7546C39.4145 46.9903 38.7964 46.3717 38.0324 46.3717ZM46.3241 46.3717C45.5602 46.3717 44.9421 46.9902 44.9421 47.7546V50.5202C44.9421 51.2845 45.5602 51.9031 46.3241 51.9031C47.0879 51.9031 47.7061 51.2846 47.7061 50.5202V47.7546C47.7061 46.9903 47.088 46.3717 46.3241 46.3717ZM54.6157 46.3717C53.8519 46.3717 53.2337 46.9902 53.2337 47.7546V50.5202C53.2337 51.2845 53.8518 51.9031 54.6157 51.9031C55.3796 51.9031 55.9977 51.2846 55.9977 50.5202V47.7546C55.9977 46.9903 55.3796 46.3717 54.6157 46.3717ZM62.9074 46.3717C62.1435 46.3717 61.5254 46.9902 61.5254 47.7546V50.5202C61.5254 51.2845 62.1435 51.9031 62.9074 51.9031C63.6712 51.9031 64.2894 51.2846 64.2894 50.5202V47.7546C64.2894 46.9903 63.6713 46.3717 62.9074 46.3717ZM71.199 46.3717C70.4352 46.3717 69.817 46.9902 69.817 47.7546V50.5202C69.817 51.2845 70.4351 51.9031 71.199 51.9031C71.9629 51.9031 72.581 51.2846 72.581 50.5202V47.7546C72.581 46.9903 71.9629 46.3717 71.199 46.3717ZM24.2115 56.4018H76.7357V76.6189C76.7357 77.3978 76.1322 78.0017 75.3537 78.0017H25.5934C24.8149 78.0017 24.2114 77.3978 24.2114 76.6189L24.2115 56.4018ZM32.5032 61.9739C31.7393 61.9739 31.1212 62.5924 31.1212 63.3568C31.1212 64.1212 31.7393 64.7397 32.5032 64.7397H68.4404C69.2042 64.7397 69.8224 64.1212 69.8224 63.3568C69.8224 62.5924 69.2043 61.9739 68.4404 61.9739H32.5032ZM32.5032 69.2936C31.7393 69.2936 31.1212 69.9121 31.1212 70.6765C31.1212 71.4408 31.7393 72.0593 32.5032 72.0593H68.4404C69.2042 72.0593 69.8224 71.4408 69.8224 70.6765C69.8224 69.9121 69.2043 69.2936 68.4404 69.2936H32.5032Z" fill="#262626"/>
</svg>
