<svg width="96" height="96" viewBox="0 0 96 96" fill="none" xmlns="http://www.w3.org/2000/svg">
<mask id="path-1-inside-1_263_204" fill="white">
<path fill-rule="evenodd" clip-rule="evenodd" d="M41.0898 18.7413H55.924C56.8649 18.7413 57.6333 19.5089 57.6333 20.449C57.6333 21.389 56.8649 22.1567 55.924 22.1567H41.0898C40.1489 22.1567 39.3806 21.389 39.3806 20.449C39.3806 19.5089 40.1489 18.7413 41.0898 18.7413ZM61.751 53.7287L58.5713 54.5538C58.3094 55.7095 57.8519 56.7933 57.2361 57.7679L58.9079 60.6227L56.8562 62.6696L54.0016 60.9964C53.0261 61.6116 51.9441 62.0658 50.7845 62.3275L49.9471 65.5273C48.9802 65.5273 48.0134 65.5273 47.0494 65.5244L46.2149 62.3246C45.0581 62.063 43.9761 61.6059 43.0035 60.9935L40.146 62.6667L38.0972 60.6198L39.772 57.765C39.1562 56.7933 38.6986 55.7095 38.4396 54.5509L35.2368 53.7172V50.8222L38.4396 49.9885C38.7015 48.8328 39.159 47.7489 39.772 46.7743L38.0972 43.9196L40.146 41.8727L43.0035 43.5458C43.9761 42.9306 45.061 42.4764 46.2206 42.2148L47.0551 39.015H49.9528L50.7873 42.2148C51.9441 42.4764 53.029 42.9335 54.0045 43.5458L56.8619 41.8727L58.9107 43.9196L57.236 46.7743C57.8518 47.746 58.3064 48.8299 58.5683 49.9885L61.7711 50.825L61.751 53.7287ZM48.5058 52.9668H48.5317V52.9697C49.7202 52.9697 51.0812 53.6395 51.0841 54.7493H51.0812C51.0812 55.2035 50.8222 55.6261 50.3992 55.9452C48.7504 57.1929 45.9361 56.2902 45.9217 54.7435C45.9131 53.8178 44.5088 53.8322 44.5175 54.755C44.5348 56.4397 46.0772 57.6155 47.7289 57.8772L47.7174 58.7828C47.7059 59.7056 49.1101 59.7228 49.1216 58.8L49.1331 57.8973C50.8482 57.6817 52.4884 56.4972 52.4884 54.7493L52.4913 54.7522C52.4855 52.803 50.5029 51.564 48.5346 51.564V51.5668H48.4828V51.564C47.2943 51.564 45.9333 50.8941 45.9275 49.7844H45.9303C45.9303 49.3301 46.1893 48.9075 46.6123 48.5884C48.2612 47.3407 51.0755 48.2434 51.0898 49.7901C51.0985 50.7158 52.5028 50.7015 52.4941 49.7786C52.4768 48.0939 50.9344 46.9181 49.2827 46.6565L49.2942 45.7509C49.3057 44.828 47.9014 44.8108 47.8899 45.7336L47.8784 46.6364C46.1634 46.852 44.5232 48.0364 44.5232 49.7843H44.526C44.5318 51.7335 46.5144 52.9726 48.4827 52.9726V52.9697L48.5058 52.9668ZM57.3914 42.396L61.5697 38.2476C61.7078 38.1125 61.8862 38.0435 62.0646 38.0435V38.0406H65.4861V19.0231C65.4861 16.91 63.7537 15.1793 61.6387 15.1793L35.3723 15.1764C33.2573 15.1764 31.5249 16.9072 31.5249 19.0202V38.0377H34.9464V38.0406C35.1248 38.0406 35.3061 38.1096 35.4413 38.2447L39.6196 42.3932L38.6268 43.385L34.6586 39.4464H31.5249V51.5583H35.237V52.967H31.5249V65.0789H34.6586L38.6268 61.1374L39.6196 62.1293L35.4413 66.2777C35.3032 66.4129 35.1248 66.4818 34.9464 66.4818V66.4847H31.5249V77.5155C31.5249 79.6285 33.2573 81.3592 35.3723 81.3592H61.6357C63.7508 81.3592 65.4831 79.6285 65.4831 77.5155L65.486 66.4612H62.0904V66.4583C61.912 66.4583 61.7307 66.3893 61.5955 66.2542L57.4172 62.1057L58.4129 61.1139L62.381 65.0525H65.4889V52.9781H61.7595L61.771 51.5694H65.4889L65.486 39.4487H62.3523L58.3842 43.3873L57.3914 42.396ZM77.9376 48.7208C76.2111 48.7208 74.7752 49.9484 74.4471 51.5756C74.4241 51.5727 74.4011 51.5727 74.3781 51.5727H66.8936L66.8965 39.4491L71.6301 39.4433C71.9409 40.6593 73.0459 41.5621 74.3609 41.5621C75.9177 41.5621 77.178 40.3 77.178 38.7447C77.178 37.1894 75.9148 35.9273 74.3609 35.9273C73.0458 35.9273 71.9408 36.8272 71.6301 38.0461L66.8965 38.0404V19.0229C66.8965 16.1336 64.5311 13.7705 61.6391 13.7705L35.3727 13.7676C32.4807 13.7676 30.1154 16.1307 30.1154 19.02V38.0375L25.3789 38.0433C25.0681 36.8272 23.9631 35.9245 22.6481 35.9245C21.0913 35.9245 19.8309 37.1865 19.8309 38.7418C19.8309 40.2972 21.0942 41.5592 22.6481 41.5592C23.9632 41.5592 25.0682 40.6593 25.3789 39.4404L30.1154 39.4462V51.5581H22.6191C22.5961 51.5581 22.5731 51.5609 22.5501 51.5609C22.2249 49.9338 20.7861 48.7062 19.0595 48.7062C17.0941 48.7062 15.5 50.2989 15.5 52.2624C15.5 54.2259 17.0942 55.8186 19.0595 55.8186C20.7832 55.8186 22.222 54.591 22.5501 52.9639C22.5731 52.9667 22.5961 52.9667 22.6191 52.9667H30.1154V65.0786L25.3789 65.0844C25.0681 63.8683 23.9631 62.9656 22.6481 62.9656C21.0913 62.9656 19.8281 64.2276 19.8281 65.783C19.8281 67.3383 21.0913 68.5975 22.6481 68.5975C23.9632 68.5975 25.0682 67.6976 25.3789 66.4787L30.1154 66.4844V77.5152C30.1154 80.4045 32.4807 82.7676 35.3727 82.7676H61.6362C64.5282 82.7676 66.8935 80.4045 66.8935 77.5152L66.8964 66.4609L71.6588 66.4551C71.9695 67.6712 73.0745 68.5739 74.3896 68.5739C75.9463 68.5739 77.2096 67.3119 77.2096 65.7594C77.2096 64.2041 75.9463 62.942 74.3896 62.942C73.0745 62.942 71.9695 63.8419 71.6588 65.0608L66.8964 65.0551V52.9807H74.3809C74.4039 52.9807 74.4269 52.9807 74.4499 52.9778C74.7751 54.605 76.2139 55.8326 77.9405 55.8326C79.9059 55.8326 81.5 54.2399 81.5 52.2764C81.4971 50.3099 79.903 48.7208 77.9376 48.7208ZM49.2881 70.9295L49.2939 65.5218H47.8839L47.8896 70.9295C46.6724 71.24 45.7688 72.344 45.7688 73.6578C45.7688 75.2131 47.0321 76.4752 48.5889 76.4752C50.1456 76.4752 51.4089 75.2131 51.4089 73.6578C51.406 72.3439 50.5053 71.24 49.2881 70.9295ZM49.2881 33.2912C50.5053 32.9807 51.4089 31.8767 51.4089 30.5629C51.4089 29.0076 50.1457 27.7484 48.5889 27.7484C47.0321 27.7484 45.7689 29.0105 45.7689 30.5629C45.7689 31.8768 46.6696 32.9807 47.8897 33.2912L47.8839 38.6989C47.8839 38.811 47.9098 38.9174 47.9559 39.0122H49.2191C49.2651 38.9174 49.291 38.811 49.291 38.6989L49.2881 33.2912Z"/>
</mask>
<path fill-rule="evenodd" clip-rule="evenodd" d="M41.0898 18.7413H55.924C56.8649 18.7413 57.6333 19.5089 57.6333 20.449C57.6333 21.389 56.8649 22.1567 55.924 22.1567H41.0898C40.1489 22.1567 39.3806 21.389 39.3806 20.449C39.3806 19.5089 40.1489 18.7413 41.0898 18.7413ZM61.751 53.7287L58.5713 54.5538C58.3094 55.7095 57.8519 56.7933 57.2361 57.7679L58.9079 60.6227L56.8562 62.6696L54.0016 60.9964C53.0261 61.6116 51.9441 62.0658 50.7845 62.3275L49.9471 65.5273C48.9802 65.5273 48.0134 65.5273 47.0494 65.5244L46.2149 62.3246C45.0581 62.063 43.9761 61.6059 43.0035 60.9935L40.146 62.6667L38.0972 60.6198L39.772 57.765C39.1562 56.7933 38.6986 55.7095 38.4396 54.5509L35.2368 53.7172V50.8222L38.4396 49.9885C38.7015 48.8328 39.159 47.7489 39.772 46.7743L38.0972 43.9196L40.146 41.8727L43.0035 43.5458C43.9761 42.9306 45.061 42.4764 46.2206 42.2148L47.0551 39.015H49.9528L50.7873 42.2148C51.9441 42.4764 53.029 42.9335 54.0045 43.5458L56.8619 41.8727L58.9107 43.9196L57.236 46.7743C57.8518 47.746 58.3064 48.8299 58.5683 49.9885L61.7711 50.825L61.751 53.7287ZM48.5058 52.9668H48.5317V52.9697C49.7202 52.9697 51.0812 53.6395 51.0841 54.7493H51.0812C51.0812 55.2035 50.8222 55.6261 50.3992 55.9452C48.7504 57.1929 45.9361 56.2902 45.9217 54.7435C45.9131 53.8178 44.5088 53.8322 44.5175 54.755C44.5348 56.4397 46.0772 57.6155 47.7289 57.8772L47.7174 58.7828C47.7059 59.7056 49.1101 59.7228 49.1216 58.8L49.1331 57.8973C50.8482 57.6817 52.4884 56.4972 52.4884 54.7493L52.4913 54.7522C52.4855 52.803 50.5029 51.564 48.5346 51.564V51.5668H48.4828V51.564C47.2943 51.564 45.9333 50.8941 45.9275 49.7844H45.9303C45.9303 49.3301 46.1893 48.9075 46.6123 48.5884C48.2612 47.3407 51.0755 48.2434 51.0898 49.7901C51.0985 50.7158 52.5028 50.7015 52.4941 49.7786C52.4768 48.0939 50.9344 46.9181 49.2827 46.6565L49.2942 45.7509C49.3057 44.828 47.9014 44.8108 47.8899 45.7336L47.8784 46.6364C46.1634 46.852 44.5232 48.0364 44.5232 49.7843H44.526C44.5318 51.7335 46.5144 52.9726 48.4827 52.9726V52.9697L48.5058 52.9668ZM57.3914 42.396L61.5697 38.2476C61.7078 38.1125 61.8862 38.0435 62.0646 38.0435V38.0406H65.4861V19.0231C65.4861 16.91 63.7537 15.1793 61.6387 15.1793L35.3723 15.1764C33.2573 15.1764 31.5249 16.9072 31.5249 19.0202V38.0377H34.9464V38.0406C35.1248 38.0406 35.3061 38.1096 35.4413 38.2447L39.6196 42.3932L38.6268 43.385L34.6586 39.4464H31.5249V51.5583H35.237V52.967H31.5249V65.0789H34.6586L38.6268 61.1374L39.6196 62.1293L35.4413 66.2777C35.3032 66.4129 35.1248 66.4818 34.9464 66.4818V66.4847H31.5249V77.5155C31.5249 79.6285 33.2573 81.3592 35.3723 81.3592H61.6357C63.7508 81.3592 65.4831 79.6285 65.4831 77.5155L65.486 66.4612H62.0904V66.4583C61.912 66.4583 61.7307 66.3893 61.5955 66.2542L57.4172 62.1057L58.4129 61.1139L62.381 65.0525H65.4889V52.9781H61.7595L61.771 51.5694H65.4889L65.486 39.4487H62.3523L58.3842 43.3873L57.3914 42.396ZM77.9376 48.7208C76.2111 48.7208 74.7752 49.9484 74.4471 51.5756C74.4241 51.5727 74.4011 51.5727 74.3781 51.5727H66.8936L66.8965 39.4491L71.6301 39.4433C71.9409 40.6593 73.0459 41.5621 74.3609 41.5621C75.9177 41.5621 77.178 40.3 77.178 38.7447C77.178 37.1894 75.9148 35.9273 74.3609 35.9273C73.0458 35.9273 71.9408 36.8272 71.6301 38.0461L66.8965 38.0404V19.0229C66.8965 16.1336 64.5311 13.7705 61.6391 13.7705L35.3727 13.7676C32.4807 13.7676 30.1154 16.1307 30.1154 19.02V38.0375L25.3789 38.0433C25.0681 36.8272 23.9631 35.9245 22.6481 35.9245C21.0913 35.9245 19.8309 37.1865 19.8309 38.7418C19.8309 40.2972 21.0942 41.5592 22.6481 41.5592C23.9632 41.5592 25.0682 40.6593 25.3789 39.4404L30.1154 39.4462V51.5581H22.6191C22.5961 51.5581 22.5731 51.5609 22.5501 51.5609C22.2249 49.9338 20.7861 48.7062 19.0595 48.7062C17.0941 48.7062 15.5 50.2989 15.5 52.2624C15.5 54.2259 17.0942 55.8186 19.0595 55.8186C20.7832 55.8186 22.222 54.591 22.5501 52.9639C22.5731 52.9667 22.5961 52.9667 22.6191 52.9667H30.1154V65.0786L25.3789 65.0844C25.0681 63.8683 23.9631 62.9656 22.6481 62.9656C21.0913 62.9656 19.8281 64.2276 19.8281 65.783C19.8281 67.3383 21.0913 68.5975 22.6481 68.5975C23.9632 68.5975 25.0682 67.6976 25.3789 66.4787L30.1154 66.4844V77.5152C30.1154 80.4045 32.4807 82.7676 35.3727 82.7676H61.6362C64.5282 82.7676 66.8935 80.4045 66.8935 77.5152L66.8964 66.4609L71.6588 66.4551C71.9695 67.6712 73.0745 68.5739 74.3896 68.5739C75.9463 68.5739 77.2096 67.3119 77.2096 65.7594C77.2096 64.2041 75.9463 62.942 74.3896 62.942C73.0745 62.942 71.9695 63.8419 71.6588 65.0608L66.8964 65.0551V52.9807H74.3809C74.4039 52.9807 74.4269 52.9807 74.4499 52.9778C74.7751 54.605 76.2139 55.8326 77.9405 55.8326C79.9059 55.8326 81.5 54.2399 81.5 52.2764C81.4971 50.3099 79.903 48.7208 77.9376 48.7208ZM49.2881 70.9295L49.2939 65.5218H47.8839L47.8896 70.9295C46.6724 71.24 45.7688 72.344 45.7688 73.6578C45.7688 75.2131 47.0321 76.4752 48.5889 76.4752C50.1456 76.4752 51.4089 75.2131 51.4089 73.6578C51.406 72.3439 50.5053 71.24 49.2881 70.9295ZM49.2881 33.2912C50.5053 32.9807 51.4089 31.8767 51.4089 30.5629C51.4089 29.0076 50.1457 27.7484 48.5889 27.7484C47.0321 27.7484 45.7689 29.0105 45.7689 30.5629C45.7689 31.8768 46.6696 32.9807 47.8897 33.2912L47.8839 38.6989C47.8839 38.811 47.9098 38.9174 47.9559 39.0122H49.2191C49.2651 38.9174 49.291 38.811 49.291 38.6989L49.2881 33.2912Z" fill="#262626" stroke="#262626" stroke-width="2" mask="url(#path-1-inside-1_263_204)"/>
</svg>
