<svg width="96" height="96" viewBox="0 0 96 96" fill="none" xmlns="http://www.w3.org/2000/svg">
<path d="M38.5794 50.677V44.1129H58.4218V50.677C58.4218 52.4936 59.9051 53.9737 61.7254 53.9737H63.1296C64.5454 53.9737 65.759 53.0786 66.2251 51.8266C66.6414 52.0138 67.0987 52.1191 67.5853 52.1191H68.9895C70.8099 52.1191 72.2931 50.6418 72.2931 48.8224V44.1128H73.0992C75.1365 44.1128 76.7928 42.4601 76.7928 40.427C76.7928 38.394 75.1366 36.7412 73.0992 36.7412H72.2931V32.0316C72.2931 30.2151 70.8127 28.735 68.9895 28.735H67.5853C67.1016 28.735 66.6414 28.8403 66.2251 29.0275C65.7561 27.7755 64.5454 26.8804 63.1296 26.8804H61.7254C59.905 26.8804 58.4218 28.3576 58.4218 30.177V36.7412H38.5794V30.177C38.5794 28.3605 37.0961 26.8804 35.2757 26.8804H33.8716C32.4557 26.8804 31.2421 27.7755 30.776 29.0275C30.3598 28.8403 29.9024 28.735 29.4159 28.735H28.0117C26.1913 28.735 24.708 30.2122 24.708 32.0316V36.7412H23.9019C21.8646 36.7412 20.2083 38.394 20.2083 40.427C20.2083 42.4601 21.8646 44.1128 23.9019 44.1128H24.708V48.8224C24.708 50.639 26.1884 52.1191 28.0117 52.1191H29.4159C29.8995 52.1191 30.3598 52.0138 30.776 51.8266C31.2451 53.0815 32.4557 53.9737 33.8716 53.9737H35.2757C37.0962 53.9737 38.5794 52.4964 38.5794 50.677ZM73.1026 38.8856C73.9556 38.8856 74.6475 39.5759 74.6475 40.4271C74.6475 41.2754 73.9557 41.9687 73.1026 41.9687H72.2965V38.8885H73.1026V38.8856ZM66.4337 32.0289C66.4337 31.3941 66.9496 30.8793 67.5858 30.8793H68.9899C69.626 30.8793 70.142 31.3941 70.142 32.0289V48.8227C70.142 49.4575 69.6261 49.9723 68.9899 49.9723H67.5858C66.9496 49.9723 66.4337 49.4575 66.4337 48.8227V32.0289ZM60.5709 30.1743C60.5709 29.5395 61.0868 29.0247 61.723 29.0247H63.1271C63.7632 29.0247 64.2792 29.5395 64.2792 30.1743V50.6771C64.2792 51.3119 63.7632 51.8268 63.1271 51.8268H61.723C61.0868 51.8268 60.5709 51.3119 60.5709 50.6771V30.1743ZM58.4221 38.8857V41.966H38.5798V38.8857H58.4221ZM23.8989 41.966C23.0488 41.966 22.3541 41.2756 22.3541 40.4244C22.3541 39.5761 23.0459 38.8828 23.8989 38.8828H24.705V41.963H23.8989V41.966ZM29.4159 49.9719H28.0117C27.3756 49.9719 26.8596 49.4571 26.8596 48.8223V32.0285C26.8596 31.3938 27.3756 30.8789 28.0117 30.8789H29.4159C30.052 30.8789 30.5679 31.3937 30.5679 32.0285V48.8223C30.5679 49.4571 30.052 49.9719 29.4159 49.9719ZM36.4307 50.6769C36.4307 51.3117 35.9148 51.8266 35.2787 51.8266H33.8745C33.2384 51.8266 32.7224 51.3117 32.7224 50.6769V30.1741C32.7224 29.5393 33.2384 29.0245 33.8745 29.0245H35.2787C35.9148 29.0245 36.4307 29.5393 36.4307 30.1741V50.6769ZM77.8753 59.0251H73.9442C74.5188 58.3436 75.067 57.6591 75.5829 56.9716C80.8096 50.0564 83.0933 43.1441 82.3691 36.4246C81.9265 32.3205 80.4168 28.5385 78.0043 25.4846C75.6181 22.4659 72.5167 20.3538 69.0283 19.3768C61.9079 17.3789 54.4855 20.348 48.5 27.5326C42.514 20.3453 35.0949 17.3789 27.9717 19.3768C24.4863 20.3539 21.3849 22.4659 18.9957 25.4846C16.5802 28.5385 15.0705 32.3208 14.6308 36.4246C13.9068 43.1438 16.1903 50.056 21.4171 56.9716C21.9359 57.6561 22.4812 58.3406 23.0557 59.0251H19.1247C18.5326 59.0251 18.0489 59.5049 18.0489 60.0987C18.0489 60.6896 18.5296 61.1722 19.1247 61.1722H24.9552C30.5131 67.1397 38.223 72.9929 47.9547 78.6242C48.1218 78.7208 48.3065 78.7676 48.4941 78.7676C48.6817 78.7676 48.8664 78.7208 49.0335 78.6242C58.7659 72.9932 66.4752 67.1369 72.0329 61.1722H77.8635C78.4556 61.1722 78.9393 60.6925 78.9393 60.0987C78.9393 59.5078 78.4586 59.0251 77.8635 59.0251H77.8753ZM23.1397 55.6787C18.2531 49.214 16.1102 42.8104 16.7756 36.6533C17.5788 29.197 22.2046 23.2264 28.5598 21.4426C29.8086 21.0916 31.072 20.919 32.3354 20.919C37.7262 20.919 43.1492 24.0548 47.6518 29.9052C47.8541 30.1685 48.1707 30.3235 48.5049 30.3235C48.839 30.3235 49.1527 30.1685 49.3579 29.9052C54.9188 22.6829 61.8782 19.5965 68.4498 21.4425C74.8051 23.2268 79.431 29.1946 80.234 36.6531C80.8965 42.8137 78.7565 49.2137 73.8699 55.6785C73.0256 56.7959 72.0993 57.9104 71.0997 59.025H59.5767L58.2341 56.2051C58.0377 55.7956 57.6068 55.5528 57.1553 55.5966C56.7039 55.6434 56.3286 55.9652 56.2202 56.4069L54.9274 61.6225L51.5974 50.5305C51.4537 50.0508 50.9964 49.7349 50.4981 49.7671C49.9998 49.7992 49.5865 50.1707 49.5073 50.6622L46.9247 66.3708L42.4661 54.0028C42.3078 53.564 41.8798 53.2773 41.4137 53.2949C40.9476 53.3124 40.5431 53.6284 40.4171 54.0789L38.4296 61.2163L37.8052 59.6923C37.6411 59.2886 37.2483 59.0253 36.8115 59.0253H25.9151C24.9126 57.9137 23.9892 56.7963 23.1449 55.6788L23.1397 55.6787ZM48.5053 76.4533C40.0043 71.4863 33.1213 66.367 27.947 61.1692H36.0848L37.6238 64.931C37.7967 65.3552 38.2218 65.6243 38.6821 65.5951C39.1423 65.5687 39.5322 65.2528 39.6553 64.8111L41.5812 57.8959L46.2979 70.9806C46.4533 71.4076 46.8578 71.6914 47.3093 71.6914C47.3415 71.6914 47.3738 71.6885 47.4089 71.6855C47.8955 71.6417 48.2913 71.2731 48.3704 70.7904L50.8709 55.591L53.9928 65.9933C54.1306 66.4555 54.5645 66.7685 55.0481 66.7568C55.5318 66.7451 55.948 66.4116 56.0653 65.9407L57.5808 59.8329L57.9238 60.5525C58.1026 60.9269 58.4808 61.1638 58.8941 61.1638H69.0603C63.8864 66.359 57.0038 71.4808 48.502 76.4479L48.5053 76.4533Z" fill="#262626"/>
</svg>
