<svg width="96" height="96" viewBox="0 0 96 96" fill="none" xmlns="http://www.w3.org/2000/svg">
<path fill-rule="evenodd" clip-rule="evenodd" d="M31.3074 52.6664H19.4646C16.9858 52.6664 15.4778 51.1336 14.8399 48.8947C14.5378 47.8382 14.4399 46.6221 14.535 45.35C14.6301 44.1002 14.9071 42.7916 15.3603 41.5222C16.8431 37.3666 20.192 33.589 25.0236 33.589C25.6671 33.589 26.305 33.6423 26.9373 33.7488C27.2675 33.8048 27.592 33.8721 27.911 33.9533C28.616 32.258 29.7715 30.8009 31.2291 29.7249C32.891 28.5004 34.9417 27.7746 37.1603 27.7746C37.4905 27.7746 37.8234 27.7914 38.1591 27.825C38.1535 27.6681 38.1507 27.514 38.1507 27.3654C38.1507 23.93 39.7566 21.1251 42.2131 19.1274C44.8709 16.9669 48.5304 15.7676 52.198 15.7676C55.6896 15.7676 58.8595 17.1658 61.1759 19.4328C63.347 21.5568 64.771 24.4487 65.0117 27.668C66.903 28.3686 68.5313 29.6043 69.7119 31.1932C70.8926 32.7764 71.6284 34.7098 71.7431 36.8059C76.2083 37.0945 79.1682 39.9779 80.514 43.1696C80.9616 44.2344 81.233 45.33 81.317 46.3781C81.4037 47.4485 81.2974 48.4797 80.998 49.3904C80.3573 51.3239 78.8801 52.6605 76.5356 52.6605L64.687 52.6661V53.2518C64.687 53.7982 64.5052 54.3054 64.1918 54.7117C63.8785 55.118 63.4308 55.4179 62.902 55.5524L60.8596 56.0736C60.7757 56.096 60.7058 56.1296 60.6554 56.1773C60.6022 56.2249 60.5603 56.2894 60.5323 56.3678C60.4819 56.5023 60.4204 56.662 60.3448 56.8442C60.2805 56.9983 60.2133 57.1552 60.1406 57.3121C60.1042 57.3906 60.0874 57.4691 60.093 57.5419C60.0958 57.612 60.121 57.6848 60.1658 57.7605L61.2429 59.5791C61.5199 60.0499 61.6234 60.5739 61.5619 61.0811C61.4975 61.5883 61.2681 62.0758 60.882 62.4626L58.7193 64.6314C58.3305 65.0209 57.8436 65.2535 57.3344 65.3179C56.8281 65.3824 56.3021 65.2787 55.832 64.9985L54.0219 63.9197C53.9464 63.8748 53.8708 63.8496 53.8009 63.8468C53.7309 63.844 53.6526 63.8608 53.5743 63.8945C53.4176 63.9673 53.2609 64.0346 53.107 64.099C52.9448 64.1663 52.7853 64.2279 52.6286 64.2868C52.5503 64.3148 52.4859 64.3568 52.4384 64.4101C52.3908 64.4605 52.3572 64.5306 52.3349 64.6146L51.8145 66.663C51.6802 67.1926 51.3808 67.641 50.9751 67.9548C50.5694 68.2715 50.0631 68.4508 49.5175 68.4508H48.9383V74.4194C49.5874 74.5903 50.1665 74.9294 50.6254 75.3918C51.2997 76.0671 51.7165 77.0002 51.7165 78.0314C51.7165 79.0626 51.2996 79.9957 50.6254 80.6711C49.9512 81.3464 49.0195 81.7639 47.9899 81.7639C46.9603 81.7639 46.0286 81.3463 45.3544 80.6711C44.6801 79.9957 44.2633 79.0626 44.2633 78.0314C44.2633 77.0002 44.6802 76.0671 45.3544 75.3918C45.8132 74.9322 46.3923 74.5903 47.0415 74.4194V68.4508H46.4623C45.9168 68.4508 45.4103 68.2687 45.0047 67.9548C44.599 67.6382 44.2996 67.1926 44.1653 66.663L43.6449 64.6146C43.6225 64.5306 43.589 64.4605 43.5414 64.4101C43.4939 64.3596 43.4295 64.3176 43.3484 64.2868C43.2141 64.2363 43.0574 64.1747 42.8728 64.099C42.7189 64.0346 42.5622 63.9673 42.4055 63.8945C42.3272 63.858 42.2517 63.8412 42.1789 63.8468C42.109 63.8496 42.0362 63.8748 41.9579 63.9197L40.1478 64.9985C39.6777 65.2787 39.1518 65.3824 38.6453 65.3179C38.1361 65.2535 37.6493 65.0209 37.2604 64.6314L35.0978 62.4626C34.7117 62.0759 34.4823 61.5911 34.4179 61.0811C34.3536 60.5739 34.4571 60.0499 34.7369 59.5791L35.814 57.7577C35.8588 57.682 35.8839 57.6064 35.8867 57.5391C35.8895 57.4663 35.8756 57.3878 35.8392 57.3093C35.7664 57.1496 35.6965 56.9927 35.6349 56.8386C35.5594 56.6536 35.4951 56.4967 35.4475 56.3622C35.4195 56.2837 35.3748 56.2193 35.3244 56.1717C35.274 56.124 35.2041 56.0904 35.1201 56.068L33.0778 55.5468C32.549 55.4123 32.1013 55.1096 31.788 54.7061C31.4718 54.2998 31.2928 53.7926 31.2928 53.2462L31.304 52.6661L31.3074 52.6664ZM47.9963 76.1991C47.4899 76.1991 47.0338 76.4037 46.7009 76.7371C46.3708 77.0678 46.1637 77.5274 46.1637 78.0345C46.1637 78.5417 46.368 78.9985 46.7009 79.332C47.031 79.6626 47.4899 79.87 47.9963 79.87C48.5026 79.87 48.9587 79.6654 49.2916 79.332C49.6218 79.0013 49.8288 78.5417 49.8288 78.0345C49.8288 77.5274 49.6246 77.0678 49.2916 76.7371C48.9587 76.4065 48.5026 76.1991 47.9963 76.1991ZM30.4372 74.3021C29.4077 74.3021 28.476 74.7196 27.8017 75.3949C27.1275 76.0702 26.7106 77.0034 26.7106 78.0345C26.7106 79.0657 27.1275 79.9989 27.8017 80.6742C28.476 81.3495 29.4077 81.767 30.4372 81.767C31.4668 81.767 32.3985 81.3495 33.0727 80.6742C33.5316 80.2146 33.8729 79.6346 34.0436 78.9845H39.8797C40.4029 78.9845 40.8281 78.5585 40.8281 78.0345L40.8253 68.2491C40.8253 67.7251 40.4001 67.2992 39.8769 67.2992C39.3537 67.2992 38.9285 67.7252 38.9285 68.2491V77.0841H34.0408C33.8701 76.434 33.5316 75.8539 33.0699 75.3943C32.3985 74.719 31.4668 74.3021 30.4372 74.3021ZM31.7326 76.7371C31.4025 76.4065 30.9436 76.1991 30.4372 76.1991C29.9308 76.1991 29.472 76.4037 29.1419 76.7371C28.8117 77.0678 28.6047 77.5274 28.6047 78.0345C28.6047 78.5417 28.8089 78.9985 29.1419 79.332C29.472 79.6626 29.9309 79.87 30.4372 79.87C30.9436 79.87 31.4025 79.6654 31.7326 79.332C32.0627 79.0013 32.2698 78.5417 32.2698 78.0345C32.2698 77.5274 32.0627 77.0678 31.7326 76.7371ZM65.555 76.1991C65.0486 76.1991 64.5926 76.4037 64.2596 76.7371C63.9295 77.0678 63.7225 77.5274 63.7225 78.0345C63.7225 78.5417 63.9267 78.9985 64.2596 79.332C64.5898 79.6626 65.0486 79.87 65.555 79.87C66.0614 79.87 66.5175 79.6654 66.8504 79.332C67.1805 79.0013 67.3876 78.5417 67.3876 78.0345C67.3876 77.5274 67.1833 77.0678 66.8504 76.7371C66.5175 76.4065 66.0614 76.1991 65.555 76.1991ZM62.9223 75.3949C62.4635 75.8545 62.1221 76.4345 61.9515 77.0846H57.0638V68.2497C57.0638 67.7257 56.6413 67.2998 56.1154 67.2998C55.5922 67.2998 55.1669 67.7257 55.1669 68.2497V78.0351C55.1669 78.5591 55.5894 78.985 56.1154 78.985H61.9515C62.1221 79.6323 62.4607 80.2152 62.9223 80.6748C63.5966 81.3501 64.5282 81.7676 65.5578 81.7676C66.5874 81.7676 67.5191 81.3501 68.1933 80.6748C68.8676 79.9994 69.2844 79.0663 69.2844 78.0351C69.2844 77.0039 68.8675 76.0708 68.1933 75.3955C67.519 74.7202 66.5874 74.3027 65.5578 74.3027C64.5254 74.3027 63.5938 74.7196 62.9223 75.3949ZM72.3085 63.6454C71.8021 63.6454 71.3432 63.8499 71.0131 64.1834C70.683 64.5141 70.4759 64.9736 70.4759 65.4808C70.4759 65.988 70.6802 66.4448 71.0131 66.7782C71.3432 67.1089 71.8021 67.3162 72.3085 67.3162C72.8148 67.3162 73.2709 67.1117 73.6038 66.7782C73.934 66.4476 74.141 65.988 74.141 65.4808C74.141 64.9736 73.9368 64.514 73.6038 64.1834C73.2709 63.8499 72.812 63.6454 72.3085 63.6454ZM69.673 62.8412C69.2141 63.3007 68.8728 63.8808 68.7021 64.5309H60.8516C60.3284 64.5309 59.9031 64.954 59.9031 65.4808C59.9031 66.0048 60.3256 66.4307 60.8516 66.4307H68.7021C68.8728 67.078 69.2113 67.6608 69.673 68.1205C70.3472 68.7958 71.2789 69.2133 72.3085 69.2133C73.338 69.2133 74.2697 68.7957 74.944 68.1205C75.6182 67.4451 76.0351 66.512 76.0351 65.4808C76.0351 64.4496 75.6182 63.5165 74.944 62.8412C74.2697 62.1658 73.338 61.7484 72.3085 61.7484C71.2789 61.7455 70.3472 62.1659 69.673 62.8412ZM76.3652 55.7685C75.8589 55.7685 75.4028 55.9731 75.0699 56.3065C74.7397 56.6372 74.5327 57.0968 74.5327 57.6039C74.5327 58.1111 74.737 58.5707 75.0699 58.9013C75.4 59.232 75.8589 59.4393 76.3652 59.4393C76.8716 59.4393 77.3277 59.2348 77.6606 58.9013C77.9908 58.5707 78.1978 58.1111 78.1978 57.6039C78.1978 57.0967 77.9936 56.6371 77.6606 56.3065C77.3305 55.9731 76.8716 55.7685 76.3652 55.7685ZM73.7325 54.9643C73.2737 55.4238 72.9324 56.0039 72.7617 56.654H64.9111C64.3879 56.654 63.9627 57.0771 63.9627 57.6039C63.9627 58.1279 64.388 58.5538 64.9111 58.5538H72.7617C72.9324 59.2011 73.2709 59.784 73.7325 60.2436C74.4068 60.9189 75.3385 61.3364 76.368 61.3364C77.3976 61.3364 78.3293 60.9189 79.0035 60.2436C79.6778 59.5682 80.0947 58.6351 80.0947 57.6039C80.0947 56.5727 79.6778 55.6396 79.0035 54.9643C78.3293 54.289 77.3976 53.8715 76.368 53.8715C75.3385 53.8715 74.4068 54.289 73.7325 54.9643ZM23.6861 61.7455C22.6566 61.7455 21.7249 62.163 21.0506 62.8383C20.3764 63.5136 19.9595 64.4467 19.9595 65.4779C19.9595 66.5091 20.3764 67.4423 21.0506 68.1176C21.7249 68.7929 22.6566 69.2104 23.6861 69.2104C24.7157 69.2104 25.6474 68.7929 26.3216 68.1176C26.7805 67.658 27.1218 67.078 27.2925 66.4279H35.1431C35.6662 66.4279 36.0915 66.0019 36.0915 65.4779C36.0915 64.9539 35.669 64.528 35.1431 64.528L27.2896 64.5308C27.119 63.8807 26.7804 63.3007 26.3188 62.8411C25.6445 62.1658 24.7129 61.7455 23.6861 61.7455ZM24.9815 64.1805C24.6514 63.8499 24.1925 63.6425 23.6861 63.6425C23.1797 63.6425 22.7237 63.8471 22.3908 64.1805C22.0606 64.5112 21.8536 64.9708 21.8536 65.4779C21.8536 65.9851 22.0578 66.4419 22.3908 66.7753C22.7209 67.106 23.1798 67.3134 23.6861 67.3134C24.1925 67.3134 24.6514 67.1088 24.9815 66.7753C25.3117 66.4447 25.5187 65.9851 25.5187 65.4779C25.5159 64.9708 25.3117 64.514 24.9815 64.1805ZM19.6266 53.8715C18.597 53.8715 17.6653 54.289 16.9911 54.9643C16.3168 55.6396 15.9 56.5727 15.9 57.6039C15.9 58.6351 16.3168 59.5682 16.9911 60.2436C17.6653 60.9189 18.597 61.3364 19.6266 61.3364C20.6561 61.3364 21.5878 60.9189 22.2621 60.2436C22.7209 59.784 23.0622 59.204 23.2329 58.5538H31.0835C31.6067 58.5538 32.0319 58.1279 32.0319 57.6039C32.0319 57.0799 31.6067 56.654 31.0835 56.654H23.23C23.0594 56.0039 22.7209 55.4239 22.2592 54.9643C21.5849 54.289 20.6533 53.8715 19.6266 53.8715ZM20.9219 56.3037C20.5918 55.9731 20.1329 55.7657 19.6266 55.7657C19.1202 55.7657 18.6641 55.9703 18.3312 56.3037C18.0011 56.6344 17.794 57.094 17.794 57.6011C17.794 58.1083 17.9983 58.5679 18.3312 58.8985C18.6613 59.2292 19.1202 59.4365 19.6266 59.4365C20.133 59.4365 20.5918 59.232 20.9219 58.8985C21.2521 58.5679 21.4591 58.1083 21.4591 57.6011C21.4563 57.0939 21.2521 56.6371 20.9219 56.3037ZM50.9784 54.6281C50.9532 54.6028 50.9281 54.5776 50.9029 54.5524C50.0915 53.7594 49.0451 53.3643 47.996 53.3643C46.9469 53.3643 45.9005 53.7622 45.0919 54.5553L45.0164 54.6309C44.6527 55.0064 44.6611 55.6033 45.036 55.9676C45.4109 56.3318 46.0068 56.3234 46.3705 55.948L46.4097 55.9087C46.8573 55.4716 47.4281 55.253 47.996 55.253C48.5667 55.253 49.1375 55.4716 49.5851 55.9059L49.6243 55.9452C49.988 56.3207 50.5868 56.3291 50.9589 55.9648C51.3366 55.6005 51.3421 55.0007 50.9784 54.6281ZM52.783 52.3275C52.7438 52.2883 52.7046 52.249 52.6655 52.2098C51.3617 50.9349 49.6774 50.2987 47.996 50.3015C46.3117 50.3043 44.6303 50.9432 43.3266 52.2182L43.321 52.2238C43.2818 52.263 43.2426 52.2995 43.2063 52.3387C42.8426 52.7142 42.8509 53.3111 43.2258 53.6754C43.6007 54.0396 44.1967 54.0312 44.5604 53.6557C44.5884 53.6277 44.6135 53.6025 44.6415 53.5745L44.6443 53.5717C45.5844 52.6497 46.7902 52.1902 47.9961 52.1902C49.2019 52.1902 50.4077 52.6469 51.3506 53.5661C51.3786 53.5941 51.4093 53.6249 51.4373 53.6529C51.8038 54.0256 52.4026 54.0312 52.7719 53.6642C53.144 53.2971 53.1495 52.7002 52.783 52.3275ZM54.5931 49.9933L54.428 49.8336C52.6291 48.0767 50.3125 47.1995 47.9931 47.2023C45.6738 47.2051 43.3572 48.085 41.5611 49.842C41.5051 49.8952 41.4519 49.9513 41.396 50.0073C41.0323 50.3828 41.0407 50.9797 41.4156 51.344C41.7905 51.7082 42.3864 51.6998 42.7501 51.3243C42.7921 51.2823 42.8341 51.2375 42.876 51.1954C44.3085 49.7916 46.1494 49.091 47.9903 49.0882C49.8312 49.0854 51.6749 49.786 53.1074 51.187L53.2361 51.3187C53.6026 51.6942 54.2014 51.6998 54.5762 51.3328C54.9539 50.9685 54.9596 50.3688 54.5931 49.9933ZM47.996 43.6184C45.7634 43.6184 43.7462 44.5235 42.2857 45.9863C40.8253 47.4518 39.9216 49.4778 39.9216 51.7167C39.9216 53.9556 40.8253 55.9816 42.2857 57.4471C43.7462 58.9099 45.7634 59.8149 47.996 59.8149C50.2286 59.8149 52.2458 58.9099 53.7062 57.4471C55.1667 55.9816 56.0704 53.9556 56.0704 51.7167C56.0704 49.4778 55.1667 47.4518 53.7062 45.9863C52.2458 44.5235 50.2286 43.6184 47.996 43.6184ZM40.9484 44.6524C39.1439 46.4626 38.0276 48.9593 38.0276 51.7167C38.0276 54.474 39.1439 56.9707 40.9484 58.781C42.753 60.5911 45.2458 61.712 47.996 61.712C50.7462 61.712 53.239 60.5911 55.0435 58.781C56.8481 56.9708 57.9616 54.474 57.9616 51.7167C57.9616 48.9593 56.8453 46.4627 55.0435 44.6524C53.2362 42.8422 50.7462 41.7214 47.996 41.7214C45.2458 41.7214 42.753 42.8422 40.9484 44.6524ZM64.6878 50.7695H76.5306C77.9351 50.7695 78.8192 49.9653 79.2025 48.8024C79.4207 48.1439 79.4935 47.3649 79.4263 46.5326C79.3564 45.6751 79.1382 44.7785 78.7717 43.9098C77.6134 41.1581 74.9835 38.6838 70.9941 38.6838C70.7423 38.6838 71.1144 38.6782 70.9046 38.681H70.8459C70.8207 38.6838 70.7927 38.6838 70.7647 38.681C70.2444 38.6613 69.8359 38.2242 69.8555 37.703C69.8583 37.6301 69.8611 37.5769 69.8611 37.5405C69.8639 37.4676 69.8583 37.5601 69.8583 37.3751C69.8583 35.4837 69.2372 33.7351 68.1908 32.3284C67.1137 30.8825 65.5917 29.7953 63.8291 29.2713C63.4431 29.1592 63.1605 28.8061 63.1521 28.383C63.0821 25.4099 61.8315 22.7282 59.8535 20.792C57.8783 18.8585 55.1757 17.6675 52.1935 17.6675C48.9424 17.6675 45.7194 18.7127 43.4003 20.5986C41.3692 22.249 40.0402 24.558 40.0402 27.3686C40.0402 27.6348 40.0486 27.8814 40.0626 28.1055C40.0794 28.3437 40.099 28.5707 40.1269 28.7864C40.1493 28.9097 40.1465 29.0386 40.1186 29.1675C40.001 29.6775 39.4947 29.9941 38.9855 29.8793C38.6917 29.812 38.3896 29.7588 38.0818 29.7252C37.788 29.6915 37.4775 29.6747 37.1557 29.6747C35.3512 29.6747 33.6893 30.2604 32.3407 31.2523C30.9726 32.2611 29.9347 33.6846 29.4087 35.3379C29.4031 35.3659 29.3947 35.3939 29.3835 35.4219C29.2128 35.9179 28.6756 36.1813 28.1804 36.0104C27.6712 35.8366 27.1536 35.7021 26.6276 35.6153C26.1129 35.5284 25.5757 35.4864 25.0161 35.4864C21.1272 35.4864 18.3827 38.664 17.1348 42.1611C16.7375 43.2736 16.4941 44.4112 16.413 45.4901C16.3346 46.5437 16.4102 47.5357 16.6508 48.3763C17.0564 49.797 17.9741 50.7693 19.4569 50.7693H31.2998V50.1836C31.2998 49.6372 31.4816 49.13 31.795 48.7237C32.1083 48.3174 32.556 48.0175 33.0848 47.883L35.1271 47.3618C35.2111 47.3394 35.2782 47.3058 35.3314 47.2581C35.3845 47.2105 35.4265 47.146 35.4545 47.0676C35.5049 46.9331 35.5664 46.7734 35.6419 46.5912C35.7063 46.4371 35.7734 46.2802 35.8462 46.1233C35.8826 46.0448 35.8993 45.9663 35.8937 45.8935C35.8909 45.8234 35.8658 45.7506 35.821 45.6749L34.7439 43.8535C34.4669 43.3827 34.3634 42.8587 34.4249 42.3515C34.4893 41.8415 34.7187 41.3567 35.1048 40.97L37.2674 38.8012C37.6563 38.4117 38.1432 38.1791 38.6523 38.1146C39.1587 38.0502 39.6847 38.1539 40.1548 38.4341L41.9649 39.5129C42.0404 39.5578 42.116 39.583 42.1831 39.5858C42.2531 39.5886 42.3314 39.5718 42.4097 39.5381C42.5664 39.4653 42.7231 39.398 42.877 39.3336C43.0392 39.2663 43.1987 39.2047 43.3526 39.1458C43.4309 39.1178 43.4953 39.0758 43.5428 39.0225C43.5904 38.9721 43.624 38.902 43.6463 38.818L44.1667 36.7696C44.301 36.24 44.6004 35.7916 45.0061 35.4778C45.4117 35.1611 45.9181 34.9818 46.4637 34.9818H49.5189C50.0644 34.9818 50.5709 35.1639 50.9765 35.4778C51.3822 35.7944 51.6816 36.2399 51.8159 36.7696L52.3363 38.818C52.3587 38.902 52.3922 38.9721 52.4398 39.0225C52.4873 39.0758 52.5517 39.1178 52.63 39.1458C52.7867 39.2047 52.9462 39.2663 53.1056 39.3336C53.2595 39.398 53.4162 39.4653 53.5729 39.5381C53.6512 39.5746 53.7267 39.5914 53.7995 39.5858C53.8694 39.583 53.9422 39.5577 54.0177 39.5129L55.8278 38.4341C56.2979 38.1539 56.821 38.0502 57.3303 38.1146C57.8395 38.1791 58.3263 38.4117 58.7152 38.8012L60.8778 40.97C61.2639 41.3567 61.4933 41.8415 61.5577 42.3515C61.622 42.8587 61.5185 43.3827 61.2387 43.8535L60.1616 45.6749C60.1168 45.7506 60.0917 45.8234 60.0889 45.8935C60.0861 45.9663 60.1029 46.0448 60.1364 46.1233C60.2092 46.283 60.2763 46.4399 60.3407 46.594C60.4162 46.779 60.4805 46.9359 60.5281 47.0704C60.5561 47.1489 60.6008 47.2133 60.6512 47.2609C60.7016 47.3086 60.7715 47.3422 60.8555 47.3646L62.8979 47.8858C63.4266 48.0203 63.8743 48.323 64.1876 48.7265C64.5038 49.1328 64.6828 49.64 64.6828 50.1864L64.6878 50.7695ZM46.0072 37.2352L45.4868 39.2836C45.3889 39.6675 45.2098 40.0066 44.9552 40.2895C44.7034 40.5698 44.3845 40.7855 44.0096 40.9256C43.8697 40.9761 43.7354 41.0293 43.6067 41.0854C43.4696 41.1414 43.3353 41.2003 43.2066 41.2619C42.8457 41.4272 42.468 41.5001 42.0931 41.4805C41.7154 41.4609 41.3461 41.3488 41.0076 41.147L39.1975 40.0682C39.0995 40.0093 38.9904 39.9869 38.8897 40.0009C38.789 40.0149 38.6939 40.0598 38.6155 40.1382L36.4529 42.3071C36.3717 42.3883 36.327 42.4836 36.313 42.5845C36.299 42.6882 36.3214 42.7947 36.3801 42.8927L37.4573 44.7142C37.6587 45.0532 37.7678 45.4231 37.7902 45.7986C37.8098 46.1741 37.737 46.5496 37.572 46.9111C37.5132 47.04 37.4545 47.1745 37.3957 47.3146C37.351 47.4239 37.2978 47.5584 37.2362 47.7237C37.0991 48.0992 36.8837 48.4158 36.6011 48.6708C36.3186 48.923 35.98 49.1051 35.5968 49.2032L33.5544 49.7244C33.4453 49.7524 33.3557 49.8113 33.2942 49.8897C33.2326 49.9682 33.1991 50.0719 33.1991 50.184L33.2019 53.2523C33.2019 53.3672 33.2382 53.4681 33.297 53.5465C33.3585 53.625 33.4481 53.6866 33.5572 53.7119L35.5996 54.2331C35.9829 54.3311 36.3214 54.5133 36.6039 54.7655C36.8837 55.0177 37.0991 55.3371 37.239 55.7126C37.3006 55.8779 37.3537 56.0124 37.3985 56.1217C37.4573 56.2618 37.516 56.3963 37.5748 56.5252C37.7398 56.8867 37.8126 57.2622 37.793 57.6377C37.7734 58.016 37.6615 58.3831 37.4601 58.7249L36.3829 60.5463C36.3242 60.6444 36.3046 60.7509 36.3158 60.8546C36.3298 60.9554 36.3745 61.0535 36.4557 61.132L38.6183 63.3008C38.6967 63.3793 38.7918 63.4241 38.8925 63.4381C38.996 63.4521 39.1023 63.4297 39.2003 63.3709L41.0104 62.2921C41.3489 62.0903 41.7182 61.9782 42.0959 61.9586C42.4736 61.939 42.8513 62.0119 43.2094 62.1772C43.3381 62.236 43.4724 62.2949 43.6095 62.3509C43.7186 62.3957 43.8529 62.449 44.018 62.5106C44.3873 62.6479 44.7062 62.8637 44.958 63.1467C45.2098 63.4297 45.3917 63.7688 45.4896 64.1527L46.01 66.2011C46.0379 66.3104 46.0967 66.4 46.175 66.4617C46.2534 66.5233 46.3569 66.5569 46.4688 66.5569H49.5239C49.6387 66.5569 49.7394 66.5205 49.8177 66.4617C49.896 66.4 49.9576 66.3104 49.9828 66.2011L50.5032 64.1527C50.6011 63.7688 50.7801 63.4297 51.0347 63.1467C51.2865 62.8665 51.6055 62.6507 51.9804 62.5106C52.1203 62.4602 52.2546 62.407 52.3833 62.3509C52.5203 62.2921 52.6546 62.236 52.7833 62.1744C53.1442 62.0091 53.5191 61.9362 53.8969 61.9558C54.2745 61.9754 54.6439 62.0875 54.9824 62.2893L56.7925 63.3681C56.8904 63.4269 56.9995 63.4494 57.1002 63.4353C57.201 63.4213 57.2961 63.3765 57.3744 63.298L59.5371 61.1292C59.6182 61.0479 59.663 60.9527 59.677 60.8518C59.6909 60.7481 59.6686 60.6416 59.6098 60.5435L58.5327 58.7221C58.3312 58.383 58.2221 58.0132 58.1997 57.6349C58.1802 57.2594 58.2529 56.8839 58.418 56.5224C58.4767 56.3935 58.5355 56.259 58.5942 56.1189C58.639 56.0096 58.6922 55.8751 58.7537 55.7098C58.8908 55.3343 59.1062 55.0177 59.3888 54.7627C59.6686 54.5105 60.0099 54.3283 60.3932 54.2303L62.4356 53.7091C62.5447 53.681 62.6342 53.6222 62.6957 53.5437C62.7573 53.4653 62.7909 53.3616 62.7909 53.2495V50.1812C62.7909 50.0663 62.7545 49.9654 62.6957 49.8869C62.6342 49.8085 62.5447 49.7468 62.4356 49.7216L60.3932 49.2004C60.0099 49.1023 59.6714 48.9202 59.3888 48.668C59.109 48.4158 58.8936 48.0964 58.7537 47.7209C58.6922 47.5556 58.639 47.4211 58.5942 47.3118C58.5355 47.1717 58.4767 47.0372 58.418 46.9083C58.2529 46.5468 58.1802 46.1713 58.1997 45.7958C58.2193 45.4175 58.3312 45.0504 58.5327 44.7086L59.6098 42.8871C59.6686 42.7891 59.6882 42.6826 59.677 42.5789C59.663 42.478 59.6182 42.3828 59.5371 42.3015L57.3744 40.1327C57.2961 40.0542 57.201 40.0094 57.1002 39.9953C56.9967 39.9813 56.8904 40.0037 56.7925 40.0626L54.9824 41.1414C54.6438 41.3432 54.2745 41.4553 53.8969 41.4749C53.5192 41.4945 53.1414 41.4216 52.7833 41.2563C52.6546 41.1975 52.5203 41.1386 52.3833 41.0798C52.2546 41.0265 52.1203 40.9733 51.9804 40.9228C51.6055 40.7827 51.2893 40.567 51.0347 40.2868C50.7829 40.0037 50.6011 39.6647 50.5032 39.2808L49.9828 37.2324C49.9548 37.1231 49.8961 37.0335 49.8177 36.9718C49.7394 36.9102 49.6359 36.8765 49.5239 36.8765H46.4688C46.3541 36.8765 46.2534 36.913 46.175 36.9718C46.0939 37.0363 46.0351 37.1259 46.0072 37.2352ZM56.5995 21.1141C55.8385 20.6378 55.0132 20.2651 54.1458 20.0157C53.2981 19.772 52.4056 19.6431 51.4852 19.6431C49.4764 19.6431 47.6102 20.2595 46.0603 21.3159C44.4711 22.4003 43.2206 23.9472 42.5044 25.7685C42.3141 26.2561 42.5547 26.8053 43.0416 26.9958C43.5284 27.1864 44.0767 26.9454 44.2669 26.4578C44.8433 24.9979 45.8477 23.7538 47.1291 22.8795C48.3685 22.036 49.8681 21.54 51.4879 21.54C52.2322 21.54 52.9512 21.6437 53.631 21.8398C54.3417 22.0444 55.0048 22.3414 55.6035 22.717C56.0455 22.9944 56.6275 22.8599 56.9016 22.4171C57.1758 21.9716 57.0415 21.3887 56.5995 21.1141Z" fill="#262626"/>
</svg>
