<svg width="96" height="96" viewBox="0 0 96 96" fill="none" xmlns="http://www.w3.org/2000/svg">
<path fill-rule="evenodd" clip-rule="evenodd" d="M17.0746 27.6341C17.0746 26.0493 18.3526 24.7676 19.9288 24.7676H59.9286C61.5049 24.7676 62.7865 26.0494 62.7865 27.6341V33.3636H73.6175C76.7074 33.3636 79.558 35.0333 81.079 37.7299L86.4633 47.2898C87.7966 49.654 88.5 52.3247 88.5 55.0435V59.8717C88.5 63.0375 85.9404 65.6049 82.7842 65.6049H81.3258C80.9648 69.6203 77.5987 72.7676 73.4996 72.7676C69.4006 72.7676 66.0345 69.6203 65.6735 65.6049H41.3263C40.9654 69.6203 37.5993 72.7676 33.5002 72.7676C29.4011 72.7676 26.0387 69.6203 25.6778 65.6049H19.9288C18.3525 65.6049 17.0746 64.3193 17.0746 62.7383V57.0052H9.92987C9.14174 57.0052 8.50094 56.3661 8.50094 55.5719C8.50094 54.7814 9.14176 54.1423 9.92987 54.1423H21.3577C22.1495 54.1423 22.7866 54.7814 22.7866 55.5719C22.7866 56.3661 22.1495 57.0052 21.3577 57.0052H19.9288V62.7383H25.9392C26.8747 59.4285 29.9056 57.0052 33.5001 57.0052C37.0983 57.0052 40.1292 59.4285 41.061 62.7383H59.9286V27.6339H19.9288V29.7838C19.9288 30.5743 19.2917 31.2171 18.5035 31.2171C17.7117 31.2171 17.0746 30.5743 17.0746 29.7838V27.6341ZM62.786 62.7385H65.9386C66.8703 59.4286 69.9013 57.0054 73.4995 57.0054C77.0939 57.0054 80.1249 59.4286 81.0603 62.7385H82.7839C84.3639 62.7385 85.6418 61.4566 85.6418 59.872V55.0438C85.6418 54.1757 85.5534 53.3114 85.3803 52.469L72.6485 48.4056C70.6451 47.7665 69.1535 46.0709 68.7668 43.9985L67.312 36.23H62.7858L62.786 62.7385ZM70.2217 36.2303L71.5733 43.4706C71.7685 44.5086 72.5124 45.3545 73.5142 45.6722L84.183 49.0781C84.1168 48.9525 84.0468 48.8232 83.9768 48.6977L78.5925 39.1416C77.576 37.3427 75.6756 36.2307 73.617 36.2307L70.2217 36.2303ZM8.50038 34.0804C8.50038 33.2899 9.1412 32.6471 9.92931 32.6471H39.9296C40.7178 32.6471 41.3586 33.2899 41.3586 34.0804C41.3586 34.8709 40.7177 35.5137 39.9296 35.5137H19.9278V40.5302C19.9278 41.3207 19.2907 41.9634 18.5026 41.9634C17.7108 41.9634 17.0737 41.3207 17.0737 40.5302V35.5137H9.92893C9.14079 35.5137 8.50038 34.8709 8.50038 34.0804ZM8.50038 44.8261C8.50038 44.0356 9.1412 43.3928 9.92931 43.3928H30.6458C31.4339 43.3928 32.071 44.0356 32.071 44.8261C32.071 45.6203 31.4339 46.2594 30.6458 46.2594H19.9288V51.2759C19.9288 52.0664 19.2917 52.7092 18.5035 52.7092C17.7117 52.7092 17.0746 52.0664 17.0746 51.2759V46.2594H9.92987C9.14174 46.2594 8.50038 45.6203 8.50038 44.8261ZM33.5 59.8718C30.9293 59.8718 28.808 61.8222 28.5319 64.3268C28.5135 64.5115 28.5024 64.6962 28.5024 64.8883C28.5024 67.6551 30.7416 69.9011 33.5001 69.9011C36.2622 69.9011 38.5014 67.6551 38.5014 64.8883C38.5014 64.6962 38.4904 64.5115 38.472 64.3268C38.1957 61.8222 36.0743 59.8718 33.5 59.8718ZM73.4998 59.8718C70.9255 59.8718 68.8078 61.8222 68.5317 64.3268C68.5096 64.5115 68.4985 64.6962 68.4985 64.8883C68.4985 67.6551 70.7377 69.9011 73.4999 69.9011C76.262 69.9011 78.4975 67.6551 78.4975 64.8883C78.4975 64.6962 78.4902 64.5115 78.4681 64.3268C78.1919 61.8222 76.0704 59.8718 73.4998 59.8718Z" fill="#262626"/>
</svg>
